G04 Layer_Physical_Order=2*
G04 Layer_Color=16711680*
%FSLAX24Y24*%
%MOIN*%
G70*
G01*
G75*
G04:AMPARAMS|DCode=10|XSize=70mil|YSize=94mil|CornerRadius=0.7mil|HoleSize=0mil|Usage=FLASHONLY|Rotation=0.000|XOffset=0mil|YOffset=0mil|HoleType=Round|Shape=RoundedRectangle|*
%AMROUNDEDRECTD10*
21,1,0.0700,0.0926,0,0,0.0*
21,1,0.0686,0.0940,0,0,0.0*
1,1,0.0014,0.0343,-0.0463*
1,1,0.0014,-0.0343,-0.0463*
1,1,0.0014,-0.0343,0.0463*
1,1,0.0014,0.0343,0.0463*
%
%ADD10ROUNDEDRECTD10*%
G04:AMPARAMS|DCode=12|XSize=32mil|YSize=35mil|CornerRadius=0.3mil|HoleSize=0mil|Usage=FLASHONLY|Rotation=0.000|XOffset=0mil|YOffset=0mil|HoleType=Round|Shape=RoundedRectangle|*
%AMROUNDEDRECTD12*
21,1,0.0320,0.0344,0,0,0.0*
21,1,0.0314,0.0350,0,0,0.0*
1,1,0.0006,0.0157,-0.0172*
1,1,0.0006,-0.0157,-0.0172*
1,1,0.0006,-0.0157,0.0172*
1,1,0.0006,0.0157,0.0172*
%
%ADD12ROUNDEDRECTD12*%
G04:AMPARAMS|DCode=15|XSize=48mil|YSize=60mil|CornerRadius=0.5mil|HoleSize=0mil|Usage=FLASHONLY|Rotation=90.000|XOffset=0mil|YOffset=0mil|HoleType=Round|Shape=RoundedRectangle|*
%AMROUNDEDRECTD15*
21,1,0.0480,0.0590,0,0,90.0*
21,1,0.0470,0.0600,0,0,90.0*
1,1,0.0010,0.0295,0.0235*
1,1,0.0010,0.0295,-0.0235*
1,1,0.0010,-0.0295,-0.0235*
1,1,0.0010,-0.0295,0.0235*
%
%ADD15ROUNDEDRECTD15*%
G04:AMPARAMS|DCode=16|XSize=48mil|YSize=60mil|CornerRadius=0.5mil|HoleSize=0mil|Usage=FLASHONLY|Rotation=180.000|XOffset=0mil|YOffset=0mil|HoleType=Round|Shape=RoundedRectangle|*
%AMROUNDEDRECTD16*
21,1,0.0480,0.0590,0,0,180.0*
21,1,0.0470,0.0600,0,0,180.0*
1,1,0.0010,-0.0235,0.0295*
1,1,0.0010,0.0235,0.0295*
1,1,0.0010,0.0235,-0.0295*
1,1,0.0010,-0.0235,-0.0295*
%
%ADD16ROUNDEDRECTD16*%
G04:AMPARAMS|DCode=17|XSize=32mil|YSize=35mil|CornerRadius=0.3mil|HoleSize=0mil|Usage=FLASHONLY|Rotation=270.000|XOffset=0mil|YOffset=0mil|HoleType=Round|Shape=RoundedRectangle|*
%AMROUNDEDRECTD17*
21,1,0.0320,0.0344,0,0,270.0*
21,1,0.0314,0.0350,0,0,270.0*
1,1,0.0006,-0.0172,-0.0157*
1,1,0.0006,-0.0172,0.0157*
1,1,0.0006,0.0172,0.0157*
1,1,0.0006,0.0172,-0.0157*
%
%ADD17ROUNDEDRECTD17*%
%ADD21C,0.0087*%
%ADD22C,0.0118*%
%ADD23C,0.0197*%
%ADD24C,0.0157*%
%ADD25C,0.1181*%
G04:AMPARAMS|DCode=26|XSize=118.1mil|YSize=118.1mil|CornerRadius=14.8mil|HoleSize=0mil|Usage=FLASHONLY|Rotation=270.000|XOffset=0mil|YOffset=0mil|HoleType=Round|Shape=RoundedRectangle|*
%AMROUNDEDRECTD26*
21,1,0.1181,0.0886,0,0,270.0*
21,1,0.0886,0.1181,0,0,270.0*
1,1,0.0295,-0.0443,-0.0443*
1,1,0.0295,-0.0443,0.0443*
1,1,0.0295,0.0443,0.0443*
1,1,0.0295,0.0443,-0.0443*
%
%ADD26ROUNDEDRECTD26*%
G04:AMPARAMS|DCode=27|XSize=70.9mil|YSize=70.9mil|CornerRadius=0.7mil|HoleSize=0mil|Usage=FLASHONLY|Rotation=180.000|XOffset=0mil|YOffset=0mil|HoleType=Round|Shape=RoundedRectangle|*
%AMROUNDEDRECTD27*
21,1,0.0709,0.0694,0,0,180.0*
21,1,0.0694,0.0709,0,0,180.0*
1,1,0.0014,-0.0347,0.0347*
1,1,0.0014,0.0347,0.0347*
1,1,0.0014,0.0347,-0.0347*
1,1,0.0014,-0.0347,-0.0347*
%
%ADD27ROUNDEDRECTD27*%
%ADD28C,0.0709*%
%ADD29C,0.0945*%
%ADD30C,0.1299*%
G04:AMPARAMS|DCode=31|XSize=78.7mil|YSize=59.1mil|CornerRadius=7.4mil|HoleSize=0mil|Usage=FLASHONLY|Rotation=0.000|XOffset=0mil|YOffset=0mil|HoleType=Round|Shape=RoundedRectangle|*
%AMROUNDEDRECTD31*
21,1,0.0787,0.0443,0,0,0.0*
21,1,0.0640,0.0591,0,0,0.0*
1,1,0.0148,0.0320,-0.0221*
1,1,0.0148,-0.0320,-0.0221*
1,1,0.0148,-0.0320,0.0221*
1,1,0.0148,0.0320,0.0221*
%
%ADD31ROUNDEDRECTD31*%
%ADD32O,0.0787X0.0591*%
%ADD33C,0.0315*%
G04:AMPARAMS|DCode=34|XSize=102.4mil|YSize=86.6mil|CornerRadius=0.9mil|HoleSize=0mil|Usage=FLASHONLY|Rotation=180.000|XOffset=0mil|YOffset=0mil|HoleType=Round|Shape=RoundedRectangle|*
%AMROUNDEDRECTD34*
21,1,0.1024,0.0849,0,0,180.0*
21,1,0.1006,0.0866,0,0,180.0*
1,1,0.0017,-0.0503,0.0424*
1,1,0.0017,0.0503,0.0424*
1,1,0.0017,0.0503,-0.0424*
1,1,0.0017,-0.0503,-0.0424*
%
%ADD34ROUNDEDRECTD34*%
G04:AMPARAMS|DCode=35|XSize=102.4mil|YSize=86.6mil|CornerRadius=0.9mil|HoleSize=0mil|Usage=FLASHONLY|Rotation=270.000|XOffset=0mil|YOffset=0mil|HoleType=Round|Shape=RoundedRectangle|*
%AMROUNDEDRECTD35*
21,1,0.1024,0.0849,0,0,270.0*
21,1,0.1006,0.0866,0,0,270.0*
1,1,0.0017,-0.0424,-0.0503*
1,1,0.0017,-0.0424,0.0503*
1,1,0.0017,0.0424,0.0503*
1,1,0.0017,0.0424,-0.0503*
%
%ADD35ROUNDEDRECTD35*%
G04:AMPARAMS|DCode=36|XSize=70mil|YSize=94mil|CornerRadius=0.7mil|HoleSize=0mil|Usage=FLASHONLY|Rotation=270.000|XOffset=0mil|YOffset=0mil|HoleType=Round|Shape=RoundedRectangle|*
%AMROUNDEDRECTD36*
21,1,0.0700,0.0926,0,0,270.0*
21,1,0.0686,0.0940,0,0,270.0*
1,1,0.0014,-0.0463,-0.0343*
1,1,0.0014,-0.0463,0.0343*
1,1,0.0014,0.0463,0.0343*
1,1,0.0014,0.0463,-0.0343*
%
%ADD36ROUNDEDRECTD36*%
%ADD37R,0.0374X0.0827*%
%ADD38R,0.2165X0.2559*%
G04:AMPARAMS|DCode=39|XSize=59.1mil|YSize=23.6mil|CornerRadius=5.9mil|HoleSize=0mil|Usage=FLASHONLY|Rotation=180.000|XOffset=0mil|YOffset=0mil|HoleType=Round|Shape=RoundedRectangle|*
%AMROUNDEDRECTD39*
21,1,0.0591,0.0118,0,0,180.0*
21,1,0.0472,0.0236,0,0,180.0*
1,1,0.0118,-0.0236,0.0059*
1,1,0.0118,0.0236,0.0059*
1,1,0.0118,0.0236,-0.0059*
1,1,0.0118,-0.0236,-0.0059*
%
%ADD39ROUNDEDRECTD39*%
G04:AMPARAMS|DCode=40|XSize=32mil|YSize=36mil|CornerRadius=0.3mil|HoleSize=0mil|Usage=FLASHONLY|Rotation=90.000|XOffset=0mil|YOffset=0mil|HoleType=Round|Shape=RoundedRectangle|*
%AMROUNDEDRECTD40*
21,1,0.0320,0.0354,0,0,90.0*
21,1,0.0314,0.0360,0,0,90.0*
1,1,0.0006,0.0177,0.0157*
1,1,0.0006,0.0177,-0.0157*
1,1,0.0006,-0.0177,-0.0157*
1,1,0.0006,-0.0177,0.0157*
%
%ADD40ROUNDEDRECTD40*%
%ADD41C,0.0394*%
G36*
X27161Y20941D02*
Y20891D01*
X26892Y20623D01*
X26841Y20633D01*
X26745Y20614D01*
X26672Y20565D01*
X26622Y20579D01*
Y21415D01*
X26668Y21434D01*
X27161Y20941D01*
D02*
G37*
G36*
X37205Y13758D02*
X37187Y13751D01*
X37155Y13749D01*
X37131Y13785D01*
X37131Y13785D01*
X37011Y13905D01*
X36968Y13933D01*
X36917Y13943D01*
X36917Y13943D01*
X36784D01*
X36759Y14004D01*
X36698Y14083D01*
X36618Y14145D01*
X36525Y14183D01*
X36425Y14196D01*
X36228D01*
X36129Y14183D01*
X36036Y14145D01*
X35956Y14083D01*
X35895Y14004D01*
X35856Y13911D01*
X35852Y13878D01*
X35802D01*
X35797Y13911D01*
X35759Y14004D01*
X35698Y14083D01*
X35618Y14145D01*
X35525Y14183D01*
X35425Y14196D01*
X35228D01*
X35129Y14183D01*
X35036Y14145D01*
X34956Y14083D01*
X34895Y14004D01*
X34856Y13911D01*
X34843Y13811D01*
X34856Y13711D01*
X34895Y13618D01*
X34917Y13589D01*
X34660Y13332D01*
X34632Y13289D01*
X34621Y13238D01*
X34621Y13238D01*
Y8254D01*
X33990Y7623D01*
X31221D01*
X31217Y7627D01*
X31202Y7673D01*
X34102Y10572D01*
X34154Y10562D01*
X34249Y10581D01*
X34330Y10635D01*
X34383Y10716D01*
X34402Y10811D01*
X34383Y10906D01*
X34330Y10987D01*
X34249Y11041D01*
X34154Y11060D01*
X34145Y11109D01*
X34239Y11128D01*
X34320Y11181D01*
X34374Y11262D01*
X34393Y11357D01*
X34374Y11453D01*
X34320Y11533D01*
X34299Y11548D01*
Y11608D01*
X34339Y11635D01*
X34393Y11716D01*
X34412Y11811D01*
X34393Y11906D01*
X34339Y11987D01*
X34259Y12041D01*
X34163Y12060D01*
X34068Y12041D01*
X33987Y11987D01*
X33933Y11906D01*
X33915Y11811D01*
X33925Y11760D01*
X30998Y8833D01*
X26740D01*
X26711Y8877D01*
X26631Y8931D01*
X26576Y8942D01*
X26581Y8992D01*
X30467D01*
X30467Y8992D01*
X30517Y9002D01*
X30560Y9030D01*
X34102Y12572D01*
X34154Y12562D01*
X34249Y12581D01*
X34330Y12635D01*
X34383Y12716D01*
X34402Y12811D01*
X34383Y12906D01*
X34330Y12987D01*
X34249Y13041D01*
X34154Y13060D01*
X34058Y13041D01*
X33978Y12987D01*
X33924Y12906D01*
X33905Y12811D01*
X33915Y12760D01*
X30412Y9256D01*
X26239D01*
X26209Y9300D01*
X26129Y9354D01*
X26033Y9373D01*
X25938Y9354D01*
X25857Y9300D01*
X25804Y9219D01*
X25785Y9124D01*
X25804Y9029D01*
X25857Y8948D01*
X25938Y8894D01*
X26033Y8875D01*
X26129Y8894D01*
X26209Y8948D01*
X26239Y8992D01*
X26490D01*
X26495Y8942D01*
X26440Y8931D01*
X26359Y8877D01*
X26305Y8796D01*
X26287Y8701D01*
X26305Y8606D01*
X26359Y8525D01*
X26440Y8471D01*
X26535Y8452D01*
X26631Y8471D01*
X26711Y8525D01*
X26740Y8568D01*
X31053D01*
X31053Y8568D01*
X31104Y8578D01*
X31112Y8584D01*
X31144Y8545D01*
X30970Y8371D01*
X26278D01*
X26249Y8414D01*
X26168Y8468D01*
X26073Y8487D01*
X25978Y8468D01*
X25897Y8414D01*
X25843Y8333D01*
X25824Y8238D01*
X25843Y8143D01*
X25897Y8062D01*
X25978Y8008D01*
X26073Y7989D01*
X26168Y8008D01*
X26249Y8062D01*
X26278Y8106D01*
X31024D01*
X31024Y8106D01*
X31075Y8116D01*
X31118Y8145D01*
X33871Y10897D01*
X33917Y10873D01*
X33905Y10811D01*
X33915Y10760D01*
X31042Y7887D01*
X26707D01*
X26706Y7891D01*
X26652Y7971D01*
X26572Y8025D01*
X26476Y8044D01*
X26381Y8025D01*
X26300Y7971D01*
X26246Y7891D01*
X26228Y7795D01*
X26246Y7700D01*
X26269Y7667D01*
X26245Y7623D01*
X25946D01*
X22156Y11413D01*
Y12346D01*
X22206Y12351D01*
X22211Y12326D01*
X22265Y12245D01*
X22346Y12191D01*
X22441Y12172D01*
X22536Y12191D01*
X22617Y12245D01*
X22671Y12326D01*
X22690Y12421D01*
X22688Y12432D01*
X22730Y12474D01*
X22757Y12469D01*
X22757Y12469D01*
X23900D01*
X23901Y12466D01*
X23921Y12436D01*
X23951Y12416D01*
X23986Y12409D01*
X24034D01*
Y12037D01*
X23993Y11975D01*
X23974Y11880D01*
X23993Y11785D01*
X24046Y11704D01*
X24127Y11650D01*
X24222Y11631D01*
X24318Y11650D01*
X24398Y11704D01*
X24452Y11785D01*
X24471Y11880D01*
X24452Y11975D01*
X24411Y12037D01*
Y12461D01*
X24414Y12466D01*
X24415Y12469D01*
X24880D01*
Y12116D01*
X24839Y12054D01*
X24820Y11959D01*
X24839Y11863D01*
X24893Y11783D01*
X24974Y11729D01*
X25069Y11710D01*
X25164Y11729D01*
X25245Y11783D01*
X25299Y11863D01*
X25318Y11959D01*
X25299Y12054D01*
X25258Y12116D01*
Y12391D01*
X25276Y12409D01*
X25429D01*
X25464Y12416D01*
X25494Y12436D01*
X25497Y12440D01*
X25547Y12425D01*
Y12251D01*
X25554Y12216D01*
X25574Y12186D01*
X25604Y12165D01*
X25640Y12158D01*
X26230D01*
X26266Y12165D01*
X26296Y12186D01*
X26316Y12216D01*
X26316Y12216D01*
X26366Y12211D01*
Y12106D01*
X26325Y12044D01*
X26322Y12030D01*
X26267Y12007D01*
X26266Y12008D01*
X26230Y12015D01*
X25640D01*
X25604Y12008D01*
X25574Y11988D01*
X25554Y11957D01*
X25547Y11922D01*
Y11451D01*
X25554Y11416D01*
X25574Y11386D01*
X25604Y11365D01*
X25640Y11358D01*
X25809D01*
X25813Y11341D01*
X25841Y11298D01*
X25954Y11186D01*
X25997Y11157D01*
X26047Y11147D01*
X26370D01*
X26399Y11104D01*
X26480Y11050D01*
X26575Y11031D01*
X26670Y11050D01*
X26751Y11104D01*
X26805Y11184D01*
X26824Y11280D01*
X26813Y11335D01*
X26858Y11365D01*
X26903Y11335D01*
X26998Y11316D01*
X27093Y11335D01*
X27174Y11389D01*
X27228Y11470D01*
X27247Y11565D01*
X27228Y11660D01*
X27187Y11722D01*
Y12284D01*
X27309Y12406D01*
X27326Y12432D01*
X27351Y12416D01*
X27369Y12412D01*
Y11468D01*
X27359Y11453D01*
X27340Y11357D01*
X27359Y11262D01*
X27413Y11181D01*
X27493Y11127D01*
X27589Y11108D01*
X27684Y11127D01*
X27765Y11181D01*
X27819Y11262D01*
X27837Y11357D01*
X27819Y11453D01*
X27765Y11533D01*
X27746Y11546D01*
Y12412D01*
X27764Y12416D01*
X27794Y12436D01*
X27814Y12466D01*
X27815Y12469D01*
X28557D01*
X28630Y12483D01*
X28691Y12524D01*
X28732Y12585D01*
X28746Y12657D01*
Y13500D01*
X28749Y13501D01*
X28779Y13521D01*
X28799Y13551D01*
X28806Y13586D01*
Y13625D01*
X28965D01*
X28983Y13602D01*
X29002Y13507D01*
X29056Y13426D01*
X29137Y13372D01*
X29232Y13353D01*
X29246Y13356D01*
X29271Y13310D01*
X29138Y13178D01*
X29110Y13135D01*
X29100Y13084D01*
X29100Y13084D01*
Y12318D01*
X28893Y12112D01*
X28845Y12126D01*
X28840Y12150D01*
X28786Y12231D01*
X28705Y12285D01*
X28610Y12304D01*
X28515Y12285D01*
X28434Y12231D01*
X28380Y12150D01*
X28361Y12055D01*
X28380Y11960D01*
X28434Y11879D01*
X28478Y11850D01*
Y10240D01*
X28063Y9825D01*
X28012Y9835D01*
X27917Y9817D01*
X27836Y9763D01*
X27782Y9682D01*
X27763Y9587D01*
X27782Y9491D01*
X27836Y9411D01*
X27917Y9357D01*
X28012Y9338D01*
X28107Y9357D01*
X28188Y9411D01*
X28242Y9491D01*
X28261Y9587D01*
X28250Y9638D01*
X28643Y10030D01*
X28692Y10025D01*
X28722Y9981D01*
X28802Y9928D01*
X28898Y9909D01*
X28993Y9928D01*
X29074Y9981D01*
X29128Y10062D01*
X29147Y10157D01*
X29128Y10253D01*
X29074Y10333D01*
X29030Y10363D01*
Y11285D01*
X29076Y11294D01*
X29080Y11293D01*
X29133Y11214D01*
X29214Y11160D01*
X29309Y11141D01*
X29404Y11160D01*
X29485Y11214D01*
X29539Y11295D01*
X29558Y11390D01*
X29539Y11485D01*
X29538Y11487D01*
Y12303D01*
X29584Y12322D01*
X29710Y12196D01*
Y11347D01*
X29667Y11318D01*
X29613Y11237D01*
X29594Y11142D01*
X29613Y11046D01*
X29667Y10966D01*
X29747Y10912D01*
X29843Y10893D01*
X29938Y10912D01*
X30018Y10966D01*
X30072Y11046D01*
X30091Y11142D01*
X30072Y11237D01*
X30018Y11318D01*
X29975Y11347D01*
Y12251D01*
X29965Y12302D01*
X29962Y12306D01*
X29981Y12352D01*
X30018Y12360D01*
X30091Y12408D01*
X30122Y12396D01*
X30137Y12384D01*
X30125Y12323D01*
X30144Y12228D01*
X30198Y12147D01*
X30279Y12093D01*
X30374Y12074D01*
X30469Y12093D01*
X30550Y12147D01*
X30604Y12228D01*
X30623Y12323D01*
X30604Y12418D01*
X30550Y12499D01*
X30469Y12553D01*
X30445Y12557D01*
Y12621D01*
X30490Y12645D01*
X30505Y12634D01*
X30600Y12615D01*
X30696Y12634D01*
X30776Y12688D01*
X30818Y12751D01*
X30865Y12731D01*
X30863Y12722D01*
X30882Y12626D01*
X30936Y12546D01*
X31017Y12492D01*
X31112Y12473D01*
X31207Y12492D01*
X31288Y12546D01*
X31342Y12626D01*
X31361Y12722D01*
X31351Y12773D01*
X31393Y12815D01*
X31393Y12815D01*
X31393Y12815D01*
X31403Y12825D01*
X31403Y12825D01*
X31432Y12868D01*
X31442Y12919D01*
X31442Y12919D01*
Y13988D01*
X31442Y13988D01*
X31432Y14039D01*
Y16524D01*
X31482Y16552D01*
X31494Y16545D01*
Y12579D01*
X31230Y12316D01*
X31166Y12322D01*
X31160Y12332D01*
X31079Y12385D01*
X30984Y12404D01*
X30889Y12385D01*
X30808Y12332D01*
X30754Y12251D01*
X30735Y12156D01*
X30754Y12060D01*
X30808Y11980D01*
X30889Y11926D01*
X30984Y11907D01*
X31079Y11926D01*
X31160Y11980D01*
X31189Y12023D01*
X31257D01*
X31257Y12023D01*
X31308Y12033D01*
X31351Y12062D01*
X31668Y12380D01*
X31675Y12381D01*
X31718Y12410D01*
X31720Y12412D01*
X31720Y12412D01*
X31748Y12455D01*
X31759Y12505D01*
Y15126D01*
X31767Y15133D01*
X31809Y15148D01*
X31827Y15136D01*
X31862Y15129D01*
X32033D01*
Y13011D01*
X32029Y13007D01*
X31972Y12996D01*
X31891Y12942D01*
X31837Y12861D01*
X31818Y12766D01*
X31837Y12671D01*
X31891Y12590D01*
X31972Y12536D01*
X32067Y12517D01*
X32162Y12536D01*
X32243Y12590D01*
X32297Y12671D01*
X32316Y12766D01*
X32297Y12861D01*
X32278Y12890D01*
X32288Y12905D01*
X32288Y12905D01*
X32288Y12905D01*
X32292Y12927D01*
X32298Y12956D01*
X32298Y12956D01*
X32298Y12956D01*
Y15129D01*
X32453D01*
X32488Y15136D01*
X32519Y15156D01*
X32539Y15187D01*
X32546Y15222D01*
Y15693D01*
X32539Y15728D01*
X32519Y15759D01*
X32488Y15779D01*
X32453Y15786D01*
X31862D01*
X31827Y15779D01*
X31809Y15767D01*
X31767Y15782D01*
X31759Y15789D01*
Y15926D01*
X31767Y15933D01*
X31809Y15948D01*
X31827Y15936D01*
X31862Y15929D01*
X32453D01*
X32488Y15936D01*
X32519Y15956D01*
X32539Y15987D01*
X32546Y16022D01*
Y16459D01*
X32633Y16546D01*
X32679Y16526D01*
Y16012D01*
X32686Y15977D01*
X32706Y15946D01*
X32737Y15926D01*
X32772Y15919D01*
X32819D01*
Y15796D01*
X32772D01*
X32737Y15789D01*
X32706Y15769D01*
X32686Y15738D01*
X32679Y15703D01*
Y15112D01*
X32686Y15077D01*
X32706Y15046D01*
X32737Y15026D01*
X32772Y15019D01*
X32875D01*
Y14846D01*
X32772D01*
X32737Y14839D01*
X32706Y14819D01*
X32686Y14788D01*
X32679Y14753D01*
Y14162D01*
X32686Y14127D01*
X32706Y14096D01*
X32737Y14076D01*
X32772Y14069D01*
X33243D01*
X33278Y14076D01*
X33309Y14096D01*
X33329Y14127D01*
X33336Y14162D01*
Y14753D01*
X33329Y14788D01*
X33309Y14819D01*
X33278Y14839D01*
X33243Y14846D01*
X33140D01*
Y15019D01*
X33243D01*
X33278Y15026D01*
X33309Y15046D01*
X33329Y15077D01*
X33336Y15112D01*
Y15703D01*
X33329Y15738D01*
X33309Y15769D01*
X33278Y15789D01*
X33243Y15796D01*
X33196D01*
Y15919D01*
X33243D01*
X33278Y15926D01*
X33309Y15946D01*
X33329Y15977D01*
X33336Y16012D01*
Y16369D01*
X33433Y16466D01*
X33479Y16447D01*
Y16012D01*
X33486Y15977D01*
X33506Y15946D01*
X33537Y15926D01*
X33572Y15919D01*
X34043D01*
X34078Y15926D01*
X34109Y15946D01*
X34129Y15977D01*
X34136Y16012D01*
Y16175D01*
X34775D01*
X34917Y16033D01*
X34895Y16004D01*
X34856Y15911D01*
X34843Y15811D01*
X34856Y15711D01*
X34895Y15618D01*
X34917Y15589D01*
X34868Y15540D01*
X34136D01*
Y15703D01*
X34129Y15738D01*
X34109Y15769D01*
X34078Y15789D01*
X34043Y15796D01*
X33572D01*
X33537Y15789D01*
X33506Y15769D01*
X33486Y15738D01*
X33479Y15703D01*
Y15112D01*
X33486Y15077D01*
X33506Y15046D01*
X33537Y15026D01*
X33572Y15019D01*
X34043D01*
X34078Y15026D01*
X34109Y15046D01*
X34129Y15077D01*
X34136Y15112D01*
Y15275D01*
X34923D01*
X34923Y15275D01*
X34974Y15285D01*
X35017Y15314D01*
X35017Y15314D01*
X35140Y15437D01*
X35228Y15426D01*
X35425D01*
X35525Y15439D01*
X35618Y15477D01*
X35698Y15539D01*
X35759Y15618D01*
X35797Y15711D01*
X35802Y15744D01*
X35852D01*
X35856Y15711D01*
X35895Y15618D01*
X35956Y15539D01*
X36036Y15477D01*
X36129Y15439D01*
X36228Y15426D01*
X36425D01*
X36525Y15439D01*
X36618Y15477D01*
X36698Y15539D01*
X36759Y15618D01*
X36797Y15711D01*
X36810Y15811D01*
X36797Y15911D01*
X36759Y16004D01*
X36698Y16083D01*
X36618Y16145D01*
X36525Y16183D01*
X36425Y16196D01*
X36228D01*
X36129Y16183D01*
X36036Y16145D01*
X35956Y16083D01*
X35895Y16004D01*
X35856Y15911D01*
X35852Y15878D01*
X35802D01*
X35797Y15911D01*
X35759Y16004D01*
X35698Y16083D01*
X35618Y16145D01*
X35525Y16183D01*
X35425Y16196D01*
X35228D01*
X35141Y16185D01*
X34924Y16401D01*
X34881Y16430D01*
X34830Y16440D01*
X34830Y16440D01*
X34136D01*
Y16603D01*
X34129Y16638D01*
X34109Y16669D01*
X34078Y16689D01*
X34043Y16696D01*
X33728D01*
X33709Y16742D01*
X33936Y16969D01*
X33936Y16969D01*
X33977Y17030D01*
X33991Y17102D01*
X33991Y17102D01*
Y17211D01*
X34014Y17216D01*
X34044Y17236D01*
X34064Y17266D01*
X34071Y17301D01*
Y17614D01*
X34064Y17649D01*
X34044Y17679D01*
X34014Y17699D01*
X33991Y17703D01*
Y20571D01*
X35355D01*
X35907Y20019D01*
X35895Y20004D01*
X35860Y19920D01*
X35827Y19916D01*
X35808Y19920D01*
X35770Y20010D01*
X35707Y20093D01*
X35625Y20156D01*
X35528Y20196D01*
X35425Y20210D01*
X35377D01*
Y19811D01*
Y19412D01*
X35425D01*
X35528Y19426D01*
X35625Y19466D01*
X35707Y19529D01*
X35770Y19612D01*
X35808Y19702D01*
X35827Y19706D01*
X35860Y19702D01*
X35895Y19618D01*
X35956Y19539D01*
X36036Y19477D01*
X36129Y19439D01*
X36228Y19426D01*
X36425D01*
X36525Y19439D01*
X36618Y19477D01*
X36698Y19539D01*
X36759Y19618D01*
X36797Y19711D01*
X36810Y19811D01*
X36797Y19911D01*
X36759Y20004D01*
X36698Y20083D01*
X36618Y20145D01*
X36525Y20183D01*
X36425Y20196D01*
X36264D01*
X35566Y20893D01*
X35505Y20934D01*
X35433Y20949D01*
X35433Y20949D01*
X33807D01*
X33807Y20949D01*
X33807Y20949D01*
X33529D01*
Y21295D01*
X33522Y21332D01*
X33501Y21364D01*
X33469Y21385D01*
X33432Y21392D01*
X32583D01*
X32546Y21385D01*
X32514Y21364D01*
X32493Y21332D01*
X32486Y21295D01*
Y20817D01*
X30481D01*
X30409Y20803D01*
X30348Y20762D01*
X30348Y20762D01*
X28424Y18839D01*
X28383Y18777D01*
X28369Y18705D01*
X28369Y18705D01*
Y18445D01*
X28369Y18445D01*
X28369Y18445D01*
Y18215D01*
X28366Y18214D01*
X28336Y18194D01*
X28316Y18164D01*
X28309Y18129D01*
Y17786D01*
X28316Y17751D01*
X28336Y17721D01*
X28366Y17701D01*
X28369Y17700D01*
Y14015D01*
X28366Y14014D01*
X28347Y14001D01*
D01*
X28336Y13994D01*
X28316Y13964D01*
X28309Y13929D01*
Y13586D01*
X28316Y13551D01*
X28336Y13521D01*
X28351Y13511D01*
D01*
X28366Y13501D01*
X28369Y13500D01*
Y12846D01*
X27815D01*
X27814Y12849D01*
X27794Y12879D01*
X27764Y12899D01*
X27729Y12906D01*
X27386D01*
X27351Y12899D01*
X27321Y12879D01*
X27310D01*
X27294D01*
X27264Y12899D01*
X27229Y12906D01*
X26886D01*
X26851Y12899D01*
X26821Y12879D01*
X26810D01*
X26794D01*
X26764Y12899D01*
X26729Y12906D01*
X26386D01*
X26351Y12899D01*
X26321Y12879D01*
X26301Y12849D01*
X26300Y12846D01*
X25515D01*
X25514Y12849D01*
X25494Y12879D01*
X25464Y12899D01*
X25429Y12906D01*
X25086D01*
X25051Y12899D01*
X25021Y12879D01*
X25001Y12849D01*
X25000Y12846D01*
X24415D01*
X24414Y12849D01*
X24394Y12879D01*
X24364Y12899D01*
X24329Y12906D01*
X23986D01*
X23951Y12899D01*
X23921Y12879D01*
X23901Y12849D01*
X23900Y12846D01*
X22836D01*
X22746Y12936D01*
Y13000D01*
X22749Y13001D01*
X22779Y13021D01*
X22799Y13051D01*
X22806Y13086D01*
Y13429D01*
X22799Y13464D01*
X22779Y13494D01*
X22749Y13514D01*
X22746Y13515D01*
Y18100D01*
X22749Y18101D01*
X22779Y18121D01*
X22799Y18151D01*
X22806Y18186D01*
Y18529D01*
X22799Y18564D01*
X22792Y18575D01*
X22830Y18613D01*
X22879Y18623D01*
X22909Y18578D01*
X22903Y18570D01*
X22895Y18529D01*
Y18407D01*
X23107D01*
Y18635D01*
X23003D01*
X22999Y18638D01*
X22985Y18678D01*
X22984Y18682D01*
X23037Y18762D01*
X23056Y18857D01*
X23037Y18953D01*
X22996Y19014D01*
Y19895D01*
X23046Y19916D01*
X23488Y19474D01*
X23472Y19390D01*
X23491Y19295D01*
X23544Y19214D01*
X23625Y19160D01*
X23720Y19141D01*
X23816Y19160D01*
X23896Y19214D01*
X23950Y19295D01*
X23969Y19390D01*
X23950Y19485D01*
X23896Y19566D01*
X23816Y19620D01*
X23720Y19639D01*
X23702Y19635D01*
X23223Y20114D01*
Y20772D01*
X23706Y21255D01*
X23733Y21237D01*
X23829Y21218D01*
X23924Y21237D01*
X24005Y21291D01*
X24059Y21371D01*
X24078Y21467D01*
X24059Y21562D01*
X24034Y21599D01*
X24060Y21649D01*
X24670D01*
X25204Y21115D01*
X25204Y21115D01*
X25247Y21086D01*
X25297Y21076D01*
X25598D01*
X25931Y20744D01*
Y20694D01*
X25714Y20477D01*
X25412D01*
X25383Y20520D01*
X25302Y20574D01*
X25207Y20593D01*
X25111Y20574D01*
X25031Y20520D01*
X24977Y20440D01*
X24958Y20344D01*
X24977Y20249D01*
X25031Y20169D01*
X25111Y20115D01*
X25207Y20096D01*
X25302Y20115D01*
X25383Y20169D01*
X25412Y20212D01*
X25578D01*
X25601Y20162D01*
X25597Y20157D01*
X25581Y20160D01*
X25485Y20141D01*
X25405Y20087D01*
X25351Y20007D01*
X25332Y19911D01*
X25351Y19816D01*
X25405Y19735D01*
X25485Y19681D01*
X25581Y19663D01*
X25676Y19681D01*
X25757Y19735D01*
X25811Y19816D01*
X25830Y19911D01*
X25819Y19963D01*
X26311Y20454D01*
X26357Y20435D01*
Y19485D01*
X26357Y19485D01*
X26367Y19434D01*
X26396Y19391D01*
X26648Y19139D01*
X26691Y19110D01*
X26742Y19100D01*
X26742Y19100D01*
X27925D01*
X27954Y19056D01*
X28035Y19002D01*
X28130Y18983D01*
X28225Y19002D01*
X28306Y19056D01*
X28360Y19137D01*
X28379Y19232D01*
X28360Y19328D01*
X28306Y19408D01*
X28225Y19462D01*
X28130Y19481D01*
X28035Y19462D01*
X27954Y19408D01*
X27925Y19365D01*
X27502D01*
X27475Y19415D01*
X27513Y19472D01*
X27532Y19567D01*
X27522Y19618D01*
X27859Y19956D01*
X27859Y19956D01*
X27888Y19999D01*
X27898Y20049D01*
Y21102D01*
X27898Y21102D01*
X27888Y21153D01*
X27859Y21196D01*
X27859Y21196D01*
X26887Y22168D01*
X26844Y22197D01*
X26793Y22207D01*
X26793Y22207D01*
X26311D01*
X26295Y22255D01*
X26314Y22269D01*
X26406Y22388D01*
X26463Y22528D01*
X26476Y22627D01*
X25906D01*
Y22677D01*
X25856D01*
Y23248D01*
X25756Y23235D01*
X25617Y23177D01*
X25497Y23085D01*
X25405Y22966D01*
X25348Y22827D01*
X25328Y22677D01*
X25331Y22654D01*
X25286Y22632D01*
X25039Y22879D01*
X24996Y22908D01*
X24945Y22918D01*
X24945Y22918D01*
X19940D01*
X19890Y22908D01*
X19847Y22879D01*
X18814Y21846D01*
X18778Y21843D01*
X18539Y22082D01*
X18496Y22111D01*
X18477Y22114D01*
X18444Y22164D01*
X18363Y22218D01*
X18268Y22237D01*
X18172Y22218D01*
X18092Y22164D01*
X18038Y22083D01*
X18019Y21988D01*
X18038Y21893D01*
X18092Y21812D01*
X18172Y21758D01*
X18226Y21748D01*
X18236Y21695D01*
X18225Y21687D01*
X18171Y21606D01*
X18152Y21511D01*
X18166Y21441D01*
X18118Y21422D01*
X18089Y21465D01*
X18009Y21519D01*
X17913Y21538D01*
X17818Y21519D01*
X17737Y21465D01*
X17683Y21385D01*
X17665Y21289D01*
X17683Y21194D01*
X17737Y21113D01*
X17818Y21059D01*
X17913Y21040D01*
X18009Y21059D01*
X18010Y21060D01*
X18022Y21052D01*
X18010Y20999D01*
X18005Y20998D01*
X17924Y20944D01*
X17870Y20863D01*
X17852Y20768D01*
X17870Y20672D01*
X17924Y20592D01*
X17968Y20563D01*
Y13823D01*
X17917Y13813D01*
X17836Y13759D01*
X17782Y13678D01*
X17768Y13609D01*
X17767Y13605D01*
X17735Y13608D01*
Y13608D01*
X17735Y13608D01*
X17717Y13650D01*
Y20346D01*
X17761Y20375D01*
X17815Y20456D01*
X17834Y20551D01*
X17815Y20646D01*
X17761Y20727D01*
X17680Y20781D01*
X17585Y20800D01*
X17490Y20781D01*
X17409Y20727D01*
X17355Y20646D01*
X17336Y20551D01*
X17355Y20456D01*
X17409Y20375D01*
X17452Y20346D01*
Y13619D01*
X17385Y13606D01*
X17304Y13552D01*
X17250Y13471D01*
X17231Y13376D01*
X17250Y13281D01*
X17304Y13200D01*
X17324Y13187D01*
X17304Y13140D01*
X17284Y13144D01*
X16358D01*
X16321Y13137D01*
X16290Y13116D01*
X16274Y13091D01*
X10310D01*
X10305Y13115D01*
X10284Y13146D01*
X10253Y13166D01*
X10217Y13173D01*
X9291D01*
X9254Y13166D01*
X9223Y13146D01*
X9203Y13115D01*
X9198Y13091D01*
X3373D01*
Y13137D01*
X3366Y13174D01*
X3345Y13205D01*
X3314Y13225D01*
X3278Y13233D01*
X2352D01*
X2315Y13225D01*
X2284Y13205D01*
X2264Y13174D01*
X2257Y13137D01*
Y13091D01*
X1378D01*
X1304Y13081D01*
X1235Y13053D01*
X1176Y13007D01*
X421Y12253D01*
X376Y12194D01*
X347Y12125D01*
X338Y12051D01*
Y11161D01*
Y5273D01*
X323Y5263D01*
X302Y5232D01*
X295Y5197D01*
Y4606D01*
X302Y4571D01*
X323Y4540D01*
X338Y4530D01*
Y1483D01*
X347Y1409D01*
X376Y1340D01*
X421Y1281D01*
X940Y762D01*
X999Y717D01*
X1068Y688D01*
X1142Y679D01*
X25915D01*
Y599D01*
X25923Y562D01*
X25944Y531D01*
X25975Y509D01*
X26013Y502D01*
X26861D01*
X26899Y509D01*
X26930Y531D01*
X26951Y562D01*
X26959Y599D01*
Y679D01*
X31163D01*
Y415D01*
X33502D01*
Y1269D01*
X35413D01*
X35487Y1279D01*
X35556Y1308D01*
X35616Y1353D01*
X36529Y2266D01*
X36574Y2326D01*
X36603Y2394D01*
X36613Y2468D01*
Y3475D01*
X36618Y3477D01*
X36698Y3539D01*
X36759Y3618D01*
X36797Y3711D01*
X36810Y3811D01*
X36797Y3911D01*
X36759Y4004D01*
X36698Y4083D01*
X36618Y4145D01*
X36525Y4183D01*
X36425Y4196D01*
X36228D01*
X36129Y4183D01*
X36036Y4145D01*
X35956Y4083D01*
X35895Y4004D01*
X35874Y3953D01*
X35824Y3963D01*
Y4032D01*
X35810Y4100D01*
X35772Y4158D01*
X35714Y4196D01*
X35647Y4210D01*
X35377D01*
Y3811D01*
Y3412D01*
X35647D01*
X35714Y3426D01*
X35772Y3464D01*
X35810Y3522D01*
X35824Y3590D01*
Y3659D01*
X35874Y3669D01*
X35895Y3618D01*
X35956Y3539D01*
X36036Y3477D01*
X36041Y3475D01*
Y3285D01*
X36009D01*
X35974Y3278D01*
X35945Y3258D01*
X35925Y3228D01*
X35918Y3193D01*
Y2850D01*
X35925Y2815D01*
X35945Y2785D01*
X35974Y2765D01*
X36009Y2758D01*
X36041D01*
Y2587D01*
X35295Y1841D01*
X33502D01*
Y3148D01*
X31163D01*
Y1250D01*
X26959D01*
Y1606D01*
X26951Y1643D01*
X26930Y1674D01*
X26899Y1695D01*
X26861Y1703D01*
X26013D01*
X25975Y1695D01*
X25944Y1674D01*
X25923Y1643D01*
X25915Y1606D01*
Y1250D01*
X1260D01*
X910Y1601D01*
Y4530D01*
X925Y4540D01*
X945Y4571D01*
X952Y4606D01*
Y5197D01*
X945Y5232D01*
X925Y5263D01*
X910Y5273D01*
Y5843D01*
X960Y5869D01*
X986Y5851D01*
X1043Y5840D01*
X1220D01*
X1235Y5825D01*
Y5290D01*
X1188D01*
X1153Y5283D01*
X1123Y5263D01*
X1102Y5232D01*
X1095Y5197D01*
Y4606D01*
X1102Y4571D01*
X1123Y4540D01*
X1153Y4520D01*
X1188Y4513D01*
X1659D01*
X1694Y4520D01*
X1725Y4540D01*
X1745Y4571D01*
X1752Y4606D01*
Y5197D01*
X1745Y5232D01*
X1725Y5263D01*
X1694Y5283D01*
X1659Y5290D01*
X1612D01*
Y5878D01*
X1621Y5883D01*
X1653Y5931D01*
X1664Y5988D01*
Y6106D01*
X1653Y6163D01*
X1621Y6211D01*
X1573Y6244D01*
X1516Y6255D01*
X1043D01*
X986Y6244D01*
X960Y6226D01*
X910Y6251D01*
Y6343D01*
X960Y6369D01*
X986Y6351D01*
X1043Y6340D01*
X1516D01*
X1573Y6351D01*
X1584Y6358D01*
X1803Y6139D01*
X1817Y6066D01*
X1871Y5985D01*
X1952Y5931D01*
X2047Y5913D01*
X2142Y5931D01*
X2223Y5985D01*
X2277Y6066D01*
X2296Y6161D01*
X2277Y6257D01*
X2223Y6337D01*
X2142Y6391D01*
X2070Y6406D01*
X1795Y6681D01*
X1734Y6722D01*
X1661Y6736D01*
X1661Y6736D01*
X1584D01*
X1573Y6744D01*
X1516Y6755D01*
X1043D01*
X986Y6744D01*
X960Y6726D01*
X910Y6751D01*
Y6843D01*
X960Y6869D01*
X986Y6851D01*
X1043Y6840D01*
X1516D01*
X1573Y6851D01*
X1584Y6859D01*
X1831D01*
X2370Y6319D01*
Y2985D01*
X1860D01*
X1769Y2967D01*
X1691Y2915D01*
X1640Y2837D01*
X1621Y2746D01*
Y1860D01*
X1640Y1769D01*
X1691Y1691D01*
X1769Y1640D01*
X1860Y1621D01*
X2746D01*
X2837Y1640D01*
X2915Y1691D01*
X2967Y1769D01*
X2985Y1860D01*
Y2746D01*
X2967Y2837D01*
X2915Y2915D01*
X2837Y2967D01*
X2748Y2985D01*
Y6398D01*
X2733Y6470D01*
X2692Y6531D01*
X2692Y6531D01*
X2043Y7181D01*
X1982Y7222D01*
X1909Y7236D01*
X1909Y7236D01*
X1584D01*
X1573Y7244D01*
X1516Y7255D01*
X1043D01*
X986Y7244D01*
X960Y7226D01*
X910Y7251D01*
Y7326D01*
X960Y7353D01*
X981Y7338D01*
X1043Y7326D01*
X1230D01*
Y7547D01*
Y7768D01*
X1043D01*
X981Y7756D01*
X960Y7742D01*
X910Y7768D01*
Y7826D01*
X960Y7853D01*
X981Y7838D01*
X1043Y7826D01*
X1230D01*
Y8047D01*
Y8268D01*
X1043D01*
X981Y8256D01*
X960Y8242D01*
X910Y8268D01*
Y8326D01*
X960Y8353D01*
X981Y8338D01*
X1043Y8326D01*
X1230D01*
Y8547D01*
Y8768D01*
X1043D01*
X981Y8756D01*
X960Y8742D01*
X910Y8768D01*
Y8826D01*
X960Y8853D01*
X981Y8838D01*
X1043Y8826D01*
X1230D01*
Y9047D01*
Y9268D01*
X1043D01*
X981Y9256D01*
X960Y9242D01*
X910Y9268D01*
Y9343D01*
X960Y9369D01*
X986Y9351D01*
X1043Y9340D01*
X1516D01*
X1573Y9351D01*
X1584Y9359D01*
X2184D01*
X2191Y9324D01*
X2245Y9243D01*
X2326Y9189D01*
X2421Y9170D01*
X2517Y9189D01*
X2597Y9243D01*
X2651Y9324D01*
X2670Y9419D01*
X2651Y9515D01*
X2597Y9595D01*
X2517Y9649D01*
X2444Y9664D01*
X2427Y9681D01*
X2427Y9681D01*
X2427Y9681D01*
X2427Y9681D01*
X2400Y9699D01*
X2366Y9722D01*
X2365Y9722D01*
X2365Y9722D01*
X2321Y9730D01*
X2293Y9736D01*
X2293D01*
X2293Y9736D01*
X2293Y9736D01*
X1584D01*
X1573Y9744D01*
X1516Y9755D01*
X1043D01*
X986Y9744D01*
X960Y9726D01*
X910Y9751D01*
Y9843D01*
X960Y9869D01*
X986Y9851D01*
X1043Y9840D01*
X1516D01*
X1573Y9851D01*
X1584Y9859D01*
X2380D01*
X2380Y9859D01*
X2452Y9873D01*
X2513Y9914D01*
X3005Y10405D01*
X3078Y10420D01*
X3158Y10474D01*
X3212Y10554D01*
X3231Y10650D01*
X3212Y10745D01*
X3158Y10826D01*
X3078Y10880D01*
X2982Y10898D01*
X2887Y10880D01*
X2806Y10826D01*
X2752Y10745D01*
X2738Y10672D01*
X2302Y10236D01*
X1584D01*
X1573Y10244D01*
X1516Y10255D01*
X1043D01*
X986Y10244D01*
X960Y10226D01*
X910Y10251D01*
Y10343D01*
X960Y10369D01*
X986Y10351D01*
X1043Y10340D01*
X1516D01*
X1573Y10351D01*
X1621Y10383D01*
X1653Y10431D01*
X1664Y10488D01*
Y10606D01*
X1653Y10663D01*
X1621Y10711D01*
X1573Y10744D01*
X1516Y10755D01*
X1468D01*
Y10864D01*
X1477Y10866D01*
X1506Y10886D01*
X1526Y10916D01*
X1533Y10951D01*
Y11264D01*
X1526Y11299D01*
X1506Y11329D01*
X1477Y11349D01*
X1441Y11356D01*
X1098D01*
X1063Y11349D01*
X1033Y11329D01*
X1013Y11299D01*
X1013Y11296D01*
X910D01*
Y11932D01*
X1496Y12519D01*
X2257D01*
Y12451D01*
X2264Y12415D01*
X2284Y12384D01*
X2315Y12363D01*
X2352Y12356D01*
X3278D01*
X3314Y12363D01*
X3345Y12384D01*
X3366Y12415D01*
X3373Y12451D01*
Y12519D01*
X4710D01*
Y12301D01*
X4717Y12265D01*
X4737Y12235D01*
X4768Y12215D01*
X4803Y12207D01*
X5394D01*
X5429Y12215D01*
X5460Y12235D01*
X5480Y12265D01*
X5487Y12301D01*
Y12519D01*
X7612D01*
Y11733D01*
X7609Y11733D01*
X7579Y11713D01*
X7559Y11683D01*
X7552Y11648D01*
Y11305D01*
X7559Y11270D01*
X7579Y11240D01*
X7609Y11220D01*
X7636Y11214D01*
Y10725D01*
X7589D01*
X7532Y10714D01*
X7520Y10706D01*
X7002D01*
X7002Y10706D01*
X6930Y10692D01*
X6869Y10651D01*
X6869Y10651D01*
X6461Y10244D01*
X6420Y10182D01*
X6406Y10110D01*
X6406Y10110D01*
Y9687D01*
X6356Y9682D01*
X6342Y9751D01*
X6288Y9831D01*
X6207Y9885D01*
X6112Y9904D01*
X6017Y9885D01*
X5936Y9831D01*
X5882Y9751D01*
X5868Y9678D01*
X5743Y9553D01*
X5702Y9491D01*
X5687Y9419D01*
X5687Y9419D01*
Y6771D01*
X5652Y6736D01*
X5324D01*
X5313Y6744D01*
X5256Y6755D01*
X4783D01*
X4727Y6744D01*
X4678Y6711D01*
X4646Y6663D01*
X4635Y6606D01*
Y6488D01*
X4646Y6431D01*
X4678Y6383D01*
X4727Y6351D01*
X4783Y6340D01*
X5256D01*
X5313Y6351D01*
X5324Y6359D01*
X5730D01*
X5730Y6359D01*
X5803Y6373D01*
X5864Y6414D01*
X6009Y6560D01*
X6009Y6560D01*
X6050Y6621D01*
X6065Y6693D01*
X6065Y6693D01*
Y9341D01*
X6135Y9411D01*
X6207Y9426D01*
X6288Y9480D01*
X6342Y9560D01*
X6356Y9629D01*
X6406Y9624D01*
Y7156D01*
X6299D01*
X6264Y7148D01*
X6233Y7128D01*
X6213Y7098D01*
X6206Y7062D01*
Y6592D01*
X6213Y6556D01*
X6233Y6526D01*
X6264Y6506D01*
X6299Y6499D01*
X6890D01*
X6925Y6506D01*
X6956Y6526D01*
X6976Y6556D01*
X6983Y6592D01*
Y7062D01*
X6976Y7098D01*
X6956Y7128D01*
X6925Y7148D01*
X6890Y7156D01*
X6783D01*
Y10032D01*
X7080Y10329D01*
X7520D01*
X7532Y10321D01*
X7589Y10310D01*
X8061D01*
X8118Y10321D01*
X8166Y10354D01*
X8198Y10402D01*
X8210Y10459D01*
Y10577D01*
X8198Y10634D01*
X8166Y10682D01*
X8118Y10714D01*
X8061Y10725D01*
X8013D01*
Y11234D01*
X8022Y11240D01*
X8042Y11270D01*
X8049Y11305D01*
Y11648D01*
X8042Y11683D01*
X8022Y11713D01*
X7992Y11733D01*
X7989Y11733D01*
Y12519D01*
X9195D01*
Y12392D01*
X9203Y12356D01*
X9223Y12325D01*
X9254Y12304D01*
X9291Y12297D01*
X10217D01*
X10253Y12304D01*
X10284Y12325D01*
X10305Y12356D01*
X10312Y12392D01*
Y12519D01*
X11245D01*
Y12340D01*
X11253Y12304D01*
X11273Y12274D01*
X11303Y12254D01*
X11339Y12247D01*
X11929D01*
X11965Y12254D01*
X11995Y12274D01*
X12015Y12304D01*
X12022Y12340D01*
Y12519D01*
X14531D01*
Y11753D01*
X14528Y11752D01*
X14498Y11733D01*
X14478Y11703D01*
X14471Y11668D01*
Y11324D01*
X14478Y11289D01*
X14498Y11260D01*
X14506Y11254D01*
Y10804D01*
X14459D01*
X14402Y10793D01*
X14390Y10785D01*
X13874D01*
X13802Y10771D01*
X13741Y10730D01*
X13741Y10730D01*
X13193Y10183D01*
X13152Y10121D01*
X13138Y10049D01*
X13138Y10049D01*
Y7284D01*
X13032D01*
X12996Y7276D01*
X12966Y7256D01*
X12945Y7226D01*
X12938Y7190D01*
Y6720D01*
X12945Y6684D01*
X12966Y6654D01*
X12996Y6634D01*
X13032Y6627D01*
X13622D01*
X13658Y6634D01*
X13688Y6654D01*
X13708Y6684D01*
X13715Y6720D01*
Y7190D01*
X13708Y7226D01*
X13688Y7256D01*
X13658Y7276D01*
X13622Y7284D01*
X13515D01*
Y9971D01*
X13952Y10408D01*
X14390D01*
X14402Y10400D01*
X14459Y10389D01*
X14931D01*
X14988Y10400D01*
X15036Y10432D01*
X15068Y10481D01*
X15080Y10537D01*
Y10656D01*
X15068Y10712D01*
X15036Y10761D01*
X14988Y10793D01*
X14931Y10804D01*
X14884D01*
Y11234D01*
X14912Y11240D01*
X14941Y11260D01*
X14961Y11289D01*
X14968Y11324D01*
Y11668D01*
X14961Y11703D01*
X14941Y11733D01*
X14912Y11752D01*
X14908Y11753D01*
Y12519D01*
X16262D01*
Y12363D01*
X16270Y12326D01*
X16290Y12295D01*
X16321Y12274D01*
X16358Y12267D01*
X17284D01*
X17320Y12274D01*
X17351Y12295D01*
X17372Y12326D01*
X17379Y12363D01*
Y12519D01*
X18828D01*
X19173Y12175D01*
Y11937D01*
X19147Y11932D01*
X19117Y11912D01*
X19097Y11882D01*
X19090Y11846D01*
Y11375D01*
X19097Y11340D01*
X19117Y11310D01*
X19147Y11289D01*
X19183Y11282D01*
X19774D01*
X19809Y11289D01*
X19839Y11310D01*
X19860Y11340D01*
X19867Y11375D01*
Y11846D01*
X19860Y11882D01*
X19839Y11912D01*
X19809Y11932D01*
X19774Y11939D01*
X19745D01*
Y12293D01*
X19735Y12367D01*
X19722Y12397D01*
X19706Y12436D01*
X19661Y12495D01*
X19149Y13007D01*
X19090Y13053D01*
X19021Y13081D01*
X18947Y13091D01*
X17555D01*
X17550Y13141D01*
X17576Y13146D01*
X17656Y13200D01*
X17710Y13281D01*
X17729Y13376D01*
X17713Y13458D01*
X17717Y13481D01*
Y13515D01*
X17735Y13558D01*
X17735Y13558D01*
Y13558D01*
X17767Y13561D01*
X17768Y13557D01*
X17782Y13487D01*
X17836Y13407D01*
X17917Y13353D01*
X18012Y13334D01*
X18107Y13353D01*
X18188Y13407D01*
X18242Y13487D01*
X18261Y13583D01*
X18242Y13678D01*
X18233Y13691D01*
Y13970D01*
X18283Y13990D01*
X19936Y12337D01*
Y9589D01*
X19886Y9562D01*
X19829Y9600D01*
X19757Y9614D01*
X19641Y9730D01*
X19580Y9771D01*
X19508Y9785D01*
X19508Y9785D01*
X18739D01*
X18728Y9793D01*
X18671Y9804D01*
X18199D01*
X18142Y9793D01*
X18094Y9761D01*
X18062Y9712D01*
X18050Y9656D01*
Y9537D01*
X18062Y9481D01*
X18094Y9432D01*
X18142Y9400D01*
X18199Y9389D01*
X18671D01*
X18728Y9400D01*
X18739Y9408D01*
X19430D01*
X19490Y9348D01*
X19504Y9275D01*
X19558Y9194D01*
X19639Y9140D01*
X19734Y9121D01*
X19829Y9140D01*
X19886Y9178D01*
X19936Y9151D01*
Y8543D01*
X19936Y8543D01*
X19947Y8493D01*
X19975Y8450D01*
X22357Y6068D01*
X22400Y6039D01*
X22451Y6029D01*
X22501Y6039D01*
X22528Y6057D01*
X27943D01*
X27956Y6007D01*
X27886Y5969D01*
X27774Y5877D01*
X27682Y5765D01*
X27614Y5637D01*
X27572Y5499D01*
X27557Y5354D01*
X27567Y5257D01*
X27522Y5207D01*
X19552D01*
X19400Y5359D01*
Y6063D01*
X19390Y6137D01*
X19362Y6206D01*
X19316Y6265D01*
X19257Y6311D01*
X19188Y6339D01*
X19114Y6349D01*
X19040Y6339D01*
X18971Y6311D01*
X18912Y6265D01*
X18894Y6242D01*
X18789D01*
X18776Y6261D01*
X18728Y6293D01*
X18671Y6304D01*
X18199D01*
X18142Y6293D01*
X18094Y6261D01*
X18062Y6212D01*
X18050Y6156D01*
Y6037D01*
X18062Y5981D01*
X18094Y5932D01*
X18142Y5900D01*
X18199Y5889D01*
X18379D01*
Y5207D01*
X12889D01*
X12885Y5216D01*
X12840Y5275D01*
X12628Y5487D01*
Y5934D01*
X12632Y5944D01*
X12642Y6018D01*
X12632Y6092D01*
X12604Y6161D01*
X12558Y6220D01*
X12499Y6265D01*
X12430Y6294D01*
X12356Y6304D01*
X12282Y6294D01*
X12213Y6265D01*
X12154Y6220D01*
X12141Y6206D01*
X11869D01*
X11858Y6214D01*
X11801Y6225D01*
X11329D01*
X11272Y6214D01*
X11224Y6182D01*
X11192Y6134D01*
X11180Y6077D01*
Y5959D01*
X11192Y5902D01*
X11224Y5854D01*
X11272Y5821D01*
X11329Y5810D01*
X11801D01*
X11858Y5821D01*
X11869Y5829D01*
X12057D01*
Y5368D01*
X12066Y5294D01*
X12082Y5257D01*
X12048Y5207D01*
X8998D01*
X8982Y5257D01*
X9029Y5328D01*
X9044Y5401D01*
X9218Y5575D01*
X9218Y5575D01*
X9218Y5575D01*
X9259Y5636D01*
X9259Y5636D01*
X9259Y5636D01*
X9273Y5709D01*
X9273Y5709D01*
Y6565D01*
X9259Y6637D01*
X9218Y6698D01*
X9218Y6698D01*
X8765Y7151D01*
X8704Y7192D01*
X8632Y7206D01*
X8632Y7206D01*
X8129D01*
X8118Y7214D01*
X8061Y7225D01*
X7589D01*
X7532Y7214D01*
X7484Y7182D01*
X7451Y7134D01*
X7440Y7077D01*
Y6959D01*
X7451Y6902D01*
X7484Y6854D01*
X7532Y6821D01*
X7589Y6810D01*
X8061D01*
X8118Y6821D01*
X8129Y6829D01*
X8554D01*
X8886Y6496D01*
X8882Y6466D01*
X8830Y6447D01*
X8766Y6490D01*
X8706Y6502D01*
X8557Y6651D01*
X8495Y6692D01*
X8423Y6706D01*
X8423Y6706D01*
X8129D01*
X8118Y6714D01*
X8061Y6725D01*
X7589D01*
X7532Y6714D01*
X7484Y6682D01*
X7451Y6634D01*
X7440Y6577D01*
Y6459D01*
X7451Y6402D01*
X7484Y6354D01*
X7532Y6321D01*
X7589Y6310D01*
X8061D01*
X8118Y6321D01*
X8129Y6329D01*
X8345D01*
X8424Y6250D01*
X8441Y6165D01*
X8495Y6084D01*
X8576Y6030D01*
X8671Y6011D01*
X8766Y6030D01*
X8846Y6083D01*
X8870Y6078D01*
X8896Y6071D01*
Y5787D01*
X8777Y5668D01*
X8704Y5653D01*
X8623Y5599D01*
X8569Y5518D01*
X8550Y5423D01*
X8569Y5328D01*
X8617Y5257D01*
X8600Y5207D01*
X6264D01*
X5916Y5555D01*
Y6004D01*
X5906Y6078D01*
X5878Y6147D01*
X5832Y6206D01*
X5773Y6252D01*
X5704Y6280D01*
X5630Y6290D01*
X5556Y6280D01*
X5487Y6252D01*
X5428Y6206D01*
X5420Y6196D01*
X5371Y6197D01*
X5361Y6211D01*
X5313Y6244D01*
X5256Y6255D01*
X4783D01*
X4727Y6244D01*
X4678Y6211D01*
X4646Y6163D01*
X4635Y6106D01*
Y5988D01*
X4646Y5931D01*
X4678Y5883D01*
X4727Y5851D01*
X4783Y5840D01*
X4976D01*
X4991Y5830D01*
X4991Y5830D01*
X4991Y5830D01*
X5029Y5822D01*
X5063Y5815D01*
X5063D01*
X5063Y5815D01*
X5063Y5815D01*
X5344D01*
Y5437D01*
X5354Y5363D01*
X5382Y5294D01*
X5428Y5235D01*
X5793Y4870D01*
X5778Y4822D01*
X5751Y4817D01*
X5670Y4763D01*
X5617Y4682D01*
X5598Y4587D01*
X5617Y4491D01*
X5657Y4431D01*
X5641Y4377D01*
X5639Y4375D01*
X5628Y4372D01*
X5337Y4663D01*
X5347Y4715D01*
X5328Y4810D01*
X5274Y4891D01*
X5194Y4945D01*
X5098Y4963D01*
X5003Y4945D01*
X4922Y4891D01*
X4868Y4810D01*
X4850Y4715D01*
X4868Y4623D01*
X4865Y4620D01*
X4812Y4609D01*
X4331Y5089D01*
Y5887D01*
X4331Y5887D01*
X4323Y5930D01*
Y6664D01*
X4517Y6859D01*
X4715D01*
X4727Y6851D01*
X4783Y6840D01*
X5256D01*
X5313Y6851D01*
X5361Y6883D01*
X5393Y6931D01*
X5404Y6988D01*
Y7106D01*
X5393Y7163D01*
X5361Y7211D01*
X5313Y7244D01*
X5256Y7255D01*
X4783D01*
X4727Y7244D01*
X4715Y7236D01*
X4439D01*
X4439Y7236D01*
X4367Y7222D01*
X4306Y7181D01*
X4306Y7181D01*
X4000Y6876D01*
X3960Y6814D01*
X3945Y6742D01*
X3945Y6742D01*
Y5896D01*
X3945Y5896D01*
X3954Y5853D01*
Y5011D01*
X3954Y5011D01*
X3959Y4985D01*
X3913Y4960D01*
X3791Y5082D01*
Y6782D01*
X3832Y6844D01*
X3851Y6939D01*
X3832Y7034D01*
X3778Y7115D01*
X3698Y7169D01*
X3602Y7188D01*
X3507Y7169D01*
X3426Y7115D01*
X3372Y7034D01*
X3353Y6939D01*
X3372Y6844D01*
X3414Y6782D01*
Y5004D01*
X3414Y5004D01*
X3428Y4932D01*
X3469Y4871D01*
X3469Y4871D01*
X5710Y2630D01*
X5674Y2564D01*
X5636Y2436D01*
X5623Y2303D01*
X5636Y2170D01*
X5674Y2043D01*
X5737Y1925D01*
X5822Y1822D01*
X5925Y1737D01*
X6043Y1674D01*
X6170Y1636D01*
X6303Y1623D01*
X6436Y1636D01*
X6564Y1674D01*
X6681Y1737D01*
X6784Y1822D01*
X6869Y1925D01*
X6932Y2043D01*
X6971Y2170D01*
X6984Y2303D01*
X6971Y2436D01*
X6932Y2564D01*
X6869Y2681D01*
X6784Y2784D01*
X6681Y2869D01*
X6564Y2932D01*
X6436Y2971D01*
X6303Y2984D01*
X6170Y2971D01*
X6043Y2932D01*
X5977Y2896D01*
X5156Y3717D01*
X5180Y3763D01*
X5207Y3758D01*
X5207Y3758D01*
X6851D01*
X7822Y2787D01*
X7822Y2784D01*
X7737Y2681D01*
X7674Y2564D01*
X7636Y2436D01*
X7623Y2303D01*
X7636Y2170D01*
X7674Y2043D01*
X7737Y1925D01*
X7822Y1822D01*
X7925Y1737D01*
X8043Y1674D01*
X8170Y1636D01*
X8303Y1623D01*
X8436Y1636D01*
X8564Y1674D01*
X8681Y1737D01*
X8784Y1822D01*
X8869Y1925D01*
X8932Y2043D01*
X8971Y2170D01*
X8984Y2303D01*
X8971Y2436D01*
X8932Y2564D01*
X8869Y2681D01*
X8784Y2784D01*
X8681Y2869D01*
X8564Y2932D01*
X8436Y2971D01*
X8303Y2984D01*
X8172Y2971D01*
X7424Y3718D01*
X7441Y3773D01*
X7507Y3786D01*
X7587Y3840D01*
X7641Y3921D01*
X7660Y4016D01*
X7658Y4026D01*
X7703Y4056D01*
X7739Y4032D01*
X7835Y4013D01*
X7930Y4032D01*
X8011Y4086D01*
X8065Y4167D01*
X8084Y4262D01*
X8065Y4357D01*
X8011Y4438D01*
X7930Y4492D01*
X7835Y4511D01*
X7777Y4499D01*
X7758Y4512D01*
X7707Y4522D01*
X7707Y4522D01*
X6132D01*
X6092Y4569D01*
X6095Y4587D01*
X6092Y4601D01*
X6127Y4638D01*
X6146Y4635D01*
X8724D01*
X8729Y4585D01*
X8704Y4580D01*
X8623Y4526D01*
X8569Y4446D01*
X8550Y4350D01*
X8569Y4255D01*
X8611Y4193D01*
Y3807D01*
X8611Y3807D01*
X8625Y3735D01*
X8666Y3674D01*
X8666Y3674D01*
X9710Y2630D01*
X9674Y2564D01*
X9636Y2436D01*
X9623Y2303D01*
X9636Y2170D01*
X9674Y2043D01*
X9737Y1925D01*
X9822Y1822D01*
X9925Y1737D01*
X10043Y1674D01*
X10170Y1636D01*
X10303Y1623D01*
X10436Y1636D01*
X10564Y1674D01*
X10681Y1737D01*
X10784Y1822D01*
X10869Y1925D01*
X10932Y2043D01*
X10971Y2170D01*
X10984Y2303D01*
X10971Y2436D01*
X10932Y2564D01*
X10869Y2681D01*
X10784Y2784D01*
X10681Y2869D01*
X10564Y2932D01*
X10436Y2971D01*
X10303Y2984D01*
X10170Y2971D01*
X10043Y2932D01*
X9977Y2896D01*
X8988Y3885D01*
Y4193D01*
X9029Y4255D01*
X9048Y4350D01*
X9029Y4446D01*
X8975Y4526D01*
X8894Y4580D01*
X8869Y4585D01*
X8874Y4635D01*
X9492D01*
X9497Y4585D01*
X9472Y4580D01*
X9391Y4526D01*
X9337Y4446D01*
X9318Y4350D01*
X9337Y4255D01*
X9391Y4174D01*
X9472Y4120D01*
X9567Y4102D01*
X9568Y4102D01*
X10841Y2829D01*
X10841Y2829D01*
X10902Y2788D01*
X10974Y2774D01*
X11749D01*
X11772Y2724D01*
X11737Y2681D01*
X11674Y2564D01*
X11636Y2436D01*
X11623Y2303D01*
X11636Y2170D01*
X11674Y2043D01*
X11737Y1925D01*
X11822Y1822D01*
X11925Y1737D01*
X12043Y1674D01*
X12170Y1636D01*
X12303Y1623D01*
X12436Y1636D01*
X12564Y1674D01*
X12681Y1737D01*
X12784Y1822D01*
X12869Y1925D01*
X12932Y2043D01*
X12971Y2170D01*
X12984Y2303D01*
X12975Y2391D01*
X13023Y2413D01*
X13267Y2170D01*
X13267Y2170D01*
X13328Y2129D01*
X13400Y2114D01*
X13400Y2114D01*
X13619D01*
Y1860D01*
X13638Y1769D01*
X13689Y1691D01*
X13767Y1640D01*
X13858Y1621D01*
X14744D01*
X14835Y1640D01*
X14913Y1691D01*
X14965Y1769D01*
X14983Y1860D01*
Y2746D01*
X14965Y2837D01*
X14913Y2915D01*
X14835Y2967D01*
X14744Y2985D01*
X13858D01*
X13767Y2967D01*
X13689Y2915D01*
X13638Y2837D01*
X13619Y2746D01*
Y2492D01*
X13478D01*
X12758Y3212D01*
X12758Y3212D01*
X12745Y3221D01*
X11757Y4208D01*
X11696Y4249D01*
X11624Y4263D01*
X11624Y4263D01*
X11013D01*
X10874Y4402D01*
X10860Y4475D01*
X10806Y4556D01*
X10762Y4585D01*
X10777Y4635D01*
X15424D01*
X15451Y4585D01*
X15430Y4554D01*
X15411Y4459D01*
X15430Y4363D01*
X15483Y4283D01*
X15564Y4229D01*
X15659Y4210D01*
X15668Y4212D01*
X15747Y4133D01*
X15802Y4096D01*
X15866Y4083D01*
X16073D01*
X16076Y4084D01*
X16079Y4083D01*
X16275Y4091D01*
X17718Y2648D01*
X17673Y2564D01*
X17634Y2436D01*
X17621Y2303D01*
X17634Y2170D01*
X17673Y2043D01*
X17735Y1925D01*
X17820Y1822D01*
X17923Y1737D01*
X18041Y1675D01*
X18168Y1636D01*
X18301Y1623D01*
X18434Y1636D01*
X18562Y1675D01*
X18679Y1737D01*
X18782Y1822D01*
X18867Y1925D01*
X18930Y2043D01*
X18969Y2170D01*
X18982Y2303D01*
X18969Y2436D01*
X18930Y2564D01*
X18867Y2681D01*
X18782Y2784D01*
X18679Y2869D01*
X18562Y2932D01*
X18434Y2971D01*
X18301Y2984D01*
X18168Y2971D01*
X18041Y2932D01*
X17956Y2887D01*
X16462Y4381D01*
X16459Y4383D01*
X16457Y4385D01*
X16432Y4401D01*
X16407Y4418D01*
X16404Y4418D01*
X16401Y4420D01*
X16372Y4425D01*
X16343Y4430D01*
X16339Y4430D01*
X16336Y4430D01*
X16070Y4421D01*
X15943D01*
X15908Y4459D01*
X15889Y4554D01*
X15868Y4585D01*
X15895Y4635D01*
X17259D01*
X17275Y4585D01*
X17245Y4566D01*
X17191Y4485D01*
X17172Y4390D01*
X17191Y4295D01*
X17245Y4214D01*
X17326Y4160D01*
X17421Y4141D01*
X17516Y4160D01*
X17578Y4201D01*
X18136D01*
X18219Y4119D01*
X18219Y4119D01*
X19708Y2630D01*
X19673Y2564D01*
X19634Y2436D01*
X19621Y2303D01*
X19634Y2170D01*
X19673Y2043D01*
X19735Y1925D01*
X19820Y1822D01*
X19923Y1737D01*
X20041Y1675D01*
X20168Y1636D01*
X20301Y1623D01*
X20434Y1636D01*
X20562Y1675D01*
X20679Y1737D01*
X20782Y1822D01*
X20867Y1925D01*
X20930Y2043D01*
X20969Y2170D01*
X20982Y2303D01*
X20969Y2436D01*
X20930Y2564D01*
X20867Y2681D01*
X20782Y2784D01*
X20679Y2869D01*
X20562Y2932D01*
X20434Y2971D01*
X20301Y2984D01*
X20168Y2971D01*
X20041Y2932D01*
X19975Y2896D01*
X18486Y4385D01*
X18486Y4385D01*
X18348Y4523D01*
X18287Y4564D01*
X18215Y4578D01*
X18215Y4578D01*
X17618D01*
X17613Y4585D01*
X17638Y4635D01*
X19781D01*
X19798Y4585D01*
X19750Y4515D01*
X19731Y4419D01*
X19750Y4324D01*
X19804Y4243D01*
X19885Y4189D01*
X19980Y4170D01*
X20076Y4189D01*
X20119Y4218D01*
X21708Y2630D01*
X21673Y2564D01*
X21634Y2436D01*
X21621Y2303D01*
X21634Y2170D01*
X21673Y2043D01*
X21735Y1925D01*
X21820Y1822D01*
X21923Y1737D01*
X22041Y1675D01*
X22168Y1636D01*
X22301Y1623D01*
X22434Y1636D01*
X22562Y1675D01*
X22679Y1737D01*
X22782Y1822D01*
X22867Y1925D01*
X22930Y2043D01*
X22969Y2170D01*
X22982Y2303D01*
X22969Y2436D01*
X22930Y2564D01*
X22867Y2681D01*
X22782Y2784D01*
X22679Y2869D01*
X22562Y2932D01*
X22434Y2971D01*
X22301Y2984D01*
X22168Y2971D01*
X22041Y2932D01*
X21975Y2896D01*
X20318Y4553D01*
X20270Y4585D01*
X20284Y4635D01*
X21241D01*
X21267Y4585D01*
X21246Y4554D01*
X21228Y4459D01*
X21246Y4363D01*
X21300Y4283D01*
X21381Y4229D01*
X21476Y4210D01*
X21572Y4229D01*
X21633Y4270D01*
X22068D01*
X22150Y4187D01*
X22150Y4187D01*
X23708Y2630D01*
X23673Y2564D01*
X23634Y2436D01*
X23621Y2303D01*
X23634Y2170D01*
X23673Y2043D01*
X23735Y1925D01*
X23820Y1822D01*
X23923Y1737D01*
X24041Y1675D01*
X24168Y1636D01*
X24301Y1623D01*
X24434Y1636D01*
X24562Y1675D01*
X24679Y1737D01*
X24782Y1822D01*
X24867Y1925D01*
X24930Y2043D01*
X24969Y2170D01*
X24982Y2303D01*
X24969Y2436D01*
X24930Y2564D01*
X24867Y2681D01*
X24782Y2784D01*
X24679Y2869D01*
X24562Y2932D01*
X24434Y2971D01*
X24301Y2984D01*
X24168Y2971D01*
X24041Y2932D01*
X23975Y2896D01*
X22417Y4454D01*
X22417Y4454D01*
X22286Y4585D01*
X22291Y4612D01*
X22304Y4635D01*
X27874D01*
X27948Y4645D01*
X28012Y4672D01*
X28014Y4671D01*
X28153Y4629D01*
X28297Y4615D01*
X28442Y4629D01*
X28580Y4671D01*
X28708Y4739D01*
X28820Y4831D01*
X28912Y4943D01*
X28981Y5071D01*
X29023Y5210D01*
X29034Y5324D01*
X30709D01*
Y5186D01*
X30716Y5149D01*
X30737Y5117D01*
X30769Y5096D01*
X30806Y5089D01*
X31426D01*
X31690Y4825D01*
X31669Y4775D01*
X31485D01*
Y4312D01*
X31722D01*
Y4722D01*
X31772Y4743D01*
X32613Y3902D01*
X32672Y3857D01*
X32741Y3828D01*
X32815Y3818D01*
X32957D01*
Y3762D01*
X33504D01*
Y4762D01*
X32957D01*
Y4438D01*
X32907Y4417D01*
X31909Y5414D01*
Y6035D01*
X31902Y6072D01*
X31881Y6103D01*
X31849Y6124D01*
X31812Y6132D01*
X30806D01*
X30769Y6124D01*
X30737Y6103D01*
X30716Y6072D01*
X30709Y6035D01*
Y5896D01*
X28798D01*
X28708Y5969D01*
X28580Y6038D01*
X28442Y6080D01*
X28297Y6094D01*
X28239Y6088D01*
X28216Y6136D01*
X28266Y6186D01*
X28624D01*
X28653Y6143D01*
X28733Y6089D01*
X28829Y6070D01*
X28924Y6089D01*
X29005Y6143D01*
X29059Y6224D01*
X29078Y6319D01*
X29059Y6414D01*
X29005Y6495D01*
X28924Y6549D01*
X28829Y6568D01*
X28733Y6549D01*
X28653Y6495D01*
X28624Y6451D01*
X28257D01*
X28211Y6476D01*
X28193Y6572D01*
X28169Y6607D01*
X28196Y6657D01*
X33490D01*
X34981Y5166D01*
X34986Y5106D01*
X34956Y5083D01*
X34895Y5004D01*
X34856Y4911D01*
X34843Y4811D01*
X34856Y4711D01*
X34895Y4618D01*
X34956Y4539D01*
X35036Y4477D01*
X35129Y4439D01*
X35228Y4426D01*
X35425D01*
X35525Y4439D01*
X35618Y4477D01*
X35698Y4539D01*
X35759Y4618D01*
X35797Y4711D01*
X35802Y4744D01*
X35852D01*
X35856Y4711D01*
X35895Y4618D01*
X35956Y4539D01*
X36036Y4477D01*
X36129Y4439D01*
X36228Y4426D01*
X36425D01*
X36525Y4439D01*
X36618Y4477D01*
X36698Y4539D01*
X36759Y4618D01*
X36797Y4711D01*
X36810Y4811D01*
X36797Y4911D01*
X36759Y5004D01*
X36698Y5083D01*
X36618Y5145D01*
X36525Y5183D01*
X36425Y5196D01*
X36228D01*
X36129Y5183D01*
X36036Y5145D01*
X35956Y5083D01*
X35895Y5004D01*
X35856Y4911D01*
X35852Y4878D01*
X35802D01*
X35797Y4911D01*
X35759Y5004D01*
X35713Y5064D01*
X35737Y5114D01*
X35762D01*
X35762Y5114D01*
X35813Y5124D01*
X35855Y5152D01*
X36140Y5437D01*
X36228Y5426D01*
X36425D01*
X36525Y5439D01*
X36618Y5477D01*
X36698Y5539D01*
X36759Y5618D01*
X36797Y5711D01*
X36810Y5811D01*
X36797Y5911D01*
X36759Y6004D01*
X36698Y6083D01*
X36618Y6145D01*
X36525Y6183D01*
X36425Y6196D01*
X36228D01*
X36129Y6183D01*
X36036Y6145D01*
X35956Y6083D01*
X35895Y6004D01*
X35856Y5911D01*
X35852Y5878D01*
X35802D01*
X35797Y5911D01*
X35759Y6004D01*
X35698Y6083D01*
X35618Y6145D01*
X35525Y6183D01*
X35425Y6196D01*
X35228D01*
X35129Y6183D01*
X35036Y6145D01*
X34956Y6083D01*
X34920Y6037D01*
X34854Y6032D01*
X33929Y6957D01*
X33948Y7003D01*
X34850D01*
X34877Y6962D01*
X34856Y6911D01*
X34843Y6811D01*
X34856Y6711D01*
X34895Y6618D01*
X34956Y6539D01*
X35036Y6477D01*
X35129Y6439D01*
X35228Y6426D01*
X35425D01*
X35525Y6439D01*
X35618Y6477D01*
X35698Y6539D01*
X35759Y6618D01*
X35797Y6711D01*
X35802Y6744D01*
X35852D01*
X35856Y6711D01*
X35895Y6618D01*
X35956Y6539D01*
X36036Y6477D01*
X36129Y6439D01*
X36228Y6426D01*
X36425D01*
X36525Y6439D01*
X36618Y6477D01*
X36698Y6539D01*
X36759Y6618D01*
X36797Y6711D01*
X36810Y6811D01*
X36797Y6911D01*
X36759Y7004D01*
X36720Y7054D01*
X36745Y7104D01*
X36911D01*
X36911Y7104D01*
X36962Y7114D01*
X37005Y7143D01*
X37131Y7269D01*
X37155Y7304D01*
X37187Y7302D01*
X37205Y7296D01*
X37205Y232D01*
X37169Y197D01*
X232Y197D01*
X197Y232D01*
X197Y24213D01*
X37205Y24213D01*
X37205Y13758D01*
D02*
G37*
G36*
X20990Y21605D02*
X20981Y21591D01*
X20962Y21496D01*
X20981Y21401D01*
X21035Y21320D01*
X21078Y21291D01*
Y19681D01*
X21048Y19651D01*
X21019Y19608D01*
X21009Y19557D01*
X21019Y19506D01*
X21048Y19463D01*
X21425Y19087D01*
X21415Y19035D01*
X21433Y18940D01*
X21487Y18859D01*
X21507Y18846D01*
X21492Y18796D01*
X20201D01*
X20126Y18871D01*
X20112Y18944D01*
X20058Y19024D01*
X19977Y19078D01*
X19882Y19097D01*
X19787Y19078D01*
X19706Y19024D01*
X19652Y18944D01*
X19633Y18848D01*
X19652Y18753D01*
X19706Y18672D01*
X19787Y18618D01*
X19859Y18604D01*
X19989Y18474D01*
X19989Y18474D01*
X20051Y18433D01*
X20123Y18419D01*
X20123Y18419D01*
X22309D01*
Y18186D01*
X22316Y18151D01*
X22336Y18121D01*
X22366Y18101D01*
X22369Y18100D01*
Y17916D01*
X21964D01*
X21928Y17909D01*
X21897Y17888D01*
X21876Y17857D01*
X21869Y17820D01*
Y16894D01*
X21876Y16858D01*
X21897Y16827D01*
X21928Y16806D01*
X21964Y16799D01*
X22369D01*
Y13515D01*
X22366Y13514D01*
X22336Y13494D01*
X22316Y13464D01*
X22309Y13429D01*
Y13086D01*
X22316Y13051D01*
X22336Y13021D01*
X22366Y13001D01*
X22369Y13000D01*
Y12857D01*
X22369Y12857D01*
X22369Y12857D01*
Y12844D01*
X22308Y12782D01*
X22267Y12721D01*
X22252Y12649D01*
X22252Y12649D01*
Y12578D01*
X22211Y12516D01*
X22206Y12492D01*
X22156Y12497D01*
Y15775D01*
X22146Y15825D01*
X22117Y15868D01*
X22117Y15868D01*
X21629Y16357D01*
X21647Y16447D01*
X21628Y16542D01*
X21574Y16623D01*
X21493Y16677D01*
X21398Y16696D01*
X21302Y16677D01*
X21222Y16623D01*
X21168Y16542D01*
X21149Y16447D01*
X21168Y16352D01*
X21218Y16277D01*
X21210Y16254D01*
X21193Y16231D01*
X21132Y16243D01*
X21037Y16224D01*
X21013Y16208D01*
X20969Y16232D01*
Y16557D01*
X21013Y16586D01*
X21067Y16667D01*
X21085Y16762D01*
X21067Y16857D01*
X21013Y16938D01*
X20932Y16992D01*
X20837Y17011D01*
X20741Y16992D01*
X20661Y16938D01*
X20607Y16857D01*
X20588Y16762D01*
X20607Y16667D01*
X20661Y16586D01*
X20704Y16557D01*
Y15671D01*
X20658Y15651D01*
X20654Y15652D01*
X20627Y15692D01*
X20627Y15692D01*
X20260Y16059D01*
Y17315D01*
X20304Y17344D01*
X20358Y17424D01*
X20377Y17520D01*
X20358Y17615D01*
X20304Y17696D01*
X20223Y17750D01*
X20128Y17769D01*
X20033Y17750D01*
X19952Y17696D01*
X19898Y17615D01*
X19879Y17520D01*
X19898Y17424D01*
X19952Y17344D01*
X19995Y17315D01*
Y16004D01*
X19995Y16004D01*
X20006Y15953D01*
X20034Y15910D01*
X20408Y15537D01*
X20411Y15520D01*
X20440Y15477D01*
X21186Y14731D01*
Y11083D01*
X21186Y11083D01*
X21197Y11032D01*
X21225Y10989D01*
X25519Y6696D01*
X25519Y6696D01*
X25562Y6667D01*
X25602Y6659D01*
X25598Y6609D01*
X22466D01*
X21265Y7810D01*
X21265Y7810D01*
X20375Y8701D01*
Y9146D01*
X20421Y9165D01*
X21740Y7847D01*
X21729Y7795D01*
X21748Y7700D01*
X21802Y7619D01*
X21883Y7565D01*
X21978Y7546D01*
X22074Y7565D01*
X22154Y7619D01*
X22208Y7700D01*
X22227Y7795D01*
X22208Y7891D01*
X22166Y7954D01*
X22196Y7999D01*
X22244Y7989D01*
X22339Y8008D01*
X22420Y8062D01*
X22474Y8143D01*
X22493Y8238D01*
X22474Y8333D01*
X22427Y8404D01*
X22428Y8411D01*
X22438Y8441D01*
X22448Y8455D01*
X22526Y8471D01*
X22607Y8525D01*
X22661Y8606D01*
X22680Y8701D01*
X22661Y8796D01*
X22636Y8834D01*
X22659Y8889D01*
X22684Y8894D01*
X22765Y8948D01*
X22819Y9029D01*
X22837Y9124D01*
X22819Y9219D01*
X22765Y9300D01*
X22684Y9354D01*
X22589Y9373D01*
X22537Y9363D01*
X21068Y10832D01*
Y12751D01*
X21057Y12801D01*
X21029Y12844D01*
X21029Y12844D01*
X19345Y14528D01*
Y17927D01*
X19348Y17930D01*
X19348Y17930D01*
X19376Y17973D01*
X19386Y18024D01*
Y21509D01*
X19432Y21518D01*
X19436Y21517D01*
X19489Y21438D01*
X19570Y21384D01*
X19665Y21365D01*
X19761Y21384D01*
X19804Y21413D01*
X19854Y21386D01*
Y21335D01*
X19631Y21112D01*
X19624Y21103D01*
X19548Y21052D01*
X19494Y20971D01*
X19476Y20876D01*
X19494Y20781D01*
X19548Y20700D01*
X19629Y20646D01*
X19724Y20627D01*
X19820Y20646D01*
X19900Y20700D01*
X19954Y20781D01*
X19973Y20876D01*
X19954Y20971D01*
X19918Y21025D01*
X20000Y21107D01*
X20048Y21093D01*
X20055Y21056D01*
X20109Y20976D01*
X20190Y20922D01*
X20285Y20903D01*
X20381Y20922D01*
X20461Y20976D01*
X20515Y21056D01*
X20534Y21152D01*
X20524Y21203D01*
X20546Y21225D01*
X20546Y21225D01*
X20575Y21268D01*
X20585Y21319D01*
Y21481D01*
X20754Y21649D01*
X20966D01*
X20990Y21605D01*
D02*
G37*
G36*
X35856Y9711D02*
X35895Y9618D01*
X35956Y9539D01*
X36036Y9477D01*
X36129Y9439D01*
X36228Y9426D01*
X36425D01*
X36525Y9439D01*
X36618Y9477D01*
X36682Y9526D01*
X36732Y9505D01*
Y9117D01*
X36682Y9096D01*
X36618Y9145D01*
X36525Y9183D01*
X36425Y9196D01*
X36228D01*
X36129Y9183D01*
X36036Y9145D01*
X35956Y9083D01*
X35895Y9004D01*
X35856Y8911D01*
X35852Y8878D01*
X35802D01*
X35797Y8911D01*
X35759Y9004D01*
X35698Y9083D01*
X35618Y9145D01*
X35525Y9183D01*
X35425Y9196D01*
X35228D01*
X35129Y9183D01*
X35036Y9145D01*
X34956Y9083D01*
X34936Y9058D01*
X34886Y9075D01*
Y9547D01*
X34936Y9564D01*
X34956Y9539D01*
X35036Y9477D01*
X35129Y9439D01*
X35228Y9426D01*
X35425D01*
X35525Y9439D01*
X35618Y9477D01*
X35698Y9539D01*
X35759Y9618D01*
X35797Y9711D01*
X35802Y9744D01*
X35852D01*
X35856Y9711D01*
D02*
G37*
G36*
X30133Y17454D02*
Y13928D01*
X30021Y13815D01*
X29975Y13835D01*
Y17295D01*
X30018Y17324D01*
X30072Y17405D01*
X30083Y17459D01*
X30133Y17454D01*
D02*
G37*
G36*
X33614Y17703D02*
X33591Y17699D01*
X33561Y17679D01*
X33541Y17649D01*
X33534Y17614D01*
Y17301D01*
X33541Y17266D01*
X33561Y17236D01*
X33586Y17219D01*
X33594Y17191D01*
X33597Y17164D01*
X33324Y16891D01*
X33278Y16915D01*
X33281Y16931D01*
Y17244D01*
X33274Y17279D01*
X33254Y17309D01*
X33224Y17329D01*
X33189Y17336D01*
X32836D01*
X32801Y17329D01*
X32771Y17309D01*
X32751Y17279D01*
X32744Y17244D01*
Y17031D01*
X32299Y16586D01*
X31862D01*
X31833Y16580D01*
X31816Y16600D01*
X31805Y16622D01*
X31856Y16697D01*
X31875Y16793D01*
X31856Y16888D01*
X31802Y16969D01*
X31721Y17023D01*
X31626Y17042D01*
X31531Y17023D01*
X31482Y16990D01*
X31432Y17016D01*
Y17133D01*
X31861Y17563D01*
X31926Y17556D01*
X31929Y17552D01*
X32010Y17498D01*
X32105Y17479D01*
X32200Y17498D01*
X32281Y17552D01*
X32335Y17633D01*
X32354Y17728D01*
X32335Y17823D01*
X32281Y17904D01*
X32200Y17958D01*
X32105Y17977D01*
X32010Y17958D01*
X31982Y17939D01*
X31934Y17967D01*
Y19273D01*
X31977Y19302D01*
X32031Y19383D01*
X32050Y19478D01*
X32031Y19574D01*
X31977Y19654D01*
X31896Y19708D01*
X31801Y19727D01*
X31706Y19708D01*
X31641Y19665D01*
X31591Y19686D01*
Y19783D01*
X31635Y19812D01*
X31689Y19893D01*
X31708Y19988D01*
X31689Y20083D01*
X31635Y20164D01*
X31554Y20218D01*
X31459Y20237D01*
X31363Y20218D01*
X31283Y20164D01*
X31229Y20083D01*
X31210Y19988D01*
X31229Y19893D01*
X31283Y19812D01*
X31326Y19783D01*
Y18663D01*
X31276Y18651D01*
X31200Y18702D01*
X31104Y18721D01*
X31009Y18702D01*
X30928Y18648D01*
X30874Y18568D01*
X30855Y18472D01*
X30874Y18377D01*
X30928Y18296D01*
X30972Y18267D01*
Y17808D01*
X30750Y17585D01*
X30703Y17605D01*
Y18821D01*
X30747Y18850D01*
X30801Y18930D01*
X30820Y19026D01*
X30801Y19121D01*
X30747Y19202D01*
X30666Y19256D01*
X30571Y19274D01*
X30476Y19256D01*
X30395Y19202D01*
X30341Y19121D01*
X30322Y19026D01*
X30341Y18930D01*
X30367Y18892D01*
X30336Y18847D01*
X30266Y18861D01*
X30171Y18842D01*
X30090Y18788D01*
X30036Y18707D01*
X30017Y18612D01*
X30036Y18517D01*
X30090Y18436D01*
X30133Y18407D01*
Y17546D01*
X30083Y17541D01*
X30072Y17595D01*
X30018Y17676D01*
X29938Y17730D01*
X29843Y17749D01*
X29747Y17730D01*
X29667Y17676D01*
X29613Y17595D01*
X29594Y17500D01*
X29613Y17405D01*
X29667Y17324D01*
X29710Y17295D01*
Y13749D01*
X29524Y13564D01*
X29478Y13588D01*
X29481Y13602D01*
X29462Y13698D01*
X29408Y13778D01*
X29328Y13832D01*
X29232Y13851D01*
X29181Y13841D01*
X29171Y13851D01*
X29128Y13880D01*
X29077Y13890D01*
X29077Y13890D01*
X28806D01*
Y13929D01*
X28799Y13964D01*
X28779Y13994D01*
X28749Y14014D01*
X28746Y14015D01*
Y17700D01*
X28749Y17701D01*
X28779Y17721D01*
X28799Y17751D01*
X28806Y17786D01*
Y17944D01*
X28844Y17975D01*
X28861Y17972D01*
X28861Y17972D01*
X29058D01*
X29119Y17931D01*
X29214Y17912D01*
X29310Y17931D01*
X29390Y17985D01*
X29444Y18066D01*
X29463Y18161D01*
X29444Y18256D01*
X29390Y18337D01*
X29310Y18391D01*
X29214Y18410D01*
X29119Y18391D01*
X29058Y18349D01*
X28939D01*
X28770Y18519D01*
X28746Y18535D01*
Y18627D01*
X30559Y20440D01*
X32486D01*
Y20289D01*
X32493Y20251D01*
X32514Y20220D01*
X32546Y20199D01*
X32583Y20191D01*
X33432D01*
X33469Y20199D01*
X33501Y20220D01*
X33522Y20251D01*
X33529Y20289D01*
Y20571D01*
X33614D01*
Y17703D01*
D02*
G37*
G36*
X22192Y8752D02*
X22182Y8701D01*
X22201Y8606D01*
X22244Y8541D01*
X22226Y8494D01*
X22181Y8489D01*
X20721Y9949D01*
Y10158D01*
X20767Y10177D01*
X22192Y8752D01*
D02*
G37*
G36*
X35856Y11711D02*
X35895Y11618D01*
X35956Y11539D01*
X36036Y11477D01*
X36129Y11439D01*
X36228Y11426D01*
X36425D01*
X36525Y11439D01*
X36618Y11477D01*
X36682Y11526D01*
X36732Y11505D01*
Y11117D01*
X36682Y11096D01*
X36618Y11145D01*
X36525Y11183D01*
X36425Y11196D01*
X36228D01*
X36129Y11183D01*
X36036Y11145D01*
X35956Y11083D01*
X35895Y11004D01*
X35856Y10911D01*
X35852Y10878D01*
X35802D01*
X35797Y10911D01*
X35759Y11004D01*
X35698Y11083D01*
X35618Y11145D01*
X35525Y11183D01*
X35425Y11196D01*
X35228D01*
X35129Y11183D01*
X35036Y11145D01*
X34956Y11083D01*
X34936Y11058D01*
X34886Y11075D01*
Y11547D01*
X34936Y11564D01*
X34956Y11539D01*
X35036Y11477D01*
X35129Y11439D01*
X35228Y11426D01*
X35425D01*
X35525Y11439D01*
X35618Y11477D01*
X35698Y11539D01*
X35759Y11618D01*
X35797Y11711D01*
X35802Y11744D01*
X35852D01*
X35856Y11711D01*
D02*
G37*
G36*
Y10711D02*
X35895Y10618D01*
X35956Y10539D01*
X36036Y10477D01*
X36129Y10439D01*
X36228Y10426D01*
X36425D01*
X36525Y10439D01*
X36618Y10477D01*
X36682Y10526D01*
X36732Y10505D01*
Y10117D01*
X36682Y10096D01*
X36618Y10145D01*
X36525Y10183D01*
X36425Y10196D01*
X36228D01*
X36129Y10183D01*
X36036Y10145D01*
X35956Y10083D01*
X35895Y10004D01*
X35856Y9911D01*
X35852Y9878D01*
X35802D01*
X35797Y9911D01*
X35759Y10004D01*
X35698Y10083D01*
X35618Y10145D01*
X35525Y10183D01*
X35425Y10196D01*
X35228D01*
X35129Y10183D01*
X35036Y10145D01*
X34956Y10083D01*
X34936Y10058D01*
X34886Y10075D01*
Y10547D01*
X34936Y10564D01*
X34956Y10539D01*
X35036Y10477D01*
X35129Y10439D01*
X35228Y10426D01*
X35425D01*
X35525Y10439D01*
X35618Y10477D01*
X35698Y10539D01*
X35759Y10618D01*
X35797Y10711D01*
X35802Y10744D01*
X35852D01*
X35856Y10711D01*
D02*
G37*
G36*
X36905Y8122D02*
Y7417D01*
X36857Y7369D01*
X35052D01*
X35052Y7369D01*
X35002Y7359D01*
X34959Y7330D01*
X34897Y7268D01*
X34337D01*
X34318Y7314D01*
X34795Y7792D01*
X34848Y7774D01*
X34856Y7711D01*
X34895Y7618D01*
X34956Y7539D01*
X35036Y7477D01*
X35129Y7439D01*
X35228Y7426D01*
X35425D01*
X35525Y7439D01*
X35618Y7477D01*
X35698Y7539D01*
X35759Y7618D01*
X35797Y7711D01*
X35802Y7744D01*
X35852D01*
X35856Y7711D01*
X35895Y7618D01*
X35956Y7539D01*
X36036Y7477D01*
X36129Y7439D01*
X36228Y7426D01*
X36425D01*
X36525Y7439D01*
X36618Y7477D01*
X36698Y7539D01*
X36759Y7618D01*
X36797Y7711D01*
X36810Y7811D01*
X36797Y7911D01*
X36759Y8004D01*
X36720Y8054D01*
X36745Y8104D01*
X36770D01*
X36770Y8104D01*
X36820Y8114D01*
X36855Y8137D01*
X36905Y8122D01*
D02*
G37*
G36*
X23074Y21599D02*
X22674Y21199D01*
X22633Y21138D01*
X22619Y21065D01*
X22619Y21065D01*
Y19014D01*
X22578Y18953D01*
X22563Y18880D01*
X22479Y18796D01*
X21835D01*
X21819Y18846D01*
X21839Y18859D01*
X21893Y18940D01*
X21912Y19035D01*
X21893Y19131D01*
X21839Y19211D01*
X21759Y19265D01*
X21663Y19284D01*
X21612Y19274D01*
X21324Y19562D01*
X21333Y19575D01*
X21343Y19626D01*
Y21291D01*
X21387Y21320D01*
X21441Y21401D01*
X21460Y21496D01*
X21441Y21591D01*
X21431Y21605D01*
X21455Y21649D01*
X23054D01*
X23074Y21599D01*
D02*
G37*
G36*
X35856Y12711D02*
X35895Y12618D01*
X35956Y12539D01*
X36036Y12477D01*
X36129Y12439D01*
X36228Y12426D01*
X36425D01*
X36513Y12437D01*
X36732Y12219D01*
Y12117D01*
X36682Y12096D01*
X36618Y12145D01*
X36525Y12183D01*
X36425Y12196D01*
X36228D01*
X36129Y12183D01*
X36036Y12145D01*
X35956Y12083D01*
X35895Y12004D01*
X35856Y11911D01*
X35852Y11878D01*
X35802D01*
X35797Y11911D01*
X35759Y12004D01*
X35698Y12083D01*
X35618Y12145D01*
X35525Y12183D01*
X35425Y12196D01*
X35228D01*
X35129Y12183D01*
X35036Y12145D01*
X34956Y12083D01*
X34936Y12058D01*
X34886Y12075D01*
Y12547D01*
X34936Y12564D01*
X34956Y12539D01*
X35036Y12477D01*
X35129Y12439D01*
X35228Y12426D01*
X35425D01*
X35525Y12439D01*
X35618Y12477D01*
X35698Y12539D01*
X35759Y12618D01*
X35797Y12711D01*
X35802Y12744D01*
X35852D01*
X35856Y12711D01*
D02*
G37*
G36*
X22350Y9175D02*
X22340Y9124D01*
X22358Y9032D01*
X22356Y9029D01*
X22308Y9011D01*
X20894Y10425D01*
Y10566D01*
X20940Y10585D01*
X22350Y9175D01*
D02*
G37*
G36*
X35856Y13711D02*
X35895Y13618D01*
X35956Y13539D01*
X36036Y13477D01*
X36129Y13439D01*
X36228Y13426D01*
X36425D01*
X36525Y13439D01*
X36618Y13477D01*
X36698Y13539D01*
X36759Y13618D01*
X36784Y13679D01*
X36862D01*
X36905Y13636D01*
Y12486D01*
X36859Y12466D01*
X36736Y12589D01*
X36759Y12618D01*
X36797Y12711D01*
X36810Y12811D01*
X36797Y12911D01*
X36759Y13004D01*
X36698Y13083D01*
X36618Y13145D01*
X36525Y13183D01*
X36425Y13196D01*
X36228D01*
X36129Y13183D01*
X36036Y13145D01*
X35956Y13083D01*
X35895Y13004D01*
X35856Y12911D01*
X35852Y12878D01*
X35802D01*
X35797Y12911D01*
X35759Y13004D01*
X35698Y13083D01*
X35618Y13145D01*
X35525Y13183D01*
X35425Y13196D01*
X35228D01*
X35129Y13183D01*
X35036Y13145D01*
X34956Y13083D01*
X34936Y13058D01*
X34886Y13075D01*
Y13183D01*
X35141Y13437D01*
X35228Y13426D01*
X35425D01*
X35525Y13439D01*
X35618Y13477D01*
X35698Y13539D01*
X35759Y13618D01*
X35797Y13711D01*
X35802Y13744D01*
X35852D01*
X35856Y13711D01*
D02*
G37*
G36*
X10498Y4585D02*
X10454Y4556D01*
X10400Y4475D01*
X10381Y4380D01*
X10400Y4285D01*
X10454Y4204D01*
X10535Y4150D01*
X10608Y4135D01*
X10802Y3941D01*
X10802Y3941D01*
X10863Y3900D01*
X10935Y3886D01*
X10935Y3886D01*
X11546D01*
X12409Y3023D01*
X12386Y2975D01*
X12303Y2984D01*
X12170Y2971D01*
X12131Y2959D01*
X11994Y3096D01*
X11932Y3137D01*
X11860Y3151D01*
X11860Y3151D01*
X11053D01*
X9806Y4397D01*
X9797Y4446D01*
X9743Y4526D01*
X9662Y4580D01*
X9637Y4585D01*
X9642Y4635D01*
X10483D01*
X10498Y4585D01*
D02*
G37*
G36*
X22005Y8290D02*
X21995Y8238D01*
X22014Y8143D01*
X22057Y8080D01*
X22026Y8035D01*
X21978Y8044D01*
X21927Y8034D01*
X20548Y9413D01*
Y9682D01*
X20594Y9701D01*
X22005Y8290D01*
D02*
G37*
%LPC*%
G36*
X18385Y8318D02*
X18199D01*
X18137Y8305D01*
X18084Y8270D01*
X18061Y8236D01*
Y8236D01*
X18049Y8218D01*
X18037Y8156D01*
Y8146D01*
X18385D01*
Y8318D01*
D02*
G37*
G36*
X1678Y7997D02*
X1330D01*
Y7826D01*
X1516D01*
X1578Y7838D01*
X1630Y7874D01*
X1666Y7926D01*
X1678Y7988D01*
Y7997D01*
D02*
G37*
G36*
X4970D02*
X4621D01*
Y7988D01*
X4634Y7926D01*
X4669Y7874D01*
X4721Y7838D01*
X4783Y7826D01*
X4970D01*
Y7997D01*
D02*
G37*
G36*
X5418D02*
X5070D01*
Y7826D01*
X5256D01*
X5318Y7838D01*
X5371Y7874D01*
X5406Y7926D01*
X5418Y7988D01*
Y7997D01*
D02*
G37*
G36*
X14931Y8318D02*
X14745D01*
Y8146D01*
X15093D01*
Y8156D01*
X15081Y8218D01*
X15069Y8236D01*
D01*
X15046Y8270D01*
X14993Y8305D01*
X14931Y8318D01*
D02*
G37*
G36*
X8223Y8468D02*
X7875D01*
Y8296D01*
X8061D01*
X8123Y8309D01*
X8176Y8344D01*
X8211Y8397D01*
X8223Y8459D01*
Y8468D01*
D02*
G37*
G36*
X11515D02*
X11167D01*
Y8459D01*
X11175Y8416D01*
Y8416D01*
X11179Y8397D01*
X11214Y8344D01*
X11267Y8309D01*
X11329Y8296D01*
X11515D01*
Y8468D01*
D02*
G37*
G36*
X11963Y8468D02*
X11615D01*
Y8296D01*
X11801D01*
X11863Y8309D01*
X11916Y8344D01*
X11951Y8397D01*
X11963Y8459D01*
Y8468D01*
D02*
G37*
G36*
X18671Y8318D02*
X18485D01*
Y8146D01*
X18833D01*
Y8156D01*
X18821Y8218D01*
X18786Y8270D01*
X18733Y8305D01*
X18671Y8318D01*
D02*
G37*
G36*
X7775Y8468D02*
X7426D01*
Y8459D01*
X7439Y8397D01*
X7474Y8344D01*
X7527Y8309D01*
X7589Y8296D01*
X7775D01*
Y8468D01*
D02*
G37*
G36*
X14645Y8318D02*
X14459D01*
X14397Y8305D01*
X14344Y8270D01*
X14309Y8218D01*
X14296Y8156D01*
Y8146D01*
X14645D01*
Y8318D01*
D02*
G37*
G36*
X11801Y8239D02*
X11615D01*
Y8068D01*
X11963D01*
Y8077D01*
X11951Y8139D01*
X11916Y8191D01*
X11863Y8227D01*
X11801Y8239D01*
D02*
G37*
G36*
X18833Y8046D02*
X18485D01*
Y7875D01*
X18671D01*
X18733Y7888D01*
X18786Y7923D01*
X18821Y7975D01*
X18833Y8037D01*
Y8046D01*
D02*
G37*
G36*
X11515Y8239D02*
X11329D01*
X11267Y8227D01*
X11214Y8191D01*
X11179Y8139D01*
X11175Y8120D01*
Y8120D01*
X11167Y8077D01*
Y8068D01*
X11515D01*
Y8239D01*
D02*
G37*
G36*
X7775D02*
X7589D01*
X7527Y8227D01*
X7474Y8191D01*
X7439Y8139D01*
X7426Y8077D01*
Y8068D01*
X7775D01*
Y8239D01*
D02*
G37*
G36*
X8061D02*
X7875D01*
Y8068D01*
X8223D01*
Y8077D01*
X8211Y8139D01*
X8176Y8191D01*
X8123Y8227D01*
X8061Y8239D01*
D02*
G37*
G36*
X18385Y8046D02*
X18037D01*
Y8037D01*
X18049Y7975D01*
X18084Y7923D01*
X18137Y7888D01*
X18199Y7875D01*
X18385D01*
Y8046D01*
D02*
G37*
G36*
X5256Y8268D02*
X5070D01*
Y8097D01*
X5418D01*
Y8106D01*
X5406Y8168D01*
X5371Y8221D01*
X5318Y8256D01*
X5256Y8268D01*
D02*
G37*
G36*
X14645Y8046D02*
X14296D01*
Y8037D01*
X14309Y7975D01*
X14344Y7923D01*
X14397Y7888D01*
X14459Y7875D01*
X14645D01*
Y8046D01*
D02*
G37*
G36*
X4970Y8268D02*
X4783D01*
X4721Y8256D01*
X4669Y8221D01*
X4646Y8186D01*
X4634Y8168D01*
X4621Y8106D01*
Y8097D01*
X4970D01*
Y8268D01*
D02*
G37*
G36*
X15093Y8046D02*
X14745D01*
Y7875D01*
X14931D01*
X14993Y7888D01*
X15046Y7923D01*
X15081Y7975D01*
X15093Y8037D01*
Y8046D01*
D02*
G37*
G36*
X1516Y8268D02*
X1330D01*
Y8097D01*
X1678D01*
Y8106D01*
X1666Y8168D01*
X1630Y8221D01*
X1578Y8256D01*
X1516Y8268D01*
D02*
G37*
G36*
X1678Y8497D02*
X1330D01*
Y8326D01*
X1516D01*
X1578Y8338D01*
X1630Y8374D01*
X1666Y8426D01*
X1678Y8488D01*
Y8497D01*
D02*
G37*
G36*
X8223Y8968D02*
X7875D01*
Y8796D01*
X8061D01*
X8123Y8809D01*
X8176Y8844D01*
X8211Y8897D01*
X8223Y8959D01*
Y8968D01*
D02*
G37*
G36*
X11515D02*
X11167D01*
Y8959D01*
X11175Y8916D01*
Y8916D01*
X11179Y8897D01*
X11214Y8844D01*
X11267Y8809D01*
X11329Y8796D01*
X11515D01*
Y8968D01*
D02*
G37*
G36*
X11963Y8968D02*
X11615D01*
Y8796D01*
X11801D01*
X11863Y8809D01*
X11916Y8844D01*
X11951Y8897D01*
X11963Y8959D01*
Y8968D01*
D02*
G37*
G36*
X7775D02*
X7426D01*
Y8959D01*
X7439Y8897D01*
X7474Y8844D01*
X7527Y8809D01*
X7589Y8796D01*
X7775D01*
Y8968D01*
D02*
G37*
G36*
X14931Y8818D02*
X14745D01*
Y8646D01*
X15093D01*
Y8656D01*
X15081Y8718D01*
X15069Y8736D01*
D01*
X15046Y8770D01*
X14993Y8805D01*
X14931Y8818D01*
D02*
G37*
G36*
X18385D02*
X18199D01*
X18137Y8805D01*
X18084Y8770D01*
X18061Y8736D01*
Y8736D01*
X18049Y8718D01*
X18037Y8656D01*
Y8646D01*
X18385D01*
Y8818D01*
D02*
G37*
G36*
X18671D02*
X18485D01*
Y8646D01*
X18833D01*
Y8656D01*
X18821Y8718D01*
X18786Y8770D01*
X18733Y8805D01*
X18671Y8818D01*
D02*
G37*
G36*
X15093Y9046D02*
X14745D01*
Y8875D01*
X14931D01*
X14993Y8888D01*
X15046Y8923D01*
X15081Y8975D01*
X15093Y9037D01*
Y9046D01*
D02*
G37*
G36*
X18385D02*
X18037D01*
Y9037D01*
X18049Y8975D01*
X18084Y8923D01*
X18137Y8888D01*
X18199Y8875D01*
X18385D01*
Y9046D01*
D02*
G37*
G36*
X18833Y9046D02*
X18485D01*
Y8875D01*
X18671D01*
X18733Y8888D01*
X18786Y8923D01*
X18821Y8975D01*
X18833Y9037D01*
Y9046D01*
D02*
G37*
G36*
X14645D02*
X14296D01*
Y9037D01*
X14309Y8975D01*
X14344Y8923D01*
X14397Y8888D01*
X14459Y8875D01*
X14645D01*
Y9046D01*
D02*
G37*
G36*
X1678Y8997D02*
X1330D01*
Y8826D01*
X1516D01*
X1578Y8838D01*
X1630Y8874D01*
X1666Y8926D01*
X1678Y8988D01*
Y8997D01*
D02*
G37*
G36*
X4970D02*
X4621D01*
Y8988D01*
X4634Y8926D01*
X4669Y8874D01*
X4721Y8838D01*
X4783Y8826D01*
X4970D01*
Y8997D01*
D02*
G37*
G36*
X5418D02*
X5070D01*
Y8826D01*
X5256D01*
X5318Y8838D01*
X5371Y8874D01*
X5406Y8926D01*
X5418Y8988D01*
Y8997D01*
D02*
G37*
G36*
X18385Y8546D02*
X18037D01*
Y8537D01*
X18049Y8475D01*
X18084Y8423D01*
X18137Y8388D01*
X18199Y8375D01*
X18385D01*
Y8546D01*
D02*
G37*
G36*
X18833Y8546D02*
X18485D01*
Y8375D01*
X18671D01*
X18733Y8388D01*
X18786Y8423D01*
X18821Y8475D01*
X18833Y8537D01*
Y8546D01*
D02*
G37*
G36*
X7775Y8739D02*
X7589D01*
X7527Y8727D01*
X7474Y8691D01*
X7439Y8639D01*
X7426Y8577D01*
Y8568D01*
X7775D01*
Y8739D01*
D02*
G37*
G36*
X15093Y8546D02*
X14745D01*
Y8375D01*
X14931D01*
X14993Y8388D01*
X15046Y8423D01*
X15081Y8475D01*
X15093Y8537D01*
Y8546D01*
D02*
G37*
G36*
X4970Y8497D02*
X4621D01*
Y8488D01*
X4634Y8426D01*
X4669Y8374D01*
X4721Y8338D01*
X4783Y8326D01*
X4970D01*
Y8497D01*
D02*
G37*
G36*
X5418D02*
X5070D01*
Y8326D01*
X5256D01*
X5318Y8338D01*
X5371Y8374D01*
X5406Y8426D01*
X5418Y8488D01*
Y8497D01*
D02*
G37*
G36*
X14645Y8546D02*
X14296D01*
Y8537D01*
X14309Y8475D01*
X14344Y8423D01*
X14397Y8388D01*
X14459Y8375D01*
X14645D01*
Y8546D01*
D02*
G37*
G36*
X4970Y8768D02*
X4783D01*
X4721Y8756D01*
X4669Y8721D01*
X4646Y8686D01*
X4634Y8668D01*
X4621Y8606D01*
Y8597D01*
X4970D01*
Y8768D01*
D02*
G37*
G36*
X5256D02*
X5070D01*
Y8597D01*
X5418D01*
Y8606D01*
X5406Y8668D01*
X5371Y8721D01*
X5318Y8756D01*
X5256Y8768D01*
D02*
G37*
G36*
X14645Y8818D02*
X14459D01*
X14397Y8805D01*
X14344Y8770D01*
X14309Y8718D01*
X14296Y8656D01*
Y8646D01*
X14645D01*
Y8818D01*
D02*
G37*
G36*
X1516Y8768D02*
X1330D01*
Y8597D01*
X1678D01*
Y8606D01*
X1666Y8668D01*
X1630Y8721D01*
X1578Y8756D01*
X1516Y8768D01*
D02*
G37*
G36*
X8061Y8739D02*
X7875D01*
Y8568D01*
X8223D01*
Y8577D01*
X8211Y8639D01*
X8176Y8691D01*
X8123Y8727D01*
X8061Y8739D01*
D02*
G37*
G36*
X11515D02*
X11329D01*
X11267Y8727D01*
X11214Y8691D01*
X11179Y8639D01*
X11175Y8620D01*
Y8620D01*
X11167Y8577D01*
Y8568D01*
X11515D01*
Y8739D01*
D02*
G37*
G36*
X11801D02*
X11615D01*
Y8568D01*
X11963D01*
Y8577D01*
X11951Y8639D01*
X11916Y8691D01*
X11863Y8727D01*
X11801Y8739D01*
D02*
G37*
G36*
X11963Y7968D02*
X11615D01*
Y7796D01*
X11801D01*
X11863Y7809D01*
X11916Y7844D01*
X11951Y7897D01*
X11963Y7959D01*
Y7968D01*
D02*
G37*
G36*
X35277Y4210D02*
X35007D01*
X34939Y4196D01*
X34882Y4158D01*
X34843Y4100D01*
X34830Y4032D01*
Y3861D01*
X35277D01*
Y4210D01*
D02*
G37*
G36*
X30098Y4922D02*
X30001Y4912D01*
X29859Y4869D01*
X29729Y4800D01*
X29615Y4706D01*
X29521Y4592D01*
X29452Y4461D01*
X29409Y4320D01*
X29399Y4223D01*
X30098D01*
Y4922D01*
D02*
G37*
G36*
X30198D02*
Y4223D01*
X30896D01*
X30886Y4320D01*
X30844Y4461D01*
X30774Y4592D01*
X30680Y4706D01*
X30566Y4800D01*
X30436Y4869D01*
X30295Y4912D01*
X30198Y4922D01*
D02*
G37*
G36*
X31722Y4212D02*
X31485D01*
Y3748D01*
X31722D01*
Y4212D01*
D02*
G37*
G36*
X30098Y4123D02*
X29399D01*
X29409Y4026D01*
X29452Y3885D01*
X29521Y3755D01*
X29615Y3641D01*
X29729Y3547D01*
X29859Y3477D01*
X30001Y3434D01*
X30098Y3425D01*
Y4123D01*
D02*
G37*
G36*
X30896D02*
X30198D01*
Y3425D01*
X30295Y3434D01*
X30436Y3477D01*
X30566Y3547D01*
X30680Y3641D01*
X30774Y3755D01*
X30844Y3885D01*
X30886Y4026D01*
X30896Y4123D01*
D02*
G37*
G36*
X31385Y4212D02*
X31148D01*
Y3748D01*
X31385D01*
Y4212D01*
D02*
G37*
G36*
X33228Y6145D02*
X32774D01*
X32732Y6137D01*
X32696Y6113D01*
X32672Y6077D01*
X32664Y6035D01*
Y5660D01*
X33228D01*
Y6145D01*
D02*
G37*
G36*
X33781D02*
X33328D01*
Y5660D01*
X33891D01*
Y6035D01*
X33883Y6077D01*
X33859Y6113D01*
X33823Y6137D01*
X33781Y6145D01*
D02*
G37*
G36*
X6890Y6356D02*
X6299D01*
X6264Y6348D01*
X6233Y6328D01*
X6213Y6298D01*
X6206Y6262D01*
Y5792D01*
X6213Y5756D01*
X6233Y5726D01*
X6264Y5706D01*
X6299Y5699D01*
X6890D01*
X6925Y5706D01*
X6956Y5726D01*
X6976Y5756D01*
X6983Y5792D01*
Y5839D01*
X7506D01*
X7532Y5821D01*
X7589Y5810D01*
X8061D01*
X8118Y5821D01*
X8166Y5854D01*
X8198Y5902D01*
X8210Y5959D01*
Y6077D01*
X8198Y6134D01*
X8166Y6182D01*
X8118Y6214D01*
X8061Y6225D01*
X7589D01*
X7541Y6216D01*
X6983D01*
Y6262D01*
X6976Y6298D01*
X6956Y6328D01*
X6925Y6348D01*
X6890Y6356D01*
D02*
G37*
G36*
X14931Y7304D02*
X14459D01*
X14402Y7293D01*
X14354Y7261D01*
X14321Y7212D01*
X14310Y7156D01*
Y7037D01*
X14321Y6981D01*
X14354Y6932D01*
X14402Y6900D01*
X14459Y6889D01*
X14931D01*
X14988Y6900D01*
X15029Y6928D01*
X15172D01*
X15187Y6878D01*
X15159Y6859D01*
X15109Y6785D01*
X14999D01*
X14988Y6793D01*
X14931Y6804D01*
X14459D01*
X14402Y6793D01*
X14354Y6761D01*
X14321Y6712D01*
X14310Y6656D01*
Y6537D01*
X14321Y6481D01*
X14354Y6432D01*
X14402Y6400D01*
X14459Y6389D01*
X14931D01*
X14988Y6400D01*
X14999Y6408D01*
X15248D01*
X15248Y6408D01*
X15248Y6408D01*
X15289Y6416D01*
X15320Y6422D01*
X15320Y6422D01*
X15320Y6422D01*
X15340Y6435D01*
X15430Y6453D01*
X15511Y6507D01*
X15565Y6588D01*
X15584Y6683D01*
X15565Y6778D01*
X15511Y6859D01*
X15482Y6878D01*
X15498Y6928D01*
X15570D01*
X15786Y6712D01*
Y5939D01*
X15779Y5934D01*
X15725Y5853D01*
X15706Y5758D01*
X15725Y5663D01*
X15779Y5582D01*
X15859Y5528D01*
X15955Y5509D01*
X16050Y5528D01*
X16131Y5582D01*
X16185Y5663D01*
X16204Y5758D01*
X16185Y5853D01*
X16131Y5934D01*
X16123Y5939D01*
Y6781D01*
X16110Y6846D01*
X16074Y6901D01*
X15759Y7216D01*
X15704Y7252D01*
X15640Y7265D01*
X15029D01*
X14988Y7293D01*
X14931Y7304D01*
D02*
G37*
G36*
X31385Y4775D02*
X31148D01*
Y4312D01*
X31385D01*
Y4775D01*
D02*
G37*
G36*
X33228Y5560D02*
X32664D01*
Y5186D01*
X32672Y5143D01*
X32696Y5107D01*
X32732Y5083D01*
X32774Y5075D01*
X33228D01*
Y5560D01*
D02*
G37*
G36*
X33891D02*
X33328D01*
Y5075D01*
X33781D01*
X33823Y5083D01*
X33859Y5107D01*
X33883Y5143D01*
X33891Y5186D01*
Y5560D01*
D02*
G37*
G36*
X35277Y3761D02*
X34830D01*
Y3590D01*
X34843Y3522D01*
X34882Y3464D01*
X34939Y3426D01*
X35007Y3412D01*
X35277D01*
Y3761D01*
D02*
G37*
G36*
X26387Y3021D02*
X25902D01*
Y2568D01*
X25910Y2525D01*
X25934Y2489D01*
X25970Y2465D01*
X26013Y2457D01*
X26387D01*
Y3021D01*
D02*
G37*
G36*
X26972D02*
X26487D01*
Y2457D01*
X26861D01*
X26904Y2465D01*
X26940Y2489D01*
X26964Y2525D01*
X26972Y2568D01*
Y3021D01*
D02*
G37*
G36*
X35516Y2972D02*
X35304D01*
Y2850D01*
X35312Y2810D01*
X35335Y2775D01*
X35369Y2753D01*
X35409Y2745D01*
X35516D01*
Y2972D01*
D02*
G37*
G36*
X29046Y2942D02*
X28347D01*
Y2244D01*
X28444Y2253D01*
X28586Y2296D01*
X28716Y2366D01*
X28830Y2460D01*
X28924Y2574D01*
X28993Y2704D01*
X29036Y2845D01*
X29046Y2942D01*
D02*
G37*
G36*
X3051Y7198D02*
X2956Y7179D01*
X2875Y7125D01*
X2821Y7044D01*
X2802Y6949D01*
X2821Y6854D01*
X2863Y6792D01*
Y3555D01*
X2863Y3555D01*
X2877Y3483D01*
X2918Y3422D01*
X3710Y2630D01*
X3674Y2564D01*
X3636Y2436D01*
X3623Y2303D01*
X3636Y2170D01*
X3674Y2043D01*
X3737Y1925D01*
X3822Y1822D01*
X3925Y1737D01*
X4043Y1674D01*
X4170Y1636D01*
X4303Y1623D01*
X4436Y1636D01*
X4564Y1674D01*
X4681Y1737D01*
X4784Y1822D01*
X4869Y1925D01*
X4932Y2043D01*
X4971Y2170D01*
X4984Y2303D01*
X4971Y2436D01*
X4932Y2564D01*
X4869Y2681D01*
X4784Y2784D01*
X4681Y2869D01*
X4564Y2932D01*
X4436Y2971D01*
X4303Y2984D01*
X4170Y2971D01*
X4043Y2932D01*
X3977Y2896D01*
X3240Y3633D01*
Y6792D01*
X3281Y6854D01*
X3300Y6949D01*
X3281Y7044D01*
X3227Y7125D01*
X3146Y7179D01*
X3051Y7198D01*
D02*
G37*
G36*
X13268Y4481D02*
X13172Y4462D01*
X13092Y4408D01*
X13038Y4328D01*
X13019Y4232D01*
X13038Y4137D01*
X13092Y4056D01*
X13172Y4002D01*
X13268Y3983D01*
X13363Y4002D01*
X13444Y4056D01*
X13449Y4064D01*
X14302D01*
X15718Y2648D01*
X15673Y2564D01*
X15634Y2436D01*
X15621Y2303D01*
X15634Y2170D01*
X15673Y2043D01*
X15735Y1925D01*
X15820Y1822D01*
X15923Y1737D01*
X16041Y1675D01*
X16168Y1636D01*
X16301Y1623D01*
X16434Y1636D01*
X16562Y1675D01*
X16679Y1737D01*
X16782Y1822D01*
X16867Y1925D01*
X16930Y2043D01*
X16969Y2170D01*
X16982Y2303D01*
X16969Y2436D01*
X16930Y2564D01*
X16867Y2681D01*
X16782Y2784D01*
X16679Y2869D01*
X16562Y2932D01*
X16434Y2971D01*
X16301Y2984D01*
X16168Y2971D01*
X16041Y2932D01*
X15956Y2887D01*
X14491Y4351D01*
X14437Y4388D01*
X14372Y4401D01*
X13449D01*
X13444Y4408D01*
X13363Y4462D01*
X13268Y4481D01*
D02*
G37*
G36*
X28247Y2942D02*
X27549D01*
X27558Y2845D01*
X27601Y2704D01*
X27671Y2574D01*
X27765Y2460D01*
X27879Y2366D01*
X28009Y2296D01*
X28150Y2253D01*
X28247Y2244D01*
Y2942D01*
D02*
G37*
G36*
X35723Y3299D02*
X35616D01*
Y3072D01*
X35828D01*
Y3193D01*
X35820Y3234D01*
X35797Y3268D01*
X35763Y3291D01*
X35723Y3299D01*
D02*
G37*
G36*
X26387Y3685D02*
X26013D01*
X25970Y3676D01*
X25934Y3652D01*
X25910Y3616D01*
X25902Y3574D01*
Y3121D01*
X26387D01*
Y3685D01*
D02*
G37*
G36*
X26861D02*
X26487D01*
Y3121D01*
X26972D01*
Y3574D01*
X26964Y3616D01*
X26940Y3652D01*
X26904Y3676D01*
X26861Y3685D01*
D02*
G37*
G36*
X35516Y3299D02*
X35409D01*
X35369Y3291D01*
X35335Y3268D01*
X35312Y3234D01*
X35304Y3193D01*
Y3072D01*
X35516D01*
Y3299D01*
D02*
G37*
G36*
X35828Y2972D02*
X35616D01*
Y2745D01*
X35723D01*
X35763Y2753D01*
X35797Y2775D01*
X35820Y2810D01*
X35828Y2850D01*
Y2972D01*
D02*
G37*
G36*
X28247Y3740D02*
X28150Y3731D01*
X28009Y3688D01*
X27879Y3618D01*
X27765Y3525D01*
X27671Y3411D01*
X27601Y3280D01*
X27558Y3139D01*
X27549Y3042D01*
X28247D01*
Y3740D01*
D02*
G37*
G36*
X28347D02*
Y3042D01*
X29046D01*
X29036Y3139D01*
X28993Y3280D01*
X28924Y3411D01*
X28830Y3525D01*
X28716Y3618D01*
X28586Y3688D01*
X28444Y3731D01*
X28347Y3740D01*
D02*
G37*
G36*
X13622Y6484D02*
X13032D01*
X12996Y6476D01*
X12966Y6456D01*
X12945Y6426D01*
X12938Y6390D01*
Y5920D01*
X12945Y5884D01*
X12966Y5854D01*
X12996Y5834D01*
X13032Y5827D01*
X13622D01*
X13658Y5834D01*
X13688Y5854D01*
X13708Y5884D01*
X13715Y5920D01*
Y5966D01*
X13914D01*
X13941Y5939D01*
X13941Y5939D01*
X14003Y5899D01*
X14075Y5884D01*
X14671D01*
X14671Y5884D01*
X14695Y5889D01*
X14931D01*
X14988Y5900D01*
X15036Y5932D01*
X15068Y5981D01*
X15080Y6037D01*
Y6156D01*
X15068Y6212D01*
X15036Y6261D01*
X14988Y6293D01*
X14931Y6304D01*
X14459D01*
X14402Y6293D01*
X14355Y6262D01*
X14153D01*
X14126Y6289D01*
X14065Y6329D01*
X13993Y6344D01*
X13993Y6344D01*
X13715D01*
Y6390D01*
X13708Y6426D01*
X13688Y6456D01*
X13658Y6476D01*
X13622Y6484D01*
D02*
G37*
G36*
X1516Y7768D02*
X1330D01*
Y7597D01*
X1678D01*
Y7606D01*
X1666Y7668D01*
X1630Y7721D01*
X1578Y7756D01*
X1516Y7768D01*
D02*
G37*
G36*
X4970D02*
X4783D01*
X4721Y7756D01*
X4669Y7721D01*
X4646Y7686D01*
X4634Y7668D01*
X4621Y7606D01*
Y7597D01*
X4970D01*
Y7768D01*
D02*
G37*
G36*
X5256D02*
X5070D01*
Y7597D01*
X5418D01*
Y7606D01*
X5406Y7668D01*
X5371Y7721D01*
X5318Y7756D01*
X5256Y7768D01*
D02*
G37*
G36*
X11801Y7739D02*
X11615D01*
Y7568D01*
X11963D01*
Y7577D01*
X11951Y7639D01*
X11916Y7691D01*
X11863Y7727D01*
X11801Y7739D01*
D02*
G37*
G36*
X7775D02*
X7589D01*
X7527Y7727D01*
X7474Y7691D01*
X7439Y7639D01*
X7426Y7577D01*
Y7568D01*
X7775D01*
Y7739D01*
D02*
G37*
G36*
X8061D02*
X7875D01*
Y7568D01*
X8223D01*
Y7577D01*
X8211Y7639D01*
X8176Y7691D01*
X8123Y7727D01*
X8061Y7739D01*
D02*
G37*
G36*
X11515D02*
X11329D01*
X11267Y7727D01*
X11214Y7691D01*
X11179Y7639D01*
X11175Y7620D01*
Y7620D01*
X11167Y7577D01*
Y7568D01*
X11515D01*
Y7739D01*
D02*
G37*
G36*
X7775Y7968D02*
X7426D01*
Y7959D01*
X7439Y7897D01*
X7474Y7844D01*
X7527Y7809D01*
X7589Y7796D01*
X7775D01*
Y7968D01*
D02*
G37*
G36*
X8223Y7968D02*
X7875D01*
Y7796D01*
X8061D01*
X8123Y7809D01*
X8176Y7844D01*
X8211Y7897D01*
X8223Y7959D01*
Y7968D01*
D02*
G37*
G36*
X11515D02*
X11167D01*
Y7959D01*
X11175Y7916D01*
Y7916D01*
X11179Y7897D01*
X11214Y7844D01*
X11267Y7809D01*
X11329Y7796D01*
X11515D01*
Y7968D01*
D02*
G37*
G36*
X18671Y7818D02*
X18485D01*
Y7646D01*
X18833D01*
Y7656D01*
X18821Y7718D01*
X18786Y7770D01*
X18733Y7805D01*
X18671Y7818D01*
D02*
G37*
G36*
X14645D02*
X14459D01*
X14397Y7805D01*
X14344Y7770D01*
X14309Y7718D01*
X14296Y7656D01*
Y7646D01*
X14645D01*
Y7818D01*
D02*
G37*
G36*
X14931D02*
X14745D01*
Y7646D01*
X15093D01*
Y7656D01*
X15081Y7718D01*
X15069Y7736D01*
D01*
X15046Y7770D01*
X14993Y7805D01*
X14931Y7818D01*
D02*
G37*
G36*
X18385D02*
X18199D01*
X18137Y7805D01*
X18084Y7770D01*
X18061Y7736D01*
Y7736D01*
X18049Y7718D01*
X18037Y7656D01*
Y7646D01*
X18385D01*
Y7818D01*
D02*
G37*
G36*
X18833Y7546D02*
X18485D01*
Y7375D01*
X18671D01*
X18733Y7388D01*
X18786Y7423D01*
X18821Y7475D01*
X18833Y7537D01*
Y7546D01*
D02*
G37*
G36*
X7775Y7468D02*
X7426D01*
Y7459D01*
X7439Y7397D01*
X7474Y7344D01*
X7527Y7309D01*
X7589Y7296D01*
X7775D01*
Y7468D01*
D02*
G37*
G36*
X8223Y7468D02*
X7875D01*
Y7296D01*
X8061D01*
X8123Y7309D01*
X8176Y7344D01*
X8211Y7397D01*
X8223Y7459D01*
Y7468D01*
D02*
G37*
G36*
X11515D02*
X11167D01*
Y7461D01*
X11167D01*
Y7459D01*
X11179Y7397D01*
X11214Y7344D01*
X11267Y7309D01*
X11329Y7296D01*
X11515D01*
Y7468D01*
D02*
G37*
G36*
X11801Y7225D02*
X11329D01*
X11272Y7214D01*
X11224Y7182D01*
X11192Y7134D01*
X11180Y7077D01*
Y6959D01*
X11192Y6902D01*
X11224Y6854D01*
X11272Y6821D01*
X11329Y6810D01*
X11801D01*
X11858Y6821D01*
X11899Y6849D01*
X11997D01*
X12194Y6652D01*
X12192Y6644D01*
X12211Y6548D01*
X12265Y6468D01*
X12346Y6414D01*
X12441Y6395D01*
X12536Y6414D01*
X12617Y6468D01*
X12671Y6548D01*
X12690Y6644D01*
X12671Y6739D01*
X12617Y6820D01*
X12536Y6874D01*
X12441Y6893D01*
X12432Y6891D01*
X12186Y7137D01*
X12131Y7173D01*
X12067Y7186D01*
X11899D01*
X11858Y7214D01*
X11801Y7225D01*
D02*
G37*
G36*
X18671Y7304D02*
X18199D01*
X18142Y7293D01*
X18094Y7261D01*
X18062Y7212D01*
X18050Y7156D01*
Y7037D01*
X18062Y6981D01*
X18094Y6932D01*
X18142Y6900D01*
X18199Y6889D01*
X18671D01*
X18728Y6900D01*
X18739Y6908D01*
X20758D01*
X21242Y6424D01*
X21256Y6352D01*
X21310Y6271D01*
X21391Y6217D01*
X21486Y6198D01*
X21581Y6217D01*
X21662Y6271D01*
X21716Y6352D01*
X21735Y6447D01*
X21716Y6542D01*
X21662Y6623D01*
X21581Y6677D01*
X21509Y6691D01*
X20970Y7230D01*
X20909Y7271D01*
X20837Y7285D01*
X20837Y7285D01*
X18739D01*
X18728Y7293D01*
X18671Y7304D01*
D02*
G37*
G36*
X10718Y6942D02*
X10623Y6923D01*
X10543Y6869D01*
X10489Y6788D01*
X10470Y6693D01*
X10489Y6598D01*
X10543Y6517D01*
X10623Y6463D01*
X10696Y6448D01*
X10760Y6384D01*
X10760Y6384D01*
X10821Y6343D01*
X10894Y6329D01*
X11261D01*
X11272Y6321D01*
X11329Y6310D01*
X11801D01*
X11858Y6321D01*
X11906Y6354D01*
X11938Y6402D01*
X11950Y6459D01*
Y6577D01*
X11938Y6634D01*
X11906Y6682D01*
X11858Y6714D01*
X11801Y6725D01*
X11329D01*
X11272Y6714D01*
X11261Y6706D01*
X10972D01*
X10963Y6715D01*
X10948Y6788D01*
X10894Y6869D01*
X10814Y6923D01*
X10718Y6942D01*
D02*
G37*
G36*
X17453Y6845D02*
X17358Y6826D01*
X17277Y6772D01*
X17223Y6692D01*
X17204Y6596D01*
X17223Y6501D01*
X17277Y6420D01*
X17358Y6367D01*
X17453Y6348D01*
X17548Y6367D01*
X17610Y6408D01*
X18131D01*
X18142Y6400D01*
X18199Y6389D01*
X18671D01*
X18728Y6400D01*
X18776Y6432D01*
X18808Y6481D01*
X18820Y6537D01*
Y6656D01*
X18808Y6712D01*
X18776Y6761D01*
X18728Y6793D01*
X18671Y6804D01*
X18199D01*
X18142Y6793D01*
X18131Y6785D01*
X17610D01*
X17548Y6826D01*
X17453Y6845D01*
D02*
G37*
G36*
X14645Y7546D02*
X14296D01*
Y7537D01*
X14309Y7475D01*
X14344Y7423D01*
X14397Y7388D01*
X14459Y7375D01*
X14645D01*
Y7546D01*
D02*
G37*
G36*
X15093Y7546D02*
X14745D01*
Y7375D01*
X14931D01*
X14993Y7388D01*
X15046Y7423D01*
X15081Y7475D01*
X15093Y7537D01*
Y7546D01*
D02*
G37*
G36*
X18385D02*
X18037D01*
Y7537D01*
X18049Y7475D01*
X18084Y7423D01*
X18137Y7388D01*
X18199Y7375D01*
X18385D01*
Y7546D01*
D02*
G37*
G36*
X5418Y7497D02*
X5070D01*
Y7326D01*
X5256D01*
X5318Y7338D01*
X5371Y7374D01*
X5406Y7426D01*
X5418Y7488D01*
Y7497D01*
D02*
G37*
G36*
X11963Y7468D02*
X11615D01*
Y7296D01*
X11801D01*
X11863Y7309D01*
X11916Y7344D01*
X11951Y7397D01*
X11963Y7459D01*
Y7468D01*
D02*
G37*
G36*
X1678Y7497D02*
X1330D01*
Y7326D01*
X1516D01*
X1578Y7338D01*
X1630Y7374D01*
X1666Y7426D01*
X1678Y7488D01*
Y7488D01*
Y7497D01*
D02*
G37*
G36*
X4970D02*
X4621D01*
Y7488D01*
X4634Y7426D01*
X4669Y7374D01*
X4721Y7338D01*
X4783Y7326D01*
X4970D01*
Y7497D01*
D02*
G37*
G36*
X23750Y17930D02*
X23457D01*
Y17407D01*
X23860D01*
Y17820D01*
X23851Y17862D01*
X23828Y17898D01*
X23792Y17921D01*
X23750Y17930D01*
D02*
G37*
G36*
X32962Y17777D02*
X32730D01*
Y17671D01*
X32738Y17630D01*
X32761Y17596D01*
X32795Y17573D01*
X32836Y17565D01*
X32962D01*
Y17777D01*
D02*
G37*
G36*
X33294D02*
X33062D01*
Y17565D01*
X33189D01*
X33230Y17573D01*
X33264Y17596D01*
X33286Y17630D01*
X33294Y17671D01*
Y17777D01*
D02*
G37*
G36*
X23357Y17930D02*
X23064D01*
X23023Y17921D01*
X22987Y17898D01*
X22964Y17862D01*
X22955Y17820D01*
Y17407D01*
X23357D01*
Y17930D01*
D02*
G37*
G36*
X23860Y17307D02*
X23457D01*
Y16785D01*
X23750D01*
X23792Y16794D01*
X23828Y16817D01*
X23851Y16853D01*
X23860Y16894D01*
Y17307D01*
D02*
G37*
G36*
X36425Y17196D02*
X36228D01*
X36129Y17183D01*
X36036Y17145D01*
X35956Y17083D01*
X35895Y17004D01*
X35856Y16911D01*
X35852Y16878D01*
X35802D01*
X35797Y16911D01*
X35759Y17004D01*
X35698Y17083D01*
X35618Y17145D01*
X35525Y17183D01*
X35425Y17196D01*
X35228D01*
X35129Y17183D01*
X35036Y17145D01*
X34956Y17083D01*
X34895Y17004D01*
X34856Y16911D01*
X34843Y16811D01*
X34856Y16711D01*
X34895Y16618D01*
X34956Y16539D01*
X35036Y16477D01*
X35129Y16439D01*
X35228Y16426D01*
X35425D01*
X35525Y16439D01*
X35618Y16477D01*
X35698Y16539D01*
X35759Y16618D01*
X35797Y16711D01*
X35802Y16744D01*
X35852D01*
X35856Y16711D01*
X35895Y16618D01*
X35956Y16539D01*
X36036Y16477D01*
X36129Y16439D01*
X36228Y16426D01*
X36425D01*
X36525Y16439D01*
X36618Y16477D01*
X36698Y16539D01*
X36759Y16618D01*
X36797Y16711D01*
X36810Y16811D01*
X36797Y16911D01*
X36759Y17004D01*
X36698Y17083D01*
X36618Y17145D01*
X36525Y17183D01*
X36425Y17196D01*
D02*
G37*
G36*
X13415Y20456D02*
X13320Y20437D01*
X13239Y20383D01*
X13185Y20302D01*
X13166Y20207D01*
X13185Y20111D01*
X13239Y20031D01*
X13267Y20012D01*
Y18575D01*
X12084Y17393D01*
X11920D01*
X11906Y17440D01*
X11908Y17442D01*
X11962Y17523D01*
X11977Y17596D01*
X12299Y17918D01*
X12340Y17979D01*
X12354Y18051D01*
X12354Y18051D01*
Y18347D01*
X12395Y18409D01*
X12414Y18504D01*
X12395Y18599D01*
X12341Y18680D01*
X12261Y18734D01*
X12165Y18753D01*
X12070Y18734D01*
X11989Y18680D01*
X11935Y18599D01*
X11916Y18504D01*
X11935Y18409D01*
X11977Y18347D01*
Y18129D01*
X11710Y17863D01*
X11637Y17848D01*
X11556Y17794D01*
X11502Y17713D01*
X11483Y17618D01*
X11502Y17523D01*
X11556Y17442D01*
X11559Y17440D01*
X11544Y17393D01*
X10226D01*
X10211Y17443D01*
X10225Y17452D01*
X10279Y17533D01*
X10298Y17628D01*
X10279Y17723D01*
X10225Y17804D01*
X10178Y17835D01*
Y19038D01*
X10206Y19056D01*
X10259Y19137D01*
X10278Y19232D01*
X10259Y19328D01*
X10206Y19408D01*
X10125Y19462D01*
X10030Y19481D01*
X9934Y19462D01*
X9854Y19408D01*
X9800Y19328D01*
X9781Y19232D01*
X9800Y19137D01*
X9854Y19056D01*
X9881Y19038D01*
Y17809D01*
X9873Y17804D01*
X9819Y17723D01*
X9800Y17628D01*
X9819Y17533D01*
X9873Y17452D01*
X9887Y17443D01*
X9872Y17393D01*
X9781D01*
X9763Y17420D01*
X9682Y17474D01*
X9587Y17493D01*
X9491Y17474D01*
X9411Y17420D01*
X9357Y17339D01*
X9338Y17244D01*
X9357Y17149D01*
X9411Y17068D01*
X9491Y17014D01*
X9587Y16995D01*
X9682Y17014D01*
X9763Y17068D01*
X9781Y17096D01*
X12146D01*
X12146Y17096D01*
X12203Y17107D01*
X12251Y17139D01*
X13520Y18409D01*
X13520Y18409D01*
X13553Y18457D01*
X13564Y18514D01*
X13564Y18514D01*
Y20012D01*
X13591Y20031D01*
X13645Y20111D01*
X13664Y20207D01*
X13645Y20302D01*
X13591Y20383D01*
X13511Y20437D01*
X13415Y20456D01*
D02*
G37*
G36*
X36425Y18196D02*
X36228D01*
X36129Y18183D01*
X36036Y18145D01*
X35956Y18083D01*
X35895Y18004D01*
X35856Y17911D01*
X35852Y17878D01*
X35802D01*
X35797Y17911D01*
X35759Y18004D01*
X35698Y18083D01*
X35618Y18145D01*
X35525Y18183D01*
X35425Y18196D01*
X35228D01*
X35129Y18183D01*
X35036Y18145D01*
X34956Y18083D01*
X34895Y18004D01*
X34856Y17911D01*
X34843Y17811D01*
X34856Y17711D01*
X34895Y17618D01*
X34956Y17539D01*
X35036Y17477D01*
X35129Y17439D01*
X35228Y17426D01*
X35425D01*
X35525Y17439D01*
X35618Y17477D01*
X35698Y17539D01*
X35759Y17618D01*
X35797Y17711D01*
X35802Y17744D01*
X35852D01*
X35856Y17711D01*
X35895Y17618D01*
X35956Y17539D01*
X36036Y17477D01*
X36129Y17439D01*
X36228Y17426D01*
X36425D01*
X36525Y17439D01*
X36618Y17477D01*
X36698Y17539D01*
X36759Y17618D01*
X36797Y17711D01*
X36810Y17811D01*
X36797Y17911D01*
X36759Y18004D01*
X36698Y18083D01*
X36618Y18145D01*
X36525Y18183D01*
X36425Y18196D01*
D02*
G37*
G36*
X27907Y18234D02*
X27801D01*
X27760Y18226D01*
X27726Y18204D01*
X27703Y18170D01*
X27695Y18129D01*
Y18007D01*
X27907D01*
Y18234D01*
D02*
G37*
G36*
X28114D02*
X28007D01*
Y18007D01*
X28219D01*
Y18129D01*
X28211Y18170D01*
X28189Y18204D01*
X28155Y18226D01*
X28114Y18234D01*
D02*
G37*
G36*
X33189Y18089D02*
X33062D01*
Y17877D01*
X33294D01*
Y17984D01*
X33286Y18025D01*
X33264Y18059D01*
X33230Y18081D01*
X33189Y18089D01*
D02*
G37*
G36*
X27907Y17907D02*
X27695D01*
Y17786D01*
X27703Y17745D01*
X27726Y17711D01*
X27760Y17688D01*
X27801Y17680D01*
X27907D01*
Y17907D01*
D02*
G37*
G36*
X28219D02*
X28007D01*
Y17680D01*
X28114D01*
X28155Y17688D01*
X28189Y17711D01*
X28211Y17745D01*
X28219Y17786D01*
Y17907D01*
D02*
G37*
G36*
X32962Y18089D02*
X32836D01*
X32795Y18081D01*
X32761Y18059D01*
X32738Y18025D01*
X32730Y17984D01*
Y17877D01*
X32962D01*
Y18089D01*
D02*
G37*
G36*
X28219Y13707D02*
X28007D01*
Y13480D01*
X28114D01*
X28155Y13488D01*
X28189Y13511D01*
X28211Y13545D01*
X28219Y13586D01*
Y13707D01*
D02*
G37*
G36*
X27007Y13520D02*
X26886D01*
X26845Y13511D01*
X26811Y13489D01*
D01*
D01*
X26809D01*
X26804D01*
X26770Y13511D01*
X26729Y13520D01*
X26607D01*
Y13257D01*
Y12995D01*
X26729D01*
X26770Y13003D01*
X26770Y13004D01*
X26804Y13026D01*
D01*
D01*
X26806D01*
X26811D01*
X26845Y13003D01*
X26886Y12995D01*
X27007D01*
Y13257D01*
Y13520D01*
D02*
G37*
G36*
X27507D02*
X27386D01*
X27345Y13511D01*
X27311Y13489D01*
D01*
D01*
X27309D01*
X27304D01*
X27270Y13511D01*
X27229Y13520D01*
X27107D01*
Y13257D01*
Y12995D01*
X27229D01*
X27270Y13003D01*
X27270Y13004D01*
X27304Y13026D01*
D01*
D01*
X27306D01*
X27311D01*
X27345Y13003D01*
X27386Y12995D01*
X27507D01*
Y13257D01*
Y13520D01*
D02*
G37*
G36*
X27907Y13707D02*
X27695D01*
Y13586D01*
X27699Y13570D01*
X27665Y13520D01*
X27607D01*
Y13307D01*
X27834D01*
Y13414D01*
X27831Y13430D01*
X27865Y13480D01*
X27907D01*
Y13707D01*
D02*
G37*
G36*
X25207Y13520D02*
X25086D01*
X25045Y13511D01*
X25011Y13489D01*
X24988Y13455D01*
X24980Y13414D01*
Y13307D01*
X25207D01*
Y13520D01*
D02*
G37*
G36*
X25429D02*
X25307D01*
Y13307D01*
X25535D01*
Y13414D01*
X25526Y13455D01*
X25504Y13489D01*
X25470Y13511D01*
X25429Y13520D01*
D02*
G37*
G36*
X26507D02*
X26386D01*
X26345Y13511D01*
X26311Y13489D01*
X26288Y13455D01*
X26280Y13414D01*
Y13307D01*
X26507D01*
Y13520D01*
D02*
G37*
G36*
X36425Y15196D02*
X36228D01*
X36129Y15183D01*
X36036Y15145D01*
X35956Y15083D01*
X35895Y15004D01*
X35856Y14911D01*
X35852Y14878D01*
X35802D01*
X35797Y14911D01*
X35759Y15004D01*
X35698Y15083D01*
X35618Y15145D01*
X35525Y15183D01*
X35425Y15196D01*
X35228D01*
X35129Y15183D01*
X35036Y15145D01*
X34956Y15083D01*
X34895Y15004D01*
X34856Y14911D01*
X34843Y14811D01*
X34856Y14711D01*
X34886Y14640D01*
X34858Y14590D01*
X34136D01*
Y14753D01*
X34129Y14788D01*
X34109Y14819D01*
X34078Y14839D01*
X34043Y14846D01*
X33572D01*
X33537Y14839D01*
X33506Y14819D01*
X33486Y14788D01*
X33479Y14753D01*
Y14162D01*
X33486Y14127D01*
X33506Y14096D01*
X33537Y14076D01*
X33572Y14069D01*
X34043D01*
X34078Y14076D01*
X34109Y14096D01*
X34129Y14127D01*
X34136Y14162D01*
Y14325D01*
X34926D01*
X34959Y14292D01*
X34959Y14292D01*
X34959Y14292D01*
X34982Y14276D01*
X35002Y14263D01*
X35002Y14263D01*
X35002Y14263D01*
X35026Y14259D01*
X35052Y14253D01*
X35052Y14253D01*
X35052Y14253D01*
X35902D01*
X35902Y14253D01*
X35952Y14263D01*
X35995Y14292D01*
X36140Y14437D01*
X36228Y14426D01*
X36425D01*
X36525Y14439D01*
X36618Y14477D01*
X36698Y14539D01*
X36759Y14618D01*
X36797Y14711D01*
X36810Y14811D01*
X36797Y14911D01*
X36759Y15004D01*
X36698Y15083D01*
X36618Y15145D01*
X36525Y15183D01*
X36425Y15196D01*
D02*
G37*
G36*
X17146Y15702D02*
X17050Y15683D01*
X16970Y15629D01*
X16916Y15548D01*
X16906Y15499D01*
X16351Y14943D01*
X16299Y14954D01*
X16204Y14935D01*
X16123Y14881D01*
X16069Y14800D01*
X16050Y14705D01*
X16069Y14609D01*
X16123Y14529D01*
X16204Y14475D01*
X16299Y14456D01*
X16394Y14475D01*
X16475Y14529D01*
X16529Y14609D01*
X16548Y14705D01*
X16538Y14756D01*
X17023Y15241D01*
X17050Y15223D01*
X17146Y15204D01*
X17241Y15223D01*
X17322Y15277D01*
X17376Y15358D01*
X17395Y15453D01*
X17376Y15548D01*
X17322Y15629D01*
X17241Y15683D01*
X17146Y15702D01*
D02*
G37*
G36*
X23357Y17307D02*
X22955D01*
Y16894D01*
X22964Y16853D01*
X22987Y16817D01*
X23023Y16794D01*
X23064Y16785D01*
X23357D01*
Y17307D01*
D02*
G37*
G36*
X15787Y20859D02*
X15692Y20840D01*
X15611Y20786D01*
X15557Y20705D01*
X15539Y20610D01*
X15557Y20515D01*
X15611Y20434D01*
X15655Y20405D01*
Y19176D01*
X15655Y19176D01*
X15665Y19125D01*
X15694Y19082D01*
X15745Y19031D01*
Y16897D01*
X13171Y14323D01*
X13120Y14334D01*
X13025Y14315D01*
X12944Y14261D01*
X12890Y14180D01*
X12871Y14085D01*
X12890Y13989D01*
X12944Y13909D01*
X13025Y13855D01*
X13120Y13836D01*
X13215Y13855D01*
X13296Y13909D01*
X13350Y13989D01*
X13369Y14085D01*
X13359Y14136D01*
X15972Y16749D01*
X15972Y16749D01*
X16000Y16792D01*
X16010Y16843D01*
Y19086D01*
X16010Y19086D01*
X16000Y19136D01*
X15972Y19179D01*
X15920Y19231D01*
Y20405D01*
X15963Y20434D01*
X16017Y20515D01*
X16036Y20610D01*
X16017Y20705D01*
X15963Y20786D01*
X15883Y20840D01*
X15787Y20859D01*
D02*
G37*
G36*
X27907Y14035D02*
X27801D01*
X27760Y14026D01*
X27726Y14004D01*
X27703Y13970D01*
X27695Y13929D01*
Y13807D01*
X27907D01*
Y14035D01*
D02*
G37*
G36*
X28114D02*
X28007D01*
Y13807D01*
X28219D01*
Y13929D01*
X28211Y13970D01*
X28189Y14004D01*
X28155Y14026D01*
X28114Y14035D01*
D02*
G37*
G36*
X16309Y20406D02*
X16214Y20387D01*
X16133Y20333D01*
X16079Y20253D01*
X16060Y20157D01*
X16079Y20062D01*
X16133Y19981D01*
X16177Y19952D01*
Y16561D01*
X13683Y14067D01*
X13632Y14078D01*
X13537Y14059D01*
X13456Y14005D01*
X13402Y13924D01*
X13383Y13829D01*
X13402Y13734D01*
X13456Y13653D01*
X13537Y13599D01*
X13632Y13580D01*
X13727Y13599D01*
X13808Y13653D01*
X13862Y13734D01*
X13881Y13829D01*
X13871Y13880D01*
X16403Y16412D01*
X16403Y16412D01*
X16431Y16455D01*
X16442Y16506D01*
Y19952D01*
X16485Y19981D01*
X16539Y20062D01*
X16558Y20157D01*
X16539Y20253D01*
X16485Y20333D01*
X16404Y20387D01*
X16309Y20406D01*
D02*
G37*
G36*
X23107Y18307D02*
X22895D01*
Y18186D01*
X22903Y18145D01*
X22926Y18111D01*
X22942Y18101D01*
X22960Y18088D01*
X23001Y18080D01*
X23107D01*
Y18307D01*
D02*
G37*
G36*
X19345Y23424D02*
X18944D01*
Y23023D01*
X19012Y23032D01*
X19123Y23078D01*
X19218Y23150D01*
X19291Y23245D01*
X19336Y23356D01*
X19345Y23424D01*
D02*
G37*
G36*
X19844D02*
X19442D01*
X19451Y23356D01*
X19497Y23245D01*
X19570Y23150D01*
X19665Y23078D01*
X19775Y23032D01*
X19844Y23023D01*
Y23424D01*
D02*
G37*
G36*
X20345D02*
X19944D01*
Y23023D01*
X20012Y23032D01*
X20123Y23078D01*
X20218Y23150D01*
X20291Y23245D01*
X20336Y23356D01*
X20345Y23424D01*
D02*
G37*
G36*
X18844D02*
X18442D01*
X18451Y23356D01*
X18497Y23245D01*
X18570Y23150D01*
X18665Y23078D01*
X18775Y23032D01*
X18844Y23023D01*
Y23424D01*
D02*
G37*
G36*
X27873Y23241D02*
X27727Y23222D01*
X27591Y23165D01*
X27474Y23076D01*
X27384Y22959D01*
X27328Y22823D01*
X27309Y22677D01*
X27328Y22531D01*
X27384Y22395D01*
X27474Y22278D01*
X27591Y22189D01*
X27727Y22132D01*
X27873Y22113D01*
X28018Y22132D01*
X28154Y22189D01*
X28271Y22278D01*
X28361Y22395D01*
X28417Y22531D01*
X28436Y22677D01*
X28417Y22823D01*
X28361Y22959D01*
X28271Y23076D01*
X28154Y23165D01*
X28018Y23222D01*
X27873Y23241D01*
D02*
G37*
G36*
X29843D02*
X29697Y23222D01*
X29561Y23165D01*
X29444Y23076D01*
X29354Y22959D01*
X29298Y22823D01*
X29279Y22677D01*
X29298Y22531D01*
X29354Y22395D01*
X29444Y22278D01*
X29561Y22189D01*
X29697Y22132D01*
X29843Y22113D01*
X29988Y22132D01*
X30124Y22189D01*
X30241Y22278D01*
X30331Y22395D01*
X30387Y22531D01*
X30406Y22677D01*
X30387Y22823D01*
X30331Y22959D01*
X30241Y23076D01*
X30124Y23165D01*
X29988Y23222D01*
X29843Y23241D01*
D02*
G37*
G36*
X25956Y23248D02*
Y22727D01*
X26476D01*
X26463Y22827D01*
X26406Y22966D01*
X26314Y23085D01*
X26194Y23177D01*
X26055Y23235D01*
X25956Y23248D01*
D02*
G37*
G36*
X18944Y23926D02*
Y23524D01*
X19345D01*
X19336Y23593D01*
X19291Y23704D01*
X19218Y23798D01*
X19123Y23871D01*
X19012Y23917D01*
X18944Y23926D01*
D02*
G37*
G36*
X19844D02*
X19775Y23917D01*
X19665Y23871D01*
X19570Y23798D01*
X19497Y23704D01*
X19451Y23593D01*
X19442Y23524D01*
X19844D01*
Y23926D01*
D02*
G37*
G36*
X19944D02*
Y23524D01*
X20345D01*
X20336Y23593D01*
X20291Y23704D01*
X20218Y23798D01*
X20123Y23871D01*
X20012Y23917D01*
X19944Y23926D01*
D02*
G37*
G36*
X18844D02*
X18775Y23917D01*
X18665Y23871D01*
X18570Y23798D01*
X18497Y23704D01*
X18451Y23593D01*
X18442Y23524D01*
X18844D01*
Y23926D01*
D02*
G37*
G36*
X20894Y23919D02*
X20779Y23904D01*
X20671Y23860D01*
X20579Y23789D01*
X20509Y23697D01*
X20464Y23590D01*
X20449Y23474D01*
X20464Y23359D01*
X20509Y23252D01*
X20579Y23160D01*
X20671Y23089D01*
X20779Y23045D01*
X20894Y23030D01*
X21009Y23045D01*
X21116Y23089D01*
X21208Y23160D01*
X21279Y23252D01*
X21323Y23359D01*
X21338Y23474D01*
X21323Y23590D01*
X21279Y23697D01*
X21208Y23789D01*
X21116Y23860D01*
X21009Y23904D01*
X20894Y23919D01*
D02*
G37*
G36*
X21894D02*
X21779Y23904D01*
X21671Y23860D01*
X21579Y23789D01*
X21509Y23697D01*
X21464Y23590D01*
X21449Y23474D01*
X21464Y23359D01*
X21509Y23252D01*
X21579Y23160D01*
X21671Y23089D01*
X21779Y23045D01*
X21894Y23030D01*
X22009Y23045D01*
X22116Y23089D01*
X22208Y23160D01*
X22279Y23252D01*
X22323Y23359D01*
X22338Y23474D01*
X22323Y23590D01*
X22279Y23697D01*
X22208Y23789D01*
X22116Y23860D01*
X22009Y23904D01*
X21894Y23919D01*
D02*
G37*
G36*
X23241Y23917D02*
X22546D01*
X22510Y23910D01*
X22479Y23889D01*
X22458Y23858D01*
X22451Y23822D01*
Y23127D01*
X22458Y23091D01*
X22479Y23060D01*
X22510Y23039D01*
X22546Y23032D01*
X23241D01*
X23277Y23039D01*
X23308Y23060D01*
X23329Y23091D01*
X23336Y23127D01*
Y23822D01*
X23329Y23858D01*
X23308Y23889D01*
X23277Y23910D01*
X23241Y23917D01*
D02*
G37*
G36*
X23314Y18635D02*
X23207D01*
Y18407D01*
X23419D01*
Y18529D01*
X23411Y18570D01*
X23389Y18604D01*
X23355Y18626D01*
X23314Y18635D01*
D02*
G37*
G36*
X32957Y19437D02*
X32583D01*
X32541Y19429D01*
X32505Y19405D01*
X32481Y19369D01*
X32472Y19326D01*
Y18873D01*
X32957D01*
Y19437D01*
D02*
G37*
G36*
X33432D02*
X33057D01*
Y18873D01*
X33543D01*
Y19326D01*
X33534Y19369D01*
X33510Y19405D01*
X33474Y19429D01*
X33432Y19437D01*
D02*
G37*
G36*
X15384Y19038D02*
X15289Y19019D01*
X15208Y18965D01*
X15154Y18885D01*
X15135Y18789D01*
X15154Y18694D01*
X15195Y18632D01*
Y18356D01*
X14046Y17206D01*
X13307D01*
X13245Y17248D01*
X13162Y17264D01*
X13139Y17312D01*
X14073Y18246D01*
X14124Y18235D01*
X14219Y18254D01*
X14300Y18308D01*
X14354Y18389D01*
X14373Y18484D01*
X14354Y18579D01*
X14300Y18660D01*
X14219Y18714D01*
X14124Y18733D01*
X14029Y18714D01*
X13948Y18660D01*
X13894Y18579D01*
X13875Y18484D01*
X13885Y18433D01*
X9916Y14463D01*
X9760D01*
X9745Y14513D01*
X9768Y14529D01*
X10194Y14954D01*
X10194Y14954D01*
X10226Y15002D01*
X10237Y15059D01*
Y16541D01*
X10245Y16546D01*
X10299Y16627D01*
X10318Y16722D01*
X10299Y16818D01*
X10245Y16898D01*
X10164Y16952D01*
X10069Y16971D01*
X9974Y16952D01*
X9893Y16898D01*
X9839Y16818D01*
X9820Y16722D01*
X9839Y16627D01*
X9893Y16546D01*
X9940Y16515D01*
Y15121D01*
X9602Y14782D01*
X8762D01*
X8705Y14771D01*
X8657Y14739D01*
X8142Y14223D01*
X7409D01*
X7391Y14251D01*
X7310Y14305D01*
X7215Y14324D01*
X7119Y14305D01*
X7039Y14251D01*
X6985Y14170D01*
X6966Y14075D01*
X6985Y13980D01*
X7039Y13899D01*
X7119Y13845D01*
X7215Y13826D01*
X7310Y13845D01*
X7391Y13899D01*
X7409Y13926D01*
X8203D01*
X8203Y13926D01*
X8260Y13938D01*
X8308Y13970D01*
X8606Y14268D01*
X8654Y14253D01*
X8658Y14235D01*
X8712Y14155D01*
X8793Y14101D01*
X8888Y14082D01*
X8983Y14101D01*
X9064Y14155D01*
X9093Y14198D01*
X9970D01*
X9970Y14198D01*
X10021Y14208D01*
X10064Y14237D01*
X12856Y17029D01*
X12903Y17005D01*
X12920Y16922D01*
X12974Y16842D01*
X13054Y16788D01*
X13150Y16769D01*
X13245Y16788D01*
X13307Y16829D01*
X14124D01*
X14124Y16829D01*
X14196Y16843D01*
X14257Y16884D01*
X15517Y18144D01*
X15558Y18205D01*
X15573Y18278D01*
X15573Y18278D01*
Y18632D01*
X15614Y18694D01*
X15633Y18789D01*
X15614Y18885D01*
X15560Y18965D01*
X15479Y19019D01*
X15384Y19038D01*
D02*
G37*
G36*
X23419Y18307D02*
X23207D01*
Y18080D01*
X23314D01*
X23355Y18088D01*
X23389Y18111D01*
X23411Y18145D01*
X23419Y18186D01*
Y18307D01*
D02*
G37*
G36*
X32957Y18773D02*
X32472D01*
Y18320D01*
X32481Y18278D01*
X32505Y18242D01*
X32541Y18218D01*
X32583Y18209D01*
X32957D01*
Y18773D01*
D02*
G37*
G36*
X33543D02*
X33057D01*
Y18209D01*
X33432D01*
X33474Y18218D01*
X33510Y18242D01*
X33534Y18278D01*
X33543Y18320D01*
Y18773D01*
D02*
G37*
G36*
X6160Y22115D02*
X6091Y22106D01*
X6026Y22079D01*
X5970Y22036D01*
X5927Y21981D01*
X5900Y21916D01*
X5891Y21846D01*
X5900Y21777D01*
X5927Y21712D01*
X5970Y21656D01*
X6026Y21613D01*
X6091Y21586D01*
X6160Y21577D01*
X6230Y21586D01*
X6295Y21613D01*
X6350Y21656D01*
X6393Y21712D01*
X6420Y21777D01*
X6429Y21846D01*
X6420Y21916D01*
X6393Y21981D01*
X6350Y22036D01*
X6295Y22079D01*
X6230Y22106D01*
X6160Y22115D01*
D02*
G37*
G36*
X11566D02*
X11496Y22106D01*
X11432Y22079D01*
X11376Y22036D01*
X11333Y21981D01*
X11306Y21916D01*
X11297Y21846D01*
X11306Y21777D01*
X11333Y21712D01*
X11376Y21656D01*
X11432Y21613D01*
X11496Y21586D01*
X11566Y21577D01*
X11636Y21586D01*
X11700Y21613D01*
X11756Y21656D01*
X11799Y21712D01*
X11826Y21777D01*
X11835Y21846D01*
X11826Y21916D01*
X11799Y21981D01*
X11756Y22036D01*
X11700Y22079D01*
X11636Y22106D01*
X11566Y22115D01*
D02*
G37*
G36*
X13296D02*
X13226Y22106D01*
X13162Y22079D01*
X13106Y22036D01*
X13063Y21981D01*
X13036Y21916D01*
X13027Y21846D01*
X13036Y21777D01*
X13063Y21712D01*
X13106Y21656D01*
X13162Y21613D01*
X13226Y21586D01*
X13296Y21577D01*
X13366Y21586D01*
X13430Y21613D01*
X13486Y21656D01*
X13529Y21712D01*
X13556Y21777D01*
X13565Y21846D01*
X13556Y21916D01*
X13529Y21981D01*
X13486Y22036D01*
X13430Y22079D01*
X13366Y22106D01*
X13296Y22115D01*
D02*
G37*
G36*
X4430D02*
X4361Y22106D01*
X4296Y22079D01*
X4240Y22036D01*
X4197Y21981D01*
X4170Y21916D01*
X4161Y21846D01*
X4170Y21777D01*
X4197Y21712D01*
X4240Y21656D01*
X4296Y21613D01*
X4361Y21586D01*
X4430Y21577D01*
X4500Y21586D01*
X4565Y21613D01*
X4620Y21656D01*
X4663Y21712D01*
X4690Y21777D01*
X4699Y21846D01*
X4690Y21916D01*
X4663Y21981D01*
X4620Y22036D01*
X4565Y22079D01*
X4500Y22106D01*
X4430Y22115D01*
D02*
G37*
G36*
X36425Y19196D02*
X36228D01*
X36129Y19183D01*
X36036Y19145D01*
X35956Y19083D01*
X35895Y19004D01*
X35856Y18911D01*
X35852Y18878D01*
X35802D01*
X35797Y18911D01*
X35759Y19004D01*
X35698Y19083D01*
X35618Y19145D01*
X35525Y19183D01*
X35425Y19196D01*
X35228D01*
X35129Y19183D01*
X35036Y19145D01*
X34956Y19083D01*
X34895Y19004D01*
X34856Y18911D01*
X34843Y18811D01*
X34856Y18711D01*
X34895Y18618D01*
X34956Y18539D01*
X35036Y18477D01*
X35129Y18439D01*
X35228Y18426D01*
X35425D01*
X35525Y18439D01*
X35618Y18477D01*
X35698Y18539D01*
X35759Y18618D01*
X35797Y18711D01*
X35802Y18744D01*
X35852D01*
X35856Y18711D01*
X35895Y18618D01*
X35956Y18539D01*
X36036Y18477D01*
X36129Y18439D01*
X36228Y18426D01*
X36425D01*
X36525Y18439D01*
X36618Y18477D01*
X36698Y18539D01*
X36759Y18618D01*
X36797Y18711D01*
X36810Y18811D01*
X36797Y18911D01*
X36759Y19004D01*
X36698Y19083D01*
X36618Y19145D01*
X36525Y19183D01*
X36425Y19196D01*
D02*
G37*
G36*
X35277Y19761D02*
X34836D01*
X34843Y19708D01*
X34883Y19612D01*
X34946Y19529D01*
X35029Y19466D01*
X35125Y19426D01*
X35228Y19412D01*
X35277D01*
Y19761D01*
D02*
G37*
G36*
Y20210D02*
X35228D01*
X35125Y20196D01*
X35029Y20156D01*
X34946Y20093D01*
X34883Y20010D01*
X34843Y19914D01*
X34836Y19861D01*
X35277D01*
Y20210D01*
D02*
G37*
G36*
X24329Y13520D02*
X24207D01*
Y13307D01*
X24434D01*
Y13414D01*
X24426Y13455D01*
X24404Y13489D01*
X24370Y13511D01*
X24329Y13520D01*
D02*
G37*
G36*
X15700Y10329D02*
X15605Y10310D01*
X15543Y10268D01*
X15024D01*
X14988Y10293D01*
X14931Y10304D01*
X14459D01*
X14402Y10293D01*
X14354Y10261D01*
X14321Y10212D01*
X14310Y10156D01*
Y10037D01*
X14321Y9981D01*
X14354Y9932D01*
X14402Y9900D01*
X14459Y9889D01*
X14931D01*
X14942Y9891D01*
X15537D01*
X15577Y9856D01*
X15575Y9807D01*
X15542Y9785D01*
X14999D01*
X14988Y9793D01*
X14931Y9804D01*
X14459D01*
X14402Y9793D01*
X14354Y9761D01*
X14321Y9712D01*
X14310Y9656D01*
Y9537D01*
X14321Y9481D01*
X14354Y9432D01*
X14402Y9400D01*
X14459Y9389D01*
X14931D01*
X14988Y9400D01*
X14999Y9408D01*
X15542D01*
X15604Y9367D01*
X15699Y9348D01*
X15794Y9367D01*
X15875Y9420D01*
X15929Y9501D01*
X15948Y9596D01*
X15929Y9692D01*
X15875Y9772D01*
X15822Y9808D01*
X15822Y9868D01*
X15876Y9904D01*
X15930Y9984D01*
X15949Y10080D01*
X15930Y10175D01*
X15876Y10256D01*
X15795Y10310D01*
X15700Y10329D01*
D02*
G37*
G36*
X11929Y12104D02*
X11339D01*
X11303Y12097D01*
X11273Y12076D01*
X11253Y12046D01*
X11245Y12010D01*
Y11540D01*
X11253Y11504D01*
X11273Y11474D01*
X11303Y11454D01*
X11339Y11447D01*
X11445D01*
Y10725D01*
X11329D01*
X11272Y10714D01*
X11224Y10682D01*
X11192Y10634D01*
X11180Y10577D01*
Y10459D01*
X11192Y10402D01*
X11224Y10354D01*
X11272Y10321D01*
X11329Y10310D01*
X11801D01*
X11858Y10321D01*
X11906Y10354D01*
X11938Y10402D01*
X11950Y10459D01*
Y10577D01*
X11938Y10634D01*
X11906Y10682D01*
X11858Y10714D01*
X11823Y10721D01*
Y11447D01*
X11929D01*
X11965Y11454D01*
X11995Y11474D01*
X12015Y11504D01*
X12022Y11540D01*
Y12010D01*
X12015Y12046D01*
X11995Y12076D01*
X11965Y12097D01*
X11929Y12104D01*
D02*
G37*
G36*
X5394Y12064D02*
X4803D01*
X4768Y12057D01*
X4737Y12037D01*
X4717Y12007D01*
X4710Y11971D01*
Y11501D01*
X4717Y11465D01*
X4737Y11435D01*
X4768Y11415D01*
X4803Y11407D01*
X4831D01*
Y10755D01*
X4783D01*
X4727Y10744D01*
X4678Y10711D01*
X4646Y10663D01*
X4635Y10606D01*
Y10488D01*
X4646Y10431D01*
X4678Y10383D01*
X4727Y10351D01*
X4783Y10340D01*
X5256D01*
X5313Y10351D01*
X5361Y10383D01*
X5393Y10431D01*
X5404Y10488D01*
Y10606D01*
X5393Y10663D01*
X5361Y10711D01*
X5313Y10744D01*
X5256Y10755D01*
X5208D01*
Y11407D01*
X5394D01*
X5429Y11415D01*
X5460Y11435D01*
X5480Y11465D01*
X5487Y11501D01*
Y11971D01*
X5480Y12007D01*
X5460Y12037D01*
X5429Y12057D01*
X5394Y12064D01*
D02*
G37*
G36*
X6102Y10800D02*
X6007Y10781D01*
X5926Y10727D01*
X5872Y10646D01*
X5858Y10574D01*
X5520Y10236D01*
X5324D01*
X5313Y10244D01*
X5256Y10255D01*
X4783D01*
X4727Y10244D01*
X4678Y10211D01*
X4646Y10163D01*
X4635Y10106D01*
Y9988D01*
X4646Y9931D01*
X4678Y9883D01*
X4727Y9851D01*
X4783Y9840D01*
X5256D01*
X5313Y9851D01*
X5324Y9859D01*
X5598D01*
X5598Y9859D01*
X5671Y9873D01*
X5732Y9914D01*
X6125Y10307D01*
X6198Y10321D01*
X6278Y10375D01*
X6332Y10456D01*
X6351Y10551D01*
X6332Y10646D01*
X6278Y10727D01*
X6198Y10781D01*
X6102Y10800D01*
D02*
G37*
G36*
X17785Y10345D02*
X17690Y10326D01*
X17609Y10272D01*
X17556Y10192D01*
X17537Y10096D01*
X17556Y10001D01*
X17609Y9920D01*
X17690Y9867D01*
X17785Y9848D01*
X17881Y9867D01*
X17942Y9908D01*
X18131D01*
X18142Y9900D01*
X18199Y9889D01*
X18671D01*
X18728Y9900D01*
X18776Y9932D01*
X18808Y9981D01*
X18820Y10037D01*
Y10156D01*
X18808Y10212D01*
X18776Y10261D01*
X18728Y10293D01*
X18671Y10304D01*
X18199D01*
X18142Y10293D01*
X18131Y10285D01*
X17942D01*
X17881Y10326D01*
X17785Y10345D01*
D02*
G37*
G36*
X8061Y10225D02*
X7589D01*
X7532Y10214D01*
X7520Y10206D01*
X7222D01*
X7222Y10206D01*
X7150Y10192D01*
X7089Y10151D01*
X7089Y10151D01*
X6973Y10035D01*
X6932Y9974D01*
X6918Y9902D01*
X6918Y9902D01*
Y9419D01*
X6876Y9357D01*
X6857Y9262D01*
X6876Y9167D01*
X6930Y9086D01*
X7011Y9032D01*
X7106Y9013D01*
X7202Y9032D01*
X7282Y9086D01*
X7336Y9167D01*
X7355Y9262D01*
X7336Y9357D01*
X7295Y9419D01*
Y9823D01*
X7301Y9829D01*
X7520D01*
X7532Y9821D01*
X7589Y9810D01*
X8061D01*
X8118Y9821D01*
X8166Y9854D01*
X8198Y9902D01*
X8210Y9959D01*
Y10077D01*
X8198Y10134D01*
X8166Y10182D01*
X8118Y10214D01*
X8061Y10225D01*
D02*
G37*
G36*
X12362Y10485D02*
X12267Y10466D01*
X12186Y10412D01*
X12132Y10331D01*
X12118Y10259D01*
X12066Y10206D01*
X11869D01*
X11858Y10214D01*
X11801Y10225D01*
X11329D01*
X11272Y10214D01*
X11224Y10182D01*
X11192Y10134D01*
X11180Y10077D01*
Y9959D01*
X11192Y9902D01*
X11224Y9854D01*
X11272Y9821D01*
X11329Y9810D01*
X11801D01*
X11858Y9821D01*
X11869Y9829D01*
X12144D01*
X12144Y9829D01*
X12216Y9843D01*
X12277Y9884D01*
X12385Y9992D01*
X12457Y10006D01*
X12538Y10060D01*
X12592Y10141D01*
X12611Y10236D01*
X12592Y10331D01*
X12538Y10412D01*
X12457Y10466D01*
X12362Y10485D01*
D02*
G37*
G36*
X10326Y11585D02*
X9804D01*
Y11183D01*
X10217D01*
X10259Y11191D01*
X10294Y11215D01*
X10318Y11250D01*
X10326Y11292D01*
Y11585D01*
D02*
G37*
G36*
X8350Y11426D02*
X8138D01*
Y11305D01*
X8146Y11264D01*
X8169Y11230D01*
X8203Y11207D01*
X8244Y11199D01*
X8350D01*
Y11426D01*
D02*
G37*
G36*
X8662D02*
X8450D01*
Y11199D01*
X8557D01*
X8597Y11207D01*
X8632Y11230D01*
X8654Y11264D01*
X8662Y11305D01*
Y11426D01*
D02*
G37*
G36*
X9704Y11585D02*
X9182D01*
Y11292D01*
X9190Y11250D01*
X9214Y11215D01*
X9249Y11191D01*
X9291Y11183D01*
X9704D01*
Y11585D01*
D02*
G37*
G36*
X19774Y11139D02*
X19183D01*
X19147Y11132D01*
X19117Y11112D01*
X19097Y11082D01*
X19090Y11046D01*
Y10988D01*
X19075Y10985D01*
X19014Y10944D01*
X19014Y10944D01*
X18859Y10789D01*
X18734D01*
X18728Y10793D01*
X18671Y10804D01*
X18199D01*
X18142Y10793D01*
X18094Y10761D01*
X18062Y10712D01*
X18050Y10656D01*
Y10537D01*
X18062Y10481D01*
X18094Y10432D01*
X18142Y10400D01*
X18199Y10389D01*
X18671D01*
X18728Y10400D01*
X18745Y10412D01*
X18937D01*
X18937Y10412D01*
X19009Y10426D01*
X19070Y10467D01*
X19113Y10510D01*
X19117Y10510D01*
X19147Y10489D01*
X19183Y10482D01*
X19774D01*
X19809Y10489D01*
X19839Y10510D01*
X19860Y10540D01*
X19867Y10575D01*
Y11046D01*
X19860Y11082D01*
X19839Y11112D01*
X19809Y11132D01*
X19774Y11139D01*
D02*
G37*
G36*
X16771Y11556D02*
X16249D01*
Y11263D01*
X16257Y11221D01*
X16281Y11185D01*
X16316Y11162D01*
X16358Y11153D01*
X16771D01*
Y11556D01*
D02*
G37*
G36*
X17393D02*
X16871D01*
Y11153D01*
X17284D01*
X17326Y11162D01*
X17361Y11185D01*
X17385Y11221D01*
X17393Y11263D01*
Y11556D01*
D02*
G37*
G36*
X1516Y9268D02*
X1330D01*
Y9097D01*
X1678D01*
Y9106D01*
Y9106D01*
X1666Y9168D01*
X1630Y9221D01*
X1578Y9256D01*
X1516Y9268D01*
D02*
G37*
G36*
X4970D02*
X4783D01*
X4721Y9256D01*
X4669Y9221D01*
X4634Y9168D01*
X4621Y9106D01*
Y9106D01*
Y9097D01*
X4970D01*
Y9268D01*
D02*
G37*
G36*
X5256D02*
X5070D01*
Y9097D01*
X5418D01*
Y9106D01*
X5406Y9168D01*
X5371Y9221D01*
X5318Y9256D01*
X5256Y9268D01*
D02*
G37*
G36*
X11801Y9239D02*
X11615D01*
Y9068D01*
X11963D01*
Y9077D01*
X11951Y9139D01*
X11916Y9191D01*
X11863Y9227D01*
X11801Y9239D01*
D02*
G37*
G36*
X7775D02*
X7589D01*
X7527Y9227D01*
X7474Y9191D01*
X7439Y9139D01*
X7426Y9077D01*
Y9068D01*
X7775D01*
Y9239D01*
D02*
G37*
G36*
X8061D02*
X7875D01*
Y9068D01*
X8223D01*
Y9077D01*
X8211Y9139D01*
X8176Y9191D01*
X8123Y9227D01*
X8061Y9239D01*
D02*
G37*
G36*
X11515D02*
X11329D01*
X11267Y9227D01*
X11214Y9191D01*
X11179Y9139D01*
X11167Y9079D01*
X11167Y9079D01*
X11167Y9077D01*
Y9068D01*
X11515D01*
Y9239D01*
D02*
G37*
G36*
X10177Y9767D02*
X10082Y9748D01*
X10001Y9694D01*
X9947Y9613D01*
X9928Y9518D01*
X9947Y9422D01*
X10001Y9342D01*
X10082Y9288D01*
X10177Y9269D01*
X10272Y9288D01*
X10334Y9329D01*
X11261D01*
X11272Y9321D01*
X11329Y9310D01*
X11801D01*
X11858Y9321D01*
X11906Y9354D01*
X11938Y9402D01*
X11950Y9459D01*
Y9577D01*
X11938Y9634D01*
X11906Y9682D01*
X11858Y9714D01*
X11801Y9725D01*
X11329D01*
X11272Y9714D01*
X11261Y9706D01*
X10334D01*
X10272Y9748D01*
X10177Y9767D01*
D02*
G37*
G36*
X9173D02*
X9078Y9748D01*
X9016Y9706D01*
X8129D01*
X8118Y9714D01*
X8061Y9725D01*
X7589D01*
X7532Y9714D01*
X7484Y9682D01*
X7451Y9634D01*
X7440Y9577D01*
Y9459D01*
X7451Y9402D01*
X7484Y9354D01*
X7532Y9321D01*
X7589Y9310D01*
X8061D01*
X8118Y9321D01*
X8129Y9329D01*
X9016D01*
X9078Y9288D01*
X9173Y9269D01*
X9268Y9288D01*
X9349Y9342D01*
X9403Y9422D01*
X9422Y9518D01*
X9403Y9613D01*
X9349Y9694D01*
X9268Y9748D01*
X9173Y9767D01*
D02*
G37*
G36*
X5256Y9755D02*
X4783D01*
X4727Y9744D01*
X4715Y9736D01*
X3780D01*
X3780Y9736D01*
X3780Y9736D01*
X3742Y9728D01*
X3707Y9722D01*
X3707Y9722D01*
X3707Y9722D01*
X3678Y9702D01*
X3646Y9681D01*
X3646Y9681D01*
X3646Y9681D01*
X3619Y9654D01*
X3546Y9639D01*
X3466Y9585D01*
X3412Y9505D01*
X3393Y9409D01*
X3412Y9314D01*
X3466Y9233D01*
X3546Y9180D01*
X3642Y9161D01*
X3737Y9180D01*
X3818Y9233D01*
X3872Y9314D01*
X3880Y9359D01*
X4715D01*
X4727Y9351D01*
X4783Y9340D01*
X5256D01*
X5313Y9351D01*
X5361Y9383D01*
X5393Y9431D01*
X5404Y9488D01*
Y9606D01*
X5393Y9663D01*
X5361Y9711D01*
X5313Y9744D01*
X5256Y9755D01*
D02*
G37*
G36*
X18671Y9318D02*
X18485D01*
Y9146D01*
X18833D01*
Y9156D01*
X18821Y9218D01*
X18786Y9270D01*
X18733Y9305D01*
X18671Y9318D01*
D02*
G37*
G36*
X14645D02*
X14459D01*
X14397Y9305D01*
X14344Y9270D01*
X14309Y9218D01*
X14296Y9156D01*
Y9146D01*
X14645D01*
Y9318D01*
D02*
G37*
G36*
X14931D02*
X14745D01*
Y9146D01*
X15093D01*
Y9156D01*
X15081Y9218D01*
X15046Y9270D01*
X14993Y9305D01*
X14931Y9318D01*
D02*
G37*
G36*
X18385D02*
X18199D01*
X18137Y9305D01*
X18084Y9270D01*
X18049Y9218D01*
X18037Y9156D01*
Y9146D01*
X18385D01*
Y9318D01*
D02*
G37*
G36*
X15270Y11446D02*
X15058D01*
Y11324D01*
X15066Y11284D01*
X15088Y11250D01*
X15123Y11227D01*
X15163Y11219D01*
X15270D01*
Y11446D01*
D02*
G37*
G36*
X23419Y13207D02*
X23207D01*
Y12980D01*
X23314D01*
X23355Y12988D01*
X23389Y13011D01*
X23411Y13045D01*
X23419Y13086D01*
Y13207D01*
D02*
G37*
G36*
X24107D02*
X23880D01*
Y13101D01*
X23888Y13060D01*
X23911Y13026D01*
X23945Y13003D01*
X23986Y12995D01*
X24107D01*
Y13207D01*
D02*
G37*
G36*
X24434D02*
X24207D01*
Y12995D01*
X24329D01*
X24370Y13003D01*
X24404Y13026D01*
X24426Y13060D01*
X24434Y13101D01*
Y13207D01*
D02*
G37*
G36*
X23107D02*
X22895D01*
Y13086D01*
X22903Y13045D01*
X22926Y13011D01*
X22938Y13003D01*
X22960Y12988D01*
X23001Y12980D01*
X23107D01*
Y13207D01*
D02*
G37*
G36*
X3278Y12146D02*
X2865D01*
Y11744D01*
X3387D01*
Y12037D01*
X3379Y12079D01*
X3355Y12114D01*
X3320Y12138D01*
X3278Y12146D01*
D02*
G37*
G36*
X1220Y11969D02*
X1098D01*
X1058Y11961D01*
X1023Y11939D01*
X1001Y11905D01*
X993Y11864D01*
Y11757D01*
X1220D01*
Y11969D01*
D02*
G37*
G36*
X1441D02*
X1320D01*
Y11757D01*
X1547D01*
Y11864D01*
X1539Y11905D01*
X1516Y11939D01*
X1482Y11961D01*
X1441Y11969D01*
D02*
G37*
G36*
X23107Y13534D02*
X23001D01*
X22960Y13526D01*
X22926Y13504D01*
X22926D01*
X22903Y13470D01*
X22895Y13429D01*
Y13307D01*
X23107D01*
Y13534D01*
D02*
G37*
G36*
X23314D02*
X23207D01*
Y13307D01*
X23419D01*
Y13429D01*
X23411Y13470D01*
X23389Y13504D01*
X23355Y13526D01*
X23314Y13534D01*
D02*
G37*
G36*
X24107Y13520D02*
X23986D01*
X23945Y13511D01*
X23911Y13489D01*
X23888Y13455D01*
X23880Y13414D01*
Y13307D01*
X24107D01*
Y13520D01*
D02*
G37*
G36*
X27834Y13207D02*
X27607D01*
Y12995D01*
X27729D01*
X27770Y13003D01*
X27804Y13026D01*
X27826Y13060D01*
X27834Y13101D01*
Y13207D01*
D02*
G37*
G36*
X25207D02*
X24980D01*
Y13101D01*
X24988Y13060D01*
X25011Y13026D01*
X25045Y13003D01*
X25086Y12995D01*
X25207D01*
Y13207D01*
D02*
G37*
G36*
X25535D02*
X25307D01*
Y12995D01*
X25429D01*
X25470Y13003D01*
X25504Y13026D01*
X25526Y13060D01*
X25535Y13101D01*
Y13207D01*
D02*
G37*
G36*
X26507D02*
X26280D01*
Y13101D01*
X26288Y13060D01*
X26311Y13026D01*
X26345Y13003D01*
X26386Y12995D01*
X26507D01*
Y13207D01*
D02*
G37*
G36*
X1547Y11657D02*
X1320D01*
Y11445D01*
X1441D01*
X1482Y11453D01*
X1516Y11476D01*
X1539Y11510D01*
X1547Y11551D01*
Y11657D01*
D02*
G37*
G36*
X8350Y11753D02*
X8244D01*
X8203Y11745D01*
X8169Y11723D01*
X8146Y11688D01*
X8138Y11648D01*
Y11526D01*
X8350D01*
Y11753D01*
D02*
G37*
G36*
X8557D02*
X8450D01*
Y11526D01*
X8662D01*
Y11648D01*
X8654Y11688D01*
X8632Y11723D01*
X8597Y11745D01*
X8557Y11753D01*
D02*
G37*
G36*
X1220Y11657D02*
X993D01*
Y11551D01*
X1001Y11510D01*
X1023Y11476D01*
X1058Y11453D01*
X1098Y11445D01*
X1220D01*
Y11657D01*
D02*
G37*
G36*
X15582Y11446D02*
X15370D01*
Y11219D01*
X15476D01*
X15517Y11227D01*
X15551Y11250D01*
X15574Y11284D01*
X15582Y11324D01*
Y11446D01*
D02*
G37*
G36*
X2765Y11644D02*
X2243D01*
Y11351D01*
X2251Y11309D01*
X2275Y11274D01*
X2310Y11250D01*
X2352Y11242D01*
X2765D01*
Y11644D01*
D02*
G37*
G36*
X3387D02*
X2865D01*
Y11242D01*
X3278D01*
X3320Y11250D01*
X3355Y11274D01*
X3379Y11309D01*
X3387Y11351D01*
Y11644D01*
D02*
G37*
G36*
X9704Y12087D02*
X9291D01*
X9249Y12079D01*
X9214Y12055D01*
X9190Y12020D01*
X9182Y11978D01*
Y11685D01*
X9704D01*
Y12087D01*
D02*
G37*
G36*
X10217D02*
X9804D01*
Y11685D01*
X10326D01*
Y11978D01*
X10318Y12020D01*
X10294Y12055D01*
X10259Y12079D01*
X10217Y12087D01*
D02*
G37*
G36*
X2765Y12146D02*
X2352D01*
X2310Y12138D01*
X2275Y12114D01*
X2251Y12079D01*
X2243Y12037D01*
Y11744D01*
X2765D01*
Y12146D01*
D02*
G37*
G36*
X17284Y12058D02*
X16871D01*
Y11656D01*
X17393D01*
Y11949D01*
X17385Y11990D01*
X17361Y12026D01*
X17326Y12049D01*
X17284Y12058D01*
D02*
G37*
G36*
X15270Y11773D02*
X15163D01*
X15123Y11765D01*
X15088Y11742D01*
X15066Y11708D01*
X15058Y11668D01*
Y11546D01*
X15270D01*
Y11773D01*
D02*
G37*
G36*
X15476D02*
X15370D01*
Y11546D01*
X15582D01*
Y11668D01*
X15574Y11708D01*
X15551Y11742D01*
X15517Y11765D01*
X15476Y11773D01*
D02*
G37*
G36*
X16771Y12058D02*
X16358D01*
X16316Y12049D01*
X16281Y12026D01*
X16257Y11990D01*
X16249Y11949D01*
Y11656D01*
X16771D01*
Y12058D01*
D02*
G37*
%LPD*%
D10*
X22307Y17357D02*
D03*
X23407D02*
D03*
D12*
X14720Y11496D02*
D03*
X15320D02*
D03*
X7800Y11476D02*
D03*
X8400D02*
D03*
X22557Y18357D02*
D03*
X23157D02*
D03*
X28557Y17957D02*
D03*
X27957D02*
D03*
X28557Y13757D02*
D03*
X27957D02*
D03*
X22557Y13257D02*
D03*
X23157D02*
D03*
X36166Y3022D02*
D03*
X35566D02*
D03*
D15*
X13327Y6955D02*
D03*
Y6155D02*
D03*
X6594Y6827D02*
D03*
Y6027D02*
D03*
X19478Y11611D02*
D03*
Y10811D02*
D03*
X11634Y12575D02*
D03*
Y11775D02*
D03*
X5098Y12536D02*
D03*
Y11736D02*
D03*
X32157Y16257D02*
D03*
Y15457D02*
D03*
X25935Y12487D02*
D03*
Y11687D02*
D03*
D16*
X33007Y14457D02*
D03*
X33807D02*
D03*
Y16307D02*
D03*
X33007D02*
D03*
X33807Y15407D02*
D03*
X33007D02*
D03*
X624Y4902D02*
D03*
X1424D02*
D03*
D17*
X1270Y11107D02*
D03*
Y11707D02*
D03*
X27557Y12657D02*
D03*
Y13257D02*
D03*
X27057Y12657D02*
D03*
Y13257D02*
D03*
X26557Y12657D02*
D03*
Y13257D02*
D03*
X25257Y12657D02*
D03*
Y13257D02*
D03*
X24157Y12657D02*
D03*
Y13257D02*
D03*
D21*
X20935Y10778D02*
X22589Y9124D01*
X29843Y13694D02*
Y17500D01*
X29232Y13084D02*
X29843Y13694D01*
X29856Y13463D02*
X30266Y13873D01*
X29856Y13463D02*
Y13463D01*
X29405Y13012D02*
X29856Y13463D01*
X30266Y13873D02*
Y18612D01*
X29987Y12813D02*
Y13007D01*
X29923Y12749D02*
X29987Y12813D01*
X29923Y12590D02*
Y12749D01*
X29626Y12963D02*
X29814Y13151D01*
X29626Y12651D02*
Y12963D01*
X29911Y12589D02*
X29921Y12579D01*
X29405Y11486D02*
Y13012D01*
X8888Y14331D02*
X9970D01*
X14124Y18484D01*
X13632Y13829D02*
X16309Y16506D01*
Y20157D01*
X23091Y20059D02*
Y20827D01*
X21211Y19626D02*
Y21496D01*
X21142Y19557D02*
X21211Y19626D01*
X28012Y9587D02*
X28610Y10185D01*
Y12055D01*
X28898Y10157D02*
Y11929D01*
X5597Y4216D02*
X6983D01*
X5098Y4715D02*
X5597Y4216D01*
X5846Y4587D02*
X6044Y4389D01*
X7707D01*
X7835Y4262D01*
X6983Y4216D02*
X7183Y4016D01*
X7411D01*
X28898Y11929D02*
X29232Y12264D01*
Y13084D01*
X30571Y13907D02*
Y19026D01*
X29814Y13151D02*
X30571Y13907D01*
X30772Y13791D02*
Y17420D01*
X29356Y11437D02*
X29405Y11486D01*
X29262Y11437D02*
X29356D01*
X29262D02*
X29309Y11390D01*
X30772Y17420D02*
X31105Y17753D01*
X30945Y17348D02*
X31159Y17562D01*
X30945Y13863D02*
Y17348D01*
Y13863D02*
X30963Y13845D01*
X31122Y17264D02*
X31801Y17943D01*
X31122Y17264D02*
X31126Y17260D01*
Y13927D02*
Y17260D01*
X31299Y17188D02*
X31839Y17728D01*
X31299Y13999D02*
Y17188D01*
Y13999D02*
X31309Y13988D01*
Y12919D02*
Y13988D01*
X11565Y10518D02*
X11634Y10587D01*
X20533Y15571D02*
X21319Y14786D01*
X20533Y15571D02*
Y15598D01*
X20837Y15513D02*
X21500Y14850D01*
X20837Y15513D02*
Y15551D01*
X21132Y15463D02*
X21673Y14921D01*
X21132Y15463D02*
Y15994D01*
X20837Y15551D02*
Y16762D01*
Y15551D02*
X20837Y15551D01*
X20128Y16004D02*
X20533Y15598D01*
X20128Y16004D02*
Y17520D01*
X22024Y11358D02*
Y15775D01*
X21850Y11286D02*
Y15256D01*
X21673Y11218D02*
Y14921D01*
X21500Y11147D02*
Y14850D01*
X21319Y11083D02*
Y14786D01*
X34754Y13238D02*
X35327Y13811D01*
X34754Y8199D02*
Y13238D01*
X34045Y7490D02*
X34754Y8199D01*
X36327Y13811D02*
X36917D01*
X35052Y7236D02*
X36911D01*
X34952Y7136D02*
X35052Y7236D01*
X21496Y15610D02*
X21850Y15256D01*
X21398Y16358D02*
Y16447D01*
X21374Y16424D02*
X22024Y15775D01*
X33545Y6789D02*
X35089Y5246D01*
X33736Y6963D02*
X34888Y5811D01*
X35327D01*
X35762Y5246D02*
X36327Y5811D01*
X35089Y5246D02*
X35762D01*
X32067Y12766D02*
Y12857D01*
X31112Y12722D02*
X31299Y12909D01*
X31309Y12919D01*
X31112Y12711D02*
Y12722D01*
X23091Y20059D02*
X23720Y19429D01*
X21142Y19557D02*
X21663Y19035D01*
X23720Y19390D02*
Y19429D01*
X26047Y11280D02*
X26575D01*
X25935Y11392D02*
X26047Y11280D01*
X25935Y11392D02*
Y11687D01*
X31459Y17862D02*
Y19988D01*
X31159Y17562D02*
X31459Y17862D01*
X30963Y13712D02*
Y13845D01*
X30945Y13694D02*
X30963Y13712D01*
X31136Y13400D02*
Y13917D01*
X31626Y12505D02*
Y16793D01*
X31624Y12503D02*
X31626Y12505D01*
X31126Y13927D02*
X31136Y13917D01*
X31159Y17562D02*
X31159D01*
X31104Y17754D02*
X31105Y17753D01*
X31104Y17754D02*
Y18472D01*
X29077Y13757D02*
X29232Y13602D01*
X31257Y12156D02*
X31605Y12503D01*
X30984Y12156D02*
X31257D01*
X31605Y12503D02*
X31624D01*
X32107Y15407D02*
X32165Y15350D01*
X31801Y17943D02*
Y19478D01*
X32067Y12857D02*
X32165Y12956D01*
X32107Y15407D02*
X32157Y15457D01*
X33807Y14457D02*
X34981D01*
X35052Y14386D01*
X35902D01*
X33807Y15407D02*
X34923D01*
X35327Y15811D01*
X33807Y16307D02*
X34830D01*
X32987Y17087D02*
X33012D01*
X28557Y13757D02*
X29077D01*
X30251Y13271D02*
X30772Y13791D01*
X30758Y13507D02*
X30945Y13694D01*
X31839Y17728D02*
X32105D01*
X32156Y17677D01*
X32087D02*
X32156D01*
X32165Y12956D02*
Y15350D01*
X35902Y14386D02*
X36327Y14811D01*
X34830Y16307D02*
X35327Y15811D01*
X32157Y16257D02*
X32987Y17087D01*
X33007Y14457D02*
Y15407D01*
X34125Y7309D02*
X35052Y8236D01*
X26476Y7795D02*
X26517Y7755D01*
X31097D02*
X34154Y10811D01*
X26517Y7755D02*
X31097D01*
X22024Y11358D02*
X25891Y7490D01*
X34045D01*
X21850Y11286D02*
X25827Y7309D01*
X34125D01*
X21673Y11218D02*
X25756Y7136D01*
X34952D01*
X21500Y11147D02*
X25684Y6963D01*
X33736D01*
X21319Y11083D02*
X25612Y6789D01*
X33545D01*
X17480Y13376D02*
X17585Y13481D01*
Y20551D01*
X18012Y13583D02*
X18100Y13671D01*
Y20768D01*
X16299Y14705D02*
X17047Y15453D01*
X17146D01*
X21171Y7717D02*
X22411Y6476D01*
X27963D01*
X20069Y8543D02*
X22451Y6161D01*
X20069Y8543D02*
Y12392D01*
X18346Y14114D02*
X20069Y12392D01*
X20242Y8646D02*
X21171Y7717D01*
X20242Y8646D02*
Y12463D01*
X18520Y14186D02*
X20242Y12463D01*
X18520Y14186D02*
Y20536D01*
X20415Y9358D02*
X21978Y7795D01*
X20415Y9358D02*
Y12535D01*
X18693Y14258D02*
X20415Y12535D01*
X18693Y14258D02*
Y20464D01*
X18346Y14114D02*
Y20607D01*
X18388Y20649D01*
X18520Y20536D02*
X18561Y20577D01*
X18693Y20464D02*
X18734Y20505D01*
X27197Y19654D02*
X27283Y19567D01*
X20762Y10370D02*
Y12679D01*
X19039Y20320D02*
X19081Y20362D01*
X19039Y14401D02*
Y20320D01*
X20762Y10370D02*
X22431Y8701D01*
X19039Y14401D02*
X20762Y12679D01*
X26535Y8701D02*
X31053D01*
X34163Y11811D01*
X20589Y9894D02*
Y12607D01*
X18866Y14329D02*
Y20392D01*
Y14329D02*
X20589Y12607D01*
Y9894D02*
X22244Y8238D01*
X18866Y20392D02*
X18907Y20433D01*
X26073Y8238D02*
X31024D01*
X34144Y11357D01*
X30467Y9124D02*
X34154Y12811D01*
X26033Y9124D02*
X30467D01*
X20935Y10778D02*
Y12751D01*
X19213Y14473D02*
X20935Y12751D01*
X19213Y17982D02*
X19254Y18024D01*
X19213Y14473D02*
Y17982D01*
X27283Y19567D02*
X27766Y20049D01*
Y21102D01*
X26793Y22075D02*
X27766Y21102D01*
X27008Y19941D02*
X27593Y20526D01*
Y21031D01*
X26722Y21902D02*
X27593Y21031D01*
X24945Y22785D02*
X25656Y22075D01*
X26793D01*
X25584Y21902D02*
X26722D01*
X24874Y22612D02*
X25584Y21902D01*
X26841Y20384D02*
X27373Y20916D01*
X26561Y21728D02*
X27373Y20916D01*
X25513Y21728D02*
X26561D01*
X24802Y22439D02*
X25513Y21728D01*
X26742Y19232D02*
X28130D01*
X26489Y19485D02*
X26742Y19232D01*
X26489Y19485D02*
Y21532D01*
X26467Y21555D02*
X26489Y21532D01*
X25441Y21555D02*
X26467D01*
X24732Y22264D02*
X25441Y21555D01*
X20322Y22264D02*
X24732D01*
X25581Y19911D02*
X26316Y20647D01*
Y21382D01*
X25369D02*
X26316D01*
X25207Y20344D02*
X25769D01*
X26143Y20719D01*
X25653Y21209D02*
X26143Y20719D01*
X25297Y21209D02*
X25653D01*
X23091Y20827D02*
X23730Y21467D01*
X23829D01*
X18734Y20505D02*
Y21699D01*
X18401Y21511D02*
X18561Y21350D01*
Y20577D02*
Y21350D01*
X19813Y21755D02*
X20322Y22264D01*
X19813Y21614D02*
Y21755D01*
X24724Y21781D02*
X25297Y21209D01*
X21090Y21781D02*
X21092Y21783D01*
X21330D01*
X21332Y21781D01*
X23206D01*
X23218Y21793D01*
X23456D01*
X23467Y21781D01*
X24724D01*
X20394Y22008D02*
X24743D01*
X25369Y21382D01*
X19986Y21600D02*
X20394Y22008D01*
X19986Y21281D02*
Y21600D01*
X19724Y21019D02*
X19986Y21281D01*
X19724Y20876D02*
Y21019D01*
X20285Y21152D02*
X20453Y21319D01*
X20699Y21781D02*
X21090D01*
X20453Y21535D02*
X20699Y21781D01*
X20453Y21319D02*
Y21535D01*
X19665Y21614D02*
X19813D01*
X18907Y21753D02*
X19940Y22785D01*
X19081Y21681D02*
X20012Y22612D01*
X19254Y21609D02*
X20084Y22439D01*
X19254Y18024D02*
Y21609D01*
X20084Y22439D02*
X24802D01*
X19081Y20362D02*
Y21681D01*
X20012Y22612D02*
X24874D01*
X18907Y20433D02*
Y21753D01*
X19940Y22785D02*
X24945D01*
X15787Y19176D02*
X15878Y19086D01*
X15787Y19176D02*
Y20610D01*
X15878Y16843D02*
Y19086D01*
X13120Y14085D02*
X15878Y16843D01*
X29624Y12470D02*
Y12653D01*
X29843Y11142D02*
Y12251D01*
X29624Y12470D02*
X29843Y12251D01*
X29624Y12653D02*
X29626Y12651D01*
X30600Y12864D02*
X31136Y13400D01*
X30313Y12384D02*
X30374Y12323D01*
X30333Y13082D02*
X30758Y13507D01*
X30313Y12384D02*
Y13073D01*
X30323Y13082D02*
X30333D01*
X30313Y13073D02*
X30323Y13082D01*
X29987Y13007D02*
X30251Y13271D01*
X28082Y6189D02*
X28212Y6319D01*
X28829D01*
X22451Y6161D02*
X22478Y6189D01*
X28082D01*
X18445Y21988D02*
X18734Y21699D01*
X18268Y21988D02*
X18445D01*
X17913Y21289D02*
X18012D01*
X18388Y20649D02*
Y20913D01*
X18012Y21289D02*
X18388Y20913D01*
X35052Y8236D02*
X36770D01*
X36911Y7236D02*
X37037Y7362D01*
Y13691D01*
X36917Y13811D02*
X37037Y13691D01*
X36770Y8236D02*
X36864Y8331D01*
Y12274D01*
X36327Y12811D02*
X36864Y12274D01*
D22*
X10030Y17648D02*
Y19232D01*
X10069Y16722D02*
X10089Y16703D01*
Y15059D02*
Y16703D01*
X9663Y14634D02*
X10089Y15059D01*
X8762Y14634D02*
X9663D01*
X8203Y14075D02*
X8762Y14634D01*
X7215Y14075D02*
X8203D01*
X13415Y18514D02*
Y20207D01*
X12146Y17244D02*
X13415Y18514D01*
X9587Y17244D02*
X12146D01*
X10030Y17648D02*
X10049Y17628D01*
D23*
X624Y11161D02*
X678Y11107D01*
X26998Y11565D02*
Y12363D01*
X27175Y12540D01*
X12144Y10018D02*
X12362Y10236D01*
X11565Y10018D02*
X12144D01*
X10718Y6693D02*
X10894Y6518D01*
X11565D01*
X17785Y10096D02*
X18435D01*
X17758D02*
X17785D01*
X17746Y10108D02*
X17758Y10096D01*
X17451Y6594D02*
X17453Y6596D01*
X18435D01*
X14712Y10080D02*
X15700D01*
X14695Y10096D02*
X14712Y10080D01*
X22807Y18857D02*
Y21065D01*
X28557Y12657D02*
Y13757D01*
X27557Y12657D02*
X28557D01*
X4142Y5011D02*
X5207Y3947D01*
X4142Y5011D02*
Y5887D01*
X5207Y3947D02*
X6929D01*
X17421Y4390D02*
X18215D01*
X18352Y4252D01*
X21476Y4459D02*
X22146D01*
X22283Y4321D01*
X20185Y4419D02*
X22301Y2303D01*
X19980Y4419D02*
X20185D01*
X8799Y5423D02*
X9085Y5709D01*
X8671Y6260D02*
Y6270D01*
X8632Y7018D02*
X9085Y6565D01*
Y5709D02*
Y6565D01*
X7222Y10018D02*
X7825D01*
X7106Y9902D02*
X7222Y10018D01*
X7106Y9262D02*
Y9902D01*
X5876Y9419D02*
X6112Y9656D01*
X5876Y6693D02*
Y9419D01*
X5730Y6547D02*
X5876Y6693D01*
X5020Y6547D02*
X5730D01*
X5598Y10047D02*
X6102Y10551D01*
X5020Y10047D02*
X5598D01*
X2380D02*
X2982Y10650D01*
X1280Y10047D02*
X2380D01*
X1661Y6547D02*
X2047Y6161D01*
X1280Y6547D02*
X1661D01*
X11634Y10587D02*
Y11775D01*
X22557Y13257D02*
Y18357D01*
Y12765D02*
Y12857D01*
X22441Y12649D02*
X22557Y12765D01*
X22441Y12421D02*
Y12649D01*
X25069Y12469D02*
X25257Y12657D01*
X25069Y11959D02*
Y12469D01*
X18478Y6053D02*
X18547D01*
X19114D01*
X9577Y4360D02*
X10974Y2963D01*
X9567Y4370D02*
X9577Y4360D01*
X33202Y20760D02*
X33807D01*
X33071Y20629D02*
X33202Y20760D01*
X30481Y20629D02*
X33071D01*
X7800Y11476D02*
X7825Y11452D01*
Y10518D02*
Y11452D01*
X14720Y11496D02*
Y12780D01*
X14695Y12805D02*
X14720Y12780D01*
X7002Y10518D02*
X7825D01*
X6594Y6827D02*
Y10110D01*
X13874Y10596D02*
X14695D01*
X13327Y6955D02*
Y10049D01*
X11565Y6018D02*
X12356D01*
X18435Y6096D02*
X18478Y6053D01*
X5063Y6004D02*
X5630D01*
X15248Y6596D02*
X15335Y6683D01*
X5020Y10547D02*
Y11657D01*
X5098Y11736D01*
X3780Y9547D02*
X5020D01*
X3602Y6939D02*
X3642Y6978D01*
X3602Y5004D02*
X6303Y2303D01*
X8303D02*
Y2573D01*
X4134Y5896D02*
X4142Y5887D01*
X4134Y6742D02*
X4439Y7047D01*
X5020D01*
X1424Y4902D02*
Y5903D01*
X1280Y6047D02*
X1424Y5903D01*
X1280Y9547D02*
X2293D01*
X2421Y9419D01*
X3051Y3555D02*
Y6949D01*
X10177Y9518D02*
X11565D01*
X10630Y4380D02*
X10935Y4075D01*
X11624D01*
X12620Y3079D01*
X12624D01*
X7815Y6027D02*
X7825Y6018D01*
X8799Y3807D02*
Y4350D01*
X11860Y2963D02*
X12303Y2520D01*
Y2303D02*
Y2520D01*
X18439Y10600D02*
X18937D01*
X19147Y10811D01*
X18435Y9596D02*
X19508D01*
X19734Y9370D01*
X22283Y4321D02*
X24301Y2303D01*
X13327Y6155D02*
X13993D01*
X14671Y6073D02*
X14695Y6096D01*
X18352Y4252D02*
X20301Y2303D01*
X24157Y12657D02*
X24222Y12593D01*
X22757Y12657D02*
X24157D01*
X22557Y12857D02*
X22757Y12657D01*
X22557Y12857D02*
Y13257D01*
X26557Y12657D02*
X27057D01*
X27557D01*
X26555Y12655D02*
X26557Y12657D01*
X22557Y18607D02*
X22807Y18857D01*
X28557Y18445D02*
X28626Y18376D01*
X28557Y17957D02*
Y18445D01*
X33802Y17457D02*
Y20755D01*
X36327Y15811D02*
X36581D01*
X33807Y20760D02*
X35433D01*
X8423Y6518D02*
X8671Y6270D01*
X7825Y6518D02*
X8423D01*
X1270Y11107D02*
X1280Y11098D01*
Y10547D02*
Y11098D01*
X14695Y11471D02*
X14720Y11496D01*
X14695Y10596D02*
Y11471D01*
X678Y11107D02*
X1270D01*
X6594Y10110D02*
X7002Y10518D01*
X13327Y10049D02*
X13874Y10596D01*
X12356Y6018D02*
X12372Y6033D01*
X5020Y6047D02*
X5063Y6004D01*
X14695Y6596D02*
X15248D01*
X3602Y5004D02*
Y6939D01*
X3642Y9409D02*
X3780Y9547D01*
X6929Y3947D02*
X8303Y2573D01*
X4134Y5896D02*
Y6742D01*
X1280Y7047D02*
X1909D01*
X3051Y3555D02*
X4303Y2303D01*
X12624Y3079D02*
X13400Y2303D01*
X14301D01*
X6594Y6027D02*
X7815D01*
X8799Y3807D02*
X10303Y2303D01*
X7825Y7018D02*
X8632D01*
X7825Y9518D02*
X9173D01*
X9567Y4350D02*
Y4370D01*
X10974Y2963D02*
X11860D01*
X18435Y10596D02*
X18439Y10600D01*
X19147Y10811D02*
X19478D01*
X18435Y7096D02*
X20837D01*
X21486Y6447D01*
X13993Y6155D02*
X14075Y6073D01*
X14671D01*
X14695Y9596D02*
X15699D01*
X25257Y12657D02*
X26557D01*
X24157D02*
X25257D01*
X28557Y13757D02*
Y17957D01*
X24222Y11880D02*
Y12593D01*
X26555Y11949D02*
Y12655D01*
X27057Y12657D02*
X27175Y12540D01*
X22557Y18357D02*
Y18607D01*
X28557Y18445D02*
Y18705D01*
X30481Y20629D01*
X36327Y19811D02*
Y19866D01*
X33802Y20755D02*
X33807Y20760D01*
X35433D02*
X36327Y19866D01*
X33802Y17102D02*
Y17457D01*
X33007Y16307D02*
X33802Y17102D01*
X33007Y15407D02*
Y16307D01*
X28626Y18376D02*
X28636Y18386D01*
X22807Y21065D02*
X23248Y21506D01*
X23337D01*
X19882Y18848D02*
X20123Y18607D01*
X22557D01*
X15384Y18278D02*
Y18789D01*
X14124Y17018D02*
X15384Y18278D01*
X13150Y17018D02*
X14124D01*
X12165Y18051D02*
Y18504D01*
X1909Y7047D02*
X2559Y6398D01*
X2303Y2303D02*
X2559Y2559D01*
Y6398D01*
X28636Y18386D02*
X28861Y18161D01*
X29214D01*
X27557Y11388D02*
X27589Y11357D01*
X27557Y11388D02*
Y12657D01*
X11732Y17618D02*
X12165Y18051D01*
X7800Y12791D02*
X7815Y12805D01*
X7800Y11476D02*
Y12791D01*
D24*
X15659Y4459D02*
X15866Y4252D01*
X16073D01*
X18547Y6053D02*
Y6096D01*
Y5102D02*
Y6053D01*
X18728Y4921D02*
X18757Y4892D01*
X18547Y5102D02*
X18728Y4921D01*
X11565Y7018D02*
X12067D01*
X12441Y6644D01*
X13268Y4232D02*
X14372D01*
X16301Y2303D01*
X16343Y4262D02*
X18301Y2303D01*
X16073Y4252D02*
X16343Y4262D01*
X15955Y5758D02*
Y6781D01*
X15640Y7096D02*
X15955Y6781D01*
X14695Y7096D02*
X15640D01*
X18435Y6096D02*
X18547D01*
X18757Y4892D02*
X26535D01*
D25*
X24301Y2303D02*
D03*
X22301D02*
D03*
X16301D02*
D03*
X18301D02*
D03*
X20301D02*
D03*
X12303Y2303D02*
D03*
X10303D02*
D03*
X4303D02*
D03*
X6303D02*
D03*
X8303D02*
D03*
D26*
X14301Y2303D02*
D03*
X2303Y2303D02*
D03*
D27*
X22894Y23474D02*
D03*
D28*
X21894D02*
D03*
X19894D02*
D03*
X18894D02*
D03*
X20894D02*
D03*
D29*
X29843Y22677D02*
D03*
X25906D02*
D03*
X27873D02*
D03*
D30*
X30148Y4173D02*
D03*
X28297Y2992D02*
D03*
Y5354D02*
D03*
D31*
X35327Y3811D02*
D03*
D32*
Y4811D02*
D03*
Y5811D02*
D03*
Y6811D02*
D03*
Y7811D02*
D03*
Y8811D02*
D03*
Y9811D02*
D03*
Y10811D02*
D03*
Y11811D02*
D03*
Y12811D02*
D03*
Y13811D02*
D03*
Y14811D02*
D03*
Y15811D02*
D03*
Y16811D02*
D03*
Y17811D02*
D03*
Y18811D02*
D03*
Y19811D02*
D03*
X36327Y3811D02*
D03*
Y4811D02*
D03*
Y5811D02*
D03*
Y6811D02*
D03*
Y7811D02*
D03*
Y8811D02*
D03*
Y9811D02*
D03*
Y10811D02*
D03*
Y11811D02*
D03*
Y12811D02*
D03*
Y13811D02*
D03*
Y14811D02*
D03*
Y15811D02*
D03*
Y16811D02*
D03*
Y17811D02*
D03*
Y18811D02*
D03*
Y19811D02*
D03*
D33*
X22589Y9124D02*
D03*
X29923Y12590D02*
D03*
X26998Y11565D02*
D03*
X10030Y19232D02*
D03*
X10069Y16722D02*
D03*
X7215Y14075D02*
D03*
X8888Y14331D02*
D03*
X13632Y13829D02*
D03*
X13120Y14085D02*
D03*
X12362Y10236D02*
D03*
X10718Y6693D02*
D03*
X15787Y20610D02*
D03*
X16309Y20157D02*
D03*
X14124Y18484D02*
D03*
X17480Y13376D02*
D03*
X18012Y13583D02*
D03*
X18100Y20768D02*
D03*
X17585Y20551D02*
D03*
X17453Y6596D02*
D03*
X17785Y10096D02*
D03*
X15700Y10080D02*
D03*
X25207Y20344D02*
D03*
X25581Y19911D02*
D03*
X21211Y21496D02*
D03*
X28610Y12055D02*
D03*
X28898Y10157D02*
D03*
X25591Y15630D02*
D03*
X9587Y17244D02*
D03*
X13415Y20207D02*
D03*
X5098Y4715D02*
D03*
X5846Y4587D02*
D03*
X7835Y4262D02*
D03*
X7411Y4016D02*
D03*
X15659Y4459D02*
D03*
X17421Y4390D02*
D03*
X21476Y4459D02*
D03*
X19980Y4419D02*
D03*
X28012Y9587D02*
D03*
X8799Y5423D02*
D03*
X8671Y6260D02*
D03*
X7106Y9262D02*
D03*
X30266Y18612D02*
D03*
X29309Y11390D02*
D03*
X29843Y17500D02*
D03*
X30571Y19026D02*
D03*
X6112Y9656D02*
D03*
X2982Y10650D02*
D03*
X6102Y10551D02*
D03*
X2047Y6161D02*
D03*
X20837Y16762D02*
D03*
X21496Y15610D02*
D03*
X21132Y15994D02*
D03*
X21398Y16447D02*
D03*
X22441Y12421D02*
D03*
X20128Y17520D02*
D03*
X32067Y12766D02*
D03*
X31112Y12722D02*
D03*
X21663Y19035D02*
D03*
X23720Y19390D02*
D03*
X26575Y11280D02*
D03*
X25069Y11959D02*
D03*
X32105Y17728D02*
D03*
X31626Y16793D02*
D03*
X31104Y18472D02*
D03*
X31459Y19988D02*
D03*
X29232Y13602D02*
D03*
X12441Y6644D02*
D03*
X13268Y4232D02*
D03*
X15955Y5758D02*
D03*
X31801Y19478D02*
D03*
X30984Y12156D02*
D03*
X15335Y6683D02*
D03*
X3642Y9409D02*
D03*
X2421Y9419D02*
D03*
X3051Y6949D02*
D03*
X10177Y9518D02*
D03*
X10630Y4380D02*
D03*
X8799Y4350D02*
D03*
X9173Y9518D02*
D03*
X9567Y4350D02*
D03*
X19734Y9370D02*
D03*
X21486Y6447D02*
D03*
X15699Y9596D02*
D03*
X24222Y11880D02*
D03*
X26555Y11949D02*
D03*
X26476Y7795D02*
D03*
X27008Y19941D02*
D03*
X27283Y19567D02*
D03*
X34154Y10811D02*
D03*
X28130Y19232D02*
D03*
X27963Y6476D02*
D03*
X21978Y7795D02*
D03*
X16299Y14705D02*
D03*
X17146Y15453D02*
D03*
X22431Y8701D02*
D03*
X34163Y11811D02*
D03*
X22244Y8238D02*
D03*
X26073D02*
D03*
X34144Y11357D02*
D03*
X34154Y12811D02*
D03*
X26033Y9124D02*
D03*
X26841Y20384D02*
D03*
X23829Y21467D02*
D03*
X23337Y21506D02*
D03*
X18401Y21511D02*
D03*
X19724Y20876D02*
D03*
X20285Y21152D02*
D03*
X19665Y21614D02*
D03*
X19882Y18848D02*
D03*
X15384Y18789D02*
D03*
X13150Y17018D02*
D03*
X12165Y18504D02*
D03*
X3602Y6939D02*
D03*
X29843Y11142D02*
D03*
X29214Y18161D02*
D03*
X29065Y18711D02*
D03*
X27589Y11357D02*
D03*
X30600Y12864D02*
D03*
X30374Y12323D02*
D03*
X22807Y18857D02*
D03*
X28829Y6319D02*
D03*
X18268Y21988D02*
D03*
X17913Y21289D02*
D03*
X26535Y8701D02*
D03*
X10049Y17628D02*
D03*
X11732Y17618D02*
D03*
X7815Y12805D02*
D03*
X4281Y8819D02*
D03*
X4301Y7815D02*
D03*
X2411Y8819D02*
D03*
Y7884D02*
D03*
X8612Y8986D02*
D03*
X8583Y7569D02*
D03*
X10866Y8967D02*
D03*
X15827Y8740D02*
D03*
X15817Y7707D02*
D03*
X17116Y9163D02*
D03*
X17785Y7667D02*
D03*
X12569Y9144D02*
D03*
X12559Y8553D02*
D03*
Y7844D02*
D03*
D34*
X33278Y5610D02*
D03*
X31309D02*
D03*
D35*
X26437Y3071D02*
D03*
Y1102D02*
D03*
X33007Y18823D02*
D03*
Y20792D02*
D03*
D36*
X16821Y12706D02*
D03*
Y11606D02*
D03*
X9754Y12735D02*
D03*
Y11635D02*
D03*
X2815Y12794D02*
D03*
Y11694D02*
D03*
D37*
X31435Y4262D02*
D03*
X33230D02*
D03*
D38*
X32333Y1781D02*
D03*
D39*
X5020Y7047D02*
D03*
Y6547D02*
D03*
Y6047D02*
D03*
Y8047D02*
D03*
Y7547D02*
D03*
Y10047D02*
D03*
Y9547D02*
D03*
Y9047D02*
D03*
Y10547D02*
D03*
X1280Y6047D02*
D03*
Y6547D02*
D03*
Y7047D02*
D03*
Y8047D02*
D03*
Y7547D02*
D03*
Y9047D02*
D03*
Y9547D02*
D03*
Y10047D02*
D03*
Y10547D02*
D03*
X5020Y8547D02*
D03*
X1280D02*
D03*
X7825Y8518D02*
D03*
X11565D02*
D03*
X7825Y10518D02*
D03*
Y10018D02*
D03*
Y9518D02*
D03*
Y9018D02*
D03*
Y7518D02*
D03*
Y8018D02*
D03*
Y7018D02*
D03*
Y6518D02*
D03*
Y6018D02*
D03*
X11565Y10518D02*
D03*
Y9018D02*
D03*
Y9518D02*
D03*
Y10018D02*
D03*
Y7518D02*
D03*
Y8018D02*
D03*
Y6018D02*
D03*
Y6518D02*
D03*
Y7018D02*
D03*
X14695Y8596D02*
D03*
X18435D02*
D03*
X14695Y10596D02*
D03*
Y10096D02*
D03*
Y9596D02*
D03*
Y9096D02*
D03*
Y7596D02*
D03*
Y8096D02*
D03*
Y7096D02*
D03*
Y6596D02*
D03*
Y6096D02*
D03*
X18435Y10596D02*
D03*
Y9096D02*
D03*
Y9596D02*
D03*
Y10096D02*
D03*
Y7596D02*
D03*
Y8096D02*
D03*
Y6096D02*
D03*
Y6596D02*
D03*
Y7096D02*
D03*
D40*
X33802Y17457D02*
D03*
X33012Y17087D02*
D03*
Y17827D02*
D03*
D41*
X624Y4902D02*
Y11161D01*
X6146Y4921D02*
X12638D01*
X5630Y5437D02*
X6146Y4921D01*
X12638D02*
Y5073D01*
X11634Y12805D02*
X11762D01*
X11634D02*
X14695D01*
X11634Y12575D02*
Y12579D01*
X36327Y2468D02*
Y3811D01*
X14695Y12805D02*
X18947D01*
X1142Y965D02*
X31693D01*
X19433Y4921D02*
X27874D01*
X18728D02*
X19433D01*
X12638D02*
X18728D01*
X624Y1483D02*
Y4902D01*
Y1483D02*
X1142Y965D01*
X31693D02*
X32283Y1555D01*
X35413D02*
X36327Y2468D01*
X32283Y1555D02*
X35413D01*
X624Y11161D02*
Y12051D01*
X1378Y12805D01*
X19459Y11630D02*
X19478Y11611D01*
X18947Y12805D02*
X19459Y12293D01*
Y11630D02*
Y12293D01*
X12343Y6004D02*
X12356Y6018D01*
X12343Y5368D02*
X12638Y5073D01*
X19114Y5240D02*
X19433Y4921D01*
X19114Y5240D02*
Y6053D01*
Y6063D01*
X12343Y5368D02*
Y6004D01*
X5630Y5437D02*
Y6004D01*
X27874Y4921D02*
X28563Y5610D01*
X31309D01*
X32815Y4104D02*
X33142D01*
X31309Y5610D02*
X32815Y4104D01*
X7815Y12805D02*
X11634D01*
X1378D02*
X7815D01*
M02*
