G04 Layer_Color=16711935*
%FSLAX24Y24*%
%MOIN*%
G70*
G01*
G75*
G04:AMPARAMS|DCode=47|XSize=77.9mil|YSize=101.9mil|CornerRadius=4.6mil|HoleSize=0mil|Usage=FLASHONLY|Rotation=0.000|XOffset=0mil|YOffset=0mil|HoleType=Round|Shape=RoundedRectangle|*
%AMROUNDEDRECTD47*
21,1,0.0779,0.0926,0,0,0.0*
21,1,0.0686,0.1019,0,0,0.0*
1,1,0.0093,0.0343,-0.0463*
1,1,0.0093,-0.0343,-0.0463*
1,1,0.0093,-0.0343,0.0463*
1,1,0.0093,0.0343,0.0463*
%
%ADD47ROUNDEDRECTD47*%
G04:AMPARAMS|DCode=49|XSize=39.9mil|YSize=42.9mil|CornerRadius=4.3mil|HoleSize=0mil|Usage=FLASHONLY|Rotation=0.000|XOffset=0mil|YOffset=0mil|HoleType=Round|Shape=RoundedRectangle|*
%AMROUNDEDRECTD49*
21,1,0.0399,0.0344,0,0,0.0*
21,1,0.0314,0.0429,0,0,0.0*
1,1,0.0085,0.0157,-0.0172*
1,1,0.0085,-0.0157,-0.0172*
1,1,0.0085,-0.0157,0.0172*
1,1,0.0085,0.0157,0.0172*
%
%ADD49ROUNDEDRECTD49*%
G04:AMPARAMS|DCode=52|XSize=55.9mil|YSize=67.9mil|CornerRadius=4.4mil|HoleSize=0mil|Usage=FLASHONLY|Rotation=90.000|XOffset=0mil|YOffset=0mil|HoleType=Round|Shape=RoundedRectangle|*
%AMROUNDEDRECTD52*
21,1,0.0559,0.0590,0,0,90.0*
21,1,0.0470,0.0679,0,0,90.0*
1,1,0.0088,0.0295,0.0235*
1,1,0.0088,0.0295,-0.0235*
1,1,0.0088,-0.0295,-0.0235*
1,1,0.0088,-0.0295,0.0235*
%
%ADD52ROUNDEDRECTD52*%
G04:AMPARAMS|DCode=53|XSize=55.9mil|YSize=67.9mil|CornerRadius=4.4mil|HoleSize=0mil|Usage=FLASHONLY|Rotation=180.000|XOffset=0mil|YOffset=0mil|HoleType=Round|Shape=RoundedRectangle|*
%AMROUNDEDRECTD53*
21,1,0.0559,0.0590,0,0,180.0*
21,1,0.0470,0.0679,0,0,180.0*
1,1,0.0088,-0.0235,0.0295*
1,1,0.0088,0.0235,0.0295*
1,1,0.0088,0.0235,-0.0295*
1,1,0.0088,-0.0235,-0.0295*
%
%ADD53ROUNDEDRECTD53*%
G04:AMPARAMS|DCode=54|XSize=39.9mil|YSize=42.9mil|CornerRadius=4.3mil|HoleSize=0mil|Usage=FLASHONLY|Rotation=270.000|XOffset=0mil|YOffset=0mil|HoleType=Round|Shape=RoundedRectangle|*
%AMROUNDEDRECTD54*
21,1,0.0399,0.0344,0,0,270.0*
21,1,0.0314,0.0429,0,0,270.0*
1,1,0.0085,-0.0172,-0.0157*
1,1,0.0085,-0.0172,0.0157*
1,1,0.0085,0.0172,0.0157*
1,1,0.0085,0.0172,-0.0157*
%
%ADD54ROUNDEDRECTD54*%
%ADD58C,0.1260*%
G04:AMPARAMS|DCode=59|XSize=126mil|YSize=126mil|CornerRadius=18.7mil|HoleSize=0mil|Usage=FLASHONLY|Rotation=270.000|XOffset=0mil|YOffset=0mil|HoleType=Round|Shape=RoundedRectangle|*
%AMROUNDEDRECTD59*
21,1,0.1260,0.0886,0,0,270.0*
21,1,0.0886,0.1260,0,0,270.0*
1,1,0.0374,-0.0443,-0.0443*
1,1,0.0374,-0.0443,0.0443*
1,1,0.0374,0.0443,0.0443*
1,1,0.0374,0.0443,-0.0443*
%
%ADD59ROUNDEDRECTD59*%
G04:AMPARAMS|DCode=60|XSize=78.7mil|YSize=78.7mil|CornerRadius=4.6mil|HoleSize=0mil|Usage=FLASHONLY|Rotation=180.000|XOffset=0mil|YOffset=0mil|HoleType=Round|Shape=RoundedRectangle|*
%AMROUNDEDRECTD60*
21,1,0.0787,0.0694,0,0,180.0*
21,1,0.0694,0.0787,0,0,180.0*
1,1,0.0093,-0.0347,0.0347*
1,1,0.0093,0.0347,0.0347*
1,1,0.0093,0.0347,-0.0347*
1,1,0.0093,-0.0347,-0.0347*
%
%ADD60ROUNDEDRECTD60*%
%ADD61C,0.0787*%
%ADD62C,0.1024*%
%ADD63C,0.1378*%
G04:AMPARAMS|DCode=64|XSize=86.6mil|YSize=66.9mil|CornerRadius=11.3mil|HoleSize=0mil|Usage=FLASHONLY|Rotation=0.000|XOffset=0mil|YOffset=0mil|HoleType=Round|Shape=RoundedRectangle|*
%AMROUNDEDRECTD64*
21,1,0.0866,0.0443,0,0,0.0*
21,1,0.0640,0.0669,0,0,0.0*
1,1,0.0226,0.0320,-0.0221*
1,1,0.0226,-0.0320,-0.0221*
1,1,0.0226,-0.0320,0.0221*
1,1,0.0226,0.0320,0.0221*
%
%ADD64ROUNDEDRECTD64*%
%ADD65O,0.0866X0.0669*%
%ADD66C,0.0079*%
G04:AMPARAMS|DCode=67|XSize=77.9mil|YSize=101.9mil|CornerRadius=4.6mil|HoleSize=0mil|Usage=FLASHONLY|Rotation=270.000|XOffset=0mil|YOffset=0mil|HoleType=Round|Shape=RoundedRectangle|*
%AMROUNDEDRECTD67*
21,1,0.0779,0.0926,0,0,270.0*
21,1,0.0686,0.1019,0,0,270.0*
1,1,0.0093,-0.0463,-0.0343*
1,1,0.0093,-0.0463,0.0343*
1,1,0.0093,0.0463,0.0343*
1,1,0.0093,0.0463,-0.0343*
%
%ADD67ROUNDEDRECTD67*%
%ADD68R,0.0453X0.0906*%
%ADD69R,0.2244X0.2638*%
G04:AMPARAMS|DCode=70|XSize=66.9mil|YSize=31.5mil|CornerRadius=9.8mil|HoleSize=0mil|Usage=FLASHONLY|Rotation=180.000|XOffset=0mil|YOffset=0mil|HoleType=Round|Shape=RoundedRectangle|*
%AMROUNDEDRECTD70*
21,1,0.0669,0.0118,0,0,180.0*
21,1,0.0472,0.0315,0,0,180.0*
1,1,0.0197,-0.0236,0.0059*
1,1,0.0197,0.0236,0.0059*
1,1,0.0197,0.0236,-0.0059*
1,1,0.0197,-0.0236,-0.0059*
%
%ADD70ROUNDEDRECTD70*%
G04:AMPARAMS|DCode=71|XSize=39.9mil|YSize=43.9mil|CornerRadius=4.3mil|HoleSize=0mil|Usage=FLASHONLY|Rotation=90.000|XOffset=0mil|YOffset=0mil|HoleType=Round|Shape=RoundedRectangle|*
%AMROUNDEDRECTD71*
21,1,0.0399,0.0354,0,0,90.0*
21,1,0.0314,0.0439,0,0,90.0*
1,1,0.0085,0.0177,0.0157*
1,1,0.0085,0.0177,-0.0157*
1,1,0.0085,-0.0177,-0.0157*
1,1,0.0085,-0.0177,0.0157*
%
%ADD71ROUNDEDRECTD71*%
G36*
X31860Y5138D02*
X30758D01*
Y6083D01*
X31860D01*
Y5138D01*
D02*
G37*
G36*
X26909Y2520D02*
X25965D01*
Y3622D01*
X26909D01*
Y2520D01*
D02*
G37*
G36*
Y551D02*
X25965D01*
Y1654D01*
X26909D01*
Y551D01*
D02*
G37*
G36*
X33480Y20241D02*
X32535D01*
Y21343D01*
X33480D01*
Y20241D01*
D02*
G37*
G36*
Y18272D02*
X32535D01*
Y19374D01*
X33480D01*
Y18272D01*
D02*
G37*
G36*
X33829Y5138D02*
X32726D01*
Y6083D01*
X33829D01*
Y5138D01*
D02*
G37*
D47*
X22307Y17357D02*
D03*
X23407D02*
D03*
D49*
X14720Y11496D02*
D03*
X15320D02*
D03*
X7800Y11476D02*
D03*
X8400D02*
D03*
X22557Y18357D02*
D03*
X23157D02*
D03*
X28557Y17957D02*
D03*
X27957D02*
D03*
X28557Y13757D02*
D03*
X27957D02*
D03*
X22557Y13257D02*
D03*
X23157D02*
D03*
X36166Y3022D02*
D03*
X35566D02*
D03*
D52*
X13327Y6955D02*
D03*
Y6155D02*
D03*
X6594Y6827D02*
D03*
Y6027D02*
D03*
X19478Y11611D02*
D03*
Y10811D02*
D03*
X11634Y12575D02*
D03*
Y11775D02*
D03*
X5098Y12536D02*
D03*
Y11736D02*
D03*
X32157Y16257D02*
D03*
Y15457D02*
D03*
X25935Y12487D02*
D03*
Y11687D02*
D03*
D53*
X33007Y14457D02*
D03*
X33807D02*
D03*
Y16307D02*
D03*
X33007D02*
D03*
X33807Y15407D02*
D03*
X33007D02*
D03*
X624Y4902D02*
D03*
X1424D02*
D03*
D54*
X1270Y11107D02*
D03*
Y11707D02*
D03*
X27557Y12657D02*
D03*
Y13257D02*
D03*
X27057Y12657D02*
D03*
Y13257D02*
D03*
X26557Y12657D02*
D03*
Y13257D02*
D03*
X25257Y12657D02*
D03*
Y13257D02*
D03*
X24157Y12657D02*
D03*
Y13257D02*
D03*
D58*
X24301Y2303D02*
D03*
X22301D02*
D03*
X16301D02*
D03*
X18301D02*
D03*
X20301D02*
D03*
X12303Y2303D02*
D03*
X10303D02*
D03*
X4303D02*
D03*
X6303D02*
D03*
X8303D02*
D03*
D59*
X14301Y2303D02*
D03*
X2303Y2303D02*
D03*
D60*
X22894Y23474D02*
D03*
D61*
X21894D02*
D03*
X19894D02*
D03*
X18894D02*
D03*
X20894D02*
D03*
D62*
X29843Y22677D02*
D03*
X25906D02*
D03*
X27873D02*
D03*
D63*
X30148Y4173D02*
D03*
X28297Y2992D02*
D03*
Y5354D02*
D03*
D64*
X35327Y3811D02*
D03*
D65*
Y4811D02*
D03*
Y5811D02*
D03*
Y6811D02*
D03*
Y7811D02*
D03*
Y8811D02*
D03*
Y9811D02*
D03*
Y10811D02*
D03*
Y11811D02*
D03*
Y12811D02*
D03*
Y13811D02*
D03*
Y14811D02*
D03*
Y15811D02*
D03*
Y16811D02*
D03*
Y17811D02*
D03*
Y18811D02*
D03*
Y19811D02*
D03*
X36327Y3811D02*
D03*
Y4811D02*
D03*
Y5811D02*
D03*
Y6811D02*
D03*
Y7811D02*
D03*
Y8811D02*
D03*
Y9811D02*
D03*
Y10811D02*
D03*
Y11811D02*
D03*
Y12811D02*
D03*
Y13811D02*
D03*
Y14811D02*
D03*
Y15811D02*
D03*
Y16811D02*
D03*
Y17811D02*
D03*
Y18811D02*
D03*
Y19811D02*
D03*
D66*
X13296Y21846D02*
D03*
X11566D02*
D03*
X6160D02*
D03*
X4430D02*
D03*
D67*
X16821Y12706D02*
D03*
Y11606D02*
D03*
X9754Y12735D02*
D03*
Y11635D02*
D03*
X2815Y12794D02*
D03*
Y11694D02*
D03*
D68*
X31435Y4262D02*
D03*
X33230D02*
D03*
D69*
X32333Y1781D02*
D03*
D70*
X5020Y7047D02*
D03*
Y6547D02*
D03*
Y6047D02*
D03*
Y8047D02*
D03*
Y7547D02*
D03*
Y10047D02*
D03*
Y9547D02*
D03*
Y9047D02*
D03*
Y10547D02*
D03*
X1280Y6047D02*
D03*
Y6547D02*
D03*
Y7047D02*
D03*
Y8047D02*
D03*
Y7547D02*
D03*
Y9047D02*
D03*
Y9547D02*
D03*
Y10047D02*
D03*
Y10547D02*
D03*
X5020Y8547D02*
D03*
X1280D02*
D03*
X7825Y8518D02*
D03*
X11565D02*
D03*
X7825Y10518D02*
D03*
Y10018D02*
D03*
Y9518D02*
D03*
Y9018D02*
D03*
Y7518D02*
D03*
Y8018D02*
D03*
Y7018D02*
D03*
Y6518D02*
D03*
Y6018D02*
D03*
X11565Y10518D02*
D03*
Y9018D02*
D03*
Y9518D02*
D03*
Y10018D02*
D03*
Y7518D02*
D03*
Y8018D02*
D03*
Y6018D02*
D03*
Y6518D02*
D03*
Y7018D02*
D03*
X14695Y8596D02*
D03*
X18435D02*
D03*
X14695Y10596D02*
D03*
Y10096D02*
D03*
Y9596D02*
D03*
Y9096D02*
D03*
Y7596D02*
D03*
Y8096D02*
D03*
Y7096D02*
D03*
Y6596D02*
D03*
Y6096D02*
D03*
X18435Y10596D02*
D03*
Y9096D02*
D03*
Y9596D02*
D03*
Y10096D02*
D03*
Y7596D02*
D03*
Y8096D02*
D03*
Y6096D02*
D03*
Y6596D02*
D03*
Y7096D02*
D03*
D71*
X33802Y17457D02*
D03*
X33012Y17087D02*
D03*
Y17827D02*
D03*
M02*
