M48
;Layer_Color=9474304
;FILE_FORMAT=2:3
INCH,LZ
;TYPE=PLATED
T1F00S00C0.012
T2F00S00C0.039
T3F00S00C0.042
T4F00S00C0.051
T5F00S00C0.059
T6F00S00C0.091
%
T01
X0051Y00471
X00585Y00459
X00741Y00402
X00783Y00426
X0088Y00435
X00957
X01063Y00438
X01327Y00423
X01566Y00446
X01595Y00576
X01742Y00439
X01998Y00442
X0088Y00542
X02148Y00446
X02149Y00645
X02198Y0078
X02224Y00824
X02243Y0087
X02259Y00912
X02244Y01242
X02422Y01188
X02507Y01196
X02656Y01195
X02657Y01128
X027Y01156
X02759Y01136
X02861Y01206
X02931Y01139
X02984Y01114
X02992Y01259
X03037Y01232
X0306Y01286
X03111Y01272
X03098Y01216
X03207Y01277
X03415Y01281
X03416Y01181
X03414Y01136
X03415Y01081
X0289Y01016
X02801Y00959
X02654Y0087
X02607Y00824
X02648Y0078
X02603Y00912
X02796Y00648
X02883Y00632
X02923Y0136
X02984Y0175
X02921Y01816
X02906Y01871
X03027Y01861
X03057Y01903
X0311Y01847
X0318Y01948
X03146Y01999
X0321Y01773
X03163Y01679
X02813Y01923
X02728Y01957
X02701Y01994
X02684Y02038
X02521Y02034
X02558Y01991
X02372Y01939
X02281Y01886
X02166Y01904
X0215Y01561
X02559Y01563
X02113Y01599
X0214Y01645
X02084Y01676
X02013Y01752
X01988Y01885
X01972Y02088
X02029Y02115
X01791Y02129
X0181Y02077
X01758Y02055
X01631Y02016
X01579Y02061
X01538Y01879
X01412Y01848
X01217Y0185
X01173Y01762
X01005Y01763
X00959Y01724
X01007Y01672
X01003Y01923
X01342Y02021
X01315Y01702
X01312Y01408
X01363Y01383
X0163Y0147
X01715Y01545
X01748Y01338
X01801Y01358
X01779Y0101
X01712Y00916
X01583Y00874
X0157Y0096
X0157Y01008
X01582Y00771
X01533Y00668
X01745Y0066
X01779Y00767
X01973Y00937
X01257Y00914
X01256Y00855
Y00784
X01244Y00664
X01072Y00669
X01087Y00897
X01018Y00952
X00917
X00861Y00899
X00858Y00757
X00867Y00626
X00711Y00926
X00611Y00966
X0061Y01055
X00781Y01281
X00721Y01407
X00889Y01433
X01236Y01024
X00428Y00882
X0043Y00781
X0036Y00694
X00305Y00695
X00241Y00788
Y00882
X00242Y00942
X00364Y00941
X00298Y01065
X00205Y00616
X0184Y02151
X01827Y02199
X01967Y02161
X02121Y0215
X02334Y02151
X02383Y02147
T02
X01889Y02347
X01989
X02089
X02189
X02289
T03
X03533Y00381
Y00481
X03633
Y00381
Y00581
X03533
Y00681
Y00781
Y00881
Y00981
Y01081
Y01181
Y01281
Y01381
Y01481
Y01581
Y01681
Y01781
Y01881
Y01981
X03633
Y01881
Y01781
Y01681
Y01581
Y01481
Y01381
Y01281
Y01181
Y01081
Y00981
Y00881
Y00781
Y00681
T04
X02591Y02268
X02787
X02984
T05
X0023Y0023
X0043
X0063
X0083
X0103
X0123
X0143Y0023
X0163
X0183
X0203
X0223
X0243
T06
X0283Y00299
Y00535
X03015Y00417
M30
