G04 Layer_Color=65535*
%FSLAX24Y24*%
%MOIN*%
G70*
G01*
G75*
%ADD23C,0.0197*%
%ADD41C,0.0394*%
%ADD42C,0.0098*%
%ADD43C,0.0236*%
%ADD44C,0.0079*%
%ADD45C,0.0050*%
%ADD46C,0.0100*%
D23*
X22835Y11909D02*
G03*
X22835Y11909I-98J0D01*
G01*
D41*
X23396Y22500D02*
G03*
X23396Y22500I-10J0D01*
G01*
D42*
X8799Y18002D02*
G03*
X8799Y18002I-49J0D01*
G01*
X7776Y21496D02*
Y22283D01*
D43*
X8593Y17096D02*
G03*
X8593Y17096I-118J0D01*
G01*
D44*
X4734Y17490D02*
X8868D01*
X4734Y15837D02*
X8868D01*
Y17490D01*
X4734Y15837D02*
Y17490D01*
X8579Y22956D02*
X8514Y23022D01*
X8383D01*
X8317Y22956D01*
Y22694D01*
X8383Y22628D01*
X8514D01*
X8579Y22694D01*
X8711Y22956D02*
X8776Y23022D01*
X8907D01*
X8973Y22956D01*
Y22890D01*
X8907Y22825D01*
X8842D01*
X8907D01*
X8973Y22759D01*
Y22694D01*
X8907Y22628D01*
X8776D01*
X8711Y22694D01*
X9104Y22628D02*
X9235D01*
X9170D01*
Y23022D01*
X9104Y22956D01*
X13740Y4488D02*
X14003Y4094D01*
Y4488D02*
X13740Y4094D01*
X14134D02*
Y4488D01*
X14331D01*
X14396Y4422D01*
Y4291D01*
X14331Y4226D01*
X14134D01*
X14724Y4094D02*
Y4488D01*
X14527Y4291D01*
X14790D01*
X24961Y9626D02*
X25223D01*
Y9560D01*
X24961Y9298D01*
Y9232D01*
X25223D01*
X25617Y9298D02*
Y9560D01*
X25551Y9626D01*
X25420D01*
X25354Y9560D01*
Y9298D01*
X25420Y9232D01*
X25551D01*
X25485Y9363D02*
X25617Y9232D01*
X25551D02*
X25617Y9298D01*
X25748Y9232D02*
X25879D01*
X25813D01*
Y9626D01*
X25748Y9560D01*
X34557Y21851D02*
X34820Y21457D01*
Y21851D02*
X34557Y21457D01*
X34951D02*
Y21851D01*
X35148D01*
X35213Y21785D01*
Y21654D01*
X35148Y21589D01*
X34951D01*
X35607Y21457D02*
X35345D01*
X35607Y21720D01*
Y21785D01*
X35541Y21851D01*
X35410D01*
X35345Y21785D01*
X17648Y22992D02*
X18041Y23255D01*
X17648D02*
X18041Y22992D01*
Y23386D02*
X17648D01*
Y23582D01*
X17713Y23648D01*
X17845D01*
X17910Y23582D01*
Y23386D01*
X18041Y23779D02*
Y23910D01*
Y23845D01*
X17648D01*
X17713Y23779D01*
X9626Y24035D02*
X9888Y23642D01*
Y24035D02*
X9626Y23642D01*
X10282D02*
X10020D01*
X10282Y23904D01*
Y23970D01*
X10216Y24035D01*
X10085D01*
X10020Y23970D01*
X2667Y24035D02*
X2930Y23642D01*
Y24035D02*
X2667Y23642D01*
X3061D02*
X3192D01*
X3126D01*
Y24035D01*
X3061Y23970D01*
X14085Y18366D02*
Y18760D01*
X14281D01*
X14347Y18694D01*
Y18563D01*
X14281Y18497D01*
X14085D01*
X14216D02*
X14347Y18366D01*
X14478D02*
X14609D01*
X14544D01*
Y18760D01*
X14478Y18694D01*
X14806Y18760D02*
X15069D01*
Y18694D01*
X14806Y18432D01*
Y18366D01*
X15148Y19577D02*
Y19970D01*
X15344D01*
X15410Y19905D01*
Y19774D01*
X15344Y19708D01*
X15148D01*
X15279D02*
X15410Y19577D01*
X15541D02*
X15672D01*
X15607D01*
Y19970D01*
X15541Y19905D01*
X16132Y19970D02*
X16000Y19905D01*
X15869Y19774D01*
Y19642D01*
X15935Y19577D01*
X16066D01*
X16132Y19642D01*
Y19708D01*
X16066Y19774D01*
X15869D01*
X13750Y18671D02*
X13356D01*
Y18868D01*
X13422Y18934D01*
X13553D01*
X13619Y18868D01*
Y18671D01*
Y18802D02*
X13750Y18934D01*
Y19065D02*
Y19196D01*
Y19130D01*
X13356D01*
X13422Y19065D01*
X13356Y19655D02*
Y19393D01*
X13553D01*
X13488Y19524D01*
Y19590D01*
X13553Y19655D01*
X13684D01*
X13750Y19590D01*
Y19458D01*
X13684Y19393D01*
X11073Y18701D02*
X10679D01*
Y18898D01*
X10745Y18963D01*
X10876D01*
X10942Y18898D01*
Y18701D01*
Y18832D02*
X11073Y18963D01*
Y19094D02*
Y19226D01*
Y19160D01*
X10679D01*
X10745Y19094D01*
Y19422D02*
X10679Y19488D01*
Y19619D01*
X10745Y19685D01*
X10810D01*
X10876Y19619D01*
X10942Y19685D01*
X11007D01*
X11073Y19619D01*
Y19488D01*
X11007Y19422D01*
X10942D01*
X10876Y19488D01*
X10810Y19422D01*
X10745D01*
X10876Y19488D02*
Y19619D01*
X25886Y20285D02*
Y20679D01*
X26083D01*
X26148Y20613D01*
Y20482D01*
X26083Y20417D01*
X25886D01*
X26017D02*
X26148Y20285D01*
X26279Y20613D02*
X26345Y20679D01*
X26476D01*
X26542Y20613D01*
Y20548D01*
X26476Y20482D01*
X26542Y20417D01*
Y20351D01*
X26476Y20285D01*
X26345D01*
X26279Y20351D01*
Y20417D01*
X26345Y20482D01*
X26279Y20548D01*
Y20613D01*
X26345Y20482D02*
X26476D01*
X30522Y20256D02*
Y20649D01*
X30718D01*
X30784Y20584D01*
Y20453D01*
X30718Y20387D01*
X30522D01*
X30653D02*
X30784Y20256D01*
X30915Y20649D02*
X31178D01*
Y20584D01*
X30915Y20322D01*
Y20256D01*
X20148Y21260D02*
Y21653D01*
X20344D01*
X20410Y21588D01*
Y21457D01*
X20344Y21391D01*
X20148D01*
X20279D02*
X20410Y21260D01*
X20541D02*
X20672D01*
X20607D01*
Y21653D01*
X20541Y21588D01*
X20869D02*
X20935Y21653D01*
X21066D01*
X21132Y21588D01*
Y21325D01*
X21066Y21260D01*
X20935D01*
X20869Y21325D01*
Y21588D01*
X21978Y21201D02*
Y21594D01*
X22175D01*
X22241Y21529D01*
Y21398D01*
X22175Y21332D01*
X21978D01*
X22110D02*
X22241Y21201D01*
X22372Y21266D02*
X22438Y21201D01*
X22569D01*
X22634Y21266D01*
Y21529D01*
X22569Y21594D01*
X22438D01*
X22372Y21529D01*
Y21463D01*
X22438Y21398D01*
X22634D01*
X3474Y18612D02*
Y19006D01*
X3671D01*
X3737Y18940D01*
Y18809D01*
X3671Y18743D01*
X3474D01*
X3606D02*
X3737Y18612D01*
X3868D02*
X3999D01*
X3934D01*
Y19006D01*
X3868Y18940D01*
X4196Y18678D02*
X4262Y18612D01*
X4393D01*
X4458Y18678D01*
Y18940D01*
X4393Y19006D01*
X4262D01*
X4196Y18940D01*
Y18875D01*
X4262Y18809D01*
X4458D01*
X6978Y14429D02*
X7372D01*
Y14232D01*
X7306Y14167D01*
X7175D01*
X7110Y14232D01*
Y14429D01*
Y14298D02*
X6978Y14167D01*
Y13773D02*
Y14036D01*
X7241Y13773D01*
X7306D01*
X7372Y13839D01*
Y13970D01*
X7306Y14036D01*
X6978Y13642D02*
Y13511D01*
Y13576D01*
X7372D01*
X7306Y13642D01*
X8258Y20256D02*
Y20649D01*
X8455D01*
X8520Y20584D01*
Y20453D01*
X8455Y20387D01*
X8258D01*
X8389D02*
X8520Y20256D01*
X8914D02*
X8651D01*
X8914Y20518D01*
Y20584D01*
X8848Y20649D01*
X8717D01*
X8651Y20584D01*
X9045D02*
X9111Y20649D01*
X9242D01*
X9307Y20584D01*
Y20322D01*
X9242Y20256D01*
X9111D01*
X9045Y20322D01*
Y20584D01*
X2972Y4508D02*
X3235Y4114D01*
Y4508D02*
X2972Y4114D01*
X3366D02*
Y4508D01*
X3563D01*
X3628Y4442D01*
Y4311D01*
X3563Y4245D01*
X3366D01*
X3760Y4442D02*
X3825Y4508D01*
X3956D01*
X4022Y4442D01*
Y4377D01*
X3956Y4311D01*
X3891D01*
X3956D01*
X4022Y4245D01*
Y4180D01*
X3956Y4114D01*
X3825D01*
X3760Y4180D01*
X26407Y6791D02*
X26670Y6397D01*
Y6791D02*
X26407Y6397D01*
X26801D02*
Y6791D01*
X26998D01*
X27063Y6725D01*
Y6594D01*
X26998Y6529D01*
X26801D01*
X27457Y6791D02*
X27195D01*
Y6594D01*
X27326Y6660D01*
X27391D01*
X27457Y6594D01*
Y6463D01*
X27391Y6397D01*
X27260D01*
X27195Y6463D01*
X21644Y16939D02*
X22037D01*
Y17136D01*
X21972Y17201D01*
X21709D01*
X21644Y17136D01*
Y16939D01*
Y17333D02*
X22037D01*
Y17529D01*
X21972Y17595D01*
X21709D01*
X21644Y17529D01*
Y17333D01*
X21709Y17726D02*
X21644Y17792D01*
Y17923D01*
X21709Y17989D01*
X21775D01*
X21841Y17923D01*
Y17857D01*
Y17923D01*
X21906Y17989D01*
X21972D01*
X22037Y17923D01*
Y17792D01*
X21972Y17726D01*
X9567Y16811D02*
X9173D01*
Y16614D01*
X9239Y16549D01*
X9501D01*
X9567Y16614D01*
Y16811D01*
Y16417D02*
X9173D01*
Y16221D01*
X9239Y16155D01*
X9501D01*
X9567Y16221D01*
Y16417D01*
X9173Y15761D02*
Y16024D01*
X9436Y15761D01*
X9501D01*
X9567Y15827D01*
Y15958D01*
X9501Y16024D01*
X29364Y19268D02*
X29298Y19333D01*
X29167D01*
X29101Y19268D01*
Y19005D01*
X29167Y18940D01*
X29298D01*
X29364Y19005D01*
X29495Y18940D02*
X29626D01*
X29560D01*
Y19333D01*
X29495Y19268D01*
X29823Y18940D02*
X29954D01*
X29888D01*
Y19333D01*
X29823Y19268D01*
X27782Y19314D02*
X27716Y19380D01*
X27585D01*
X27520Y19314D01*
Y19052D01*
X27585Y18986D01*
X27716D01*
X27782Y19052D01*
X27913Y18986D02*
X28044D01*
X27979D01*
Y19380D01*
X27913Y19314D01*
X28241D02*
X28307Y19380D01*
X28438D01*
X28504Y19314D01*
Y19052D01*
X28438Y18986D01*
X28307D01*
X28241Y19052D01*
Y19314D01*
X30466Y18527D02*
X30531Y18593D01*
Y18724D01*
X30466Y18789D01*
X30203D01*
X30138Y18724D01*
Y18593D01*
X30203Y18527D01*
X30138Y18133D02*
Y18396D01*
X30400Y18133D01*
X30466D01*
X30531Y18199D01*
Y18330D01*
X30466Y18396D01*
X30531Y18002D02*
Y17740D01*
X30466D01*
X30203Y18002D01*
X30138D01*
X22161Y20005D02*
X22095Y20071D01*
X21964D01*
X21899Y20005D01*
Y19743D01*
X21964Y19677D01*
X22095D01*
X22161Y19743D01*
X22555Y19677D02*
X22292D01*
X22555Y19940D01*
Y20005D01*
X22489Y20071D01*
X22358D01*
X22292Y20005D01*
X22948Y20071D02*
X22817Y20005D01*
X22686Y19874D01*
Y19743D01*
X22751Y19677D01*
X22883D01*
X22948Y19743D01*
Y19808D01*
X22883Y19874D01*
X22686D01*
X23560Y10331D02*
X23494Y10266D01*
Y10134D01*
X23560Y10069D01*
X23822D01*
X23888Y10134D01*
Y10266D01*
X23822Y10331D01*
X23888Y10462D02*
Y10594D01*
Y10528D01*
X23494D01*
X23560Y10462D01*
Y10790D02*
X23494Y10856D01*
Y10987D01*
X23560Y11053D01*
X23625D01*
X23691Y10987D01*
Y10922D01*
Y10987D01*
X23757Y11053D01*
X23822D01*
X23888Y10987D01*
Y10856D01*
X23822Y10790D01*
X26414Y9698D02*
X26348Y9764D01*
X26217D01*
X26152Y9698D01*
Y9436D01*
X26217Y9370D01*
X26348D01*
X26414Y9436D01*
X26545Y9370D02*
X26676D01*
X26611D01*
Y9764D01*
X26545Y9698D01*
X27136Y9370D02*
X26873D01*
X27136Y9632D01*
Y9698D01*
X27070Y9764D01*
X26939D01*
X26873Y9698D01*
X5190Y14245D02*
X5256Y14311D01*
Y14442D01*
X5190Y14508D01*
X4928D01*
X4862Y14442D01*
Y14311D01*
X4928Y14245D01*
X4862Y13852D02*
Y14114D01*
X5125Y13852D01*
X5190D01*
X5256Y13918D01*
Y14049D01*
X5190Y14114D01*
Y13721D02*
X5256Y13655D01*
Y13524D01*
X5190Y13458D01*
X5125D01*
X5059Y13524D01*
X4993Y13458D01*
X4928D01*
X4862Y13524D01*
Y13655D01*
X4928Y13721D01*
X4993D01*
X5059Y13655D01*
X5125Y13721D01*
X5190D01*
X5059Y13655D02*
Y13524D01*
X9062Y18615D02*
X8996Y18681D01*
X8865D01*
X8799Y18615D01*
Y18353D01*
X8865Y18287D01*
X8996D01*
X9062Y18353D01*
X9193Y18615D02*
X9258Y18681D01*
X9390D01*
X9455Y18615D01*
Y18550D01*
X9390Y18484D01*
X9324D01*
X9390D01*
X9455Y18419D01*
Y18353D01*
X9390Y18287D01*
X9258D01*
X9193Y18353D01*
X9586Y18615D02*
X9652Y18681D01*
X9783D01*
X9849Y18615D01*
Y18353D01*
X9783Y18287D01*
X9652D01*
X9586Y18353D01*
Y18615D01*
X7123Y19806D02*
X7057Y19872D01*
X6926D01*
X6860Y19806D01*
Y19544D01*
X6926Y19478D01*
X7057D01*
X7123Y19544D01*
X7516Y19478D02*
X7254D01*
X7516Y19741D01*
Y19806D01*
X7451Y19872D01*
X7319D01*
X7254Y19806D01*
X7647Y19544D02*
X7713Y19478D01*
X7844D01*
X7910Y19544D01*
Y19806D01*
X7844Y19872D01*
X7713D01*
X7647Y19806D01*
Y19741D01*
X7713Y19675D01*
X7910D01*
X27920Y10899D02*
X27854Y10964D01*
X27723D01*
X27657Y10899D01*
Y10636D01*
X27723Y10571D01*
X27854D01*
X27920Y10636D01*
X28051Y10571D02*
X28182D01*
X28117D01*
Y10964D01*
X28051Y10899D01*
X28576Y10571D02*
Y10964D01*
X28379Y10768D01*
X28641D01*
X33964Y19495D02*
Y19701D01*
X34114Y19589D01*
Y19645D01*
X34133Y19682D01*
X34151Y19701D01*
X34208Y19720D01*
X34245D01*
X34301Y19701D01*
X34339Y19664D01*
X34357Y19607D01*
Y19551D01*
X34339Y19495D01*
X34320Y19476D01*
X34283Y19457D01*
X33964Y19845D02*
Y20052D01*
X34114Y19939D01*
Y19995D01*
X34133Y20033D01*
X34151Y20052D01*
X34208Y20070D01*
X34245D01*
X34301Y20052D01*
X34339Y20014D01*
X34357Y19958D01*
Y19902D01*
X34339Y19845D01*
X34320Y19827D01*
X34283Y19808D01*
X34039Y3657D02*
X34020Y3695D01*
X33964Y3751D01*
X34357D01*
D45*
X25301Y551D02*
Y3780D01*
X13065Y551D02*
X25301D01*
X13065D02*
Y3780D01*
X25301D01*
X14449Y1142D02*
X14646Y551D01*
X13465D02*
X13662Y1142D01*
X14449D01*
X16449D02*
X16646Y551D01*
X15465D02*
X15662Y1142D01*
X16449D01*
X18449D02*
X18646Y551D01*
X17465D02*
X17662Y1142D01*
X18449D01*
X20449D02*
X20646Y551D01*
X19465D02*
X19662Y1142D01*
X20449D01*
X22449D02*
X22646Y551D01*
X21465D02*
X21662Y1142D01*
X22449D01*
X24449D02*
X24646Y551D01*
X23465D02*
X23662Y1142D01*
X24449D01*
X26358Y236D02*
Y6093D01*
X30915Y236D02*
Y2815D01*
X29754Y236D02*
X30915D01*
X29557Y433D02*
X29754Y236D01*
X27037Y433D02*
X29557D01*
X26841Y236D02*
X27037Y433D01*
X26358Y236D02*
X26841D01*
X34527Y2311D02*
X37127D01*
X34527Y21311D02*
X37127D01*
Y2311D02*
Y21311D01*
X34527Y2311D02*
Y21311D01*
X13303Y551D02*
Y3780D01*
X1067Y551D02*
X13303D01*
X1067D02*
Y3780D01*
X13303D01*
X2451Y1142D02*
X2648Y551D01*
X1467D02*
X1664Y1142D01*
X2451D01*
X4451D02*
X4648Y551D01*
X3467D02*
X3664Y1142D01*
X4451D01*
X6451D02*
X6648Y551D01*
X5467D02*
X5664Y1142D01*
X6451D01*
X8451D02*
X8648Y551D01*
X7467D02*
X7664Y1142D01*
X8451D01*
X10451D02*
X10648Y551D01*
X9467D02*
X9664Y1142D01*
X10451D01*
X12451D02*
X12648Y551D01*
X11467D02*
X11664Y1142D01*
X12451D01*
X30915Y2815D02*
Y4843D01*
X26358Y6093D02*
X30915D01*
Y5531D02*
Y6093D01*
Y4843D02*
Y5531D01*
D46*
X23544Y22824D02*
Y24124D01*
X18244Y22824D02*
Y24124D01*
X23544D01*
X18244Y22824D02*
X23544D01*
X30843Y20906D02*
Y24114D01*
X24921Y20906D02*
Y24114D01*
X30843D01*
X24943Y21674D02*
X30843D01*
X24921Y20906D02*
X30843D01*
M02*
