G04 Layer_Physical_Order=1*
G04 Layer_Color=255*
%FSLAX24Y24*%
%MOIN*%
G70*
G01*
G75*
G04:AMPARAMS|DCode=10|XSize=70mil|YSize=94mil|CornerRadius=0.7mil|HoleSize=0mil|Usage=FLASHONLY|Rotation=0.000|XOffset=0mil|YOffset=0mil|HoleType=Round|Shape=RoundedRectangle|*
%AMROUNDEDRECTD10*
21,1,0.0700,0.0926,0,0,0.0*
21,1,0.0686,0.0940,0,0,0.0*
1,1,0.0014,0.0343,-0.0463*
1,1,0.0014,-0.0343,-0.0463*
1,1,0.0014,-0.0343,0.0463*
1,1,0.0014,0.0343,0.0463*
%
%ADD10ROUNDEDRECTD10*%
%ADD11O,0.0138X0.0709*%
G04:AMPARAMS|DCode=12|XSize=32mil|YSize=35mil|CornerRadius=0.3mil|HoleSize=0mil|Usage=FLASHONLY|Rotation=0.000|XOffset=0mil|YOffset=0mil|HoleType=Round|Shape=RoundedRectangle|*
%AMROUNDEDRECTD12*
21,1,0.0320,0.0344,0,0,0.0*
21,1,0.0314,0.0350,0,0,0.0*
1,1,0.0006,0.0157,-0.0172*
1,1,0.0006,-0.0157,-0.0172*
1,1,0.0006,-0.0157,0.0172*
1,1,0.0006,0.0157,0.0172*
%
%ADD12ROUNDEDRECTD12*%
G04:AMPARAMS|DCode=13|XSize=10.6mil|YSize=59.1mil|CornerRadius=2.7mil|HoleSize=0mil|Usage=FLASHONLY|Rotation=180.000|XOffset=0mil|YOffset=0mil|HoleType=Round|Shape=RoundedRectangle|*
%AMROUNDEDRECTD13*
21,1,0.0106,0.0537,0,0,180.0*
21,1,0.0053,0.0591,0,0,180.0*
1,1,0.0053,-0.0027,0.0269*
1,1,0.0053,0.0027,0.0269*
1,1,0.0053,0.0027,-0.0269*
1,1,0.0053,-0.0027,-0.0269*
%
%ADD13ROUNDEDRECTD13*%
G04:AMPARAMS|DCode=14|XSize=10.6mil|YSize=59.1mil|CornerRadius=2.7mil|HoleSize=0mil|Usage=FLASHONLY|Rotation=270.000|XOffset=0mil|YOffset=0mil|HoleType=Round|Shape=RoundedRectangle|*
%AMROUNDEDRECTD14*
21,1,0.0106,0.0537,0,0,270.0*
21,1,0.0053,0.0591,0,0,270.0*
1,1,0.0053,-0.0269,-0.0027*
1,1,0.0053,-0.0269,0.0027*
1,1,0.0053,0.0269,0.0027*
1,1,0.0053,0.0269,-0.0027*
%
%ADD14ROUNDEDRECTD14*%
G04:AMPARAMS|DCode=15|XSize=48mil|YSize=60mil|CornerRadius=0.5mil|HoleSize=0mil|Usage=FLASHONLY|Rotation=90.000|XOffset=0mil|YOffset=0mil|HoleType=Round|Shape=RoundedRectangle|*
%AMROUNDEDRECTD15*
21,1,0.0480,0.0590,0,0,90.0*
21,1,0.0470,0.0600,0,0,90.0*
1,1,0.0010,0.0295,0.0235*
1,1,0.0010,0.0295,-0.0235*
1,1,0.0010,-0.0295,-0.0235*
1,1,0.0010,-0.0295,0.0235*
%
%ADD15ROUNDEDRECTD15*%
G04:AMPARAMS|DCode=16|XSize=48mil|YSize=60mil|CornerRadius=0.5mil|HoleSize=0mil|Usage=FLASHONLY|Rotation=180.000|XOffset=0mil|YOffset=0mil|HoleType=Round|Shape=RoundedRectangle|*
%AMROUNDEDRECTD16*
21,1,0.0480,0.0590,0,0,180.0*
21,1,0.0470,0.0600,0,0,180.0*
1,1,0.0010,-0.0235,0.0295*
1,1,0.0010,0.0235,0.0295*
1,1,0.0010,0.0235,-0.0295*
1,1,0.0010,-0.0235,-0.0295*
%
%ADD16ROUNDEDRECTD16*%
G04:AMPARAMS|DCode=17|XSize=32mil|YSize=35mil|CornerRadius=0.3mil|HoleSize=0mil|Usage=FLASHONLY|Rotation=270.000|XOffset=0mil|YOffset=0mil|HoleType=Round|Shape=RoundedRectangle|*
%AMROUNDEDRECTD17*
21,1,0.0320,0.0344,0,0,270.0*
21,1,0.0314,0.0350,0,0,270.0*
1,1,0.0006,-0.0172,-0.0157*
1,1,0.0006,-0.0172,0.0157*
1,1,0.0006,0.0172,0.0157*
1,1,0.0006,0.0172,-0.0157*
%
%ADD17ROUNDEDRECTD17*%
G04:AMPARAMS|DCode=18|XSize=55.1mil|YSize=47.2mil|CornerRadius=0.5mil|HoleSize=0mil|Usage=FLASHONLY|Rotation=90.000|XOffset=0mil|YOffset=0mil|HoleType=Round|Shape=RoundedRectangle|*
%AMROUNDEDRECTD18*
21,1,0.0551,0.0463,0,0,90.0*
21,1,0.0542,0.0472,0,0,90.0*
1,1,0.0009,0.0232,0.0271*
1,1,0.0009,0.0232,-0.0271*
1,1,0.0009,-0.0232,-0.0271*
1,1,0.0009,-0.0232,0.0271*
%
%ADD18ROUNDEDRECTD18*%
G04:AMPARAMS|DCode=19|XSize=100mil|YSize=20mil|CornerRadius=0.2mil|HoleSize=0mil|Usage=FLASHONLY|Rotation=270.000|XOffset=0mil|YOffset=0mil|HoleType=Round|Shape=RoundedRectangle|*
%AMROUNDEDRECTD19*
21,1,0.1000,0.0196,0,0,270.0*
21,1,0.0996,0.0200,0,0,270.0*
1,1,0.0004,-0.0098,-0.0498*
1,1,0.0004,-0.0098,0.0498*
1,1,0.0004,0.0098,0.0498*
1,1,0.0004,0.0098,-0.0498*
%
%ADD19ROUNDEDRECTD19*%
G04:AMPARAMS|DCode=20|XSize=100mil|YSize=80mil|CornerRadius=0.8mil|HoleSize=0mil|Usage=FLASHONLY|Rotation=270.000|XOffset=0mil|YOffset=0mil|HoleType=Round|Shape=RoundedRectangle|*
%AMROUNDEDRECTD20*
21,1,0.1000,0.0784,0,0,270.0*
21,1,0.0984,0.0800,0,0,270.0*
1,1,0.0016,-0.0392,-0.0492*
1,1,0.0016,-0.0392,0.0492*
1,1,0.0016,0.0392,0.0492*
1,1,0.0016,0.0392,-0.0492*
%
%ADD20ROUNDEDRECTD20*%
%ADD21C,0.0087*%
%ADD22C,0.0118*%
%ADD23C,0.0197*%
%ADD24C,0.0157*%
%ADD25C,0.1181*%
G04:AMPARAMS|DCode=26|XSize=118.1mil|YSize=118.1mil|CornerRadius=14.8mil|HoleSize=0mil|Usage=FLASHONLY|Rotation=270.000|XOffset=0mil|YOffset=0mil|HoleType=Round|Shape=RoundedRectangle|*
%AMROUNDEDRECTD26*
21,1,0.1181,0.0886,0,0,270.0*
21,1,0.0886,0.1181,0,0,270.0*
1,1,0.0295,-0.0443,-0.0443*
1,1,0.0295,-0.0443,0.0443*
1,1,0.0295,0.0443,0.0443*
1,1,0.0295,0.0443,-0.0443*
%
%ADD26ROUNDEDRECTD26*%
G04:AMPARAMS|DCode=27|XSize=70.9mil|YSize=70.9mil|CornerRadius=0.7mil|HoleSize=0mil|Usage=FLASHONLY|Rotation=180.000|XOffset=0mil|YOffset=0mil|HoleType=Round|Shape=RoundedRectangle|*
%AMROUNDEDRECTD27*
21,1,0.0709,0.0694,0,0,180.0*
21,1,0.0694,0.0709,0,0,180.0*
1,1,0.0014,-0.0347,0.0347*
1,1,0.0014,0.0347,0.0347*
1,1,0.0014,0.0347,-0.0347*
1,1,0.0014,-0.0347,-0.0347*
%
%ADD27ROUNDEDRECTD27*%
%ADD28C,0.0709*%
%ADD29C,0.0945*%
%ADD30C,0.1299*%
G04:AMPARAMS|DCode=31|XSize=78.7mil|YSize=59.1mil|CornerRadius=7.4mil|HoleSize=0mil|Usage=FLASHONLY|Rotation=0.000|XOffset=0mil|YOffset=0mil|HoleType=Round|Shape=RoundedRectangle|*
%AMROUNDEDRECTD31*
21,1,0.0787,0.0443,0,0,0.0*
21,1,0.0640,0.0591,0,0,0.0*
1,1,0.0148,0.0320,-0.0221*
1,1,0.0148,-0.0320,-0.0221*
1,1,0.0148,-0.0320,0.0221*
1,1,0.0148,0.0320,0.0221*
%
%ADD31ROUNDEDRECTD31*%
%ADD32O,0.0787X0.0591*%
%ADD33C,0.0315*%
G36*
X37205Y24213D02*
X37205Y232D01*
X37169Y197D01*
X232Y197D01*
X197Y232D01*
X197Y24177D01*
X232Y24213D01*
X37205Y24213D01*
D02*
G37*
%LPC*%
G36*
X5600Y13666D02*
X5373D01*
Y13559D01*
X5381Y13519D01*
X5403Y13485D01*
X5438Y13462D01*
X5478Y13454D01*
X5600D01*
Y13666D01*
D02*
G37*
G36*
X5927D02*
X5700D01*
Y13454D01*
X5821D01*
X5862Y13462D01*
X5896Y13485D01*
X5919Y13519D01*
X5927Y13559D01*
Y13666D01*
D02*
G37*
G36*
X6387Y13477D02*
X6035D01*
Y13292D01*
X6043Y13251D01*
X6066Y13216D01*
X6101Y13193D01*
X6142Y13185D01*
X6387D01*
Y13477D01*
D02*
G37*
G36*
X6839D02*
X6487D01*
Y13185D01*
X6732D01*
X6773Y13193D01*
X6808Y13216D01*
X6831Y13251D01*
X6839Y13292D01*
Y13477D01*
D02*
G37*
G36*
X6387Y13869D02*
X6142D01*
X6101Y13861D01*
X6066Y13838D01*
X6043Y13803D01*
X6035Y13762D01*
Y13577D01*
X6387D01*
Y13869D01*
D02*
G37*
G36*
X5600Y13978D02*
X5478D01*
X5438Y13970D01*
X5403Y13947D01*
X5381Y13913D01*
X5373Y13873D01*
Y13766D01*
X5600D01*
Y13978D01*
D02*
G37*
G36*
X5821D02*
X5700D01*
Y13766D01*
X5927D01*
Y13873D01*
X5919Y13913D01*
X5896Y13947D01*
X5862Y13970D01*
X5821Y13978D01*
D02*
G37*
G36*
X6732Y13869D02*
X6487D01*
Y13577D01*
X6839D01*
Y13762D01*
X6831Y13803D01*
X6808Y13838D01*
X6773Y13861D01*
X6732Y13869D01*
D02*
G37*
G36*
X13120Y14334D02*
X13025Y14315D01*
X12944Y14261D01*
X12890Y14180D01*
X12871Y14085D01*
X12881Y14033D01*
X12269Y13420D01*
X12240Y13377D01*
X12230Y13327D01*
X12230Y13327D01*
Y10441D01*
X12186Y10412D01*
X12132Y10331D01*
X12113Y10236D01*
X12132Y10141D01*
X12186Y10060D01*
X12267Y10006D01*
X12362Y9987D01*
X12393Y9993D01*
X12418Y9947D01*
X10625Y8155D01*
X10596Y8112D01*
X10586Y8061D01*
X10586Y8061D01*
Y6898D01*
X10543Y6869D01*
X10489Y6788D01*
X10470Y6693D01*
X10489Y6598D01*
X10543Y6517D01*
X10623Y6463D01*
X10718Y6444D01*
X10814Y6463D01*
X10894Y6517D01*
X10948Y6598D01*
X10967Y6693D01*
X10948Y6788D01*
X10894Y6869D01*
X10851Y6898D01*
Y8006D01*
X12743Y9898D01*
X12743Y9898D01*
X12772Y9941D01*
X12782Y9992D01*
X12782Y9992D01*
Y10355D01*
X12772Y10406D01*
X12743Y10449D01*
X12743Y10449D01*
X12672Y10520D01*
Y13204D01*
X13133Y13665D01*
X13448D01*
X13456Y13653D01*
X13537Y13599D01*
X13632Y13580D01*
X13727Y13599D01*
X13808Y13653D01*
X13862Y13734D01*
X13881Y13829D01*
X13862Y13924D01*
X13808Y14005D01*
X13727Y14059D01*
X13632Y14078D01*
X13537Y14059D01*
X13456Y14005D01*
X13409Y13935D01*
X13366Y13936D01*
X13343Y13979D01*
X13350Y13989D01*
X13369Y14085D01*
X13350Y14180D01*
X13296Y14261D01*
X13215Y14315D01*
X13120Y14334D01*
D02*
G37*
G36*
X26037Y10934D02*
X25749D01*
Y10607D01*
X25930D01*
X25971Y10615D01*
X26006Y10638D01*
X26029Y10673D01*
X26037Y10713D01*
Y10934D01*
D02*
G37*
G36*
X8888Y14580D02*
X8793Y14561D01*
X8712Y14507D01*
X8658Y14426D01*
X8639Y14331D01*
X8658Y14235D01*
X8712Y14155D01*
X8755Y14126D01*
Y13067D01*
X6372Y10684D01*
X6307D01*
X6278Y10727D01*
X6198Y10781D01*
X6102Y10800D01*
X6007Y10781D01*
X5926Y10727D01*
X5872Y10646D01*
X5853Y10551D01*
X5872Y10456D01*
X5926Y10375D01*
X6007Y10321D01*
X6102Y10302D01*
X6198Y10321D01*
X6278Y10375D01*
X6307Y10419D01*
X6427D01*
X6427Y10419D01*
X6478Y10429D01*
X6521Y10458D01*
X8981Y12918D01*
X8981Y12918D01*
X9010Y12961D01*
X9020Y13012D01*
Y14126D01*
X9064Y14155D01*
X9118Y14235D01*
X9137Y14331D01*
X9118Y14426D01*
X9064Y14507D01*
X8983Y14561D01*
X8888Y14580D01*
D02*
G37*
G36*
X27159Y10747D02*
X26947D01*
Y10625D01*
X26955Y10585D01*
X26978Y10551D01*
X27012Y10528D01*
X27053Y10520D01*
X27159D01*
Y10747D01*
D02*
G37*
G36*
X27471D02*
X27259D01*
Y10520D01*
X27366D01*
X27407Y10528D01*
X27441Y10551D01*
X27463Y10585D01*
X27471Y10625D01*
Y10747D01*
D02*
G37*
G36*
X27159Y11074D02*
X27053D01*
X27012Y11066D01*
X26978Y11043D01*
X26955Y11009D01*
X26947Y10969D01*
Y10847D01*
X27159D01*
Y11074D01*
D02*
G37*
G36*
X29214Y18410D02*
X29119Y18391D01*
X29058Y18349D01*
X28827D01*
X28755Y18335D01*
X28694Y18294D01*
X28694Y18294D01*
X28567Y18167D01*
X28545Y18134D01*
X28353D01*
X28309Y18125D01*
X28272Y18100D01*
X28247Y18063D01*
X28238Y18019D01*
Y17966D01*
X28247Y17921D01*
X28265Y17894D01*
X28247Y17866D01*
X28238Y17822D01*
Y17769D01*
X28247Y17725D01*
X28265Y17697D01*
X28247Y17669D01*
X28238Y17625D01*
Y17572D01*
X28247Y17528D01*
X28265Y17500D01*
X28247Y17472D01*
X28238Y17428D01*
Y17375D01*
X28247Y17331D01*
X28265Y17303D01*
X28247Y17275D01*
X28238Y17231D01*
Y17178D01*
X28247Y17134D01*
X28265Y17106D01*
X28247Y17079D01*
X28238Y17034D01*
Y16981D01*
X28247Y16937D01*
X28265Y16909D01*
X28247Y16882D01*
X28238Y16838D01*
Y16784D01*
X28247Y16740D01*
X28265Y16713D01*
X28247Y16685D01*
X28238Y16641D01*
Y16588D01*
X28247Y16543D01*
X28265Y16516D01*
X28247Y16488D01*
X28238Y16444D01*
Y16391D01*
X28247Y16347D01*
X28265Y16319D01*
X28247Y16291D01*
X28238Y16247D01*
Y16194D01*
X28247Y16150D01*
X28265Y16122D01*
X28247Y16094D01*
X28238Y16050D01*
Y15997D01*
X28247Y15953D01*
X28265Y15925D01*
X28247Y15898D01*
X28238Y15853D01*
Y15800D01*
X28247Y15756D01*
X28265Y15728D01*
X28247Y15701D01*
X28238Y15656D01*
Y15603D01*
X28247Y15559D01*
X28265Y15532D01*
X28247Y15504D01*
X28238Y15460D01*
Y15407D01*
X28247Y15362D01*
X28265Y15335D01*
X28247Y15307D01*
X28238Y15263D01*
Y15210D01*
X28247Y15165D01*
X28265Y15138D01*
X28247Y15110D01*
X28238Y15066D01*
Y15013D01*
X28247Y14969D01*
X28265Y14941D01*
X28247Y14913D01*
X28238Y14869D01*
Y14816D01*
X28247Y14772D01*
X28265Y14744D01*
X28247Y14716D01*
X28238Y14672D01*
Y14619D01*
X28247Y14575D01*
X28265Y14547D01*
X28247Y14520D01*
X28238Y14475D01*
Y14422D01*
X28247Y14378D01*
X28265Y14350D01*
X28247Y14323D01*
X28238Y14279D01*
Y14225D01*
X28247Y14181D01*
X28265Y14154D01*
X28247Y14126D01*
X28238Y14082D01*
Y14029D01*
X28247Y13984D01*
X28265Y13957D01*
X28247Y13929D01*
X28238Y13885D01*
Y13832D01*
X28247Y13788D01*
X28265Y13760D01*
X28247Y13732D01*
X28238Y13688D01*
Y13635D01*
X28247Y13591D01*
X28257Y13575D01*
X28234Y13541D01*
X28229Y13515D01*
X28622D01*
Y13415D01*
X28622D01*
Y13415D01*
X28229D01*
X28234Y13389D01*
X28257Y13354D01*
X28247Y13338D01*
X28238Y13294D01*
Y13241D01*
X28247Y13197D01*
X28272Y13160D01*
X28309Y13135D01*
X28353Y13126D01*
X28736D01*
Y12693D01*
X28517Y12474D01*
X28488Y12431D01*
X28478Y12380D01*
X28478Y12380D01*
Y12260D01*
X28434Y12231D01*
X28380Y12150D01*
X28361Y12055D01*
X28380Y11960D01*
X28434Y11879D01*
X28515Y11825D01*
X28610Y11806D01*
X28705Y11825D01*
X28786Y11879D01*
X28840Y11960D01*
X28859Y12055D01*
X28840Y12150D01*
X28786Y12231D01*
X28743Y12260D01*
Y12325D01*
X28962Y12544D01*
X28990Y12587D01*
X29001Y12638D01*
Y13213D01*
X29006Y13241D01*
Y13294D01*
X28997Y13338D01*
X28987Y13354D01*
X29010Y13389D01*
X29013Y13402D01*
X29028Y13410D01*
X29067Y13419D01*
X29137Y13372D01*
X29232Y13353D01*
X29328Y13372D01*
X29408Y13426D01*
X29462Y13507D01*
X29479Y13591D01*
X29526Y13615D01*
X29791Y13350D01*
Y12795D01*
X29747Y12766D01*
X29693Y12685D01*
X29674Y12590D01*
X29693Y12494D01*
X29747Y12414D01*
X29828Y12360D01*
X29923Y12341D01*
X30018Y12360D01*
X30091Y12408D01*
X30122Y12396D01*
X30137Y12384D01*
X30125Y12323D01*
X30144Y12228D01*
X30198Y12147D01*
X30279Y12093D01*
X30374Y12074D01*
X30469Y12093D01*
X30550Y12147D01*
X30604Y12228D01*
X30623Y12323D01*
X30604Y12418D01*
X30550Y12499D01*
X30469Y12553D01*
X30445Y12557D01*
Y12621D01*
X30490Y12645D01*
X30505Y12634D01*
X30600Y12615D01*
X30696Y12634D01*
X30776Y12688D01*
X30818Y12751D01*
X30865Y12731D01*
X30863Y12722D01*
X30882Y12626D01*
X30936Y12546D01*
X31017Y12492D01*
X31055Y12484D01*
X31071Y12430D01*
X31036Y12394D01*
X30984Y12404D01*
X30889Y12385D01*
X30808Y12332D01*
X30754Y12251D01*
X30735Y12156D01*
X30754Y12060D01*
X30808Y11980D01*
X30889Y11926D01*
X30984Y11907D01*
X31079Y11926D01*
X31160Y11980D01*
X31214Y12060D01*
X31233Y12156D01*
X31223Y12207D01*
X31428Y12412D01*
X31474Y12392D01*
Y11079D01*
X29076Y8682D01*
X29030Y8701D01*
Y9952D01*
X29074Y9981D01*
X29128Y10062D01*
X29147Y10157D01*
X29128Y10253D01*
X29074Y10333D01*
X28993Y10387D01*
X28898Y10406D01*
X28802Y10387D01*
X28722Y10333D01*
X28668Y10253D01*
X28649Y10157D01*
X28668Y10062D01*
X28722Y9981D01*
X28765Y9952D01*
Y8689D01*
X28191Y8115D01*
X28150Y8133D01*
X28144Y8139D01*
Y9382D01*
X28188Y9411D01*
X28242Y9491D01*
X28261Y9587D01*
X28242Y9682D01*
X28188Y9763D01*
X28107Y9817D01*
X28012Y9835D01*
X27917Y9817D01*
X27836Y9763D01*
X27782Y9682D01*
X27763Y9587D01*
X27782Y9491D01*
X27836Y9411D01*
X27879Y9382D01*
Y8191D01*
X23729Y4040D01*
X13493D01*
X13466Y4090D01*
X13498Y4137D01*
X13517Y4232D01*
X13498Y4328D01*
X13444Y4408D01*
X13363Y4462D01*
X13268Y4481D01*
X13259Y4479D01*
X12610Y5129D01*
Y6463D01*
X12617Y6468D01*
X12671Y6548D01*
X12690Y6644D01*
X12671Y6739D01*
X12617Y6820D01*
X12536Y6874D01*
X12441Y6893D01*
X12346Y6874D01*
X12265Y6820D01*
X12211Y6739D01*
X12192Y6644D01*
X12211Y6548D01*
X12265Y6468D01*
X12272Y6463D01*
Y5059D01*
X12285Y4995D01*
X12322Y4940D01*
X13021Y4241D01*
X13019Y4232D01*
X13038Y4137D01*
X13069Y4090D01*
X13043Y4040D01*
X8244D01*
X8073Y4210D01*
X8084Y4262D01*
X8065Y4357D01*
X8011Y4438D01*
X7930Y4492D01*
X7835Y4511D01*
X7739Y4492D01*
X7659Y4438D01*
X7605Y4357D01*
X7586Y4262D01*
X7588Y4252D01*
X7543Y4222D01*
X7507Y4246D01*
X7411Y4265D01*
X7316Y4246D01*
X7235Y4192D01*
X7181Y4111D01*
X7163Y4016D01*
X7181Y3921D01*
X7235Y3840D01*
X7316Y3786D01*
X7411Y3767D01*
X7463Y3777D01*
X7701Y3539D01*
X7682Y3493D01*
X7433D01*
X6697Y4228D01*
Y5605D01*
X7220Y6127D01*
X8466D01*
X8495Y6084D01*
X8576Y6030D01*
X8671Y6011D01*
X8766Y6030D01*
X8847Y6084D01*
X8901Y6165D01*
X8920Y6260D01*
X8901Y6355D01*
X8847Y6436D01*
X8766Y6490D01*
X8671Y6509D01*
X8576Y6490D01*
X8495Y6436D01*
X8466Y6392D01*
X7165D01*
X7165Y6392D01*
X7115Y6382D01*
X7072Y6354D01*
X7072Y6354D01*
X6566Y5848D01*
X6520Y5867D01*
Y8488D01*
X7055Y9023D01*
X7106Y9013D01*
X7202Y9032D01*
X7282Y9086D01*
X7336Y9167D01*
X7355Y9262D01*
X7336Y9357D01*
X7282Y9438D01*
X7202Y9492D01*
X7106Y9511D01*
X7011Y9492D01*
X6930Y9438D01*
X6876Y9357D01*
X6857Y9262D01*
X6868Y9210D01*
X6294Y8637D01*
X6265Y8594D01*
X6255Y8543D01*
X6255Y8543D01*
Y4075D01*
X6255Y4075D01*
X6265Y4024D01*
X6294Y3981D01*
X7182Y3093D01*
X7182Y3093D01*
X7225Y3065D01*
X7276Y3055D01*
X24014D01*
X24014Y3055D01*
X24064Y3065D01*
X24107Y3093D01*
X31873Y10859D01*
X31873Y10859D01*
X31902Y10902D01*
X31912Y10953D01*
Y12523D01*
X31956Y12546D01*
X31972Y12536D01*
X32067Y12517D01*
X32162Y12536D01*
X32216Y12572D01*
X32266Y12545D01*
Y8522D01*
X32266Y8522D01*
X32276Y8471D01*
X32305Y8428D01*
X34440Y6292D01*
X34440Y6292D01*
X34483Y6263D01*
X34534Y6253D01*
X35601D01*
X35601Y6253D01*
X35652Y6263D01*
X35669Y6275D01*
X35923D01*
X35923Y6275D01*
X35974Y6285D01*
X36017Y6314D01*
X36017Y6314D01*
X36140Y6437D01*
X36228Y6426D01*
X36425D01*
X36525Y6439D01*
X36618Y6477D01*
X36698Y6539D01*
X36759Y6618D01*
X36797Y6711D01*
X36810Y6811D01*
X36797Y6911D01*
X36759Y7004D01*
X36698Y7083D01*
X36618Y7145D01*
X36525Y7183D01*
X36425Y7196D01*
X36228D01*
X36129Y7183D01*
X36036Y7145D01*
X35956Y7083D01*
X35895Y7004D01*
X35856Y6911D01*
X35852Y6878D01*
X35802D01*
X35797Y6911D01*
X35759Y7004D01*
X35698Y7083D01*
X35618Y7145D01*
X35525Y7183D01*
X35425Y7196D01*
X35228D01*
X35129Y7183D01*
X35036Y7145D01*
X34956Y7083D01*
X34895Y7004D01*
X34870Y6943D01*
X34409D01*
X34127Y7225D01*
X34148Y7275D01*
X34984D01*
X35001Y7263D01*
X35001Y7263D01*
X35002Y7263D01*
X35026Y7259D01*
X35052Y7253D01*
X35052Y7253D01*
X35052Y7253D01*
X35601D01*
X35601Y7253D01*
X35652Y7263D01*
X35695Y7292D01*
X35914Y7511D01*
X35952Y7536D01*
X35987Y7515D01*
X36036Y7477D01*
X36129Y7439D01*
X36228Y7426D01*
X36425D01*
X36525Y7439D01*
X36618Y7477D01*
X36698Y7539D01*
X36759Y7618D01*
X36797Y7711D01*
X36810Y7811D01*
X36797Y7911D01*
X36759Y8004D01*
X36698Y8083D01*
X36618Y8145D01*
X36525Y8183D01*
X36425Y8196D01*
X36228D01*
X36129Y8183D01*
X36036Y8145D01*
X35956Y8083D01*
X35895Y8004D01*
X35870Y7943D01*
X35850D01*
X35800Y7933D01*
X35786Y7938D01*
X35759Y8004D01*
X35698Y8083D01*
X35618Y8145D01*
X35525Y8183D01*
X35425Y8196D01*
X35228D01*
X35129Y8183D01*
X35036Y8145D01*
X34956Y8083D01*
X34895Y8004D01*
X34870Y7943D01*
X34159D01*
X33051Y9052D01*
Y9112D01*
X33097Y9131D01*
X33914Y8314D01*
X33914Y8314D01*
X33957Y8285D01*
X34007Y8275D01*
X34007Y8275D01*
X34984D01*
X35001Y8263D01*
X35001Y8263D01*
X35002Y8263D01*
X35026Y8259D01*
X35052Y8253D01*
X35052Y8253D01*
X35052Y8253D01*
X35601D01*
X35601Y8253D01*
X35652Y8263D01*
X35695Y8292D01*
X35914Y8511D01*
X35952Y8536D01*
X35987Y8515D01*
X36036Y8477D01*
X36129Y8439D01*
X36228Y8426D01*
X36425D01*
X36525Y8439D01*
X36618Y8477D01*
X36698Y8539D01*
X36759Y8618D01*
X36797Y8711D01*
X36810Y8811D01*
X36797Y8911D01*
X36759Y9004D01*
X36698Y9083D01*
X36618Y9145D01*
X36525Y9183D01*
X36425Y9196D01*
X36228D01*
X36129Y9183D01*
X36036Y9145D01*
X35956Y9083D01*
X35895Y9004D01*
X35870Y8943D01*
X35850D01*
X35800Y8933D01*
X35786Y8938D01*
X35759Y9004D01*
X35698Y9083D01*
X35618Y9145D01*
X35525Y9183D01*
X35425Y9196D01*
X35228D01*
X35129Y9183D01*
X35036Y9145D01*
X34956Y9083D01*
X34895Y9004D01*
X34870Y8943D01*
X34059D01*
X33397Y9605D01*
Y9715D01*
X33443Y9734D01*
X33914Y9264D01*
X33914Y9264D01*
X33957Y9235D01*
X34007Y9225D01*
X34058Y9235D01*
X34086Y9253D01*
X35601D01*
X35601Y9253D01*
X35652Y9263D01*
X35695Y9292D01*
X35914Y9511D01*
X35952Y9536D01*
X35987Y9515D01*
X36036Y9477D01*
X36129Y9439D01*
X36228Y9426D01*
X36425D01*
X36525Y9439D01*
X36618Y9477D01*
X36698Y9539D01*
X36759Y9618D01*
X36797Y9711D01*
X36810Y9811D01*
X36797Y9911D01*
X36759Y10004D01*
X36698Y10083D01*
X36618Y10145D01*
X36525Y10183D01*
X36425Y10196D01*
X36228D01*
X36129Y10183D01*
X36036Y10145D01*
X35956Y10083D01*
X35895Y10004D01*
X35870Y9943D01*
X35850D01*
X35800Y9933D01*
X35786Y9938D01*
X35759Y10004D01*
X35698Y10083D01*
X35643Y10125D01*
X35660Y10175D01*
X35823D01*
X35823Y10175D01*
X35874Y10185D01*
X35917Y10214D01*
X35917Y10214D01*
X36140Y10437D01*
X36228Y10426D01*
X36425D01*
X36525Y10439D01*
X36618Y10477D01*
X36698Y10539D01*
X36759Y10618D01*
X36797Y10711D01*
X36810Y10811D01*
X36797Y10911D01*
X36759Y11004D01*
X36698Y11083D01*
X36618Y11145D01*
X36525Y11183D01*
X36425Y11196D01*
X36228D01*
X36129Y11183D01*
X36036Y11145D01*
X35956Y11083D01*
X35895Y11004D01*
X35856Y10911D01*
X35852Y10878D01*
X35802D01*
X35797Y10911D01*
X35759Y11004D01*
X35698Y11083D01*
X35618Y11145D01*
X35544Y11175D01*
X35554Y11225D01*
X35873D01*
X35873Y11225D01*
X35924Y11235D01*
X35967Y11264D01*
X36140Y11437D01*
X36228Y11426D01*
X36425D01*
X36525Y11439D01*
X36618Y11477D01*
X36698Y11539D01*
X36759Y11618D01*
X36797Y11711D01*
X36810Y11811D01*
X36797Y11911D01*
X36759Y12004D01*
X36698Y12083D01*
X36618Y12145D01*
X36525Y12183D01*
X36425Y12196D01*
X36228D01*
X36129Y12183D01*
X36036Y12145D01*
X35956Y12083D01*
X35895Y12004D01*
X35856Y11911D01*
X35852Y11878D01*
X35802D01*
X35797Y11911D01*
X35759Y12004D01*
X35698Y12083D01*
X35618Y12145D01*
X35525Y12183D01*
X35425Y12196D01*
X35228D01*
X35129Y12183D01*
X35036Y12145D01*
X34956Y12083D01*
X34895Y12004D01*
X34870Y11943D01*
X34368D01*
X34339Y11987D01*
X34259Y12041D01*
X34163Y12060D01*
X34068Y12041D01*
X33987Y11987D01*
X33967Y11956D01*
X33917Y11971D01*
Y12636D01*
X33967Y12651D01*
X33978Y12635D01*
X34058Y12581D01*
X34154Y12562D01*
X34249Y12581D01*
X34330Y12635D01*
X34359Y12679D01*
X34870D01*
X34895Y12618D01*
X34956Y12539D01*
X35036Y12477D01*
X35129Y12439D01*
X35228Y12426D01*
X35425D01*
X35525Y12439D01*
X35618Y12477D01*
X35698Y12539D01*
X35759Y12618D01*
X35797Y12711D01*
X35802Y12744D01*
X35852D01*
X35856Y12711D01*
X35895Y12618D01*
X35956Y12539D01*
X36036Y12477D01*
X36129Y12439D01*
X36228Y12426D01*
X36425D01*
X36525Y12439D01*
X36618Y12477D01*
X36698Y12539D01*
X36759Y12618D01*
X36797Y12711D01*
X36810Y12811D01*
X36797Y12911D01*
X36759Y13004D01*
X36698Y13083D01*
X36618Y13145D01*
X36525Y13183D01*
X36425Y13196D01*
X36228D01*
X36129Y13183D01*
X36036Y13145D01*
X35956Y13083D01*
X35895Y13004D01*
X35856Y12911D01*
X35852Y12878D01*
X35802D01*
X35797Y12911D01*
X35759Y13004D01*
X35698Y13083D01*
X35618Y13145D01*
X35525Y13183D01*
X35425Y13196D01*
X35228D01*
X35129Y13183D01*
X35036Y13145D01*
X34956Y13083D01*
X34895Y13004D01*
X34870Y12943D01*
X34359D01*
X34330Y12987D01*
X34249Y13041D01*
X34154Y13060D01*
X34058Y13041D01*
X33978Y12987D01*
X33967Y12971D01*
X33917Y12986D01*
Y13463D01*
X33917Y13463D01*
X33907Y13514D01*
X33878Y13557D01*
X33878Y13557D01*
X30136Y17298D01*
X30136Y17298D01*
X30094Y17327D01*
X30082Y17329D01*
X30059Y17385D01*
X30072Y17405D01*
X30091Y17500D01*
X30072Y17595D01*
X30018Y17676D01*
X29958Y17717D01*
X29944Y17757D01*
X29949Y17778D01*
X29961Y17796D01*
X29968Y17831D01*
Y18144D01*
X29961Y18179D01*
X29941Y18209D01*
X29912Y18229D01*
X29877Y18236D01*
X29533D01*
X29501Y18229D01*
X29497Y18229D01*
X29445Y18254D01*
X29444Y18256D01*
X29390Y18337D01*
X29310Y18391D01*
X29214Y18410D01*
D02*
G37*
G36*
X26918Y12992D02*
X26893Y12986D01*
X26858Y12963D01*
X26842Y12974D01*
X26798Y12983D01*
X26745D01*
X26701Y12974D01*
X26673Y12955D01*
X26646Y12974D01*
X26601Y12983D01*
X26548D01*
X26504Y12974D01*
X26476Y12955D01*
X26476Y12955D01*
D01*
X26449Y12974D01*
X26405Y12983D01*
X26351D01*
X26307Y12974D01*
X26280Y12955D01*
X26252Y12974D01*
X26208Y12983D01*
X26155D01*
X26110Y12974D01*
X26083Y12955D01*
X26083Y12955D01*
D01*
X26055Y12974D01*
X26011Y12983D01*
X25958D01*
X25914Y12974D01*
X25886Y12955D01*
X25858Y12974D01*
X25814Y12983D01*
X25761D01*
X25717Y12974D01*
X25689Y12955D01*
X25689Y12955D01*
X25689Y12955D01*
X25661Y12974D01*
X25617Y12983D01*
X25564D01*
X25520Y12974D01*
X25492Y12955D01*
X25464Y12974D01*
X25420Y12983D01*
X25367D01*
X25323Y12974D01*
X25295Y12955D01*
X25295Y12955D01*
X25295Y12955D01*
X25268Y12974D01*
X25223Y12983D01*
X25170D01*
X25126Y12974D01*
X25110Y12963D01*
X25076Y12986D01*
X25050Y12992D01*
Y12598D01*
Y12598D01*
X24950D01*
Y12598D01*
Y12992D01*
X24924Y12986D01*
X24890Y12963D01*
X24874Y12974D01*
X24830Y12983D01*
X24777D01*
X24732Y12974D01*
X24705Y12955D01*
X24705Y12955D01*
X24705Y12955D01*
X24677Y12974D01*
X24633Y12983D01*
X24580D01*
X24536Y12974D01*
X24508Y12955D01*
X24480Y12974D01*
X24436Y12983D01*
X24383D01*
X24339Y12974D01*
X24311Y12955D01*
D01*
X24311Y12955D01*
X24283Y12974D01*
X24239Y12983D01*
X24186D01*
X24142Y12974D01*
X24114Y12955D01*
X24086Y12974D01*
X24042Y12983D01*
X23989D01*
X23945Y12974D01*
X23917Y12955D01*
D01*
X23917Y12955D01*
X23890Y12974D01*
X23845Y12983D01*
X23792D01*
X23748Y12974D01*
X23720Y12955D01*
X23693Y12974D01*
X23649Y12983D01*
X23595D01*
X23551Y12974D01*
X23524Y12955D01*
X23496Y12974D01*
X23452Y12983D01*
X23399D01*
X23354Y12974D01*
X23327Y12955D01*
X23299Y12974D01*
X23255Y12983D01*
X23202D01*
X23158Y12974D01*
X23120Y12949D01*
X23095Y12911D01*
X23086Y12867D01*
Y12807D01*
X23086D01*
Y12330D01*
X23095Y12286D01*
X23120Y12248D01*
X23158Y12223D01*
X23202Y12214D01*
X23255D01*
X23299Y12223D01*
X23327Y12242D01*
X23354Y12223D01*
X23399Y12214D01*
X23452D01*
X23496Y12223D01*
X23524Y12242D01*
X23551Y12223D01*
X23595Y12214D01*
X23649D01*
X23693Y12223D01*
X23720Y12242D01*
X23748Y12223D01*
X23792Y12214D01*
X23845D01*
X23890Y12223D01*
X23917Y12242D01*
X23945Y12223D01*
X23989Y12214D01*
X24042D01*
X24090Y12173D01*
Y12085D01*
X24046Y12056D01*
X23993Y11975D01*
X23974Y11880D01*
X23993Y11785D01*
X24046Y11704D01*
X24127Y11650D01*
X24222Y11631D01*
X24318Y11650D01*
X24398Y11704D01*
X24452Y11785D01*
X24471Y11880D01*
X24452Y11975D01*
X24398Y12056D01*
X24355Y12085D01*
Y12191D01*
X24383Y12214D01*
X24436D01*
X24480Y12223D01*
X24508Y12242D01*
X24536Y12223D01*
X24580Y12214D01*
X24633D01*
X24677Y12223D01*
X24705Y12242D01*
X24732Y12223D01*
X24777Y12214D01*
X24830D01*
X24874Y12223D01*
X24875Y12224D01*
X24918Y12204D01*
X24923Y12155D01*
X24893Y12135D01*
X24839Y12054D01*
X24820Y11959D01*
X24839Y11863D01*
X24893Y11783D01*
X24974Y11729D01*
X25069Y11710D01*
X25164Y11729D01*
X25211Y11760D01*
X25261Y11733D01*
Y11666D01*
X25125Y11530D01*
X24798D01*
X24748Y11520D01*
X24705Y11491D01*
X24333Y11119D01*
X24100D01*
X24065Y11112D01*
X24035Y11092D01*
X24015Y11063D01*
X24008Y11028D01*
Y10714D01*
X24015Y10679D01*
X24035Y10649D01*
X24065Y10629D01*
X24100Y10622D01*
X24443D01*
X24478Y10629D01*
X24508Y10649D01*
X24528Y10679D01*
X24535Y10714D01*
Y10738D01*
X24744D01*
Y10713D01*
X24751Y10678D01*
X24772Y10648D01*
X24802Y10627D01*
X24837Y10620D01*
X25300D01*
X25336Y10627D01*
X25366Y10648D01*
X25411Y10625D01*
X25426Y10615D01*
X25467Y10607D01*
X25649D01*
Y10984D01*
X25699D01*
Y11034D01*
X26037D01*
Y11052D01*
X26087Y11076D01*
X26106Y11062D01*
Y10421D01*
X26065Y10393D01*
X26020Y10408D01*
X26016Y10425D01*
X25996Y10455D01*
X25966Y10475D01*
X25930Y10482D01*
X25467D01*
X25432Y10475D01*
X25401Y10455D01*
X25356Y10477D01*
X25341Y10488D01*
X25300Y10496D01*
X25119D01*
Y10118D01*
Y9740D01*
X25300D01*
X25341Y9749D01*
X25356Y9759D01*
X25401Y9781D01*
X25432Y9761D01*
X25467Y9754D01*
X25930D01*
X25966Y9761D01*
X25996Y9781D01*
X26016Y9812D01*
X26023Y9847D01*
Y9905D01*
X26073Y9921D01*
X26103Y9901D01*
X26138Y9894D01*
X26451D01*
X26486Y9901D01*
X26516Y9921D01*
X26536Y9951D01*
X26543Y9986D01*
Y10329D01*
X26536Y10364D01*
X26516Y10394D01*
X26486Y10414D01*
X26451Y10421D01*
X26371D01*
Y10512D01*
X26417Y10540D01*
X26421Y10540D01*
X26453Y10534D01*
X26766D01*
X26801Y10541D01*
X26831Y10561D01*
X26851Y10590D01*
X26858Y10625D01*
Y10969D01*
X26851Y11004D01*
X26831Y11034D01*
X26801Y11054D01*
X26774Y11059D01*
X26761Y11083D01*
X26756Y11111D01*
X26805Y11184D01*
X26824Y11280D01*
X26813Y11335D01*
X26858Y11365D01*
X26903Y11335D01*
X26998Y11316D01*
X27093Y11335D01*
X27174Y11389D01*
X27228Y11470D01*
X27234Y11498D01*
X27266Y11509D01*
X27287Y11510D01*
X27356Y11441D01*
X27340Y11357D01*
X27359Y11262D01*
X27413Y11181D01*
X27493Y11127D01*
X27589Y11108D01*
X27684Y11127D01*
X27765Y11181D01*
X27819Y11262D01*
X27837Y11357D01*
X27819Y11453D01*
X27765Y11533D01*
X27684Y11587D01*
X27589Y11606D01*
X27569Y11602D01*
X27508Y11663D01*
Y11954D01*
X27555Y11973D01*
X27958Y11570D01*
X27958Y11570D01*
X28519Y11009D01*
X28519Y11009D01*
X28562Y10980D01*
X28613Y10970D01*
X28613Y10970D01*
X29664D01*
X29667Y10966D01*
X29747Y10912D01*
X29843Y10893D01*
X29938Y10912D01*
X30018Y10966D01*
X30072Y11046D01*
X30091Y11142D01*
X30072Y11237D01*
X30018Y11318D01*
X29938Y11372D01*
X29843Y11391D01*
X29747Y11372D01*
X29667Y11318D01*
X29613Y11237D01*
X29612Y11235D01*
X29552D01*
X29529Y11279D01*
X29539Y11295D01*
X29558Y11390D01*
X29539Y11485D01*
X29485Y11566D01*
X29404Y11620D01*
X29309Y11639D01*
X29214Y11620D01*
X29133Y11566D01*
X29104Y11522D01*
X28625D01*
X28056Y12092D01*
X28056Y12092D01*
X28056Y12092D01*
X27981Y12167D01*
X28000Y12218D01*
X28024Y12223D01*
X28061Y12248D01*
X28086Y12286D01*
X28095Y12330D01*
Y12807D01*
X28095D01*
Y12867D01*
X28086Y12911D01*
X28061Y12949D01*
X28024Y12974D01*
X27979Y12983D01*
X27926D01*
X27882Y12974D01*
X27854Y12955D01*
X27827Y12974D01*
X27782Y12983D01*
X27729D01*
X27685Y12974D01*
X27657Y12955D01*
X27630Y12974D01*
X27586Y12983D01*
X27532D01*
X27488Y12974D01*
X27461Y12955D01*
X27433Y12974D01*
X27389Y12983D01*
X27336D01*
X27291Y12974D01*
X27264Y12955D01*
X27236Y12974D01*
X27192Y12983D01*
X27139D01*
X27095Y12974D01*
X27079Y12963D01*
X27044Y12986D01*
X27018Y12992D01*
Y12598D01*
X27018D01*
Y12598D01*
X26918D01*
Y12992D01*
D02*
G37*
G36*
X27366Y11074D02*
X27259D01*
Y10847D01*
X27471D01*
Y10969D01*
X27463Y11009D01*
X27441Y11043D01*
X27407Y11066D01*
X27366Y11074D01*
D02*
G37*
G36*
X22952Y13415D02*
X22166D01*
X22167Y13409D01*
X22154Y13390D01*
X22111Y13361D01*
X22082Y13318D01*
X22072Y13268D01*
Y12657D01*
X22072Y12657D01*
X22082Y12607D01*
X22111Y12564D01*
X22202Y12473D01*
X22192Y12421D01*
X22211Y12326D01*
X22265Y12245D01*
X22346Y12191D01*
X22441Y12172D01*
X22536Y12191D01*
X22617Y12245D01*
X22671Y12326D01*
X22690Y12421D01*
X22671Y12516D01*
X22617Y12597D01*
X22536Y12651D01*
X22441Y12670D01*
X22390Y12660D01*
X22337Y12712D01*
Y13126D01*
X22828D01*
X22872Y13135D01*
X22909Y13160D01*
X22934Y13197D01*
X22943Y13241D01*
Y13294D01*
X22934Y13338D01*
X22924Y13354D01*
X22947Y13389D01*
X22952Y13415D01*
D02*
G37*
G36*
X36425Y14196D02*
X36228D01*
X36129Y14183D01*
X36036Y14145D01*
X35956Y14083D01*
X35895Y14004D01*
X35856Y13911D01*
X35852Y13878D01*
X35802D01*
X35797Y13911D01*
X35759Y14004D01*
X35698Y14083D01*
X35618Y14145D01*
X35525Y14183D01*
X35425Y14196D01*
X35228D01*
X35129Y14183D01*
X35036Y14145D01*
X34956Y14083D01*
X34895Y14004D01*
X34856Y13911D01*
X34843Y13811D01*
X34856Y13711D01*
X34895Y13618D01*
X34956Y13539D01*
X35036Y13477D01*
X35129Y13439D01*
X35228Y13426D01*
X35425D01*
X35525Y13439D01*
X35618Y13477D01*
X35698Y13539D01*
X35759Y13618D01*
X35797Y13711D01*
X35802Y13744D01*
X35852D01*
X35856Y13711D01*
X35895Y13618D01*
X35956Y13539D01*
X36036Y13477D01*
X36129Y13439D01*
X36228Y13426D01*
X36425D01*
X36525Y13439D01*
X36618Y13477D01*
X36698Y13539D01*
X36759Y13618D01*
X36797Y13711D01*
X36810Y13811D01*
X36797Y13911D01*
X36759Y14004D01*
X36698Y14083D01*
X36618Y14145D01*
X36525Y14183D01*
X36425Y14196D01*
D02*
G37*
G36*
X7492Y19035D02*
X7280D01*
Y18808D01*
X7386D01*
X7427Y18816D01*
X7461Y18838D01*
X7484Y18873D01*
X7492Y18913D01*
Y19035D01*
D02*
G37*
G36*
X11495Y19145D02*
X11250D01*
X11209Y19137D01*
X11175Y19114D01*
X11151Y19079D01*
X11143Y19038D01*
Y18853D01*
X11495D01*
Y19145D01*
D02*
G37*
G36*
X11899Y21468D02*
X11851D01*
Y20866D01*
Y20264D01*
X11899D01*
X11934Y20271D01*
X11944Y20269D01*
X11984Y20242D01*
Y20163D01*
X11752Y19931D01*
X11250D01*
X11214Y19924D01*
X11184Y19904D01*
X11164Y19874D01*
X11157Y19838D01*
Y19368D01*
X11164Y19332D01*
X11184Y19302D01*
X11214Y19281D01*
X11250Y19274D01*
X11840D01*
X11876Y19281D01*
X11906Y19302D01*
X11927Y19332D01*
X11934Y19368D01*
Y19738D01*
X12210Y20014D01*
X12210Y20014D01*
X12238Y20057D01*
X12248Y20108D01*
Y20200D01*
X12274Y20215D01*
X12299Y20200D01*
Y19957D01*
X12299Y19957D01*
X12309Y19906D01*
X12337Y19864D01*
X12397Y19804D01*
Y19368D01*
X12404Y19332D01*
X12424Y19302D01*
X12455Y19281D01*
X12490Y19274D01*
X13081D01*
X13116Y19281D01*
X13147Y19302D01*
X13167Y19332D01*
X13174Y19368D01*
Y19470D01*
X13753D01*
X14009Y19215D01*
Y18893D01*
X14016Y18858D01*
X14036Y18828D01*
X14065Y18809D01*
X14100Y18802D01*
X14414D01*
X14449Y18809D01*
X14479Y18828D01*
X14498Y18858D01*
X14505Y18893D01*
Y19237D01*
X14498Y19272D01*
X14479Y19302D01*
X14449Y19321D01*
X14414Y19328D01*
X14270D01*
X14067Y19531D01*
X14075Y19558D01*
X14090Y19579D01*
X14394D01*
X14429Y19586D01*
X14459Y19606D01*
X14479Y19636D01*
X14486Y19671D01*
Y20014D01*
X14479Y20049D01*
X14459Y20079D01*
X14429Y20099D01*
X14394Y20106D01*
X14081D01*
X14046Y20099D01*
X14016Y20079D01*
X13996Y20049D01*
X13989Y20014D01*
Y19975D01*
X13598D01*
X13583Y20025D01*
X13591Y20031D01*
X13645Y20111D01*
X13664Y20207D01*
X13645Y20302D01*
X13591Y20383D01*
X13511Y20437D01*
X13415Y20456D01*
X13383Y20449D01*
X13249Y20583D01*
Y21364D01*
X13242Y21399D01*
X13223Y21428D01*
X13194Y21448D01*
X13159Y21454D01*
X12963D01*
X12928Y21448D01*
X12904Y21431D01*
X12879Y21448D01*
X12844Y21454D01*
X12648D01*
X12613Y21448D01*
X12589Y21431D01*
X12564Y21448D01*
X12529Y21454D01*
X12333D01*
X12298Y21448D01*
X12274Y21431D01*
X12249Y21448D01*
X12214Y21454D01*
X12018D01*
X11983Y21448D01*
X11971Y21439D01*
X11939Y21460D01*
X11899Y21468D01*
D02*
G37*
G36*
X7180Y19035D02*
X6968D01*
Y18913D01*
X6976Y18873D01*
X6998Y18838D01*
X7032Y18816D01*
X7073Y18808D01*
X7180D01*
Y19035D01*
D02*
G37*
G36*
X11840Y19145D02*
X11595D01*
Y18853D01*
X11947D01*
Y19038D01*
X11939Y19079D01*
X11916Y19114D01*
X11881Y19137D01*
X11840Y19145D01*
D02*
G37*
G36*
X2746Y2985D02*
X1860D01*
X1769Y2967D01*
X1691Y2915D01*
X1640Y2837D01*
X1621Y2746D01*
Y1860D01*
X1640Y1769D01*
X1691Y1691D01*
X1769Y1640D01*
X1860Y1621D01*
X2746D01*
X2837Y1640D01*
X2915Y1691D01*
X2967Y1769D01*
X2985Y1860D01*
Y2746D01*
X2967Y2837D01*
X2915Y2915D01*
X2837Y2967D01*
X2746Y2985D01*
D02*
G37*
G36*
X3556Y19409D02*
X3264D01*
Y19163D01*
X3272Y19123D01*
X3295Y19088D01*
X3330Y19065D01*
X3371Y19057D01*
X3556D01*
Y19409D01*
D02*
G37*
G36*
X14744Y2985D02*
X13858D01*
X13767Y2967D01*
X13689Y2915D01*
X13638Y2837D01*
X13619Y2746D01*
Y1860D01*
X13638Y1769D01*
X13689Y1691D01*
X13767Y1640D01*
X13858Y1621D01*
X14744D01*
X14835Y1640D01*
X14913Y1691D01*
X14965Y1769D01*
X14983Y1860D01*
Y2746D01*
X14965Y2837D01*
X14913Y2915D01*
X14835Y2967D01*
X14744Y2985D01*
D02*
G37*
G36*
X9444Y20152D02*
X8974D01*
X8938Y20145D01*
X8908Y20125D01*
X8888Y20095D01*
X8881Y20059D01*
Y19469D01*
X8888Y19433D01*
X8908Y19403D01*
X8909Y19402D01*
X8894Y19352D01*
X8854D01*
X8814Y19344D01*
X8779Y19321D01*
X8757Y19287D01*
X8749Y19247D01*
Y19125D01*
X9273D01*
Y19247D01*
X9265Y19287D01*
X9242Y19321D01*
X9235Y19325D01*
X9250Y19375D01*
X9444D01*
X9480Y19382D01*
X9510Y19403D01*
X9530Y19433D01*
X9537Y19469D01*
Y19615D01*
X9633D01*
X9848Y19400D01*
X9800Y19328D01*
X9781Y19232D01*
X9800Y19137D01*
X9854Y19056D01*
X9934Y19002D01*
X10030Y18983D01*
X10125Y19002D01*
X10206Y19056D01*
X10259Y19137D01*
X10278Y19232D01*
X10259Y19328D01*
X10206Y19408D01*
X10178Y19427D01*
Y19429D01*
X10167Y19486D01*
X10135Y19534D01*
X9800Y19869D01*
X9752Y19901D01*
X9695Y19912D01*
X9695Y19912D01*
X9537D01*
Y20059D01*
X9530Y20095D01*
X9510Y20125D01*
X9480Y20145D01*
X9444Y20152D01*
D02*
G37*
G36*
X11495Y18753D02*
X11143D01*
Y18568D01*
X11151Y18527D01*
X11175Y18492D01*
X11209Y18469D01*
X11250Y18461D01*
X11495D01*
Y18753D01*
D02*
G37*
G36*
X36425Y15196D02*
X36228D01*
X36129Y15183D01*
X36036Y15145D01*
X35956Y15083D01*
X35895Y15004D01*
X35856Y14911D01*
X35852Y14878D01*
X35802D01*
X35797Y14911D01*
X35759Y15004D01*
X35698Y15083D01*
X35618Y15145D01*
X35525Y15183D01*
X35425Y15196D01*
X35228D01*
X35129Y15183D01*
X35036Y15145D01*
X34956Y15083D01*
X34895Y15004D01*
X34856Y14911D01*
X34843Y14811D01*
X34856Y14711D01*
X34895Y14618D01*
X34956Y14539D01*
X35036Y14477D01*
X35129Y14439D01*
X35228Y14426D01*
X35425D01*
X35525Y14439D01*
X35618Y14477D01*
X35698Y14539D01*
X35759Y14618D01*
X35797Y14711D01*
X35802Y14744D01*
X35852D01*
X35856Y14711D01*
X35895Y14618D01*
X35956Y14539D01*
X36036Y14477D01*
X36129Y14439D01*
X36228Y14426D01*
X36425D01*
X36525Y14439D01*
X36618Y14477D01*
X36698Y14539D01*
X36759Y14618D01*
X36797Y14711D01*
X36810Y14811D01*
X36797Y14911D01*
X36759Y15004D01*
X36698Y15083D01*
X36618Y15145D01*
X36525Y15183D01*
X36425Y15196D01*
D02*
G37*
G36*
X7747Y15773D02*
Y15325D01*
Y14877D01*
X7763Y14880D01*
X7819Y14918D01*
X7871Y14907D01*
X7892Y14893D01*
X7953Y14881D01*
X8013Y14893D01*
X8045Y14914D01*
X8081Y14923D01*
X8116Y14914D01*
X8148Y14893D01*
X8209Y14881D01*
X8269Y14893D01*
X8301Y14914D01*
X8337Y14923D01*
X8372Y14914D01*
X8404Y14893D01*
X8465Y14881D01*
X8525Y14893D01*
X8577Y14927D01*
X8611Y14979D01*
X8623Y15039D01*
Y15610D01*
X8611Y15671D01*
X8577Y15722D01*
X8525Y15757D01*
X8465Y15769D01*
X8404Y15757D01*
X8372Y15735D01*
X8337Y15726D01*
X8301Y15735D01*
X8269Y15757D01*
X8209Y15769D01*
X8148Y15757D01*
X8116Y15735D01*
X8081Y15726D01*
X8045Y15735D01*
X8013Y15757D01*
X7953Y15769D01*
X7892Y15757D01*
X7871Y15743D01*
X7819Y15732D01*
X7763Y15769D01*
X7747Y15773D01*
D02*
G37*
G36*
X22559Y14399D02*
X22150D01*
X22127Y14361D01*
X22084Y14332D01*
X22084Y14332D01*
X21936Y14184D01*
X16575D01*
X16575Y14184D01*
X16524Y14174D01*
X16516Y14168D01*
X16427D01*
X16427Y14168D01*
X16376Y14158D01*
X16334Y14129D01*
X16333Y14129D01*
X15858Y13654D01*
X15858Y13654D01*
X15829Y13611D01*
X15819Y13560D01*
X15819Y13560D01*
Y10793D01*
X15506Y10479D01*
X15506Y10479D01*
X15241Y10215D01*
X15241Y10215D01*
X15212Y10172D01*
X15212Y10172D01*
X15208Y10153D01*
X15202Y10121D01*
X15202Y10121D01*
Y6888D01*
X15159Y6859D01*
X15105Y6778D01*
X15086Y6683D01*
X15105Y6588D01*
X15159Y6507D01*
X15239Y6453D01*
X15335Y6434D01*
X15430Y6453D01*
X15511Y6507D01*
X15565Y6588D01*
X15584Y6683D01*
X15565Y6778D01*
X15511Y6859D01*
X15467Y6888D01*
Y9414D01*
X15517Y9429D01*
X15523Y9420D01*
X15604Y9367D01*
X15676Y9352D01*
X16750Y8278D01*
Y5030D01*
X16750Y5030D01*
X16765Y4957D01*
X16806Y4896D01*
X17201Y4500D01*
X17191Y4485D01*
X17172Y4390D01*
X17191Y4295D01*
X17245Y4214D01*
X17326Y4160D01*
X17421Y4141D01*
X17516Y4160D01*
X17597Y4214D01*
X17651Y4295D01*
X17670Y4390D01*
X17651Y4485D01*
X17610Y4547D01*
Y4547D01*
X17610Y4547D01*
X17596Y4619D01*
X17555Y4681D01*
X17128Y5108D01*
Y8356D01*
X17128Y8356D01*
X17113Y8429D01*
X17072Y8490D01*
X15943Y9619D01*
X15929Y9692D01*
X15875Y9772D01*
X15822Y9808D01*
X15822Y9868D01*
X15876Y9904D01*
X15930Y9984D01*
X15949Y10080D01*
X15937Y10139D01*
X16219Y10421D01*
X16219Y10421D01*
X16247Y10464D01*
X16257Y10515D01*
Y13301D01*
X16701Y13745D01*
X17774D01*
X17798Y13701D01*
X17782Y13678D01*
X17763Y13583D01*
X17770Y13546D01*
X17734Y13507D01*
X17683Y13512D01*
X17656Y13552D01*
X17576Y13606D01*
X17480Y13625D01*
X17385Y13606D01*
X17304Y13552D01*
X17250Y13471D01*
X17231Y13376D01*
X17250Y13281D01*
X17304Y13200D01*
X17348Y13171D01*
Y6820D01*
X17277Y6772D01*
X17223Y6692D01*
X17204Y6596D01*
X17223Y6501D01*
X17277Y6420D01*
X17358Y6367D01*
X17453Y6348D01*
X17548Y6367D01*
X17629Y6420D01*
X17683Y6501D01*
X17702Y6596D01*
X17683Y6692D01*
X17629Y6772D01*
X17613Y6783D01*
Y9865D01*
X17657Y9889D01*
X17690Y9867D01*
X17785Y9848D01*
X17881Y9867D01*
X17961Y9920D01*
X18015Y10001D01*
X18034Y10096D01*
X18015Y10192D01*
X17961Y10272D01*
X17918Y10302D01*
Y13301D01*
X17960Y13344D01*
X18012Y13334D01*
X18107Y13353D01*
X18188Y13407D01*
X18242Y13487D01*
X18261Y13583D01*
X18242Y13678D01*
X18226Y13701D01*
X18250Y13745D01*
X22062D01*
X22062Y13745D01*
X22113Y13756D01*
X22113Y13756D01*
X22171Y13738D01*
X22181Y13717D01*
X22175Y13688D01*
Y13635D01*
X22184Y13591D01*
X22194Y13575D01*
X22171Y13541D01*
X22166Y13515D01*
X22559D01*
Y13515D01*
X22952D01*
X22947Y13541D01*
X22924Y13575D01*
X22934Y13591D01*
X22943Y13635D01*
Y13688D01*
X22934Y13732D01*
X22916Y13760D01*
X22934Y13788D01*
X22943Y13832D01*
Y13885D01*
X22934Y13929D01*
X22916Y13957D01*
D01*
X22916Y13957D01*
X22934Y13984D01*
X22943Y14029D01*
Y14082D01*
X22934Y14126D01*
X22916Y14154D01*
X22934Y14181D01*
X22943Y14225D01*
Y14279D01*
X22934Y14323D01*
X22924Y14338D01*
Y14338D01*
X22924Y14338D01*
X22947Y14373D01*
X22952Y14399D01*
X22559D01*
Y14399D01*
D02*
G37*
G36*
X16299Y14954D02*
X16204Y14935D01*
X16123Y14881D01*
X16094Y14837D01*
X11102D01*
X11052Y14827D01*
X11009Y14798D01*
X6114Y9904D01*
X6112Y9904D01*
X6017Y9885D01*
X5936Y9831D01*
X5882Y9751D01*
X5863Y9656D01*
X5882Y9560D01*
X5936Y9480D01*
X6017Y9426D01*
X6112Y9407D01*
X6207Y9426D01*
X6288Y9480D01*
X6342Y9560D01*
X6361Y9656D01*
X6342Y9751D01*
X6340Y9755D01*
X11157Y14572D01*
X16094D01*
X16123Y14529D01*
X16204Y14475D01*
X16299Y14456D01*
X16394Y14475D01*
X16475Y14529D01*
X16529Y14609D01*
X16548Y14705D01*
X16529Y14800D01*
X16475Y14881D01*
X16394Y14935D01*
X16299Y14954D01*
D02*
G37*
G36*
X10303Y2984D02*
X10170Y2971D01*
X10043Y2932D01*
X9925Y2869D01*
X9822Y2784D01*
X9737Y2681D01*
X9674Y2564D01*
X9636Y2436D01*
X9623Y2303D01*
X9636Y2170D01*
X9674Y2043D01*
X9737Y1925D01*
X9822Y1822D01*
X9925Y1737D01*
X10043Y1674D01*
X10170Y1636D01*
X10303Y1623D01*
X10436Y1636D01*
X10564Y1674D01*
X10681Y1737D01*
X10784Y1822D01*
X10869Y1925D01*
X10932Y2043D01*
X10971Y2170D01*
X10984Y2303D01*
X10971Y2436D01*
X10932Y2564D01*
X10869Y2681D01*
X10784Y2784D01*
X10681Y2869D01*
X10564Y2932D01*
X10436Y2971D01*
X10303Y2984D01*
D02*
G37*
G36*
X4303D02*
X4170Y2971D01*
X4043Y2932D01*
X3925Y2869D01*
X3822Y2784D01*
X3737Y2681D01*
X3674Y2564D01*
X3636Y2436D01*
X3623Y2303D01*
X3636Y2170D01*
X3674Y2043D01*
X3737Y1925D01*
X3822Y1822D01*
X3925Y1737D01*
X4043Y1674D01*
X4170Y1636D01*
X4303Y1623D01*
X4436Y1636D01*
X4564Y1674D01*
X4681Y1737D01*
X4784Y1822D01*
X4869Y1925D01*
X4932Y2043D01*
X4971Y2170D01*
X4984Y2303D01*
X4971Y2436D01*
X4932Y2564D01*
X4869Y2681D01*
X4784Y2784D01*
X4681Y2869D01*
X4564Y2932D01*
X4436Y2971D01*
X4303Y2984D01*
D02*
G37*
G36*
X29655Y18537D02*
X29428D01*
Y18431D01*
X29436Y18390D01*
X29459Y18356D01*
X29493Y18333D01*
X29533Y18325D01*
X29655D01*
Y18537D01*
D02*
G37*
G36*
X8303Y2984D02*
X8170Y2971D01*
X8043Y2932D01*
X7925Y2869D01*
X7822Y2784D01*
X7737Y2681D01*
X7674Y2564D01*
X7636Y2436D01*
X7623Y2303D01*
X7636Y2170D01*
X7674Y2043D01*
X7737Y1925D01*
X7822Y1822D01*
X7925Y1737D01*
X8043Y1674D01*
X8170Y1636D01*
X8303Y1623D01*
X8436Y1636D01*
X8564Y1674D01*
X8681Y1737D01*
X8784Y1822D01*
X8869Y1925D01*
X8932Y2043D01*
X8971Y2170D01*
X8984Y2303D01*
X8971Y2436D01*
X8932Y2564D01*
X8869Y2681D01*
X8784Y2784D01*
X8681Y2869D01*
X8564Y2932D01*
X8436Y2971D01*
X8303Y2984D01*
D02*
G37*
G36*
X6303D02*
X6170Y2971D01*
X6043Y2932D01*
X5925Y2869D01*
X5822Y2784D01*
X5737Y2681D01*
X5674Y2564D01*
X5636Y2436D01*
X5623Y2303D01*
X5636Y2170D01*
X5674Y2043D01*
X5737Y1925D01*
X5822Y1822D01*
X5925Y1737D01*
X6043Y1674D01*
X6170Y1636D01*
X6303Y1623D01*
X6436Y1636D01*
X6564Y1674D01*
X6681Y1737D01*
X6784Y1822D01*
X6869Y1925D01*
X6932Y2043D01*
X6971Y2170D01*
X6984Y2303D01*
X6971Y2436D01*
X6932Y2564D01*
X6869Y2681D01*
X6784Y2784D01*
X6681Y2869D01*
X6564Y2932D01*
X6436Y2971D01*
X6303Y2984D01*
D02*
G37*
G36*
X35277Y4210D02*
X35007D01*
X34939Y4196D01*
X34882Y4158D01*
X34843Y4100D01*
X34830Y4032D01*
Y3861D01*
X35277D01*
Y4210D01*
D02*
G37*
G36*
X8799Y5672D02*
X8704Y5653D01*
X8623Y5599D01*
X8569Y5518D01*
X8550Y5423D01*
X8569Y5328D01*
X8611Y5266D01*
Y4507D01*
X8569Y4446D01*
X8550Y4350D01*
X8569Y4255D01*
X8623Y4174D01*
X8704Y4120D01*
X8799Y4102D01*
X8894Y4120D01*
X8975Y4174D01*
X9029Y4255D01*
X9048Y4350D01*
X9029Y4446D01*
X8988Y4507D01*
Y5266D01*
X9029Y5328D01*
X9048Y5423D01*
X9029Y5518D01*
X8975Y5599D01*
X8894Y5653D01*
X8799Y5672D01*
D02*
G37*
G36*
X35647Y4210D02*
X35377D01*
Y3811D01*
Y3412D01*
X35647D01*
X35714Y3426D01*
X35772Y3464D01*
X35810Y3522D01*
X35824Y3590D01*
Y3659D01*
X35874Y3669D01*
X35895Y3618D01*
X35956Y3539D01*
X36036Y3477D01*
X36129Y3439D01*
X36228Y3426D01*
X36425D01*
X36525Y3439D01*
X36618Y3477D01*
X36698Y3539D01*
X36759Y3618D01*
X36797Y3711D01*
X36810Y3811D01*
X36797Y3911D01*
X36759Y4004D01*
X36698Y4083D01*
X36618Y4145D01*
X36525Y4183D01*
X36425Y4196D01*
X36228D01*
X36129Y4183D01*
X36036Y4145D01*
X35956Y4083D01*
X35895Y4004D01*
X35874Y3953D01*
X35824Y3963D01*
Y4032D01*
X35810Y4100D01*
X35772Y4158D01*
X35714Y4196D01*
X35647Y4210D01*
D02*
G37*
G36*
X18301Y2984D02*
X18168Y2971D01*
X18041Y2932D01*
X17923Y2869D01*
X17820Y2784D01*
X17735Y2681D01*
X17673Y2564D01*
X17634Y2436D01*
X17621Y2303D01*
X17634Y2170D01*
X17673Y2043D01*
X17735Y1925D01*
X17820Y1822D01*
X17923Y1737D01*
X18041Y1675D01*
X18168Y1636D01*
X18301Y1623D01*
X18434Y1636D01*
X18562Y1675D01*
X18679Y1737D01*
X18782Y1822D01*
X18867Y1925D01*
X18930Y2043D01*
X18969Y2170D01*
X18982Y2303D01*
X18969Y2436D01*
X18930Y2564D01*
X18867Y2681D01*
X18782Y2784D01*
X18679Y2869D01*
X18562Y2932D01*
X18434Y2971D01*
X18301Y2984D01*
D02*
G37*
G36*
X9173Y9767D02*
X9078Y9748D01*
X8997Y9694D01*
X8943Y9613D01*
X8924Y9518D01*
X8943Y9422D01*
X8997Y9342D01*
X9078Y9288D01*
X9151Y9273D01*
X9378Y9046D01*
Y4507D01*
X9337Y4446D01*
X9318Y4350D01*
X9337Y4255D01*
X9391Y4174D01*
X9472Y4120D01*
X9567Y4102D01*
X9662Y4120D01*
X9743Y4174D01*
X9797Y4255D01*
X9816Y4350D01*
X9797Y4446D01*
X9756Y4507D01*
Y9124D01*
X9756Y9124D01*
X9741Y9196D01*
X9700Y9257D01*
X9418Y9540D01*
X9403Y9613D01*
X9349Y9694D01*
X9268Y9748D01*
X9173Y9767D01*
D02*
G37*
G36*
X21486Y6696D02*
X21391Y6677D01*
X21310Y6623D01*
X21256Y6542D01*
X21237Y6447D01*
X21256Y6352D01*
X21288Y6305D01*
Y4616D01*
X21246Y4554D01*
X21228Y4459D01*
X21246Y4363D01*
X21300Y4283D01*
X21381Y4229D01*
X21476Y4210D01*
X21572Y4229D01*
X21652Y4283D01*
X21706Y4363D01*
X21725Y4459D01*
X21706Y4554D01*
X21665Y4616D01*
Y6275D01*
X21716Y6352D01*
X21735Y6447D01*
X21716Y6542D01*
X21662Y6623D01*
X21581Y6677D01*
X21486Y6696D01*
D02*
G37*
G36*
X30098Y4922D02*
X30001Y4912D01*
X29859Y4869D01*
X29729Y4800D01*
X29615Y4706D01*
X29521Y4592D01*
X29452Y4461D01*
X29409Y4320D01*
X29399Y4223D01*
X30098D01*
Y4922D01*
D02*
G37*
G36*
X10177Y9767D02*
X10082Y9748D01*
X10001Y9694D01*
X9947Y9613D01*
X9928Y9518D01*
X9947Y9422D01*
X9988Y9361D01*
Y4833D01*
X9988Y4833D01*
X10003Y4760D01*
X10044Y4699D01*
X10386Y4358D01*
X10400Y4285D01*
X10454Y4204D01*
X10535Y4150D01*
X10630Y4131D01*
X10725Y4150D01*
X10806Y4204D01*
X10860Y4285D01*
X10879Y4380D01*
X10860Y4475D01*
X10806Y4556D01*
X10725Y4610D01*
X10652Y4624D01*
X10366Y4911D01*
Y9361D01*
X10407Y9422D01*
X10426Y9518D01*
X10407Y9613D01*
X10353Y9694D01*
X10272Y9748D01*
X10177Y9767D01*
D02*
G37*
G36*
X19734Y9619D02*
X19639Y9600D01*
X19558Y9546D01*
X19504Y9465D01*
X19485Y9370D01*
X19504Y9275D01*
X19546Y9213D01*
Y4734D01*
X19546Y4734D01*
X19560Y4662D01*
X19601Y4601D01*
X19740Y4462D01*
X19731Y4419D01*
X19750Y4324D01*
X19804Y4243D01*
X19885Y4189D01*
X19980Y4170D01*
X20076Y4189D01*
X20156Y4243D01*
X20210Y4324D01*
X20229Y4419D01*
X20210Y4515D01*
X20156Y4595D01*
X20107Y4628D01*
X19923Y4812D01*
Y9213D01*
X19964Y9275D01*
X19983Y9370D01*
X19964Y9465D01*
X19910Y9546D01*
X19829Y9600D01*
X19734Y9619D01*
D02*
G37*
G36*
X30896Y4123D02*
X30198D01*
Y3425D01*
X30295Y3434D01*
X30436Y3477D01*
X30566Y3547D01*
X30680Y3641D01*
X30774Y3755D01*
X30844Y3885D01*
X30886Y4026D01*
X30896Y4123D01*
D02*
G37*
G36*
X24301Y2984D02*
X24168Y2971D01*
X24041Y2932D01*
X23923Y2869D01*
X23820Y2784D01*
X23735Y2681D01*
X23673Y2564D01*
X23634Y2436D01*
X23621Y2303D01*
X23634Y2170D01*
X23673Y2043D01*
X23735Y1925D01*
X23820Y1822D01*
X23923Y1737D01*
X24041Y1675D01*
X24168Y1636D01*
X24301Y1623D01*
X24434Y1636D01*
X24562Y1675D01*
X24679Y1737D01*
X24782Y1822D01*
X24867Y1925D01*
X24930Y2043D01*
X24969Y2170D01*
X24982Y2303D01*
X24969Y2436D01*
X24930Y2564D01*
X24867Y2681D01*
X24782Y2784D01*
X24679Y2869D01*
X24562Y2932D01*
X24434Y2971D01*
X24301Y2984D01*
D02*
G37*
G36*
X28247Y2942D02*
X27549D01*
X27558Y2845D01*
X27601Y2704D01*
X27671Y2574D01*
X27765Y2460D01*
X27879Y2366D01*
X28009Y2296D01*
X28150Y2253D01*
X28247Y2244D01*
Y2942D01*
D02*
G37*
G36*
X20301Y2984D02*
X20168Y2971D01*
X20041Y2932D01*
X19923Y2869D01*
X19820Y2784D01*
X19735Y2681D01*
X19673Y2564D01*
X19634Y2436D01*
X19621Y2303D01*
X19634Y2170D01*
X19673Y2043D01*
X19735Y1925D01*
X19820Y1822D01*
X19923Y1737D01*
X20041Y1675D01*
X20168Y1636D01*
X20301Y1623D01*
X20434Y1636D01*
X20562Y1675D01*
X20679Y1737D01*
X20782Y1822D01*
X20867Y1925D01*
X20930Y2043D01*
X20969Y2170D01*
X20982Y2303D01*
X20969Y2436D01*
X20930Y2564D01*
X20867Y2681D01*
X20782Y2784D01*
X20679Y2869D01*
X20562Y2932D01*
X20434Y2971D01*
X20301Y2984D01*
D02*
G37*
G36*
X22301D02*
X22168Y2971D01*
X22041Y2932D01*
X21923Y2869D01*
X21820Y2784D01*
X21735Y2681D01*
X21673Y2564D01*
X21634Y2436D01*
X21621Y2303D01*
X21634Y2170D01*
X21673Y2043D01*
X21735Y1925D01*
X21820Y1822D01*
X21923Y1737D01*
X22041Y1675D01*
X22168Y1636D01*
X22301Y1623D01*
X22434Y1636D01*
X22562Y1675D01*
X22679Y1737D01*
X22782Y1822D01*
X22867Y1925D01*
X22930Y2043D01*
X22969Y2170D01*
X22982Y2303D01*
X22969Y2436D01*
X22930Y2564D01*
X22867Y2681D01*
X22782Y2784D01*
X22679Y2869D01*
X22562Y2932D01*
X22434Y2971D01*
X22301Y2984D01*
D02*
G37*
G36*
X29046Y2942D02*
X28347D01*
Y2244D01*
X28444Y2253D01*
X28586Y2296D01*
X28716Y2366D01*
X28830Y2460D01*
X28924Y2574D01*
X28993Y2704D01*
X29036Y2845D01*
X29046Y2942D01*
D02*
G37*
G36*
X35277Y3761D02*
X34830D01*
Y3590D01*
X34843Y3522D01*
X34882Y3464D01*
X34939Y3426D01*
X35007Y3412D01*
X35277D01*
Y3761D01*
D02*
G37*
G36*
X30098Y4123D02*
X29399D01*
X29409Y4026D01*
X29452Y3885D01*
X29521Y3755D01*
X29615Y3641D01*
X29729Y3547D01*
X29859Y3477D01*
X30001Y3434D01*
X30098Y3425D01*
Y4123D01*
D02*
G37*
G36*
X28247Y3740D02*
X28150Y3731D01*
X28009Y3688D01*
X27879Y3618D01*
X27765Y3525D01*
X27671Y3411D01*
X27601Y3280D01*
X27558Y3139D01*
X27549Y3042D01*
X28247D01*
Y3740D01*
D02*
G37*
G36*
X28347D02*
Y3042D01*
X29046D01*
X29036Y3139D01*
X28993Y3280D01*
X28924Y3411D01*
X28830Y3525D01*
X28716Y3618D01*
X28586Y3688D01*
X28444Y3731D01*
X28347Y3740D01*
D02*
G37*
G36*
X30198Y4922D02*
Y4223D01*
X30896D01*
X30886Y4320D01*
X30844Y4461D01*
X30774Y4592D01*
X30680Y4706D01*
X30566Y4800D01*
X30436Y4869D01*
X30295Y4912D01*
X30198Y4922D01*
D02*
G37*
G36*
X24549Y10221D02*
X24322D01*
Y10009D01*
X24443D01*
X24484Y10017D01*
X24518Y10040D01*
X24541Y10074D01*
X24549Y10114D01*
Y10221D01*
D02*
G37*
G36*
X25019Y10496D02*
X24837D01*
X24797Y10488D01*
X24762Y10464D01*
X24739Y10430D01*
X24731Y10389D01*
Y10168D01*
X25019D01*
Y10496D01*
D02*
G37*
G36*
X27157Y10107D02*
X26944D01*
Y9880D01*
X27051D01*
X27092Y9888D01*
X27126Y9911D01*
X27148Y9945D01*
X27157Y9986D01*
Y10107D01*
D02*
G37*
G36*
X24222Y10221D02*
X23995D01*
Y10114D01*
X24003Y10074D01*
X24025Y10040D01*
X24060Y10017D01*
X24100Y10009D01*
X24222D01*
Y10221D01*
D02*
G37*
G36*
X26844Y10434D02*
X26738D01*
X26697Y10426D01*
X26663Y10404D01*
X26640Y10370D01*
X26632Y10329D01*
Y10207D01*
X26844D01*
Y10434D01*
D02*
G37*
G36*
X24443Y10533D02*
X24322D01*
Y10321D01*
X24549D01*
Y10428D01*
X24541Y10468D01*
X24518Y10502D01*
X24484Y10525D01*
X24443Y10533D01*
D02*
G37*
G36*
X2982Y10898D02*
X2887Y10880D01*
X2806Y10826D01*
X2752Y10745D01*
X2733Y10650D01*
X2744Y10598D01*
X1875Y9729D01*
X1846Y9687D01*
X1836Y9636D01*
X1836Y9636D01*
Y6815D01*
X1836Y6815D01*
X1846Y6764D01*
X1875Y6721D01*
X2161Y6435D01*
X2158Y6428D01*
X2132Y6393D01*
X2047Y6410D01*
X1952Y6391D01*
X1871Y6337D01*
X1817Y6257D01*
X1798Y6161D01*
X1817Y6066D01*
X1871Y5985D01*
X1915Y5956D01*
Y5256D01*
X1915Y5256D01*
X1925Y5205D01*
X1954Y5162D01*
X2495Y4621D01*
X2495Y4621D01*
X2538Y4592D01*
X2589Y4582D01*
X2589Y4582D01*
X4893D01*
X4922Y4539D01*
X5003Y4485D01*
X5098Y4466D01*
X5194Y4485D01*
X5274Y4539D01*
X5328Y4619D01*
X5332Y4638D01*
X5380Y4652D01*
X5539Y4493D01*
X5539Y4493D01*
X5582Y4464D01*
X5633Y4454D01*
X5633Y4454D01*
X5641D01*
X5670Y4411D01*
X5751Y4357D01*
X5846Y4338D01*
X5942Y4357D01*
X6022Y4411D01*
X6076Y4491D01*
X6095Y4587D01*
X6076Y4682D01*
X6022Y4763D01*
X5942Y4817D01*
X5846Y4835D01*
X5751Y4817D01*
X5670Y4763D01*
X5647Y4760D01*
X5311Y5096D01*
X5268Y5124D01*
X5217Y5134D01*
X5217Y5134D01*
X2760D01*
X2467Y5427D01*
Y6449D01*
X2467Y6449D01*
X2457Y6500D01*
X2428Y6542D01*
X2101Y6870D01*
Y9581D01*
X2931Y10411D01*
X2982Y10401D01*
X3078Y10420D01*
X3158Y10474D01*
X3212Y10554D01*
X3231Y10650D01*
X3212Y10745D01*
X3158Y10826D01*
X3078Y10880D01*
X2982Y10898D01*
D02*
G37*
G36*
X27051Y10434D02*
X26944D01*
Y10207D01*
X27157D01*
Y10329D01*
X27148Y10370D01*
X27126Y10404D01*
X27092Y10426D01*
X27051Y10434D01*
D02*
G37*
G36*
X24222Y10533D02*
X24100D01*
X24060Y10525D01*
X24025Y10502D01*
X24003Y10468D01*
X23995Y10428D01*
Y10321D01*
X24222D01*
Y10533D01*
D02*
G37*
G36*
X26844Y10107D02*
X26632D01*
Y9986D01*
X26640Y9945D01*
X26663Y9911D01*
X26697Y9888D01*
X26738Y9880D01*
X26844D01*
Y10107D01*
D02*
G37*
G36*
X15955Y6007D02*
X15859Y5988D01*
X15779Y5934D01*
X15725Y5853D01*
X15706Y5758D01*
X15708Y5749D01*
X15540Y5582D01*
X15504Y5527D01*
X15491Y5463D01*
Y4640D01*
X15483Y4635D01*
X15430Y4554D01*
X15411Y4459D01*
X15430Y4363D01*
X15483Y4283D01*
X15564Y4229D01*
X15659Y4210D01*
X15755Y4229D01*
X15835Y4283D01*
X15889Y4363D01*
X15908Y4459D01*
X15889Y4554D01*
X15835Y4635D01*
X15828Y4640D01*
Y5393D01*
X15946Y5511D01*
X15955Y5509D01*
X16050Y5528D01*
X16131Y5582D01*
X16185Y5663D01*
X16204Y5758D01*
X16185Y5853D01*
X16131Y5934D01*
X16050Y5988D01*
X15955Y6007D01*
D02*
G37*
G36*
X3642Y9658D02*
X3546Y9639D01*
X3466Y9585D01*
X3412Y9505D01*
X3393Y9409D01*
X3412Y9314D01*
X3453Y9252D01*
Y7133D01*
X3426Y7115D01*
X3372Y7034D01*
X3353Y6939D01*
X3372Y6844D01*
X3426Y6763D01*
X3507Y6709D01*
X3602Y6690D01*
X3698Y6709D01*
X3778Y6763D01*
X3832Y6844D01*
X3851Y6939D01*
X3832Y7034D01*
X3830Y7037D01*
Y9252D01*
X3872Y9314D01*
X3891Y9409D01*
X3872Y9505D01*
X3818Y9585D01*
X3737Y9639D01*
X3642Y9658D01*
D02*
G37*
G36*
X28297Y6094D02*
X28153Y6080D01*
X28014Y6038D01*
X27886Y5969D01*
X27774Y5877D01*
X27682Y5765D01*
X27614Y5637D01*
X27572Y5499D01*
X27557Y5354D01*
X27572Y5210D01*
X27614Y5071D01*
X27682Y4943D01*
X27774Y4831D01*
X27886Y4739D01*
X28014Y4671D01*
X28153Y4629D01*
X28297Y4615D01*
X28442Y4629D01*
X28580Y4671D01*
X28708Y4739D01*
X28820Y4831D01*
X28912Y4943D01*
X28981Y5071D01*
X29023Y5210D01*
X29037Y5354D01*
X29023Y5499D01*
X28981Y5637D01*
X28912Y5765D01*
X28820Y5877D01*
X28708Y5969D01*
X28580Y6038D01*
X28442Y6080D01*
X28297Y6094D01*
D02*
G37*
G36*
X16301Y2984D02*
X16168Y2971D01*
X16041Y2932D01*
X15923Y2869D01*
X15820Y2784D01*
X15735Y2681D01*
X15673Y2564D01*
X15634Y2436D01*
X15621Y2303D01*
X15634Y2170D01*
X15673Y2043D01*
X15735Y1925D01*
X15820Y1822D01*
X15923Y1737D01*
X16041Y1675D01*
X16168Y1636D01*
X16301Y1623D01*
X16434Y1636D01*
X16562Y1675D01*
X16679Y1737D01*
X16782Y1822D01*
X16867Y1925D01*
X16930Y2043D01*
X16969Y2170D01*
X16982Y2303D01*
X16969Y2436D01*
X16930Y2564D01*
X16867Y2681D01*
X16782Y2784D01*
X16679Y2869D01*
X16562Y2932D01*
X16434Y2971D01*
X16301Y2984D01*
D02*
G37*
G36*
X2421Y9668D02*
X2326Y9649D01*
X2245Y9595D01*
X2191Y9515D01*
X2172Y9419D01*
X2191Y9324D01*
X2245Y9243D01*
X2326Y9189D01*
X2399Y9175D01*
X2863Y8711D01*
Y7106D01*
X2821Y7044D01*
X2802Y6949D01*
X2821Y6854D01*
X2875Y6773D01*
X2956Y6719D01*
X3051Y6700D01*
X3146Y6719D01*
X3227Y6773D01*
X3281Y6854D01*
X3300Y6949D01*
X3281Y7044D01*
X3240Y7106D01*
Y8789D01*
X3225Y8862D01*
X3185Y8923D01*
X3185Y8923D01*
X2666Y9442D01*
X2651Y9515D01*
X2597Y9595D01*
X2517Y9649D01*
X2421Y9668D01*
D02*
G37*
G36*
X26033Y9373D02*
X25938Y9354D01*
X25857Y9300D01*
X25828Y9256D01*
X22794D01*
X22765Y9300D01*
X22684Y9354D01*
X22589Y9373D01*
X22493Y9354D01*
X22413Y9300D01*
X22359Y9219D01*
X22340Y9124D01*
X22359Y9029D01*
X22384Y8991D01*
X22361Y8936D01*
X22336Y8931D01*
X22255Y8877D01*
X22201Y8796D01*
X22182Y8701D01*
X22201Y8606D01*
X22248Y8535D01*
X22248Y8528D01*
X22237Y8498D01*
X22227Y8484D01*
X22149Y8468D01*
X22068Y8414D01*
X22014Y8333D01*
X21995Y8238D01*
X22014Y8143D01*
X22057Y8080D01*
X22026Y8035D01*
X21978Y8044D01*
X21883Y8025D01*
X21802Y7971D01*
X21748Y7891D01*
X21729Y7795D01*
X21748Y7700D01*
X21802Y7619D01*
X21883Y7565D01*
X21978Y7546D01*
X22074Y7565D01*
X22154Y7619D01*
X22183Y7663D01*
X26271D01*
X26300Y7619D01*
X26381Y7565D01*
X26476Y7546D01*
X26572Y7565D01*
X26652Y7619D01*
X26706Y7700D01*
X26725Y7795D01*
X26706Y7891D01*
X26652Y7971D01*
X26572Y8025D01*
X26476Y8044D01*
X26381Y8025D01*
X26300Y7971D01*
X26271Y7928D01*
X22209D01*
X22198Y7948D01*
X22230Y7992D01*
X22244Y7989D01*
X22339Y8008D01*
X22420Y8062D01*
X22449Y8106D01*
X25868D01*
X25897Y8062D01*
X25978Y8008D01*
X26073Y7989D01*
X26168Y8008D01*
X26249Y8062D01*
X26303Y8143D01*
X26322Y8238D01*
X26303Y8333D01*
X26249Y8414D01*
X26168Y8468D01*
X26073Y8487D01*
X25978Y8468D01*
X25897Y8414D01*
X25868Y8371D01*
X22462D01*
X22430Y8409D01*
X22428Y8412D01*
X22438Y8441D01*
X22448Y8455D01*
X22526Y8471D01*
X22607Y8525D01*
X22636Y8568D01*
X26330D01*
X26359Y8525D01*
X26440Y8471D01*
X26535Y8452D01*
X26631Y8471D01*
X26711Y8525D01*
X26765Y8606D01*
X26784Y8701D01*
X26765Y8796D01*
X26711Y8877D01*
X26631Y8931D01*
X26535Y8950D01*
X26440Y8931D01*
X26359Y8877D01*
X26330Y8833D01*
X26079D01*
X26074Y8883D01*
X26129Y8894D01*
X26209Y8948D01*
X26263Y9029D01*
X26282Y9124D01*
X26263Y9219D01*
X26209Y9300D01*
X26129Y9354D01*
X26033Y9373D01*
D02*
G37*
G36*
X25019Y10068D02*
X24731D01*
Y9847D01*
X24739Y9806D01*
X24762Y9772D01*
X24797Y9749D01*
X24837Y9740D01*
X25019D01*
Y10068D01*
D02*
G37*
G36*
X30204Y6739D02*
X30204Y6739D01*
X28093D01*
X28093Y6739D01*
X28042Y6729D01*
X28020Y6714D01*
X27963Y6725D01*
X27867Y6706D01*
X27787Y6652D01*
X27733Y6572D01*
X27714Y6476D01*
X27733Y6381D01*
X27787Y6300D01*
X27867Y6246D01*
X27963Y6227D01*
X28058Y6246D01*
X28139Y6300D01*
X28193Y6381D01*
X28211Y6474D01*
X28586D01*
X28609Y6430D01*
X28599Y6414D01*
X28580Y6319D01*
X28599Y6224D01*
X28653Y6143D01*
X28733Y6089D01*
X28829Y6070D01*
X28924Y6089D01*
X29005Y6143D01*
X29034Y6186D01*
X30191D01*
X31660Y4717D01*
X31703Y4689D01*
X31754Y4679D01*
X34870D01*
X34895Y4618D01*
X34956Y4539D01*
X35036Y4477D01*
X35129Y4439D01*
X35228Y4426D01*
X35425D01*
X35525Y4439D01*
X35618Y4477D01*
X35698Y4539D01*
X35759Y4618D01*
X35797Y4711D01*
X35802Y4744D01*
X35852D01*
X35856Y4711D01*
X35895Y4618D01*
X35956Y4539D01*
X36036Y4477D01*
X36129Y4439D01*
X36228Y4426D01*
X36425D01*
X36525Y4439D01*
X36618Y4477D01*
X36698Y4539D01*
X36759Y4618D01*
X36797Y4711D01*
X36810Y4811D01*
X36797Y4911D01*
X36759Y5004D01*
X36698Y5083D01*
X36618Y5145D01*
X36525Y5183D01*
X36425Y5196D01*
X36228D01*
X36140Y5185D01*
X35985Y5340D01*
X35942Y5368D01*
X35892Y5379D01*
X35892Y5379D01*
X35449D01*
X35446Y5429D01*
X35525Y5439D01*
X35618Y5477D01*
X35698Y5539D01*
X35759Y5618D01*
X35797Y5711D01*
X35802Y5744D01*
X35852D01*
X35856Y5711D01*
X35895Y5618D01*
X35956Y5539D01*
X36036Y5477D01*
X36129Y5439D01*
X36228Y5426D01*
X36425D01*
X36525Y5439D01*
X36618Y5477D01*
X36698Y5539D01*
X36759Y5618D01*
X36797Y5711D01*
X36810Y5811D01*
X36797Y5911D01*
X36759Y6004D01*
X36698Y6083D01*
X36618Y6145D01*
X36525Y6183D01*
X36425Y6196D01*
X36228D01*
X36129Y6183D01*
X36036Y6145D01*
X35956Y6083D01*
X35895Y6004D01*
X35856Y5911D01*
X35852Y5878D01*
X35802D01*
X35797Y5911D01*
X35759Y6004D01*
X35698Y6083D01*
X35618Y6145D01*
X35525Y6183D01*
X35425Y6196D01*
X35228D01*
X35129Y6183D01*
X35036Y6145D01*
X34956Y6083D01*
X34895Y6004D01*
X34856Y5911D01*
X34843Y5811D01*
X34856Y5711D01*
X34895Y5618D01*
X34956Y5539D01*
X35036Y5477D01*
X35129Y5439D01*
X35208Y5429D01*
X35205Y5379D01*
X31619D01*
X30297Y6700D01*
X30254Y6729D01*
X30246Y6730D01*
X30204Y6739D01*
D02*
G37*
G36*
X12303Y2984D02*
X12170Y2971D01*
X12043Y2932D01*
X11925Y2869D01*
X11822Y2784D01*
X11737Y2681D01*
X11674Y2564D01*
X11636Y2436D01*
X11623Y2303D01*
X11636Y2170D01*
X11674Y2043D01*
X11737Y1925D01*
X11822Y1822D01*
X11925Y1737D01*
X12043Y1674D01*
X12170Y1636D01*
X12303Y1623D01*
X12436Y1636D01*
X12564Y1674D01*
X12681Y1737D01*
X12784Y1822D01*
X12869Y1925D01*
X12932Y2043D01*
X12971Y2170D01*
X12984Y2303D01*
X12971Y2436D01*
X12932Y2564D01*
X12869Y2681D01*
X12784Y2784D01*
X12681Y2869D01*
X12564Y2932D01*
X12436Y2971D01*
X12303Y2984D01*
D02*
G37*
G36*
X3948Y19409D02*
X3656D01*
Y19057D01*
X3841D01*
X3882Y19065D01*
X3917Y19088D01*
X3940Y19123D01*
X3948Y19163D01*
Y19409D01*
D02*
G37*
G36*
X3500Y22961D02*
X3048D01*
Y22519D01*
X3056Y22477D01*
X3080Y22441D01*
X3116Y22417D01*
X3158Y22409D01*
X3500D01*
Y22961D01*
D02*
G37*
G36*
X4052D02*
X3600D01*
Y22409D01*
X3942D01*
X3984Y22417D01*
X4020Y22441D01*
X4044Y22477D01*
X4052Y22519D01*
Y22961D01*
D02*
G37*
G36*
X20150Y22528D02*
X19965D01*
X19924Y22520D01*
X19890Y22497D01*
X19866Y22462D01*
X19858Y22421D01*
Y22176D01*
X20150D01*
Y22528D01*
D02*
G37*
G36*
X20436D02*
X20250D01*
Y22176D01*
X20542D01*
Y22421D01*
X20534Y22462D01*
X20511Y22497D01*
X20476Y22520D01*
X20436Y22528D01*
D02*
G37*
G36*
X6995Y22961D02*
X6543D01*
Y22519D01*
X6551Y22477D01*
X6575Y22441D01*
X6611Y22417D01*
X6653Y22409D01*
X6995D01*
Y22961D01*
D02*
G37*
G36*
X11188D02*
X10736D01*
Y22409D01*
X11078D01*
X11120Y22417D01*
X11156Y22441D01*
X11180Y22477D01*
X11188Y22519D01*
Y22961D01*
D02*
G37*
G36*
X14131D02*
X13679D01*
Y22519D01*
X13687Y22477D01*
X13711Y22441D01*
X13747Y22417D01*
X13789Y22409D01*
X14131D01*
Y22961D01*
D02*
G37*
G36*
X7547D02*
X7095D01*
Y22409D01*
X7437D01*
X7479Y22417D01*
X7515Y22441D01*
X7539Y22477D01*
X7547Y22519D01*
Y22961D01*
D02*
G37*
G36*
X10636D02*
X10184D01*
Y22519D01*
X10192Y22477D01*
X10216Y22441D01*
X10252Y22417D01*
X10294Y22409D01*
X10636D01*
Y22961D01*
D02*
G37*
G36*
X26476Y22627D02*
X25956D01*
Y22106D01*
X26055Y22119D01*
X26194Y22177D01*
X26314Y22269D01*
X26406Y22388D01*
X26463Y22528D01*
X26476Y22627D01*
D02*
G37*
G36*
X11566Y22115D02*
X11496Y22106D01*
X11432Y22079D01*
X11376Y22036D01*
X11333Y21981D01*
X11306Y21916D01*
X11297Y21846D01*
X11306Y21777D01*
X11333Y21712D01*
X11376Y21656D01*
X11432Y21613D01*
X11496Y21586D01*
X11566Y21577D01*
X11636Y21586D01*
X11700Y21613D01*
X11756Y21656D01*
X11799Y21712D01*
X11826Y21777D01*
X11835Y21846D01*
X11826Y21916D01*
X11799Y21981D01*
X11756Y22036D01*
X11700Y22079D01*
X11636Y22106D01*
X11566Y22115D01*
D02*
G37*
G36*
X13296D02*
X13226Y22106D01*
X13162Y22079D01*
X13106Y22036D01*
X13063Y21981D01*
X13036Y21916D01*
X13027Y21846D01*
X13036Y21777D01*
X13063Y21712D01*
X13106Y21656D01*
X13162Y21613D01*
X13226Y21586D01*
X13296Y21577D01*
X13366Y21586D01*
X13430Y21613D01*
X13486Y21656D01*
X13529Y21712D01*
X13556Y21777D01*
X13565Y21846D01*
X13556Y21916D01*
X13529Y21981D01*
X13486Y22036D01*
X13430Y22079D01*
X13366Y22106D01*
X13296Y22115D01*
D02*
G37*
G36*
X4430D02*
X4361Y22106D01*
X4296Y22079D01*
X4240Y22036D01*
X4197Y21981D01*
X4170Y21916D01*
X4161Y21846D01*
X4170Y21777D01*
X4197Y21712D01*
X4240Y21656D01*
X4296Y21613D01*
X4361Y21586D01*
X4430Y21577D01*
X4500Y21586D01*
X4565Y21613D01*
X4620Y21656D01*
X4663Y21712D01*
X4690Y21777D01*
X4699Y21846D01*
X4690Y21916D01*
X4663Y21981D01*
X4620Y22036D01*
X4565Y22079D01*
X4500Y22106D01*
X4430Y22115D01*
D02*
G37*
G36*
X6160D02*
X6091Y22106D01*
X6026Y22079D01*
X5970Y22036D01*
X5927Y21981D01*
X5900Y21916D01*
X5891Y21846D01*
X5900Y21777D01*
X5927Y21712D01*
X5970Y21656D01*
X6026Y21613D01*
X6091Y21586D01*
X6160Y21577D01*
X6230Y21586D01*
X6295Y21613D01*
X6350Y21656D01*
X6393Y21712D01*
X6420Y21777D01*
X6429Y21846D01*
X6420Y21916D01*
X6393Y21981D01*
X6350Y22036D01*
X6295Y22079D01*
X6230Y22106D01*
X6160Y22115D01*
D02*
G37*
G36*
X27873Y23241D02*
X27727Y23222D01*
X27591Y23165D01*
X27474Y23076D01*
X27384Y22959D01*
X27328Y22823D01*
X27309Y22677D01*
X27328Y22531D01*
X27384Y22395D01*
X27474Y22278D01*
X27591Y22189D01*
X27684Y22150D01*
Y21770D01*
X27410Y21495D01*
X27369Y21434D01*
X27354Y21362D01*
X27354Y21362D01*
Y20831D01*
X27308D01*
X27272Y20824D01*
X27242Y20804D01*
X27222Y20774D01*
X27215Y20738D01*
Y20154D01*
X27197Y20140D01*
X27167Y20128D01*
X27103Y20171D01*
X27058Y20180D01*
X27035Y20235D01*
X27070Y20289D01*
X27089Y20384D01*
X27070Y20479D01*
X27017Y20560D01*
X26936Y20614D01*
X26841Y20633D01*
X26745Y20614D01*
X26665Y20560D01*
X26611Y20479D01*
X26592Y20384D01*
X26602Y20333D01*
X26543Y20273D01*
X26497Y20293D01*
Y20309D01*
X26497Y20309D01*
X26487Y20360D01*
X26458Y20403D01*
X26458Y20403D01*
X25962Y20899D01*
X25919Y20928D01*
X25868Y20938D01*
X25868Y20938D01*
X24907D01*
X24857Y20928D01*
X24814Y20899D01*
X24814Y20899D01*
X24618Y20703D01*
X19956D01*
X19932Y20747D01*
X19954Y20781D01*
X19973Y20876D01*
X19954Y20971D01*
X19944Y20987D01*
X19967Y21031D01*
X20072D01*
X20109Y20976D01*
X20190Y20922D01*
X20285Y20903D01*
X20381Y20922D01*
X20461Y20976D01*
X20515Y21056D01*
X20534Y21152D01*
X20515Y21247D01*
X20461Y21328D01*
X20381Y21382D01*
X20285Y21400D01*
X20190Y21382D01*
X20109Y21328D01*
X20088Y21296D01*
X19521D01*
X19382Y21436D01*
X19401Y21482D01*
X19460D01*
X19489Y21438D01*
X19570Y21384D01*
X19665Y21365D01*
X19761Y21384D01*
X19841Y21438D01*
X19895Y21519D01*
X19914Y21614D01*
X19899Y21690D01*
X19905Y21700D01*
X19936Y21728D01*
X19938Y21729D01*
X19965Y21724D01*
X20150D01*
Y22076D01*
X19858D01*
Y21839D01*
X19839Y21822D01*
X19811Y21810D01*
X19761Y21844D01*
X19665Y21863D01*
X19570Y21844D01*
X19489Y21790D01*
X19460Y21747D01*
X19316D01*
X18980Y22082D01*
X18937Y22111D01*
X18887Y22121D01*
X18887Y22121D01*
X18473D01*
X18444Y22164D01*
X18363Y22218D01*
X18268Y22237D01*
X18172Y22218D01*
X18092Y22164D01*
X18038Y22083D01*
X18019Y21988D01*
X18038Y21893D01*
X18092Y21812D01*
X18172Y21758D01*
X18226Y21748D01*
X18236Y21695D01*
X18225Y21687D01*
X18171Y21606D01*
X18152Y21511D01*
X18166Y21441D01*
X18118Y21422D01*
X18089Y21465D01*
X18009Y21519D01*
X17913Y21538D01*
X17818Y21519D01*
X17737Y21465D01*
X17683Y21385D01*
X17665Y21289D01*
X17683Y21194D01*
X17737Y21113D01*
X17818Y21059D01*
X17913Y21040D01*
X18009Y21059D01*
X18010Y21060D01*
X18022Y21052D01*
X18010Y20999D01*
X18005Y20998D01*
X17924Y20944D01*
X17870Y20863D01*
X17852Y20768D01*
X17870Y20672D01*
X17924Y20592D01*
X17974Y20558D01*
X17959Y20508D01*
X17865D01*
X17833Y20547D01*
X17834Y20551D01*
X17815Y20646D01*
X17761Y20727D01*
X17680Y20781D01*
X17585Y20800D01*
X17490Y20781D01*
X17409Y20727D01*
X17355Y20646D01*
X17336Y20551D01*
X17355Y20456D01*
X17402Y20385D01*
X17386Y20335D01*
X16827D01*
X16458Y20704D01*
X16415Y20733D01*
X16364Y20743D01*
X16364Y20743D01*
X15992D01*
X15963Y20786D01*
X15883Y20840D01*
X15787Y20859D01*
X15692Y20840D01*
X15611Y20786D01*
X15557Y20705D01*
X15539Y20610D01*
X15557Y20515D01*
X15611Y20434D01*
X15692Y20380D01*
X15787Y20361D01*
X15883Y20380D01*
X15963Y20434D01*
X15992Y20478D01*
X16299D01*
X16317Y20455D01*
X16315Y20442D01*
X16296Y20404D01*
X16214Y20387D01*
X16133Y20333D01*
X16079Y20253D01*
X16060Y20157D01*
X16079Y20062D01*
X16104Y20025D01*
X16077Y19975D01*
X15086D01*
Y20014D01*
X15079Y20049D01*
X15059Y20079D01*
X15029Y20099D01*
X14994Y20106D01*
X14681D01*
X14646Y20099D01*
X14616Y20079D01*
X14596Y20049D01*
X14589Y20014D01*
Y19671D01*
X14596Y19636D01*
X14616Y19606D01*
X14646Y19586D01*
X14681Y19579D01*
X14994D01*
X15029Y19586D01*
X15059Y19606D01*
X15079Y19636D01*
X15086Y19671D01*
Y19710D01*
X19035D01*
X19035Y19710D01*
X19075Y19718D01*
X21687D01*
X21706Y19672D01*
X21340Y19306D01*
X19935D01*
X19893Y19348D01*
X19850Y19376D01*
X19799Y19386D01*
X19799Y19386D01*
X15472D01*
X15472Y19386D01*
X15421Y19376D01*
X15378Y19348D01*
X15378Y19348D01*
X15336Y19306D01*
X15072D01*
X15049Y19321D01*
X15014Y19328D01*
X14700D01*
X14665Y19321D01*
X14636Y19302D01*
X14616Y19272D01*
X14609Y19237D01*
Y18893D01*
X14616Y18858D01*
X14636Y18828D01*
X14665Y18809D01*
X14700Y18802D01*
X15014D01*
X15049Y18809D01*
X15079Y18828D01*
X15094Y18851D01*
X15142Y18841D01*
X15144Y18836D01*
X15135Y18789D01*
X15154Y18694D01*
X15176Y18661D01*
X15153Y18617D01*
X14329D01*
X14300Y18660D01*
X14219Y18714D01*
X14124Y18733D01*
X14029Y18714D01*
X13948Y18660D01*
X13894Y18579D01*
X13875Y18484D01*
X13894Y18389D01*
X13948Y18308D01*
X14029Y18254D01*
X14124Y18235D01*
X14219Y18254D01*
X14300Y18308D01*
X14329Y18352D01*
X19817D01*
X20467Y17702D01*
X20467Y17700D01*
X20451Y17652D01*
X20333D01*
X20304Y17696D01*
X20223Y17750D01*
X20128Y17769D01*
X20033Y17750D01*
X19952Y17696D01*
X19898Y17615D01*
X19879Y17520D01*
X19898Y17424D01*
X19952Y17344D01*
X20033Y17290D01*
X20128Y17271D01*
X20223Y17290D01*
X20304Y17344D01*
X20333Y17387D01*
X20693D01*
X21091Y16990D01*
X21072Y16943D01*
X21004D01*
X20932Y16992D01*
X20837Y17011D01*
X20741Y16992D01*
X20661Y16938D01*
X20607Y16857D01*
X20588Y16762D01*
X20607Y16667D01*
X20661Y16586D01*
X20741Y16532D01*
X20837Y16513D01*
X20932Y16532D01*
X21013Y16586D01*
X21067Y16667D01*
X21069Y16679D01*
X21215D01*
X21230Y16629D01*
X21222Y16623D01*
X21168Y16542D01*
X21149Y16447D01*
X21168Y16352D01*
X21218Y16277D01*
X21210Y16254D01*
X21193Y16231D01*
X21132Y16243D01*
X21037Y16224D01*
X20956Y16170D01*
X20902Y16089D01*
X20883Y15994D01*
X20902Y15899D01*
X20956Y15818D01*
X21037Y15764D01*
X21132Y15745D01*
X21227Y15764D01*
X21260Y15786D01*
X21296Y15750D01*
X21266Y15705D01*
X21247Y15610D01*
X21248Y15604D01*
X21217Y15566D01*
X17364D01*
X17322Y15629D01*
X17241Y15683D01*
X17146Y15702D01*
X17050Y15683D01*
X16970Y15629D01*
X16916Y15548D01*
X16897Y15453D01*
X16916Y15358D01*
X16970Y15277D01*
X17050Y15223D01*
X17146Y15204D01*
X17241Y15223D01*
X17322Y15277D01*
X17338Y15301D01*
X21212D01*
X21283Y15229D01*
X21283Y15229D01*
X21326Y15200D01*
X21377Y15190D01*
X21615D01*
X21615Y15190D01*
X21666Y15200D01*
X21709Y15229D01*
X21780Y15301D01*
X22144D01*
X22175Y15263D01*
Y15210D01*
X22184Y15165D01*
X22202Y15138D01*
X22184Y15110D01*
X22175Y15066D01*
Y15013D01*
X22155Y14989D01*
X17177D01*
X13972Y18194D01*
X13929Y18223D01*
X13878Y18233D01*
X13878Y18233D01*
X12289D01*
X12274Y18283D01*
X12341Y18328D01*
X12395Y18409D01*
X12404Y18455D01*
X12453Y18481D01*
X12457Y18481D01*
X12490Y18474D01*
X13081D01*
X13116Y18481D01*
X13147Y18502D01*
X13167Y18532D01*
X13174Y18568D01*
Y19038D01*
X13167Y19074D01*
X13147Y19104D01*
X13116Y19124D01*
X13081Y19131D01*
X12490D01*
X12455Y19124D01*
X12424Y19104D01*
X12404Y19074D01*
X12397Y19038D01*
Y18978D01*
X12392Y18977D01*
X12331Y18936D01*
X12143Y18748D01*
X12070Y18734D01*
X11997Y18685D01*
X11947Y18700D01*
Y18753D01*
X11595D01*
Y18461D01*
X11840D01*
X11873Y18467D01*
X11890Y18464D01*
X11929Y18441D01*
X11935Y18409D01*
X11989Y18328D01*
X12057Y18283D01*
X12042Y18233D01*
X9897D01*
X9415Y18716D01*
X9372Y18744D01*
X9321Y18755D01*
X9321Y18755D01*
X9206D01*
X9201Y18805D01*
X9208Y18806D01*
X9242Y18829D01*
X9265Y18863D01*
X9273Y18903D01*
Y19025D01*
X8749D01*
Y18903D01*
X8757Y18863D01*
X8779Y18829D01*
X8814Y18806D01*
X8820Y18805D01*
X8815Y18755D01*
X7569D01*
X7569Y18755D01*
X7518Y18744D01*
X7475Y18716D01*
X7347Y18588D01*
X7319Y18545D01*
X7308Y18494D01*
X7308Y18494D01*
Y18452D01*
X7258Y18425D01*
X7246Y18434D01*
X7185Y18446D01*
X7124Y18434D01*
X7104Y18420D01*
X7051Y18409D01*
X6995Y18447D01*
X6979Y18450D01*
Y18002D01*
Y17554D01*
X6995Y17557D01*
X7051Y17595D01*
X7104Y17584D01*
X7124Y17570D01*
X7185Y17558D01*
X7246Y17570D01*
X7277Y17591D01*
X7313Y17600D01*
X7349Y17591D01*
X7380Y17570D01*
X7441Y17558D01*
X7498Y17569D01*
X7509Y17569D01*
X7548Y17548D01*
Y17443D01*
X6312Y16207D01*
X6280Y16159D01*
X6269Y16102D01*
X6269Y16102D01*
Y15779D01*
X6230Y15758D01*
X6219Y15757D01*
X6161Y15769D01*
X6101Y15757D01*
X6080Y15743D01*
X6027Y15732D01*
X5971Y15769D01*
X5956Y15773D01*
Y15325D01*
Y14877D01*
X5963Y14879D01*
X6013Y14852D01*
Y14603D01*
X6013Y14603D01*
X6024Y14546D01*
X6049Y14509D01*
Y14092D01*
X6056Y14056D01*
X6076Y14026D01*
X6106Y14006D01*
X6142Y13999D01*
X6732D01*
X6768Y14006D01*
X6798Y14026D01*
X6818Y14056D01*
X6825Y14092D01*
Y14179D01*
X6901D01*
X6972Y14107D01*
X6966Y14075D01*
X6985Y13980D01*
X7039Y13899D01*
X7119Y13845D01*
X7215Y13826D01*
X7310Y13845D01*
X7391Y13899D01*
X7444Y13980D01*
X7463Y14075D01*
X7444Y14170D01*
X7391Y14251D01*
X7310Y14305D01*
X7215Y14324D01*
X7182Y14317D01*
X7067Y14432D01*
X7019Y14464D01*
X6962Y14476D01*
X6962Y14476D01*
X6825D01*
Y14562D01*
X6818Y14598D01*
X6814Y14605D01*
X6841Y14655D01*
X7133D01*
X7666Y14122D01*
Y12999D01*
X7639Y12981D01*
X7585Y12900D01*
X7566Y12805D01*
X7585Y12710D01*
X7639Y12629D01*
X7720Y12575D01*
X7815Y12556D01*
X7910Y12575D01*
X7991Y12629D01*
X8045Y12710D01*
X8064Y12805D01*
X8045Y12900D01*
X7991Y12981D01*
X7963Y12999D01*
Y14183D01*
X7963Y14183D01*
X7952Y14240D01*
X7920Y14288D01*
X7920Y14288D01*
X7379Y14829D01*
X7380Y14842D01*
X7434Y14882D01*
X7441Y14881D01*
X7502Y14893D01*
X7522Y14907D01*
X7575Y14918D01*
X7631Y14880D01*
X7647Y14877D01*
Y15325D01*
Y15773D01*
X7631Y15769D01*
X7575Y15732D01*
X7522Y15743D01*
X7502Y15757D01*
X7441Y15769D01*
X7380Y15757D01*
X7349Y15735D01*
X7313Y15726D01*
X7277Y15735D01*
X7246Y15757D01*
X7185Y15769D01*
X7124Y15757D01*
X7093Y15735D01*
X7057Y15726D01*
X7022Y15735D01*
X6990Y15757D01*
X6929Y15769D01*
X6868Y15757D01*
X6848Y15743D01*
X6795Y15732D01*
X6739Y15769D01*
X6723Y15773D01*
Y15325D01*
X6623D01*
Y15773D01*
X6616Y15771D01*
X6566Y15797D01*
Y16041D01*
X7672Y17147D01*
X7722D01*
X7730Y17139D01*
X7778Y17107D01*
X7835Y17096D01*
X7835Y17096D01*
X9392D01*
X9411Y17068D01*
X9491Y17014D01*
X9587Y16995D01*
X9682Y17014D01*
X9763Y17068D01*
X9817Y17149D01*
X9835Y17244D01*
X9817Y17339D01*
X9763Y17420D01*
X9682Y17474D01*
X9587Y17493D01*
X9551Y17486D01*
X9526Y17532D01*
X9761Y17767D01*
X9786Y17764D01*
X9798Y17750D01*
X9817Y17712D01*
X9800Y17628D01*
X9819Y17533D01*
X9873Y17452D01*
X9920Y17420D01*
Y16917D01*
X9893Y16898D01*
X9839Y16818D01*
X9820Y16722D01*
X9839Y16627D01*
X9893Y16546D01*
X9974Y16493D01*
X10069Y16474D01*
X10164Y16493D01*
X10245Y16546D01*
X10299Y16627D01*
X10318Y16722D01*
X10299Y16818D01*
X10245Y16898D01*
X10217Y16917D01*
Y17447D01*
X10225Y17452D01*
X10279Y17533D01*
X10298Y17628D01*
X10279Y17723D01*
X10269Y17739D01*
X10292Y17783D01*
X11496D01*
X11519Y17739D01*
X11502Y17713D01*
X11483Y17618D01*
X11502Y17523D01*
X11556Y17442D01*
X11637Y17388D01*
X11710Y17374D01*
X12199Y16884D01*
X12199Y16884D01*
X12260Y16843D01*
X12333Y16829D01*
X12993D01*
X13054Y16788D01*
X13150Y16769D01*
X13245Y16788D01*
X13326Y16842D01*
X13380Y16922D01*
X13398Y17018D01*
X13380Y17113D01*
X13326Y17194D01*
X13245Y17248D01*
X13150Y17267D01*
X13054Y17248D01*
X12993Y17206D01*
X12411D01*
X11977Y17641D01*
X11962Y17713D01*
X11945Y17739D01*
X11969Y17783D01*
X13763D01*
X16994Y14552D01*
X16994Y14552D01*
X17037Y14523D01*
X17088Y14513D01*
X17088Y14513D01*
X22130D01*
X22142Y14499D01*
X22952D01*
X22947Y14525D01*
X22924Y14559D01*
X22934Y14575D01*
X22943Y14619D01*
Y14672D01*
X22934Y14716D01*
X22916Y14744D01*
Y14744D01*
X22916Y14744D01*
X22934Y14772D01*
X22943Y14816D01*
Y14869D01*
X22934Y14913D01*
X22916Y14941D01*
X22916Y14941D01*
X22916Y14941D01*
X22934Y14969D01*
X22943Y15013D01*
Y15066D01*
X22934Y15110D01*
X22916Y15138D01*
X22934Y15165D01*
X22943Y15210D01*
Y15263D01*
X22934Y15307D01*
X22916Y15335D01*
X22916Y15335D01*
Y15335D01*
X22934Y15362D01*
X22943Y15407D01*
Y15460D01*
X22934Y15504D01*
X22916Y15532D01*
X22934Y15559D01*
X22943Y15603D01*
Y15656D01*
X22934Y15701D01*
X22916Y15728D01*
X22916Y15728D01*
Y15728D01*
X22934Y15756D01*
X22943Y15800D01*
Y15853D01*
X22934Y15898D01*
X22916Y15925D01*
X22934Y15953D01*
X22943Y15997D01*
Y16050D01*
X22934Y16094D01*
X22916Y16122D01*
X22916Y16122D01*
D01*
X22934Y16150D01*
X22943Y16194D01*
Y16247D01*
X22934Y16291D01*
X22916Y16319D01*
X22934Y16347D01*
X22943Y16391D01*
Y16444D01*
X22934Y16488D01*
X22916Y16516D01*
X22934Y16543D01*
X22943Y16588D01*
Y16641D01*
X22934Y16685D01*
X22916Y16713D01*
X22934Y16740D01*
X22943Y16784D01*
Y16838D01*
X22934Y16882D01*
X22916Y16909D01*
X22934Y16937D01*
X22943Y16981D01*
Y17034D01*
X22934Y17079D01*
X22916Y17106D01*
X22934Y17134D01*
X22943Y17178D01*
Y17231D01*
X22934Y17275D01*
X22916Y17303D01*
X22934Y17331D01*
X22943Y17375D01*
Y17428D01*
X22934Y17472D01*
X22916Y17500D01*
X22934Y17528D01*
X22943Y17572D01*
Y17625D01*
X22934Y17669D01*
X22916Y17697D01*
X22934Y17725D01*
X22943Y17769D01*
Y17822D01*
X22934Y17866D01*
X22916Y17894D01*
X22934Y17921D01*
X22943Y17966D01*
Y18019D01*
X22934Y18063D01*
X22909Y18100D01*
X22872Y18125D01*
X22828Y18134D01*
X22290D01*
X22246Y18125D01*
X22245Y18125D01*
X22171D01*
X21796Y18500D01*
Y18830D01*
X21839Y18859D01*
X21893Y18940D01*
X21910Y19025D01*
X21931Y19048D01*
X21957Y19065D01*
X21964Y19064D01*
X22071D01*
Y19341D01*
X22121D01*
Y19391D01*
X22383D01*
Y19512D01*
X22401Y19534D01*
X22432D01*
X22473Y19492D01*
Y19169D01*
X22480Y19134D01*
X22500Y19104D01*
X22529Y19084D01*
X22564Y19077D01*
X22614D01*
X22627Y19027D01*
X22578Y18953D01*
X22559Y18857D01*
X22578Y18762D01*
X22631Y18681D01*
X22712Y18628D01*
X22807Y18609D01*
X22903Y18628D01*
X22983Y18681D01*
X23036Y18761D01*
X23041Y18762D01*
X23086Y18752D01*
Y18457D01*
X23086D01*
Y18393D01*
X23095Y18349D01*
X23120Y18311D01*
X23158Y18286D01*
X23202Y18277D01*
X23255D01*
X23299Y18286D01*
X23315Y18297D01*
X23349Y18273D01*
X23375Y18268D01*
Y18661D01*
X23375D01*
Y18661D01*
X23475D01*
Y18268D01*
X23501Y18273D01*
X23536Y18297D01*
Y18297D01*
X23536Y18297D01*
X23551Y18286D01*
X23595Y18277D01*
X23649D01*
X23693Y18286D01*
X23720Y18305D01*
X23748Y18286D01*
X23792Y18277D01*
X23845D01*
X23890Y18286D01*
X23917Y18305D01*
X23917D01*
X23917Y18305D01*
X23945Y18286D01*
X23989Y18277D01*
X24042D01*
X24086Y18286D01*
X24114Y18305D01*
X24142Y18286D01*
X24186Y18277D01*
X24239D01*
X24283Y18286D01*
X24311Y18305D01*
X24311D01*
X24311Y18305D01*
X24339Y18286D01*
X24383Y18277D01*
X24436D01*
X24480Y18286D01*
X24508Y18305D01*
X24536Y18286D01*
X24580Y18277D01*
X24633D01*
X24677Y18286D01*
X24705Y18305D01*
X24705Y18305D01*
X24705Y18305D01*
X24732Y18286D01*
X24777Y18277D01*
X24830D01*
X24874Y18286D01*
X24902Y18305D01*
X24929Y18286D01*
X24973Y18277D01*
X25027D01*
X25071Y18286D01*
X25098Y18305D01*
X25126Y18286D01*
X25170Y18277D01*
X25223D01*
X25268Y18286D01*
X25295Y18305D01*
X25295Y18305D01*
X25295Y18305D01*
X25323Y18286D01*
X25367Y18277D01*
X25420D01*
X25464Y18286D01*
X25492Y18305D01*
X25520Y18286D01*
X25564Y18277D01*
X25617D01*
X25661Y18286D01*
X25689Y18305D01*
X25689Y18305D01*
X25689Y18305D01*
X25717Y18286D01*
X25761Y18277D01*
X25814D01*
X25858Y18286D01*
X25886Y18305D01*
X25914Y18286D01*
X25958Y18277D01*
X26011D01*
X26055Y18286D01*
X26083Y18305D01*
X26083Y18305D01*
X26083D01*
X26110Y18286D01*
X26155Y18277D01*
X26208D01*
X26252Y18286D01*
X26280Y18305D01*
X26307Y18286D01*
X26351Y18277D01*
X26405D01*
X26449Y18286D01*
X26476Y18305D01*
X26476Y18305D01*
X26476D01*
X26504Y18286D01*
X26548Y18277D01*
X26601D01*
X26646Y18286D01*
X26673Y18305D01*
X26701Y18286D01*
X26745Y18277D01*
X26798D01*
X26842Y18286D01*
X26870Y18305D01*
X26870Y18305D01*
X26870D01*
X26898Y18286D01*
X26942Y18277D01*
X26995D01*
X27039Y18286D01*
X27067Y18305D01*
X27095Y18286D01*
X27139Y18277D01*
X27192D01*
X27236Y18286D01*
X27264Y18305D01*
X27264Y18305D01*
D01*
X27291Y18286D01*
X27336Y18277D01*
X27389D01*
X27433Y18286D01*
X27461Y18305D01*
X27488Y18286D01*
X27532Y18277D01*
X27586D01*
X27630Y18286D01*
X27657Y18305D01*
X27685Y18286D01*
X27729Y18277D01*
X27782D01*
X27827Y18286D01*
X27854Y18305D01*
X27882Y18286D01*
X27926Y18277D01*
X27979D01*
X28024Y18286D01*
X28061Y18311D01*
X28086Y18349D01*
X28095Y18393D01*
Y18457D01*
X28095D01*
Y18930D01*
X28093Y18940D01*
X28128Y18981D01*
X28135Y18984D01*
X28225Y19002D01*
X28306Y19056D01*
X28360Y19137D01*
X28379Y19232D01*
X28360Y19328D01*
X28330Y19372D01*
X28357Y19422D01*
X28498D01*
X28533Y19429D01*
X28563Y19448D01*
X28590Y19451D01*
X29188Y18853D01*
X29188Y18853D01*
X29231Y18824D01*
X29281Y18814D01*
X29400D01*
X29432Y18764D01*
X29428Y18744D01*
Y18637D01*
X29705D01*
Y18587D01*
X29755D01*
Y18325D01*
X29877D01*
X29917Y18333D01*
X29951Y18356D01*
X29974Y18390D01*
X29982Y18431D01*
Y18533D01*
X30032Y18537D01*
X30036Y18517D01*
X30090Y18436D01*
X30171Y18382D01*
X30266Y18363D01*
X30361Y18382D01*
X30442Y18436D01*
X30496Y18517D01*
X30515Y18612D01*
X30496Y18707D01*
X30470Y18746D01*
X30500Y18791D01*
X30571Y18777D01*
X30666Y18796D01*
X30747Y18850D01*
X30801Y18930D01*
X30820Y19026D01*
X30801Y19121D01*
X30747Y19202D01*
X30666Y19256D01*
X30571Y19274D01*
X30476Y19256D01*
X30471Y19253D01*
X29478D01*
X29340Y19390D01*
Y19441D01*
X29365D01*
X29400Y19448D01*
X29429Y19468D01*
X29449Y19498D01*
X29456Y19533D01*
Y19877D01*
X29449Y19912D01*
X29429Y19941D01*
X29400Y19961D01*
X29365Y19968D01*
X29339D01*
Y20045D01*
X29441D01*
X29477Y20052D01*
X29507Y20072D01*
X29528Y20102D01*
X29535Y20138D01*
Y20728D01*
X29528Y20764D01*
X29507Y20794D01*
X29477Y20814D01*
X29441Y20821D01*
X28971D01*
X28935Y20814D01*
X28905Y20794D01*
X28885Y20764D01*
X28878Y20728D01*
Y20138D01*
X28885Y20102D01*
X28905Y20072D01*
X28935Y20052D01*
X28971Y20045D01*
X29074D01*
Y19968D01*
X29051D01*
X29016Y19961D01*
X28986Y19941D01*
X28966Y19912D01*
X28960Y19877D01*
Y19533D01*
X28961Y19525D01*
X28915Y19501D01*
X28637Y19779D01*
X28594Y19807D01*
X28590Y19808D01*
Y19857D01*
X28583Y19892D01*
X28563Y19922D01*
X28533Y19941D01*
X28498Y19948D01*
X28475D01*
Y20055D01*
X28578D01*
X28614Y20062D01*
X28644Y20082D01*
X28664Y20112D01*
X28671Y20148D01*
Y20738D01*
X28664Y20774D01*
X28644Y20804D01*
X28614Y20824D01*
X28578Y20831D01*
X28108D01*
X28072Y20824D01*
X28042Y20804D01*
X28022Y20774D01*
X28015Y20738D01*
Y20148D01*
X28022Y20112D01*
X28042Y20082D01*
X28072Y20062D01*
X28108Y20055D01*
X28210D01*
Y19948D01*
X28185D01*
X28149Y19941D01*
X28120Y19922D01*
X28100Y19892D01*
X28093Y19857D01*
Y19513D01*
X28062Y19477D01*
X28011Y19488D01*
X28001Y19500D01*
X28003Y19513D01*
Y19635D01*
X27741D01*
Y19685D01*
X27691D01*
Y19962D01*
X27585D01*
X27544Y19954D01*
X27510Y19931D01*
X27487Y19897D01*
X27479Y19857D01*
Y19790D01*
X27429Y19763D01*
X27379Y19797D01*
X27283Y19816D01*
X27272Y19813D01*
X27240Y19858D01*
X27257Y19941D01*
X27241Y20023D01*
X27257Y20044D01*
X27269Y20054D01*
X27280Y20060D01*
X27308Y20055D01*
X27778D01*
X27814Y20062D01*
X27844Y20082D01*
X27864Y20112D01*
X27871Y20148D01*
Y20738D01*
X27864Y20774D01*
X27844Y20804D01*
X27814Y20824D01*
X27778Y20831D01*
X27732D01*
Y21284D01*
X28006Y21558D01*
X28006Y21558D01*
X28047Y21619D01*
X28061Y21691D01*
X28061Y21691D01*
Y22150D01*
X28154Y22189D01*
X28271Y22278D01*
X28361Y22395D01*
X28417Y22531D01*
X28436Y22677D01*
X28417Y22823D01*
X28361Y22959D01*
X28271Y23076D01*
X28154Y23165D01*
X28018Y23222D01*
X27873Y23241D01*
D02*
G37*
G36*
X9751Y22462D02*
X9458D01*
Y21940D01*
X9860D01*
Y22353D01*
X9852Y22395D01*
X9828Y22430D01*
X9793Y22454D01*
X9751Y22462D01*
D02*
G37*
G36*
X25856Y22627D02*
X25335D01*
X25348Y22528D01*
X25405Y22388D01*
X25497Y22269D01*
X25617Y22177D01*
X25756Y22119D01*
X25856Y22106D01*
Y22627D01*
D02*
G37*
G36*
X20542Y22076D02*
X20250D01*
Y21724D01*
X20436D01*
X20476Y21732D01*
X20511Y21755D01*
X20534Y21790D01*
X20542Y21831D01*
Y22076D01*
D02*
G37*
G36*
X9358Y22462D02*
X9065D01*
X9024Y22454D01*
X8988Y22430D01*
X8964Y22395D01*
X8956Y22353D01*
Y21940D01*
X9358D01*
Y22462D01*
D02*
G37*
G36*
X11078Y23613D02*
X10736D01*
Y23061D01*
X11188D01*
Y23503D01*
X11180Y23545D01*
X11156Y23581D01*
X11120Y23605D01*
X11078Y23613D01*
D02*
G37*
G36*
X14131D02*
X13789D01*
X13747Y23605D01*
X13711Y23581D01*
X13687Y23545D01*
X13679Y23503D01*
Y23061D01*
X14131D01*
Y23613D01*
D02*
G37*
G36*
X7437D02*
X7095D01*
Y23061D01*
X7547D01*
Y23503D01*
X7539Y23545D01*
X7515Y23581D01*
X7479Y23605D01*
X7437Y23613D01*
D02*
G37*
G36*
X10636D02*
X10294D01*
X10252Y23605D01*
X10216Y23581D01*
X10192Y23545D01*
X10184Y23503D01*
Y23061D01*
X10636D01*
Y23613D01*
D02*
G37*
G36*
X14573D02*
X14231D01*
Y23061D01*
X14683D01*
Y23503D01*
X14675Y23545D01*
X14651Y23581D01*
X14615Y23605D01*
X14573Y23613D01*
D02*
G37*
G36*
X19844Y23926D02*
X19775Y23917D01*
X19665Y23871D01*
X19570Y23798D01*
X19497Y23704D01*
X19451Y23593D01*
X19442Y23524D01*
X19844D01*
Y23926D01*
D02*
G37*
G36*
X19944D02*
Y23524D01*
X20345D01*
X20336Y23593D01*
X20291Y23704D01*
X20218Y23798D01*
X20123Y23871D01*
X20012Y23917D01*
X19944Y23926D01*
D02*
G37*
G36*
X18844D02*
X18775Y23917D01*
X18665Y23871D01*
X18570Y23798D01*
X18497Y23704D01*
X18451Y23593D01*
X18442Y23524D01*
X18844D01*
Y23926D01*
D02*
G37*
G36*
X18944D02*
Y23524D01*
X19345D01*
X19336Y23593D01*
X19291Y23704D01*
X19218Y23798D01*
X19123Y23871D01*
X19012Y23917D01*
X18944Y23926D01*
D02*
G37*
G36*
X6995Y23613D02*
X6653D01*
X6611Y23605D01*
X6575Y23581D01*
X6551Y23545D01*
X6543Y23503D01*
Y23061D01*
X6995D01*
Y23613D01*
D02*
G37*
G36*
X25956Y23248D02*
Y22727D01*
X26476D01*
X26463Y22827D01*
X26406Y22966D01*
X26314Y23085D01*
X26194Y23177D01*
X26055Y23235D01*
X25956Y23248D01*
D02*
G37*
G36*
X18844Y23424D02*
X18442D01*
X18451Y23356D01*
X18497Y23245D01*
X18570Y23150D01*
X18665Y23078D01*
X18775Y23032D01*
X18844Y23023D01*
Y23424D01*
D02*
G37*
G36*
X14683Y22961D02*
X14231D01*
Y22409D01*
X14573D01*
X14615Y22417D01*
X14651Y22441D01*
X14675Y22477D01*
X14683Y22519D01*
Y22961D01*
D02*
G37*
G36*
X25856Y23248D02*
X25756Y23235D01*
X25617Y23177D01*
X25497Y23085D01*
X25405Y22966D01*
X25348Y22827D01*
X25335Y22727D01*
X25856D01*
Y23248D01*
D02*
G37*
G36*
X19345Y23424D02*
X18944D01*
Y23023D01*
X19012Y23032D01*
X19123Y23078D01*
X19218Y23150D01*
X19291Y23245D01*
X19336Y23356D01*
X19345Y23424D01*
D02*
G37*
G36*
X3500Y23613D02*
X3158D01*
X3116Y23605D01*
X3080Y23581D01*
X3056Y23545D01*
X3048Y23503D01*
Y23061D01*
X3500D01*
Y23613D01*
D02*
G37*
G36*
X3942D02*
X3600D01*
Y23061D01*
X4052D01*
Y23503D01*
X4044Y23545D01*
X4020Y23581D01*
X3984Y23605D01*
X3942Y23613D01*
D02*
G37*
G36*
X19844Y23424D02*
X19442D01*
X19451Y23356D01*
X19497Y23245D01*
X19570Y23150D01*
X19665Y23078D01*
X19775Y23032D01*
X19844Y23023D01*
Y23424D01*
D02*
G37*
G36*
X20345D02*
X19944D01*
Y23023D01*
X20012Y23032D01*
X20123Y23078D01*
X20218Y23150D01*
X20291Y23245D01*
X20336Y23356D01*
X20345Y23424D01*
D02*
G37*
G36*
X9860Y21840D02*
X9458D01*
Y21318D01*
X9751D01*
X9793Y21326D01*
X9828Y21350D01*
X9852Y21385D01*
X9860Y21427D01*
Y21840D01*
D02*
G37*
G36*
X35277Y20210D02*
X35228D01*
X35125Y20196D01*
X35029Y20156D01*
X34946Y20093D01*
X34883Y20010D01*
X34843Y19914D01*
X34836Y19861D01*
X35277D01*
Y20210D01*
D02*
G37*
G36*
X29843Y23241D02*
X29697Y23222D01*
X29561Y23165D01*
X29444Y23076D01*
X29354Y22959D01*
X29298Y22823D01*
X29279Y22677D01*
X29298Y22531D01*
X29354Y22395D01*
X29444Y22278D01*
X29561Y22189D01*
X29654Y22150D01*
Y21211D01*
X29654Y21211D01*
X29668Y21138D01*
X29709Y21077D01*
X29818Y20969D01*
Y20821D01*
X29771D01*
X29735Y20814D01*
X29705Y20794D01*
X29685Y20764D01*
X29678Y20728D01*
Y20138D01*
X29685Y20102D01*
X29705Y20072D01*
X29735Y20052D01*
X29771Y20045D01*
X30241D01*
X30277Y20052D01*
X30307Y20072D01*
X30328Y20102D01*
X30335Y20138D01*
Y20728D01*
X30328Y20764D01*
X30307Y20794D01*
X30277Y20814D01*
X30241Y20821D01*
X30195D01*
Y21047D01*
X30195Y21047D01*
X30181Y21119D01*
X30140Y21180D01*
X30031Y21289D01*
Y22150D01*
X30124Y22189D01*
X30241Y22278D01*
X30331Y22395D01*
X30387Y22531D01*
X30406Y22677D01*
X30387Y22823D01*
X30331Y22959D01*
X30241Y23076D01*
X30124Y23165D01*
X29988Y23222D01*
X29843Y23241D01*
D02*
G37*
G36*
X29758Y19982D02*
X29651D01*
X29611Y19974D01*
X29577Y19951D01*
X29554Y19917D01*
X29546Y19877D01*
Y19755D01*
X29758D01*
Y19982D01*
D02*
G37*
G36*
X29965D02*
X29858D01*
Y19755D01*
X30070D01*
Y19877D01*
X30062Y19917D01*
X30039Y19951D01*
X30005Y19974D01*
X29965Y19982D01*
D02*
G37*
G36*
X8651Y22448D02*
X7965D01*
X7929Y22441D01*
X7898Y22420D01*
X7877Y22389D01*
X7870Y22353D01*
Y21427D01*
X7877Y21390D01*
X7898Y21359D01*
X7929Y21339D01*
X7965Y21331D01*
X8159D01*
Y20149D01*
X8138Y20145D01*
X8108Y20125D01*
X8088Y20095D01*
X8087Y20090D01*
X6240D01*
X6114Y20216D01*
Y20866D01*
X6114Y20868D01*
Y21364D01*
X6107Y21399D01*
X6087Y21428D01*
X6058Y21448D01*
X6023Y21454D01*
X5827D01*
X5793Y21448D01*
X5768Y21431D01*
X5743Y21448D01*
X5708Y21454D01*
X5512D01*
X5478Y21448D01*
X5453Y21431D01*
X5428Y21448D01*
X5393Y21454D01*
X5197D01*
X5163Y21448D01*
X5138Y21431D01*
X5113Y21448D01*
X5078Y21454D01*
X4882D01*
X4848Y21448D01*
X4835Y21439D01*
X4803Y21460D01*
X4763Y21468D01*
X4715D01*
Y20866D01*
Y20264D01*
X4763D01*
X4782Y20268D01*
X4832Y20236D01*
Y20094D01*
X4584Y19847D01*
X4171D01*
X4135Y19840D01*
X4105Y19820D01*
X4085Y19790D01*
X4078Y19754D01*
Y19163D01*
X4085Y19128D01*
X4105Y19098D01*
X4135Y19077D01*
X4171Y19070D01*
X4641D01*
X4677Y19077D01*
X4707Y19098D01*
X4727Y19128D01*
X4734Y19163D01*
Y19577D01*
X5085Y19928D01*
X5085Y19928D01*
X5097Y19945D01*
X5147Y19930D01*
Y19215D01*
X4425Y18493D01*
X4392Y18445D01*
X4381Y18388D01*
X4381Y18388D01*
Y16579D01*
X4381Y16579D01*
X4392Y16522D01*
X4425Y16474D01*
X4989Y15909D01*
Y15661D01*
X4979Y15610D01*
Y15039D01*
X4991Y14979D01*
X5026Y14927D01*
X5077Y14893D01*
X5138Y14881D01*
X5198Y14893D01*
X5230Y14914D01*
X5266Y14923D01*
X5301Y14914D01*
X5333Y14893D01*
X5394Y14881D01*
X5451Y14892D01*
X5462Y14892D01*
X5501Y14871D01*
Y14564D01*
X5478D01*
X5443Y14557D01*
X5413Y14537D01*
X5393Y14508D01*
X5386Y14473D01*
Y14159D01*
X5393Y14124D01*
X5413Y14094D01*
X5443Y14074D01*
X5478Y14067D01*
X5821D01*
X5856Y14074D01*
X5886Y14094D01*
X5906Y14124D01*
X5913Y14159D01*
Y14473D01*
X5906Y14508D01*
X5886Y14537D01*
X5856Y14557D01*
X5821Y14564D01*
X5798D01*
Y14852D01*
X5848Y14879D01*
X5856Y14877D01*
Y15325D01*
Y15773D01*
X5840Y15769D01*
X5784Y15732D01*
X5731Y15743D01*
X5710Y15757D01*
X5650Y15769D01*
X5592Y15757D01*
X5581Y15758D01*
X5542Y15779D01*
Y16004D01*
X5542Y16004D01*
X5531Y16061D01*
X5499Y16109D01*
X5499Y16109D01*
X4883Y16725D01*
Y18236D01*
X4929Y18282D01*
X4979Y18261D01*
Y17717D01*
X4991Y17656D01*
X5026Y17604D01*
X5077Y17570D01*
X5138Y17558D01*
X5198Y17570D01*
X5230Y17591D01*
X5266Y17600D01*
X5301Y17591D01*
X5333Y17570D01*
X5394Y17558D01*
X5454Y17570D01*
X5486Y17591D01*
X5522Y17600D01*
X5557Y17591D01*
X5589Y17570D01*
X5650Y17558D01*
X5710Y17570D01*
X5742Y17591D01*
X5778Y17600D01*
X5813Y17591D01*
X5845Y17570D01*
X5906Y17558D01*
X5966Y17570D01*
X6018Y17604D01*
X6049D01*
X6101Y17570D01*
X6161Y17558D01*
X6222Y17570D01*
X6254Y17591D01*
X6289Y17600D01*
X6325Y17591D01*
X6357Y17570D01*
X6417Y17558D01*
X6478Y17570D01*
X6529Y17604D01*
X6561D01*
X6613Y17570D01*
X6673Y17558D01*
X6734Y17570D01*
X6755Y17584D01*
X6807Y17595D01*
X6863Y17557D01*
X6879Y17554D01*
Y18002D01*
Y18450D01*
X6863Y18447D01*
X6807Y18409D01*
X6755Y18420D01*
X6734Y18434D01*
X6673Y18446D01*
X6613Y18434D01*
X6561Y18400D01*
X6529D01*
X6478Y18434D01*
X6417Y18446D01*
X6357Y18434D01*
X6325Y18413D01*
X6289Y18404D01*
X6254Y18413D01*
X6222Y18434D01*
X6161Y18446D01*
X6101Y18434D01*
X6049Y18400D01*
X6018D01*
X5966Y18434D01*
X5906Y18446D01*
X5845Y18434D01*
X5813Y18413D01*
X5778Y18404D01*
X5742Y18413D01*
X5710Y18434D01*
X5650Y18446D01*
X5589Y18434D01*
X5557Y18413D01*
X5522Y18404D01*
X5486Y18413D01*
X5454Y18434D01*
X5394Y18446D01*
X5333Y18434D01*
X5301Y18413D01*
X5266Y18404D01*
X5230Y18413D01*
X5198Y18434D01*
X5159Y18442D01*
X5141Y18494D01*
X5715Y19068D01*
X5715Y19068D01*
X5747Y19116D01*
X5759Y19173D01*
X5759Y19173D01*
Y19967D01*
X5809Y19987D01*
X6028Y19768D01*
X6028Y19768D01*
X6089Y19727D01*
X6161Y19713D01*
X6161Y19713D01*
X8081D01*
Y19469D01*
X8088Y19433D01*
X8108Y19403D01*
X8138Y19382D01*
X8174Y19375D01*
X8202D01*
X8205Y19367D01*
X8210Y19325D01*
X8189Y19311D01*
X8169Y19282D01*
X8166Y19263D01*
X8077D01*
X8071Y19291D01*
X8051Y19321D01*
X8021Y19341D01*
X7986Y19348D01*
X7673D01*
X7638Y19341D01*
X7608Y19321D01*
X7588Y19291D01*
X7581Y19256D01*
Y18913D01*
X7588Y18878D01*
X7608Y18848D01*
X7638Y18828D01*
X7673Y18821D01*
X7986D01*
X8021Y18828D01*
X8051Y18848D01*
X8071Y18878D01*
X8073Y18886D01*
X8166D01*
X8169Y18868D01*
X8189Y18838D01*
X8219Y18818D01*
X8254Y18811D01*
X8567D01*
X8602Y18818D01*
X8632Y18838D01*
X8652Y18868D01*
X8659Y18903D01*
Y19247D01*
X8652Y19282D01*
X8632Y19311D01*
X8611Y19325D01*
X8616Y19367D01*
X8620Y19375D01*
X8644D01*
X8680Y19382D01*
X8710Y19403D01*
X8730Y19433D01*
X8737Y19469D01*
Y20059D01*
X8730Y20095D01*
X8710Y20125D01*
X8680Y20145D01*
X8644Y20152D01*
X8536D01*
Y21331D01*
X8651D01*
X8688Y21339D01*
X8719Y21359D01*
X8739Y21390D01*
X8747Y21427D01*
Y22353D01*
X8739Y22389D01*
X8719Y22420D01*
X8688Y22441D01*
X8651Y22448D01*
D02*
G37*
G36*
X6995Y20816D02*
X6543D01*
Y20374D01*
X6551Y20332D01*
X6575Y20296D01*
X6611Y20272D01*
X6653Y20264D01*
X6995D01*
Y20816D01*
D02*
G37*
G36*
X7547D02*
X7095D01*
Y20264D01*
X7437D01*
X7479Y20272D01*
X7515Y20296D01*
X7539Y20332D01*
X7547Y20374D01*
Y20816D01*
D02*
G37*
G36*
X3495D02*
X3043D01*
Y20374D01*
X3051Y20332D01*
X3075Y20296D01*
X3111Y20272D01*
X3153Y20264D01*
X3495D01*
Y20816D01*
D02*
G37*
G36*
X4047D02*
X3595D01*
Y20264D01*
X3937D01*
X3979Y20272D01*
X4015Y20296D01*
X4039Y20332D01*
X4047Y20374D01*
Y20816D01*
D02*
G37*
G36*
X27898Y19962D02*
X27791D01*
Y19735D01*
X28003D01*
Y19857D01*
X27995Y19897D01*
X27973Y19931D01*
X27938Y19954D01*
X27898Y19962D01*
D02*
G37*
G36*
X7386Y19362D02*
X7280D01*
Y19135D01*
X7492D01*
Y19256D01*
X7484Y19297D01*
X7461Y19331D01*
X7427Y19354D01*
X7386Y19362D01*
D02*
G37*
G36*
X35277Y19761D02*
X34836D01*
X34843Y19708D01*
X34883Y19612D01*
X34946Y19529D01*
X35029Y19466D01*
X35125Y19426D01*
X35228Y19412D01*
X35277D01*
Y19761D01*
D02*
G37*
G36*
X22383Y19291D02*
X22171D01*
Y19064D01*
X22278D01*
X22318Y19072D01*
X22352Y19094D01*
X22375Y19128D01*
X22383Y19169D01*
Y19291D01*
D02*
G37*
G36*
X7180Y19362D02*
X7073D01*
X7032Y19354D01*
X6998Y19331D01*
X6976Y19297D01*
X6968Y19256D01*
Y19135D01*
X7180D01*
Y19362D01*
D02*
G37*
G36*
X29758Y19655D02*
X29546D01*
Y19533D01*
X29554Y19493D01*
X29577Y19459D01*
X29611Y19436D01*
X29651Y19428D01*
X29758D01*
Y19655D01*
D02*
G37*
G36*
X3841Y19861D02*
X3656D01*
Y19509D01*
X3948D01*
Y19754D01*
X3940Y19795D01*
X3917Y19829D01*
X3882Y19853D01*
X3841Y19861D01*
D02*
G37*
G36*
X31459Y20237D02*
X31363Y20218D01*
X31283Y20164D01*
X31229Y20083D01*
X31210Y19988D01*
X31229Y19893D01*
X31283Y19812D01*
X31363Y19758D01*
X31459Y19739D01*
X31554Y19758D01*
X31635Y19812D01*
X31678Y19877D01*
X32494D01*
X32645Y19727D01*
X32667Y19694D01*
X32667Y19694D01*
X32704Y19657D01*
X32685Y19611D01*
X32006D01*
X31977Y19654D01*
X31896Y19708D01*
X31801Y19727D01*
X31706Y19708D01*
X31625Y19654D01*
X31571Y19574D01*
X31552Y19478D01*
X31571Y19383D01*
X31625Y19302D01*
X31706Y19248D01*
X31801Y19229D01*
X31896Y19248D01*
X31977Y19302D01*
X32006Y19346D01*
X32770D01*
X33952Y18164D01*
X33952Y18164D01*
X33995Y18135D01*
X34046Y18125D01*
X34046Y18125D01*
X34936D01*
X34950Y18075D01*
X34895Y18004D01*
X34870Y17943D01*
X34006D01*
X33460Y18489D01*
X33383Y18566D01*
X33340Y18595D01*
X33289Y18605D01*
X33289Y18605D01*
X31309D01*
X31280Y18648D01*
X31200Y18702D01*
X31104Y18721D01*
X31009Y18702D01*
X30928Y18648D01*
X30874Y18568D01*
X30855Y18472D01*
X30874Y18377D01*
X30928Y18296D01*
X31009Y18243D01*
X31104Y18224D01*
X31200Y18243D01*
X31280Y18296D01*
X31309Y18340D01*
X33234D01*
X33272Y18302D01*
X33861Y17714D01*
X33861Y17714D01*
X33904Y17685D01*
X33954Y17675D01*
X33972Y17679D01*
X34870D01*
X34895Y17618D01*
X34955Y17540D01*
X34952Y17522D01*
X34942Y17490D01*
X32461D01*
X32328Y17623D01*
X32335Y17633D01*
X32354Y17728D01*
X32335Y17823D01*
X32281Y17904D01*
X32200Y17958D01*
X32105Y17977D01*
X32010Y17958D01*
X31929Y17904D01*
X31875Y17823D01*
X31856Y17728D01*
X31875Y17633D01*
X31929Y17552D01*
X32010Y17498D01*
X32096Y17481D01*
X32313Y17264D01*
X32313Y17264D01*
X32356Y17235D01*
X32406Y17225D01*
X32406Y17225D01*
X35099D01*
X35109Y17175D01*
X35036Y17145D01*
X34956Y17083D01*
X34895Y17004D01*
X34862Y16925D01*
X31831D01*
X31802Y16969D01*
X31721Y17023D01*
X31626Y17042D01*
X31531Y17023D01*
X31450Y16969D01*
X31396Y16888D01*
X31377Y16793D01*
X31396Y16697D01*
X31450Y16617D01*
X31531Y16563D01*
X31626Y16544D01*
X31721Y16563D01*
X31802Y16617D01*
X31831Y16660D01*
X34877D01*
X34895Y16618D01*
X34956Y16539D01*
X35036Y16477D01*
X35129Y16439D01*
X35228Y16426D01*
X35425D01*
X35525Y16439D01*
X35618Y16477D01*
X35698Y16539D01*
X35759Y16618D01*
X35797Y16711D01*
X35802Y16744D01*
X35852D01*
X35856Y16711D01*
X35895Y16618D01*
X35956Y16539D01*
X36036Y16477D01*
X36119Y16443D01*
X36134Y16425D01*
X36149Y16386D01*
X36138Y16331D01*
Y16184D01*
X36129Y16183D01*
X36036Y16145D01*
X35956Y16083D01*
X35895Y16004D01*
X35856Y15911D01*
X35852Y15878D01*
X35802D01*
X35797Y15911D01*
X35759Y16004D01*
X35698Y16083D01*
X35618Y16145D01*
X35525Y16183D01*
X35425Y16196D01*
X35228D01*
X35129Y16183D01*
X35036Y16145D01*
X34956Y16083D01*
X34895Y16004D01*
X34856Y15911D01*
X34843Y15811D01*
X34856Y15711D01*
X34895Y15618D01*
X34956Y15539D01*
X35036Y15477D01*
X35129Y15439D01*
X35228Y15426D01*
X35425D01*
X35525Y15439D01*
X35618Y15477D01*
X35698Y15539D01*
X35759Y15618D01*
X35797Y15711D01*
X35802Y15744D01*
X35852D01*
X35856Y15711D01*
X35895Y15618D01*
X35956Y15539D01*
X36036Y15477D01*
X36129Y15439D01*
X36228Y15426D01*
X36425D01*
X36525Y15439D01*
X36618Y15477D01*
X36698Y15539D01*
X36759Y15618D01*
X36797Y15711D01*
X36810Y15811D01*
X36797Y15911D01*
X36759Y16004D01*
X36698Y16083D01*
X36675Y16101D01*
X36683Y16149D01*
X36687Y16155D01*
X36696Y16156D01*
X36758Y16197D01*
X37039Y16479D01*
X37080Y16540D01*
X37094Y16612D01*
X37094Y16612D01*
Y19010D01*
X37094Y19010D01*
X37080Y19082D01*
X37039Y19143D01*
X36758Y19425D01*
X36696Y19466D01*
X36687Y19468D01*
X36683Y19473D01*
X36675Y19521D01*
X36698Y19539D01*
X36759Y19618D01*
X36797Y19711D01*
X36810Y19811D01*
X36797Y19911D01*
X36759Y20004D01*
X36698Y20083D01*
X36618Y20145D01*
X36525Y20183D01*
X36425Y20196D01*
X36228D01*
X36129Y20183D01*
X36036Y20145D01*
X35956Y20083D01*
X35895Y20004D01*
X35860Y19920D01*
X35827Y19916D01*
X35808Y19920D01*
X35770Y20010D01*
X35707Y20093D01*
X35625Y20156D01*
X35528Y20196D01*
X35425Y20210D01*
X35377D01*
Y19811D01*
Y19412D01*
X35425D01*
X35528Y19426D01*
X35625Y19466D01*
X35707Y19529D01*
X35770Y19612D01*
X35808Y19702D01*
X35827Y19706D01*
X35860Y19702D01*
X35895Y19618D01*
X35956Y19539D01*
X36036Y19477D01*
X36129Y19439D01*
X36138Y19438D01*
Y19291D01*
X36149Y19236D01*
X36134Y19197D01*
X36119Y19179D01*
X36036Y19145D01*
X35956Y19083D01*
X35895Y19004D01*
X35856Y18911D01*
X35852Y18878D01*
X35802D01*
X35797Y18911D01*
X35759Y19004D01*
X35698Y19083D01*
X35618Y19145D01*
X35525Y19183D01*
X35425Y19196D01*
X35228D01*
X35129Y19183D01*
X35036Y19145D01*
X34956Y19083D01*
X34895Y19004D01*
X34856Y18911D01*
X34847Y18840D01*
X33896D01*
X32876Y19859D01*
X32854Y19892D01*
X32854Y19892D01*
X32854Y19892D01*
X32643Y20103D01*
X32643Y20104D01*
X32616Y20122D01*
X32600Y20132D01*
X32600Y20132D01*
X32600Y20132D01*
X32584Y20135D01*
X32549Y20142D01*
X32549Y20142D01*
X31649D01*
X31635Y20164D01*
X31554Y20218D01*
X31459Y20237D01*
D02*
G37*
G36*
X30070Y19655D02*
X29858D01*
Y19428D01*
X29965D01*
X30005Y19436D01*
X30039Y19459D01*
X30062Y19493D01*
X30070Y19533D01*
Y19655D01*
D02*
G37*
G36*
X3556Y19861D02*
X3371D01*
X3330Y19853D01*
X3295Y19829D01*
X3272Y19795D01*
X3264Y19754D01*
Y19509D01*
X3556D01*
Y19861D01*
D02*
G37*
G36*
X11073Y21468D02*
X10731D01*
Y20916D01*
X11183D01*
Y21358D01*
X11175Y21400D01*
X11151Y21436D01*
X11115Y21460D01*
X11073Y21468D01*
D02*
G37*
G36*
X11751Y21468D02*
X11703D01*
X11663Y21460D01*
X11629Y21438D01*
X11607Y21404D01*
X11599Y21364D01*
Y20916D01*
X11751D01*
Y21468D01*
D02*
G37*
G36*
X7437Y21468D02*
X7095D01*
Y20916D01*
X7547D01*
Y21358D01*
X7539Y21400D01*
X7515Y21436D01*
X7479Y21460D01*
X7437Y21468D01*
D02*
G37*
G36*
X10631D02*
X10289D01*
X10247Y21460D01*
X10211Y21436D01*
X10187Y21400D01*
X10179Y21358D01*
Y20916D01*
X10631D01*
Y21468D01*
D02*
G37*
G36*
X14131D02*
X13789D01*
X13747Y21460D01*
X13711Y21436D01*
X13687Y21400D01*
X13679Y21358D01*
Y20916D01*
X14131D01*
Y21468D01*
D02*
G37*
G36*
X20894Y23919D02*
X20779Y23904D01*
X20671Y23860D01*
X20579Y23789D01*
X20509Y23697D01*
X20464Y23590D01*
X20449Y23474D01*
X20464Y23359D01*
X20509Y23252D01*
X20579Y23160D01*
X20671Y23089D01*
X20761Y23052D01*
Y22514D01*
X20730Y22507D01*
X20699Y22487D01*
X20679Y22457D01*
X20672Y22421D01*
Y21831D01*
X20679Y21795D01*
X20699Y21765D01*
X20730Y21745D01*
X20761Y21738D01*
Y21496D01*
X20771Y21445D01*
X20800Y21402D01*
X20843Y21374D01*
X20894Y21364D01*
X21006D01*
X21035Y21320D01*
X21115Y21266D01*
X21211Y21247D01*
X21306Y21266D01*
X21387Y21320D01*
X21441Y21401D01*
X21460Y21496D01*
X21441Y21591D01*
X21387Y21672D01*
X21320Y21717D01*
X21307Y21749D01*
X21309Y21776D01*
X21322Y21795D01*
X21329Y21831D01*
Y22421D01*
X21322Y22457D01*
X21302Y22487D01*
X21271Y22507D01*
X21236Y22514D01*
X21026D01*
Y23052D01*
X21116Y23089D01*
X21208Y23160D01*
X21279Y23252D01*
X21323Y23359D01*
X21338Y23474D01*
X21323Y23590D01*
X21279Y23697D01*
X21208Y23789D01*
X21116Y23860D01*
X21009Y23904D01*
X20894Y23919D01*
D02*
G37*
G36*
X9358Y21840D02*
X8956D01*
Y21427D01*
X8964Y21385D01*
X8988Y21350D01*
X9024Y21326D01*
X9065Y21318D01*
X9358D01*
Y21840D01*
D02*
G37*
G36*
X14573Y21468D02*
X14231D01*
Y20916D01*
X14683D01*
Y21358D01*
X14675Y21400D01*
X14651Y21436D01*
X14615Y21460D01*
X14573Y21468D01*
D02*
G37*
G36*
X21894Y23919D02*
X21779Y23904D01*
X21671Y23860D01*
X21579Y23789D01*
X21509Y23697D01*
X21464Y23590D01*
X21449Y23474D01*
X21464Y23359D01*
X21509Y23252D01*
X21579Y23160D01*
X21671Y23089D01*
X21761Y23052D01*
Y22544D01*
X21629D01*
X21593Y22537D01*
X21563Y22517D01*
X21542Y22486D01*
X21535Y22451D01*
Y21860D01*
X21542Y21825D01*
X21563Y21794D01*
X21593Y21774D01*
X21629Y21767D01*
X21761D01*
Y21702D01*
X21761Y21702D01*
X21771Y21652D01*
X21800Y21609D01*
X22284Y21125D01*
X22284Y21125D01*
X22327Y21096D01*
X22378Y21086D01*
X23581D01*
X23581Y21086D01*
X23631Y21096D01*
X23674Y21125D01*
X23777Y21228D01*
X23829Y21218D01*
X23924Y21237D01*
X24005Y21291D01*
X24059Y21371D01*
X24078Y21467D01*
X24059Y21562D01*
X24005Y21643D01*
X23924Y21696D01*
X23829Y21715D01*
X23733Y21696D01*
X23653Y21643D01*
X23619Y21592D01*
X23567Y21601D01*
X23513Y21682D01*
X23432Y21736D01*
X23337Y21755D01*
X23264Y21740D01*
X23082Y21922D01*
Y23032D01*
X23241D01*
X23277Y23039D01*
X23308Y23060D01*
X23329Y23091D01*
X23336Y23127D01*
Y23822D01*
X23329Y23858D01*
X23308Y23889D01*
X23277Y23910D01*
X23241Y23917D01*
X22546D01*
X22510Y23910D01*
X22479Y23889D01*
X22458Y23858D01*
X22451Y23822D01*
Y23127D01*
X22458Y23091D01*
X22479Y23060D01*
X22510Y23039D01*
X22546Y23032D01*
X22705D01*
Y22544D01*
X22429D01*
X22393Y22537D01*
X22363Y22517D01*
X22342Y22486D01*
X22335Y22451D01*
Y21860D01*
X22342Y21825D01*
X22363Y21794D01*
X22393Y21774D01*
X22429Y21767D01*
X22723D01*
X22760Y21711D01*
X23070Y21401D01*
X23049Y21351D01*
X22432D01*
X22066Y21717D01*
X22087Y21767D01*
X22099D01*
X22135Y21774D01*
X22165Y21794D01*
X22185Y21825D01*
X22192Y21860D01*
Y22451D01*
X22185Y22486D01*
X22165Y22517D01*
X22135Y22537D01*
X22099Y22544D01*
X22026D01*
Y23052D01*
X22116Y23089D01*
X22208Y23160D01*
X22279Y23252D01*
X22323Y23359D01*
X22338Y23474D01*
X22323Y23590D01*
X22279Y23697D01*
X22208Y23789D01*
X22116Y23860D01*
X22009Y23904D01*
X21894Y23919D01*
D02*
G37*
G36*
X6995Y21468D02*
X6653D01*
X6611Y21460D01*
X6575Y21436D01*
X6551Y21400D01*
X6543Y21358D01*
Y20916D01*
X6995D01*
Y21468D01*
D02*
G37*
G36*
X14131Y20816D02*
X13679D01*
Y20374D01*
X13687Y20332D01*
X13711Y20296D01*
X13747Y20272D01*
X13789Y20264D01*
X14131D01*
Y20816D01*
D02*
G37*
G36*
X14683D02*
X14231D01*
Y20264D01*
X14573D01*
X14615Y20272D01*
X14651Y20296D01*
X14675Y20332D01*
X14683Y20374D01*
Y20816D01*
D02*
G37*
G36*
X10631D02*
X10179D01*
Y20374D01*
X10187Y20332D01*
X10211Y20296D01*
X10247Y20272D01*
X10289Y20264D01*
X10631D01*
Y20816D01*
D02*
G37*
G36*
X11183D02*
X10731D01*
Y20264D01*
X11073D01*
X11115Y20272D01*
X11151Y20296D01*
X11175Y20332D01*
X11183Y20374D01*
Y20816D01*
D02*
G37*
G36*
X4615D02*
X4463D01*
Y20368D01*
X4471Y20328D01*
X4494Y20295D01*
X4527Y20272D01*
X4567Y20264D01*
X4615D01*
Y20816D01*
D02*
G37*
G36*
X3937Y21468D02*
X3595D01*
Y20916D01*
X4047D01*
Y21358D01*
X4039Y21400D01*
X4015Y21436D01*
X3979Y21460D01*
X3937Y21468D01*
D02*
G37*
G36*
X4615Y21468D02*
X4567D01*
X4527Y21460D01*
X4494Y21438D01*
X4471Y21404D01*
X4463Y21364D01*
Y20916D01*
X4615D01*
Y21468D01*
D02*
G37*
G36*
X11751Y20816D02*
X11599D01*
Y20368D01*
X11607Y20328D01*
X11629Y20295D01*
X11663Y20272D01*
X11703Y20264D01*
X11751D01*
Y20816D01*
D02*
G37*
G36*
X3495Y21468D02*
X3153D01*
X3111Y21460D01*
X3075Y21436D01*
X3051Y21400D01*
X3043Y21358D01*
Y20916D01*
X3495D01*
Y21468D01*
D02*
G37*
%LPD*%
G36*
X21397Y19037D02*
X21422Y18995D01*
X21433Y18940D01*
X21487Y18859D01*
X21531Y18830D01*
Y18445D01*
X21531Y18445D01*
X21541Y18394D01*
X21570Y18351D01*
X21947Y17974D01*
X21928Y17928D01*
X20616D01*
X19976Y18567D01*
X19977Y18593D01*
X19979Y18609D01*
X19986Y18624D01*
X20058Y18672D01*
X20112Y18753D01*
X20131Y18848D01*
X20112Y18944D01*
X20080Y18991D01*
X20107Y19041D01*
X21366D01*
X21397Y19037D01*
D02*
G37*
G36*
X9668Y18088D02*
X9669Y18076D01*
X9657Y18028D01*
X9629Y18009D01*
X9629Y18009D01*
X9213Y17593D01*
X8697D01*
X8615Y17675D01*
X8623Y17717D01*
Y18287D01*
X8611Y18348D01*
X8577Y18400D01*
X8525Y18434D01*
X8497Y18440D01*
X8502Y18490D01*
X9266D01*
X9668Y18088D01*
D02*
G37*
G36*
X19727Y19094D02*
X19726Y19058D01*
X19714Y19037D01*
X19646D01*
X19573Y19023D01*
X19512Y18982D01*
X19512Y18982D01*
X19508Y18978D01*
X15541D01*
X15479Y19019D01*
X15473Y19072D01*
X15484Y19080D01*
X15526Y19121D01*
X19702D01*
X19727Y19094D01*
D02*
G37*
G36*
X19373Y21070D02*
X19373Y21070D01*
X19390Y21058D01*
X19375Y21008D01*
X18480D01*
X18173Y21315D01*
X18174Y21320D01*
X18225Y21335D01*
X18305Y21281D01*
X18401Y21262D01*
X18496Y21281D01*
X18577Y21335D01*
X18606Y21378D01*
X19064D01*
X19373Y21070D01*
D02*
G37*
G36*
X25247Y19174D02*
Y19065D01*
X25223Y19046D01*
X25170D01*
X25126Y19037D01*
X25098Y19018D01*
X25071Y19037D01*
X25027Y19046D01*
X24973D01*
X24929Y19037D01*
X24902Y19018D01*
X24874Y19037D01*
X24830Y19046D01*
X24777D01*
X24732Y19037D01*
X24705Y19018D01*
X24677Y19037D01*
X24633Y19046D01*
X24580D01*
X24536Y19037D01*
X24508Y19018D01*
X24480Y19037D01*
X24436Y19046D01*
X24383D01*
X24381Y19045D01*
X24331Y19086D01*
Y19563D01*
X24321Y19614D01*
X24292Y19657D01*
X24292Y19657D01*
X24098Y19851D01*
X24117Y19897D01*
X24525D01*
X25247Y19174D01*
D02*
G37*
G36*
X34941Y5064D02*
X34895Y5004D01*
X34870Y4943D01*
X31809D01*
X31685Y5067D01*
X31704Y5114D01*
X34916D01*
X34941Y5064D01*
D02*
G37*
G36*
X7739Y4032D02*
X7835Y4013D01*
X7886Y4023D01*
X8095Y3814D01*
X8095Y3814D01*
X8138Y3785D01*
X8189Y3775D01*
X8189Y3775D01*
X23781D01*
X23786Y3769D01*
X23805Y3728D01*
X23742Y3666D01*
X7949D01*
X7650Y3964D01*
X7660Y4016D01*
X7658Y4026D01*
X7703Y4056D01*
X7739Y4032D01*
D02*
G37*
G36*
X25857Y8948D02*
X25938Y8894D01*
X25993Y8883D01*
X25988Y8833D01*
X22690D01*
X22683Y8843D01*
X22683Y8853D01*
X22702Y8906D01*
X22765Y8948D01*
X22794Y8992D01*
X25828D01*
X25857Y8948D01*
D02*
G37*
G36*
X36717Y17490D02*
Y17132D01*
X36667Y17107D01*
X36618Y17145D01*
X36525Y17183D01*
X36425Y17196D01*
X36228D01*
X36129Y17183D01*
X36036Y17145D01*
X35956Y17083D01*
X35895Y17004D01*
X35856Y16911D01*
X35852Y16878D01*
X35802D01*
X35797Y16911D01*
X35759Y17004D01*
X35698Y17083D01*
X35618Y17145D01*
X35544Y17175D01*
X35554Y17225D01*
X35873D01*
X35873Y17225D01*
X35924Y17235D01*
X35967Y17264D01*
X36140Y17437D01*
X36228Y17426D01*
X36425D01*
X36525Y17439D01*
X36618Y17477D01*
X36667Y17515D01*
X36717Y17490D01*
D02*
G37*
G36*
X22175Y17625D02*
Y17572D01*
X22184Y17528D01*
X22202Y17500D01*
X22184Y17472D01*
X22175Y17428D01*
Y17375D01*
X22184Y17331D01*
X22202Y17303D01*
X22184Y17275D01*
X22175Y17231D01*
Y17178D01*
X22144Y17140D01*
X21315D01*
X20842Y17613D01*
X20842Y17615D01*
X20858Y17663D01*
X22144D01*
X22175Y17625D01*
D02*
G37*
D10*
X8308Y21890D02*
D03*
X9408D02*
D03*
D11*
X8465Y18002D02*
D03*
X8209D02*
D03*
X7953D02*
D03*
X7697D02*
D03*
X7441D02*
D03*
X7185D02*
D03*
X6929D02*
D03*
X6673D02*
D03*
X6417D02*
D03*
X6161D02*
D03*
X5906D02*
D03*
X5650D02*
D03*
X5394D02*
D03*
X5138D02*
D03*
X8465Y15325D02*
D03*
X8209D02*
D03*
X7953D02*
D03*
X7697D02*
D03*
X7441D02*
D03*
X7185D02*
D03*
X6929D02*
D03*
X6673D02*
D03*
X6417D02*
D03*
X6161D02*
D03*
X5906D02*
D03*
X5650D02*
D03*
X5394D02*
D03*
X5138D02*
D03*
D12*
X14837Y19843D02*
D03*
X14237D02*
D03*
X14857Y19065D02*
D03*
X14257D02*
D03*
X22721Y19341D02*
D03*
X22121D02*
D03*
X7830Y19085D02*
D03*
X7230D02*
D03*
X8411Y19075D02*
D03*
X9011D02*
D03*
X26294Y10157D02*
D03*
X26894D02*
D03*
X29208Y19705D02*
D03*
X29808D02*
D03*
X28341Y19685D02*
D03*
X27741D02*
D03*
X26609Y10797D02*
D03*
X27209D02*
D03*
D13*
X25197Y18661D02*
D03*
Y12598D02*
D03*
X23228Y18661D02*
D03*
X23425D02*
D03*
X23622D02*
D03*
X23819D02*
D03*
X24016D02*
D03*
X24213D02*
D03*
X24409D02*
D03*
X24606D02*
D03*
X24803D02*
D03*
X25000D02*
D03*
X25394D02*
D03*
X25591D02*
D03*
X25787D02*
D03*
X25984D02*
D03*
X26181D02*
D03*
X26378D02*
D03*
X26575D02*
D03*
X26772D02*
D03*
X26969D02*
D03*
X27165D02*
D03*
X27362D02*
D03*
X27559D02*
D03*
X27756D02*
D03*
X27953D02*
D03*
X25000Y12598D02*
D03*
X24803D02*
D03*
X24606D02*
D03*
X24409D02*
D03*
X24213D02*
D03*
X24016D02*
D03*
X23819D02*
D03*
X23622D02*
D03*
X23425D02*
D03*
X23228D02*
D03*
X27953D02*
D03*
X27756D02*
D03*
X27559D02*
D03*
X27362D02*
D03*
X27165D02*
D03*
X26969D02*
D03*
X26772D02*
D03*
X26575D02*
D03*
X26378D02*
D03*
X26181D02*
D03*
X25984D02*
D03*
X25787D02*
D03*
X25591D02*
D03*
X25394D02*
D03*
D14*
X22559Y15630D02*
D03*
X28622D02*
D03*
X22559Y16024D02*
D03*
Y16220D02*
D03*
Y16417D02*
D03*
Y16614D02*
D03*
Y16811D02*
D03*
Y17008D02*
D03*
Y17205D02*
D03*
Y17402D02*
D03*
Y17598D02*
D03*
Y17795D02*
D03*
Y17992D02*
D03*
Y15827D02*
D03*
X28622Y16024D02*
D03*
Y17992D02*
D03*
Y17795D02*
D03*
Y17598D02*
D03*
Y17402D02*
D03*
Y17205D02*
D03*
Y17008D02*
D03*
Y16811D02*
D03*
Y16614D02*
D03*
Y16417D02*
D03*
Y16220D02*
D03*
Y15827D02*
D03*
X22559Y13268D02*
D03*
Y13465D02*
D03*
Y13661D02*
D03*
Y13858D02*
D03*
Y14055D02*
D03*
Y14252D02*
D03*
Y14449D02*
D03*
Y14646D02*
D03*
Y14843D02*
D03*
Y15039D02*
D03*
Y15236D02*
D03*
Y15433D02*
D03*
X28622D02*
D03*
Y15236D02*
D03*
Y15039D02*
D03*
Y14843D02*
D03*
Y14646D02*
D03*
Y14449D02*
D03*
Y14252D02*
D03*
Y14055D02*
D03*
Y13858D02*
D03*
Y13661D02*
D03*
Y13465D02*
D03*
Y13268D02*
D03*
D15*
X12785Y19603D02*
D03*
Y18803D02*
D03*
X11545D02*
D03*
Y19603D02*
D03*
X6437Y13527D02*
D03*
Y14327D02*
D03*
D16*
X21864Y22156D02*
D03*
X22664D02*
D03*
X9209Y19764D02*
D03*
X8409D02*
D03*
X3606Y19459D02*
D03*
X4406D02*
D03*
X21000Y22126D02*
D03*
X20200D02*
D03*
X28343Y20443D02*
D03*
X27543D02*
D03*
X29206Y20433D02*
D03*
X30006D02*
D03*
D17*
X5650Y14316D02*
D03*
Y13716D02*
D03*
X24272Y10871D02*
D03*
Y10271D02*
D03*
X29705Y17987D02*
D03*
Y18587D02*
D03*
D18*
X25699Y10984D02*
D03*
X25069D02*
D03*
Y10118D02*
D03*
X25699D02*
D03*
D19*
X13061Y20866D02*
D03*
X12746D02*
D03*
X11801D02*
D03*
X12116D02*
D03*
X12431D02*
D03*
X5925D02*
D03*
X5610D02*
D03*
X4665D02*
D03*
X4980D02*
D03*
X5295D02*
D03*
D20*
X10681D02*
D03*
X10686Y23011D02*
D03*
X14181Y20866D02*
D03*
Y23011D02*
D03*
X3545Y20866D02*
D03*
X3550Y23011D02*
D03*
X7045Y20866D02*
D03*
Y23011D02*
D03*
D21*
X22589Y9124D02*
X26033D01*
X29923Y12590D02*
Y13405D01*
X29273Y14055D02*
X29923Y13405D01*
X29911Y12589D02*
X29921Y12579D01*
X26998Y11565D02*
Y12111D01*
X27152Y12265D01*
X24907Y20805D02*
X25868D01*
X24673Y20571D02*
X24907Y20805D01*
X24979Y20632D02*
X25706D01*
X24723Y20376D02*
X24979Y20632D01*
X18297Y20571D02*
X24673D01*
X24651Y20203D02*
X25577Y19277D01*
X16772Y20203D02*
X24651D01*
X24580Y20030D02*
X25380Y19229D01*
X16437Y20030D02*
X24580D01*
X26364Y18675D02*
Y20309D01*
X25868Y20805D02*
X26364Y20309D01*
X25706Y20632D02*
X26167Y20170D01*
X8888Y13012D02*
Y14331D01*
X6427Y10551D02*
X8888Y13012D01*
X6102Y10551D02*
X6427D01*
X6112Y9656D02*
Y9715D01*
X10718Y6693D02*
Y8061D01*
X12650Y9992D01*
Y10355D01*
X12539Y10466D02*
X12650Y10355D01*
X12539Y10466D02*
Y13259D01*
X13078Y13797D01*
X13600D01*
X13632Y13829D01*
X12362Y10236D02*
Y13327D01*
X13120Y14085D01*
X15787Y20610D02*
X16364D01*
X16772Y20203D01*
X16309Y20157D02*
X16437Y20030D01*
X19872Y18484D02*
X20561Y17795D01*
X17453Y6596D02*
X17480Y6624D01*
Y13376D01*
X17785Y10096D02*
Y13356D01*
X18012Y13583D01*
X18100Y20768D02*
X18297Y20571D01*
X17585Y20551D02*
X17760Y20376D01*
X15718Y10098D02*
Y10108D01*
X16125Y10515D02*
Y13356D01*
X15718Y10108D02*
X16125Y10515D01*
X15952Y10738D02*
Y13560D01*
X15599Y10386D02*
X15952Y10738D01*
X15700Y10080D02*
Y10080D01*
X15335Y6683D02*
Y10121D01*
X15718Y10098D02*
Y10165D01*
X15700Y10080D02*
X15718Y10098D01*
X17760Y20376D02*
X24723D01*
X25207Y20344D02*
X25748D01*
X25581Y19596D02*
Y19911D01*
X25984Y18661D02*
Y20108D01*
X25748Y20344D02*
X25984Y20108D01*
X23911Y19850D02*
X24199Y19563D01*
X19043Y19850D02*
X23911D01*
X19035Y19843D02*
X19043Y19850D01*
X14837Y19843D02*
X19035D01*
X23840Y19677D02*
X24016Y19501D01*
X21899Y19677D02*
X23840D01*
X21395Y19173D02*
X21899Y19677D01*
X25577Y18675D02*
Y19277D01*
X24199Y18675D02*
Y19563D01*
X24016Y18661D02*
Y19501D01*
X25380Y18675D02*
Y19229D01*
X21894Y21702D02*
Y23474D01*
X20894Y21496D02*
X21211D01*
X20894D02*
Y23474D01*
X21211Y21496D02*
X21275Y21432D01*
X28610Y12055D02*
Y12380D01*
X28868Y12638D01*
X28898Y8634D02*
Y10157D01*
X1969Y9636D02*
X2982Y10650D01*
X1969Y6815D02*
Y9636D01*
Y6815D02*
X2335Y6449D01*
Y5372D02*
Y6449D01*
Y5372D02*
X2705Y5002D01*
X5217D01*
X5633Y4587D01*
X5846D01*
X2047Y5256D02*
Y6161D01*
Y5256D02*
X2589Y4715D01*
X5098D01*
X7835Y4262D02*
X8189Y3907D01*
X23783D01*
X6388Y4075D02*
X7276Y3187D01*
X23942Y3360D02*
X31606Y11025D01*
X6565Y4173D02*
X7378Y3360D01*
X23942D01*
X7276Y3187D02*
X24014D01*
X23797Y3533D02*
X28898Y8634D01*
X7894Y3533D02*
X23797D01*
X7411Y4016D02*
X7894Y3533D01*
X23783Y3907D02*
X28012Y8136D01*
Y9587D01*
X6565Y4173D02*
Y5659D01*
X6388Y4075D02*
Y8543D01*
X7165Y6260D02*
X8671D01*
X6565Y5659D02*
X7165Y6260D01*
X6388Y8543D02*
X7106Y9262D01*
X29528Y17500D02*
X29843D01*
X29429Y17402D02*
X29528Y17500D01*
X28622Y17402D02*
X29429D01*
X28691Y12461D02*
X28868Y12638D01*
Y13281D01*
X28819Y13268D02*
X28833Y13281D01*
X28868D01*
X28622Y13268D02*
X28819D01*
X28622Y13661D02*
X29173D01*
X29232Y13602D01*
X28570Y11390D02*
X29309D01*
X27962Y11998D02*
X28570Y11390D01*
X28622Y17795D02*
X29513D01*
X29705Y17987D01*
X21725Y15433D02*
X22559D01*
X20807Y16811D02*
X22559D01*
X20807D02*
X20837Y16782D01*
Y16762D02*
Y16782D01*
X21502Y15616D02*
X22545D01*
X21496Y15610D02*
X21502Y15616D01*
X22545D02*
X22559Y15630D01*
X21102Y16024D02*
X22559D01*
X21102D02*
X21132Y15994D01*
X21398Y16447D02*
X21775D01*
X21260Y17008D02*
X22559D01*
X20748Y17520D02*
X21260Y17008D01*
X22001Y16220D02*
X22559D01*
X21775Y16447D02*
X22001Y16220D01*
X20128Y17520D02*
X20748D01*
X20561Y17795D02*
X22559D01*
X22116Y17992D02*
X22559D01*
X21663Y18445D02*
X22116Y17992D01*
X21663Y18445D02*
Y19035D01*
X22205Y12657D02*
X22441Y12421D01*
X22205Y12657D02*
Y13268D01*
X25581Y19596D02*
X25787Y19390D01*
X26167Y18675D02*
Y20170D01*
X25787Y18661D02*
Y19390D01*
X24213Y18661D02*
X24226Y18675D01*
X24199Y18675D02*
X24213Y18661D01*
X26364Y18675D02*
X26378Y18661D01*
X26167Y18675D02*
X26181Y18661D01*
X25577Y18675D02*
X25591Y18661D01*
X25380Y18675D02*
X25394Y18661D01*
X13808Y19603D02*
X14237Y19173D01*
X12785Y19603D02*
X13808D01*
X13267Y19843D02*
X14237D01*
X13136Y19973D02*
X13267Y19843D01*
X13085Y19973D02*
X13136D01*
X12746Y20312D02*
X13085Y19973D01*
X12746Y20312D02*
Y20866D01*
X22545Y14856D02*
X22559Y14843D01*
X31780Y10953D02*
Y13018D01*
X31433Y12604D02*
Y12875D01*
X30984Y12156D02*
X31433Y12604D01*
X31112Y12722D02*
Y12951D01*
X11611Y19603D02*
X12116Y20108D01*
Y20866D01*
X23720Y19390D02*
X23819Y19291D01*
Y18661D02*
Y19291D01*
X12431Y19957D02*
X12785Y19603D01*
X12431Y19957D02*
Y20866D01*
X23636Y18675D02*
Y19051D01*
X23248Y19439D02*
X23636Y19051D01*
X22771Y19439D02*
X23248D01*
X23622Y18661D02*
X23636Y18675D01*
X25787Y12067D02*
X26575Y11280D01*
X25787Y12067D02*
Y12598D01*
X26575Y11280D02*
X26609Y11245D01*
Y10797D02*
Y11245D01*
X25591Y11555D02*
X25756Y11390D01*
X25591Y11555D02*
Y12598D01*
X25180Y11398D02*
X25394Y11611D01*
X25069Y11959D02*
X25197Y12087D01*
Y12598D01*
X31626Y16793D02*
X35306D01*
X35307Y16791D01*
X31104Y18472D02*
X33289D01*
X33366Y18396D01*
X31606Y11025D02*
Y12946D01*
X29465Y14843D02*
X31433Y12875D01*
X32398Y8522D02*
X34534Y6386D01*
X26238Y10118D02*
Y11138D01*
X27152Y12565D02*
X27175Y12589D01*
X25756Y11390D02*
X25986D01*
X26238Y11138D01*
X25699Y10118D02*
X26238D01*
X24272Y10871D02*
X24956D01*
X25069Y10984D01*
X24272Y10871D02*
X24798Y11398D01*
X25180D01*
X25394Y11611D02*
Y12598D01*
X27756D02*
X27770Y12585D01*
Y12191D02*
Y12585D01*
Y12191D02*
X27962Y11998D01*
X28341Y19685D02*
X28343Y19687D01*
Y20443D01*
X27559Y12598D02*
X27573Y12585D01*
Y12142D02*
Y12585D01*
Y12142D02*
X28052Y11663D01*
X29208Y19335D02*
Y19705D01*
X29206Y19706D02*
X29208Y19705D01*
X29206Y19706D02*
Y20433D01*
X33366Y18396D02*
X33954Y17807D01*
Y17811D01*
X35327D01*
X35223Y18707D02*
X35327Y18811D01*
X33841Y18707D02*
X35223D01*
X32761Y19787D02*
X33841Y18707D01*
X32761Y19787D02*
Y19798D01*
X32549Y20010D02*
X32761Y19798D01*
X31437Y20010D02*
X32549D01*
X31437D02*
X31459Y19988D01*
X28636Y14238D02*
X29335D01*
X28622Y14252D02*
X28636Y14238D01*
X31801Y19478D02*
X32825D01*
X34046Y18257D01*
X35773D01*
X36327Y18811D01*
X35873Y17357D02*
X36327Y17811D01*
X32406Y17357D02*
X35873D01*
X32087Y17677D02*
X32406Y17357D01*
X32087Y17677D02*
X32156D01*
X29417Y14646D02*
X31112Y12951D01*
X28622Y14646D02*
X29417D01*
X28622Y14843D02*
X29465D01*
X35307Y16791D02*
X35327Y16811D01*
X28622Y15039D02*
X29513D01*
X31606Y12946D01*
X28622Y15236D02*
X29562D01*
X31780Y13018D01*
X28622Y15433D02*
X29610D01*
X34534Y6386D02*
X35601D01*
X35623Y6407D01*
X35923D01*
X36327Y6811D01*
X28622Y15827D02*
X29706D01*
X32572Y12961D01*
Y8593D02*
Y12961D01*
Y8593D02*
X34354Y6811D01*
X35327D01*
X34107Y7407D02*
X35031D01*
X35052Y7386D01*
X35601D01*
X35850Y7635D01*
Y7811D01*
X36327D01*
X32918Y8997D02*
X34104Y7811D01*
X35327D01*
X34007Y8407D02*
X35031D01*
X35052Y8386D01*
X35601D01*
X35850Y8635D01*
Y8811D01*
X36327D01*
X28622Y16614D02*
X29898D01*
X33265Y13248D01*
Y9550D02*
Y13248D01*
Y9550D02*
X34007Y8807D01*
X34011Y8811D01*
X35327D01*
X28622Y16811D02*
X29947D01*
X33438Y13320D01*
Y9927D02*
Y13320D01*
Y9927D02*
X34007Y9357D01*
X34036Y9386D01*
X35601D01*
X35850Y9635D01*
Y9811D01*
X36327D01*
X28622Y17008D02*
X29995D01*
X33611Y13392D01*
Y10204D02*
Y13392D01*
Y10204D02*
X34007Y9807D01*
X34011Y9811D01*
X35327D01*
X28622Y17205D02*
X30043D01*
X33784Y13463D01*
Y10481D02*
Y13463D01*
Y10481D02*
X33957Y10307D01*
X35823D01*
X36327Y10811D01*
X15335Y10121D02*
X15599Y10386D01*
X24213Y12598D02*
X24222Y12589D01*
Y11880D02*
Y12589D01*
X22205Y13268D02*
X22559D01*
X26555Y11949D02*
Y12062D01*
X26758Y12265D01*
Y12585D01*
X26772Y12598D01*
X27376Y11608D02*
Y12585D01*
X27362Y12598D02*
X27376Y12585D01*
X23007Y19057D02*
X23157D01*
X23228Y18987D01*
Y18661D02*
Y18987D01*
X27152Y12265D02*
Y12565D01*
X27165Y12598D02*
X27175Y12589D01*
X34154Y10811D02*
X35327D01*
X27165Y18661D02*
Y19026D01*
X27372Y19232D02*
X28130D01*
X27165Y19026D02*
X27372Y19232D01*
X21978Y7795D02*
X26476D01*
X16125Y13356D02*
X16647Y13878D01*
X22226Y14041D02*
X22545D01*
X22559Y14055D01*
X16647Y13878D02*
X22062D01*
X22226Y14041D01*
X15952Y13560D02*
X16427Y14035D01*
X16559D01*
X16575Y14051D01*
X21990D01*
X22545Y14238D02*
X22559Y14252D01*
X21990Y14051D02*
X22177Y14238D01*
X22545D01*
X31754Y4811D02*
X35327D01*
X35892Y5246D02*
X36327Y4811D01*
X31564Y5246D02*
X35892D01*
X17122Y14856D02*
X22545D01*
X17165Y15433D02*
X21267D01*
X21377Y15323D01*
X21615D01*
X21725Y15433D01*
X17146Y15453D02*
X17165Y15433D01*
X26772Y18661D02*
Y19705D01*
X27008Y19941D01*
X34163Y11811D02*
X35327D01*
X26969Y18661D02*
Y19508D01*
X27008Y19547D01*
Y19528D02*
Y19547D01*
Y19528D02*
X27047Y19567D01*
X27283D01*
X22244Y8238D02*
X26073D01*
X34144Y11357D02*
X35873D01*
X36327Y11811D01*
X34154Y12811D02*
X35327D01*
X26575Y20118D02*
X26841Y20384D01*
X26575Y18661D02*
Y20118D01*
X23829Y21467D02*
X23898Y21535D01*
X22378Y21219D02*
X23581D01*
X21894Y21702D02*
X22378Y21219D01*
X23581D02*
X23829Y21467D01*
X18425Y20876D02*
X19724D01*
X18401Y21511D02*
X19119D01*
X19467Y21163D01*
X20274D01*
X20285Y21152D01*
X19261Y21614D02*
X19665D01*
X19880Y19173D02*
X21395D01*
X19799Y19254D02*
X19880Y19173D01*
X15472Y19254D02*
X19799D01*
X14837Y19173D02*
X15391D01*
X15472Y19254D01*
X11545Y19603D02*
X11611D01*
X29803Y11102D02*
X29843Y11142D01*
X28613Y11102D02*
X29803D01*
X28052Y11663D02*
X28613Y11102D01*
X30476Y19120D02*
X30571Y19026D01*
X29931Y18947D02*
X30266Y18612D01*
X29208Y19335D02*
X29423Y19120D01*
X30476D01*
X28341Y19685D02*
X28543D01*
X29281Y18947D01*
X29931D01*
X27376Y11608D02*
X27589Y11396D01*
Y11357D02*
Y11396D01*
X28622Y14449D02*
X29369D01*
X30600Y13217D01*
Y12864D02*
Y13217D01*
X30313Y12384D02*
X30374Y12323D01*
X30313Y12384D02*
Y13260D01*
X29335Y14238D02*
X30313Y13260D01*
X28622Y14055D02*
X29273D01*
X24014Y3187D02*
X31780Y10953D01*
X32745Y8770D02*
X34107Y7407D01*
X28622Y16024D02*
X29754D01*
X28622Y16220D02*
X29802D01*
X28622Y16417D02*
X29850D01*
X33091Y9324D02*
X34007Y8407D01*
X33091Y9324D02*
Y13176D01*
X29850Y16417D02*
X33091Y13176D01*
X32918Y8997D02*
Y13105D01*
X29802Y16220D02*
X32918Y13105D01*
X29754Y16024D02*
X32745Y13033D01*
Y8770D02*
Y13033D01*
X28622Y15630D02*
X29658D01*
X32398Y8522D02*
Y12889D01*
X29658Y15630D02*
X32398Y12889D01*
X29610Y15433D02*
X32087Y12956D01*
Y12785D02*
Y12956D01*
X32067Y12766D02*
X32087Y12785D01*
X14124Y18484D02*
X19872D01*
X22807Y18857D02*
X23007Y19057D01*
X28829Y6319D02*
X30246D01*
X28093Y6606D02*
X30204D01*
X30246Y6319D02*
X31754Y4811D01*
X27963Y6476D02*
X28093Y6606D01*
X30204D02*
X31564Y5246D01*
X18268Y21988D02*
X18887D01*
X19261Y21614D01*
X18012Y21289D02*
X18425Y20876D01*
X17913Y21289D02*
X18012D01*
X22431Y8701D02*
X26535D01*
X6112Y9715D02*
X11102Y14705D01*
X16299D01*
X17088Y14646D02*
X22559D01*
X13878Y18100D02*
X17122Y14856D01*
X9843Y18100D02*
X13878D01*
X13818Y17915D02*
X17088Y14646D01*
X9722Y17915D02*
X13818D01*
X8465Y17638D02*
Y18002D01*
Y17638D02*
X8642Y17461D01*
X9268D01*
X9722Y17915D01*
X7441Y18002D02*
Y18494D01*
X7569Y18622D01*
X9321D01*
X9843Y18100D01*
D22*
X10030Y19232D02*
Y19429D01*
X9695Y19764D02*
X10030Y19429D01*
X9209Y19764D02*
X9695D01*
X6962Y14327D02*
X7215Y14075D01*
X6437Y14327D02*
X6962D01*
X13061Y20561D02*
X13415Y20207D01*
X13061Y20561D02*
Y20866D01*
X4406Y19459D02*
X4980Y20033D01*
Y20866D01*
X10049Y17628D02*
X10069Y17608D01*
Y16722D02*
Y17608D01*
X7815Y12805D02*
Y14183D01*
X7195Y14803D02*
X7815Y14183D01*
X6417Y14911D02*
Y15325D01*
Y14911D02*
X6526Y14803D01*
X7195D01*
X6161Y14603D02*
Y15325D01*
Y14603D02*
X6437Y14327D01*
X5650Y14316D02*
Y15325D01*
X5650Y14316D02*
X5650Y14316D01*
X7697Y17382D02*
Y18002D01*
Y17382D02*
X7835Y17244D01*
X9587D01*
X6417Y15325D02*
Y16102D01*
X7697Y17382D01*
X5610Y19173D02*
Y20866D01*
X4734Y18297D02*
X5610Y19173D01*
X4734Y16663D02*
Y18297D01*
Y16663D02*
X5394Y16004D01*
Y15325D02*
Y16004D01*
X5138Y15325D02*
Y15970D01*
X4530Y16579D02*
X5138Y15970D01*
X4530Y16579D02*
Y18388D01*
X5295Y19153D01*
Y20866D01*
D23*
X22894Y21844D02*
Y23474D01*
X17421Y4390D02*
Y4547D01*
X16939Y5030D02*
X17421Y4547D01*
X21476Y4459D02*
Y6437D01*
X21486Y6447D01*
X19980Y4419D02*
Y4488D01*
X19734Y4734D02*
X19980Y4488D01*
X8799Y4350D02*
Y5423D01*
X36327Y15811D02*
Y16331D01*
X36624D01*
X36906Y16612D01*
Y19010D01*
X36624Y19291D02*
X36906Y19010D01*
X36327Y19291D02*
X36624D01*
X36327D02*
Y19811D01*
X8308Y21890D02*
X8348Y21850D01*
Y19978D02*
Y21850D01*
X8271Y19902D02*
X8348Y19978D01*
X6161Y19902D02*
X8271D01*
X5925Y20138D02*
X6161Y19902D01*
X5925Y20138D02*
Y20866D01*
X3642Y6978D02*
Y9409D01*
X3602Y6939D02*
X3642Y6978D01*
X2421Y9419D02*
X3051Y8789D01*
Y6949D02*
Y8789D01*
X10177Y4833D02*
Y9518D01*
Y4833D02*
X10630Y4380D01*
X9173Y9518D02*
X9567Y9124D01*
Y4350D02*
Y9124D01*
X19734Y4734D02*
Y9370D01*
X15699Y9596D02*
X16939Y8356D01*
Y5030D02*
Y8356D01*
X30006Y20433D02*
Y21047D01*
X29843Y21211D02*
X30006Y21047D01*
X29843Y21211D02*
Y22677D01*
X27543Y20443D02*
Y21362D01*
X27873Y21691D01*
Y22677D01*
X36327Y19811D02*
X36366D01*
X23232Y21506D02*
X23337D01*
X22894Y21844D02*
X23232Y21506D01*
X29237Y18587D02*
X29705D01*
X15384Y18789D02*
X19587D01*
X12333Y17018D02*
X13150D01*
X12464Y18803D02*
X12785D01*
X12165Y18504D02*
X12464Y18803D01*
X7977Y19075D02*
X7987Y19085D01*
X7830D02*
X7987D01*
X7977Y19075D02*
X8396D01*
X8409Y19061D01*
Y19764D01*
X28827Y18161D02*
X29214D01*
X29114Y18711D02*
X29237Y18587D01*
X29065Y18711D02*
X29114D01*
X28700Y18033D02*
X28827Y18161D01*
X19587Y18789D02*
X19646Y18848D01*
Y18848D01*
X19882D01*
X11732Y17618D02*
X12333Y17018D01*
D24*
X15659Y4459D02*
Y5463D01*
X15955Y5758D01*
X12441Y5059D02*
Y6644D01*
Y5059D02*
X13268Y4232D01*
D25*
X24301Y2303D02*
D03*
X22301D02*
D03*
X16301D02*
D03*
X18301D02*
D03*
X20301D02*
D03*
X12303Y2303D02*
D03*
X10303D02*
D03*
X4303D02*
D03*
X6303D02*
D03*
X8303D02*
D03*
D26*
X14301Y2303D02*
D03*
X2303Y2303D02*
D03*
D27*
X22894Y23474D02*
D03*
D28*
X21894D02*
D03*
X19894D02*
D03*
X18894D02*
D03*
X20894D02*
D03*
D29*
X29843Y22677D02*
D03*
X25906D02*
D03*
X27873D02*
D03*
D30*
X30148Y4173D02*
D03*
X28297Y2992D02*
D03*
Y5354D02*
D03*
D31*
X35327Y3811D02*
D03*
D32*
Y4811D02*
D03*
Y5811D02*
D03*
Y6811D02*
D03*
Y7811D02*
D03*
Y8811D02*
D03*
Y9811D02*
D03*
Y10811D02*
D03*
Y11811D02*
D03*
Y12811D02*
D03*
Y13811D02*
D03*
Y14811D02*
D03*
Y15811D02*
D03*
Y16811D02*
D03*
Y17811D02*
D03*
Y18811D02*
D03*
Y19811D02*
D03*
X36327Y3811D02*
D03*
Y4811D02*
D03*
Y5811D02*
D03*
Y6811D02*
D03*
Y7811D02*
D03*
Y8811D02*
D03*
Y9811D02*
D03*
Y10811D02*
D03*
Y11811D02*
D03*
Y12811D02*
D03*
Y13811D02*
D03*
Y14811D02*
D03*
Y15811D02*
D03*
Y16811D02*
D03*
Y17811D02*
D03*
Y18811D02*
D03*
Y19811D02*
D03*
D33*
X22589Y9124D02*
D03*
X29923Y12590D02*
D03*
X26998Y11565D02*
D03*
X10030Y19232D02*
D03*
X10069Y16722D02*
D03*
X7215Y14075D02*
D03*
X8888Y14331D02*
D03*
X13632Y13829D02*
D03*
X13120Y14085D02*
D03*
X12362Y10236D02*
D03*
X10718Y6693D02*
D03*
X15787Y20610D02*
D03*
X16309Y20157D02*
D03*
X14124Y18484D02*
D03*
X17480Y13376D02*
D03*
X18012Y13583D02*
D03*
X18100Y20768D02*
D03*
X17585Y20551D02*
D03*
X17453Y6596D02*
D03*
X17785Y10096D02*
D03*
X15700Y10080D02*
D03*
X25207Y20344D02*
D03*
X25581Y19911D02*
D03*
X21211Y21496D02*
D03*
X28610Y12055D02*
D03*
X28898Y10157D02*
D03*
X25591Y15630D02*
D03*
X9587Y17244D02*
D03*
X13415Y20207D02*
D03*
X5098Y4715D02*
D03*
X5846Y4587D02*
D03*
X7835Y4262D02*
D03*
X7411Y4016D02*
D03*
X15659Y4459D02*
D03*
X17421Y4390D02*
D03*
X21476Y4459D02*
D03*
X19980Y4419D02*
D03*
X28012Y9587D02*
D03*
X8799Y5423D02*
D03*
X8671Y6260D02*
D03*
X7106Y9262D02*
D03*
X30266Y18612D02*
D03*
X29309Y11390D02*
D03*
X29843Y17500D02*
D03*
X30571Y19026D02*
D03*
X6112Y9656D02*
D03*
X2982Y10650D02*
D03*
X6102Y10551D02*
D03*
X2047Y6161D02*
D03*
X20837Y16762D02*
D03*
X21496Y15610D02*
D03*
X21132Y15994D02*
D03*
X21398Y16447D02*
D03*
X22441Y12421D02*
D03*
X20128Y17520D02*
D03*
X32067Y12766D02*
D03*
X31112Y12722D02*
D03*
X21663Y19035D02*
D03*
X23720Y19390D02*
D03*
X26575Y11280D02*
D03*
X25069Y11959D02*
D03*
X32105Y17728D02*
D03*
X31626Y16793D02*
D03*
X31104Y18472D02*
D03*
X31459Y19988D02*
D03*
X29232Y13602D02*
D03*
X12441Y6644D02*
D03*
X13268Y4232D02*
D03*
X15955Y5758D02*
D03*
X31801Y19478D02*
D03*
X30984Y12156D02*
D03*
X15335Y6683D02*
D03*
X3642Y9409D02*
D03*
X2421Y9419D02*
D03*
X3051Y6949D02*
D03*
X10177Y9518D02*
D03*
X10630Y4380D02*
D03*
X8799Y4350D02*
D03*
X9173Y9518D02*
D03*
X9567Y4350D02*
D03*
X19734Y9370D02*
D03*
X21486Y6447D02*
D03*
X15699Y9596D02*
D03*
X24222Y11880D02*
D03*
X26555Y11949D02*
D03*
X26476Y7795D02*
D03*
X27008Y19941D02*
D03*
X27283Y19567D02*
D03*
X34154Y10811D02*
D03*
X28130Y19232D02*
D03*
X27963Y6476D02*
D03*
X21978Y7795D02*
D03*
X16299Y14705D02*
D03*
X17146Y15453D02*
D03*
X22431Y8701D02*
D03*
X34163Y11811D02*
D03*
X22244Y8238D02*
D03*
X26073D02*
D03*
X34144Y11357D02*
D03*
X34154Y12811D02*
D03*
X26033Y9124D02*
D03*
X26841Y20384D02*
D03*
X23829Y21467D02*
D03*
X23337Y21506D02*
D03*
X18401Y21511D02*
D03*
X19724Y20876D02*
D03*
X20285Y21152D02*
D03*
X19665Y21614D02*
D03*
X19882Y18848D02*
D03*
X15384Y18789D02*
D03*
X13150Y17018D02*
D03*
X12165Y18504D02*
D03*
X3602Y6939D02*
D03*
X29843Y11142D02*
D03*
X29214Y18161D02*
D03*
X29065Y18711D02*
D03*
X27589Y11357D02*
D03*
X30600Y12864D02*
D03*
X30374Y12323D02*
D03*
X22807Y18857D02*
D03*
X28829Y6319D02*
D03*
X18268Y21988D02*
D03*
X17913Y21289D02*
D03*
X26535Y8701D02*
D03*
X10049Y17628D02*
D03*
X11732Y17618D02*
D03*
X7815Y12805D02*
D03*
X4281Y8819D02*
D03*
X4301Y7815D02*
D03*
X2411Y8819D02*
D03*
Y7884D02*
D03*
X8612Y8986D02*
D03*
X8583Y7569D02*
D03*
X10866Y8967D02*
D03*
X15827Y8740D02*
D03*
X15817Y7707D02*
D03*
X17116Y9163D02*
D03*
X17785Y7667D02*
D03*
X12569Y9144D02*
D03*
X12559Y8553D02*
D03*
Y7844D02*
D03*
M02*
